M48
; DRILL file {KiCad 7.0.1} date Mon Nov 13 16:16:10 2023
; FORMAT={-:-/ absolute / metric / decimal}
; #@! TF.CreationDate,2023-11-13T16:16:10-05:00
; #@! TF.GenerationSoftware,Kicad,Pcbnew,7.0.1
; #@! TF.FileFunction,Plated,1,4,PTH
FMAT,2
METRIC
; #@! TA.AperFunction,Plated,PTH,ViaDrill
T1C0.400
; #@! TA.AperFunction,Plated,PTH,ComponentDrill
T2C0.500
; #@! TA.AperFunction,Plated,PTH,ViaDrill
T3C0.600
; #@! TA.AperFunction,Plated,PTH,ComponentDrill
T4C1.000
; #@! TA.AperFunction,Plated,PTH,ComponentDrill
T5C1.500
; #@! TA.AperFunction,Plated,PTH,ComponentDrill
T6C1.700
; #@! TA.AperFunction,Plated,PTH,ComponentDrill
T7C1.800
; #@! TA.AperFunction,Plated,PTH,ComponentDrill
T8C2.700
%
G90
G05
T1
X101.0Y-109.0
X101.0Y-119.0
X101.0Y-121.0
X101.0Y-123.0
X101.0Y-125.0
X101.0Y-132.0
X101.0Y-137.0
X101.0Y-142.0
X103.0Y-109.0
X103.0Y-121.0
X103.0Y-123.0
X103.0Y-125.0
X103.0Y-144.0
X104.5Y-111.0
X104.5Y-113.0
X105.0Y-144.0
X107.0Y-135.5
X107.0Y-139.5
X107.0Y-144.0
X109.0Y-144.0
X111.0Y-110.0
X111.0Y-112.0
X111.0Y-114.0
X111.0Y-116.0
X111.0Y-118.0
X111.0Y-120.0
X113.0Y-112.0
X113.0Y-114.0
X113.0Y-116.0
X113.0Y-118.0
X113.0Y-120.0
X113.0Y-122.0
X115.0Y-124.0
X116.0Y-126.0
X116.0Y-128.0
X116.0Y-130.0
X116.5Y-112.5
X118.0Y-126.0
X118.0Y-128.0
X118.0Y-130.0
X118.0Y-132.0
X118.5Y-112.5
X120.0Y-126.0
X120.0Y-128.0
X121.5Y-139.25
X122.5Y-111.5
X122.5Y-113.5
X122.5Y-115.5
X122.5Y-117.5
X122.5Y-119.5
X122.5Y-121.5
X123.0Y-109.0
X124.0Y-124.0
X124.0Y-139.0
X125.0Y-109.0
X126.0Y-124.0
X126.0Y-139.0
X127.0Y-109.0
X128.0Y-124.0
X130.0Y-124.0
X131.0Y-139.0
X132.0Y-109.0
X132.0Y-124.0
X133.0Y-139.0
X134.0Y-115.0
X134.0Y-124.0
X135.0Y-139.0
X136.0Y-124.0
X138.0Y-111.0
X138.0Y-124.0
X140.0Y-107.0
X140.0Y-111.0
X140.0Y-124.0
X140.0Y-139.0
X141.0Y-119.0
X141.0Y-128.0
X141.0Y-130.0
X141.0Y-132.0
X142.0Y-107.0
X142.0Y-111.0
X142.0Y-124.0
X142.0Y-126.0
X142.0Y-134.0
X143.0Y-119.0
X144.0Y-109.0
X144.0Y-111.0
X144.0Y-124.0
X144.0Y-126.0
X144.0Y-134.0
X145.0Y-119.0
X146.0Y-107.0
X146.0Y-109.0
X146.0Y-111.0
X146.0Y-122.0
X146.0Y-124.0
X146.0Y-126.0
X146.0Y-134.0
X146.0Y-139.0
X148.0Y-120.0
X148.0Y-122.0
X148.0Y-124.0
X148.0Y-126.0
X148.0Y-134.0
X148.0Y-139.0
X149.0Y-128.0
X149.0Y-130.0
X149.0Y-132.0
X150.0Y-118.0
X150.0Y-120.0
X150.0Y-122.0
X150.0Y-124.0
X150.0Y-139.0
X152.0Y-122.0
X152.0Y-123.0
X152.0Y-124.0
X152.0Y-125.0
X152.0Y-129.0
X152.0Y-130.0
X152.0Y-131.0
X152.0Y-139.0
X153.0Y-121.0
X153.0Y-122.0
X153.0Y-123.0
X153.0Y-124.0
X153.0Y-125.0
X153.0Y-130.0
X153.75Y-111.5
X153.75Y-113.5
X153.75Y-117.5
X153.75Y-119.5
X154.0Y-139.0
X156.0Y-139.0
X157.5Y-109.5
X158.0Y-121.0
X158.0Y-122.0
X158.0Y-123.0
X158.0Y-124.0
X158.0Y-125.0
X158.0Y-130.0
X158.0Y-139.0
X159.0Y-122.0
X159.0Y-123.0
X159.0Y-124.0
X159.0Y-125.0
X159.0Y-129.0
X159.0Y-130.0
X159.0Y-131.0
X160.0Y-107.0
X160.0Y-109.0
X160.0Y-138.0
X161.0Y-124.0
X161.0Y-126.0
X161.0Y-128.0
X161.0Y-130.0
X161.0Y-132.0
X161.0Y-134.0
X161.0Y-136.0
X162.0Y-107.0
X162.0Y-109.0
X162.0Y-111.0
X162.0Y-113.5
X162.0Y-115.5
X164.0Y-107.0
X164.0Y-109.0
X164.0Y-111.0
X164.0Y-113.5
X164.0Y-115.5
T2
X101.475Y-103.5
X102.068Y-102.068
X102.068Y-104.932
X103.5Y-101.475
X103.5Y-105.525
X104.932Y-102.068
X104.932Y-104.932
X105.525Y-103.5
X159.475Y-103.5
X160.068Y-102.068
X160.068Y-104.932
X161.5Y-101.475
X161.5Y-105.525
X162.932Y-102.068
X162.932Y-104.932
X163.525Y-103.5
T3
X118.5Y-123.5
X122.5Y-128.0
X127.0Y-131.5
X136.0Y-113.0
X136.0Y-116.5
X141.0Y-113.0
X141.0Y-116.5
X144.5Y-138.0
X146.0Y-113.0
X146.0Y-116.5
T4
X103.0Y-129.0
X103.0Y-134.0
X103.0Y-139.0
X108.4Y-102.25
X108.4Y-104.79
X110.94Y-102.25
X110.94Y-104.79
X113.48Y-102.25
X113.48Y-104.79
X116.02Y-102.25
X116.02Y-104.79
X118.56Y-102.25
X118.56Y-104.79
X121.1Y-102.25
X121.1Y-104.79
X123.64Y-102.25
X123.64Y-104.79
X126.18Y-102.25
X126.18Y-104.79
X128.72Y-102.25
X128.72Y-104.79
X130.5Y-129.95
X131.26Y-102.25
X131.26Y-104.79
X133.0Y-129.95
X133.8Y-102.25
X133.8Y-104.79
X135.5Y-129.95
X136.34Y-102.25
X136.34Y-104.79
X138.88Y-102.25
X138.88Y-104.79
X141.42Y-102.25
X141.42Y-104.79
X143.96Y-102.25
X143.96Y-104.79
X146.5Y-102.25
X146.5Y-104.79
X149.04Y-102.25
X149.04Y-104.79
X151.58Y-102.25
X151.58Y-104.79
X154.12Y-102.25
X154.12Y-104.79
X156.66Y-102.25
X156.66Y-104.79
X162.5Y-119.5
T5
X155.6Y-130.0
T6
X153.06Y-127.46
X153.06Y-132.54
X158.14Y-127.46
X158.14Y-132.54
T8
X103.5Y-103.5
X161.5Y-103.5
T4
X102.0Y-111.3G85X102.0Y-113.3
G05
X104.0Y-117.0G85X106.0Y-117.0
G05
X108.0Y-111.3G85X108.0Y-113.3
G05
T7
X128.6Y-136.8G85X128.6Y-137.1
G05
X137.4Y-136.8G85X137.4Y-137.1
G05
T0
M30
