G04 #@! TF.GenerationSoftware,KiCad,Pcbnew,7.0.1*
G04 #@! TF.CreationDate,2023-11-13T16:16:04-05:00*
G04 #@! TF.ProjectId,Radio HAT,52616469-6f20-4484-9154-2e6b69636164,v1.1*
G04 #@! TF.SameCoordinates,Original*
G04 #@! TF.FileFunction,Legend,Top*
G04 #@! TF.FilePolarity,Positive*
%FSLAX46Y46*%
G04 Gerber Fmt 4.6, Leading zero omitted, Abs format (unit mm)*
G04 Created by KiCad (PCBNEW 7.0.1) date 2023-11-13 16:16:04*
%MOMM*%
%LPD*%
G01*
G04 APERTURE LIST*
G04 Aperture macros list*
%AMRoundRect*
0 Rectangle with rounded corners*
0 $1 Rounding radius*
0 $2 $3 $4 $5 $6 $7 $8 $9 X,Y pos of 4 corners*
0 Add a 4 corners polygon primitive as box body*
4,1,4,$2,$3,$4,$5,$6,$7,$8,$9,$2,$3,0*
0 Add four circle primitives for the rounded corners*
1,1,$1+$1,$2,$3*
1,1,$1+$1,$4,$5*
1,1,$1+$1,$6,$7*
1,1,$1+$1,$8,$9*
0 Add four rect primitives between the rounded corners*
20,1,$1+$1,$2,$3,$4,$5,0*
20,1,$1+$1,$4,$5,$6,$7,0*
20,1,$1+$1,$6,$7,$8,$9,0*
20,1,$1+$1,$8,$9,$2,$3,0*%
G04 Aperture macros list end*
%ADD10C,0.150000*%
%ADD11C,0.200000*%
%ADD12C,0.120000*%
%ADD13C,0.127000*%
%ADD14RoundRect,0.250000X0.350000X0.450000X-0.350000X0.450000X-0.350000X-0.450000X0.350000X-0.450000X0*%
%ADD15RoundRect,0.250000X-0.400000X-1.075000X0.400000X-1.075000X0.400000X1.075000X-0.400000X1.075000X0*%
%ADD16C,2.000000*%
%ADD17RoundRect,0.250000X0.450000X-0.350000X0.450000X0.350000X-0.450000X0.350000X-0.450000X-0.350000X0*%
%ADD18R,1.800000X1.800000*%
%ADD19C,1.800000*%
%ADD20RoundRect,0.750000X-0.750000X1.250000X-0.750000X-1.250000X0.750000X-1.250000X0.750000X1.250000X0*%
%ADD21RoundRect,0.250000X-0.475000X0.337500X-0.475000X-0.337500X0.475000X-0.337500X0.475000X0.337500X0*%
%ADD22RoundRect,0.237500X-0.237500X0.300000X-0.237500X-0.300000X0.237500X-0.300000X0.237500X0.300000X0*%
%ADD23RoundRect,0.237500X-0.300000X-0.237500X0.300000X-0.237500X0.300000X0.237500X-0.300000X0.237500X0*%
%ADD24RoundRect,0.250000X-0.450000X0.350000X-0.450000X-0.350000X0.450000X-0.350000X0.450000X0.350000X0*%
%ADD25C,2.050000*%
%ADD26C,2.250000*%
%ADD27RoundRect,0.250000X0.475000X-0.337500X0.475000X0.337500X-0.475000X0.337500X-0.475000X-0.337500X0*%
%ADD28C,0.800000*%
%ADD29C,5.400000*%
%ADD30R,1.700000X1.700000*%
%ADD31O,1.700000X1.700000*%
%ADD32RoundRect,0.250000X-0.350000X0.850000X-0.350000X-0.850000X0.350000X-0.850000X0.350000X0.850000X0*%
%ADD33RoundRect,0.249997X-2.650003X2.950003X-2.650003X-2.950003X2.650003X-2.950003X2.650003X2.950003X0*%
%ADD34RoundRect,0.063500X-1.000000X-0.650000X1.000000X-0.650000X1.000000X0.650000X-1.000000X0.650000X0*%
%ADD35RoundRect,0.063500X-5.750000X-2.350000X5.750000X-2.350000X5.750000X2.350000X-5.750000X2.350000X0*%
%ADD36R,3.500000X3.500000*%
%ADD37RoundRect,0.750000X-0.750000X-1.000000X0.750000X-1.000000X0.750000X1.000000X-0.750000X1.000000X0*%
%ADD38RoundRect,0.875000X-0.875000X-0.875000X0.875000X-0.875000X0.875000X0.875000X-0.875000X0.875000X0*%
%ADD39RoundRect,0.250000X0.325000X0.450000X-0.325000X0.450000X-0.325000X-0.450000X0.325000X-0.450000X0*%
%ADD40RoundRect,0.250000X-0.350000X-0.450000X0.350000X-0.450000X0.350000X0.450000X-0.350000X0.450000X0*%
G04 APERTURE END LIST*
D10*
X140000000Y-137250000D02*
X140000000Y-137750000D01*
X140000000Y-137750000D02*
X162500000Y-137750000D01*
X140000000Y-137250000D02*
X140000000Y-134000000D01*
X131714286Y-136462619D02*
X131714286Y-135462619D01*
X131714286Y-135462619D02*
X131952381Y-135462619D01*
X131952381Y-135462619D02*
X132095238Y-135510238D01*
X132095238Y-135510238D02*
X132190476Y-135605476D01*
X132190476Y-135605476D02*
X132238095Y-135700714D01*
X132238095Y-135700714D02*
X132285714Y-135891190D01*
X132285714Y-135891190D02*
X132285714Y-136034047D01*
X132285714Y-136034047D02*
X132238095Y-136224523D01*
X132238095Y-136224523D02*
X132190476Y-136319761D01*
X132190476Y-136319761D02*
X132095238Y-136415000D01*
X132095238Y-136415000D02*
X131952381Y-136462619D01*
X131952381Y-136462619D02*
X131714286Y-136462619D01*
X132714286Y-136462619D02*
X132714286Y-135462619D01*
X132714286Y-135462619D02*
X133285714Y-136462619D01*
X133285714Y-136462619D02*
X133285714Y-135462619D01*
X133761905Y-136462619D02*
X133761905Y-135462619D01*
X133761905Y-135462619D02*
X134142857Y-135462619D01*
X134142857Y-135462619D02*
X134238095Y-135510238D01*
X134238095Y-135510238D02*
X134285714Y-135557857D01*
X134285714Y-135557857D02*
X134333333Y-135653095D01*
X134333333Y-135653095D02*
X134333333Y-135795952D01*
X134333333Y-135795952D02*
X134285714Y-135891190D01*
X134285714Y-135891190D02*
X134238095Y-135938809D01*
X134238095Y-135938809D02*
X134142857Y-135986428D01*
X134142857Y-135986428D02*
X133761905Y-135986428D01*
X123738095Y-132962619D02*
X123738095Y-131962619D01*
X123738095Y-131962619D02*
X124119047Y-131962619D01*
X124119047Y-131962619D02*
X124214285Y-132010238D01*
X124214285Y-132010238D02*
X124261904Y-132057857D01*
X124261904Y-132057857D02*
X124309523Y-132153095D01*
X124309523Y-132153095D02*
X124309523Y-132295952D01*
X124309523Y-132295952D02*
X124261904Y-132391190D01*
X124261904Y-132391190D02*
X124214285Y-132438809D01*
X124214285Y-132438809D02*
X124119047Y-132486428D01*
X124119047Y-132486428D02*
X123738095Y-132486428D01*
X124928571Y-131962619D02*
X125119047Y-131962619D01*
X125119047Y-131962619D02*
X125214285Y-132010238D01*
X125214285Y-132010238D02*
X125309523Y-132105476D01*
X125309523Y-132105476D02*
X125357142Y-132295952D01*
X125357142Y-132295952D02*
X125357142Y-132629285D01*
X125357142Y-132629285D02*
X125309523Y-132819761D01*
X125309523Y-132819761D02*
X125214285Y-132915000D01*
X125214285Y-132915000D02*
X125119047Y-132962619D01*
X125119047Y-132962619D02*
X124928571Y-132962619D01*
X124928571Y-132962619D02*
X124833333Y-132915000D01*
X124833333Y-132915000D02*
X124738095Y-132819761D01*
X124738095Y-132819761D02*
X124690476Y-132629285D01*
X124690476Y-132629285D02*
X124690476Y-132295952D01*
X124690476Y-132295952D02*
X124738095Y-132105476D01*
X124738095Y-132105476D02*
X124833333Y-132010238D01*
X124833333Y-132010238D02*
X124928571Y-131962619D01*
X125690476Y-131962619D02*
X125928571Y-132962619D01*
X125928571Y-132962619D02*
X126119047Y-132248333D01*
X126119047Y-132248333D02*
X126309523Y-132962619D01*
X126309523Y-132962619D02*
X126547619Y-131962619D01*
X120809523Y-126877619D02*
X120476190Y-126401428D01*
X120238095Y-126877619D02*
X120238095Y-125877619D01*
X120238095Y-125877619D02*
X120619047Y-125877619D01*
X120619047Y-125877619D02*
X120714285Y-125925238D01*
X120714285Y-125925238D02*
X120761904Y-125972857D01*
X120761904Y-125972857D02*
X120809523Y-126068095D01*
X120809523Y-126068095D02*
X120809523Y-126210952D01*
X120809523Y-126210952D02*
X120761904Y-126306190D01*
X120761904Y-126306190D02*
X120714285Y-126353809D01*
X120714285Y-126353809D02*
X120619047Y-126401428D01*
X120619047Y-126401428D02*
X120238095Y-126401428D01*
X121571428Y-126353809D02*
X121238095Y-126353809D01*
X121238095Y-126877619D02*
X121238095Y-125877619D01*
X121238095Y-125877619D02*
X121714285Y-125877619D01*
X122095238Y-126877619D02*
X122095238Y-125877619D01*
X122095238Y-125877619D02*
X122428571Y-126591904D01*
X122428571Y-126591904D02*
X122761904Y-125877619D01*
X122761904Y-125877619D02*
X122761904Y-126877619D01*
X123285714Y-126877619D02*
X123476190Y-126877619D01*
X123476190Y-126877619D02*
X123571428Y-126830000D01*
X123571428Y-126830000D02*
X123619047Y-126782380D01*
X123619047Y-126782380D02*
X123714285Y-126639523D01*
X123714285Y-126639523D02*
X123761904Y-126449047D01*
X123761904Y-126449047D02*
X123761904Y-126068095D01*
X123761904Y-126068095D02*
X123714285Y-125972857D01*
X123714285Y-125972857D02*
X123666666Y-125925238D01*
X123666666Y-125925238D02*
X123571428Y-125877619D01*
X123571428Y-125877619D02*
X123380952Y-125877619D01*
X123380952Y-125877619D02*
X123285714Y-125925238D01*
X123285714Y-125925238D02*
X123238095Y-125972857D01*
X123238095Y-125972857D02*
X123190476Y-126068095D01*
X123190476Y-126068095D02*
X123190476Y-126306190D01*
X123190476Y-126306190D02*
X123238095Y-126401428D01*
X123238095Y-126401428D02*
X123285714Y-126449047D01*
X123285714Y-126449047D02*
X123380952Y-126496666D01*
X123380952Y-126496666D02*
X123571428Y-126496666D01*
X123571428Y-126496666D02*
X123666666Y-126449047D01*
X123666666Y-126449047D02*
X123714285Y-126401428D01*
X123714285Y-126401428D02*
X123761904Y-126306190D01*
X124333333Y-126306190D02*
X124238095Y-126258571D01*
X124238095Y-126258571D02*
X124190476Y-126210952D01*
X124190476Y-126210952D02*
X124142857Y-126115714D01*
X124142857Y-126115714D02*
X124142857Y-126068095D01*
X124142857Y-126068095D02*
X124190476Y-125972857D01*
X124190476Y-125972857D02*
X124238095Y-125925238D01*
X124238095Y-125925238D02*
X124333333Y-125877619D01*
X124333333Y-125877619D02*
X124523809Y-125877619D01*
X124523809Y-125877619D02*
X124619047Y-125925238D01*
X124619047Y-125925238D02*
X124666666Y-125972857D01*
X124666666Y-125972857D02*
X124714285Y-126068095D01*
X124714285Y-126068095D02*
X124714285Y-126115714D01*
X124714285Y-126115714D02*
X124666666Y-126210952D01*
X124666666Y-126210952D02*
X124619047Y-126258571D01*
X124619047Y-126258571D02*
X124523809Y-126306190D01*
X124523809Y-126306190D02*
X124333333Y-126306190D01*
X124333333Y-126306190D02*
X124238095Y-126353809D01*
X124238095Y-126353809D02*
X124190476Y-126401428D01*
X124190476Y-126401428D02*
X124142857Y-126496666D01*
X124142857Y-126496666D02*
X124142857Y-126687142D01*
X124142857Y-126687142D02*
X124190476Y-126782380D01*
X124190476Y-126782380D02*
X124238095Y-126830000D01*
X124238095Y-126830000D02*
X124333333Y-126877619D01*
X124333333Y-126877619D02*
X124523809Y-126877619D01*
X124523809Y-126877619D02*
X124619047Y-126830000D01*
X124619047Y-126830000D02*
X124666666Y-126782380D01*
X124666666Y-126782380D02*
X124714285Y-126687142D01*
X124714285Y-126687142D02*
X124714285Y-126496666D01*
X124714285Y-126496666D02*
X124666666Y-126401428D01*
X124666666Y-126401428D02*
X124619047Y-126353809D01*
X124619047Y-126353809D02*
X124523809Y-126306190D01*
X125142857Y-126877619D02*
X125142857Y-125877619D01*
X125142857Y-125877619D02*
X125523809Y-125877619D01*
X125523809Y-125877619D02*
X125619047Y-125925238D01*
X125619047Y-125925238D02*
X125666666Y-125972857D01*
X125666666Y-125972857D02*
X125714285Y-126068095D01*
X125714285Y-126068095D02*
X125714285Y-126210952D01*
X125714285Y-126210952D02*
X125666666Y-126306190D01*
X125666666Y-126306190D02*
X125619047Y-126353809D01*
X125619047Y-126353809D02*
X125523809Y-126401428D01*
X125523809Y-126401428D02*
X125142857Y-126401428D01*
X126047619Y-125877619D02*
X126285714Y-126877619D01*
X126285714Y-126877619D02*
X126476190Y-126163333D01*
X126476190Y-126163333D02*
X126666666Y-126877619D01*
X126666666Y-126877619D02*
X126904762Y-125877619D01*
X131273809Y-119127619D02*
X131273809Y-119841904D01*
X131273809Y-119841904D02*
X131226190Y-119984761D01*
X131226190Y-119984761D02*
X131130952Y-120080000D01*
X131130952Y-120080000D02*
X130988095Y-120127619D01*
X130988095Y-120127619D02*
X130892857Y-120127619D01*
X132226190Y-120127619D02*
X131750000Y-120127619D01*
X131750000Y-120127619D02*
X131750000Y-119127619D01*
X133130952Y-120032380D02*
X133083333Y-120080000D01*
X133083333Y-120080000D02*
X132940476Y-120127619D01*
X132940476Y-120127619D02*
X132845238Y-120127619D01*
X132845238Y-120127619D02*
X132702381Y-120080000D01*
X132702381Y-120080000D02*
X132607143Y-119984761D01*
X132607143Y-119984761D02*
X132559524Y-119889523D01*
X132559524Y-119889523D02*
X132511905Y-119699047D01*
X132511905Y-119699047D02*
X132511905Y-119556190D01*
X132511905Y-119556190D02*
X132559524Y-119365714D01*
X132559524Y-119365714D02*
X132607143Y-119270476D01*
X132607143Y-119270476D02*
X132702381Y-119175238D01*
X132702381Y-119175238D02*
X132845238Y-119127619D01*
X132845238Y-119127619D02*
X132940476Y-119127619D01*
X132940476Y-119127619D02*
X133083333Y-119175238D01*
X133083333Y-119175238D02*
X133130952Y-119222857D01*
X133845238Y-119127619D02*
X133845238Y-119841904D01*
X133845238Y-119841904D02*
X133797619Y-119984761D01*
X133797619Y-119984761D02*
X133702381Y-120080000D01*
X133702381Y-120080000D02*
X133559524Y-120127619D01*
X133559524Y-120127619D02*
X133464286Y-120127619D01*
X134797619Y-120127619D02*
X134321429Y-120127619D01*
X134321429Y-120127619D02*
X134321429Y-119127619D01*
X135702381Y-120032380D02*
X135654762Y-120080000D01*
X135654762Y-120080000D02*
X135511905Y-120127619D01*
X135511905Y-120127619D02*
X135416667Y-120127619D01*
X135416667Y-120127619D02*
X135273810Y-120080000D01*
X135273810Y-120080000D02*
X135178572Y-119984761D01*
X135178572Y-119984761D02*
X135130953Y-119889523D01*
X135130953Y-119889523D02*
X135083334Y-119699047D01*
X135083334Y-119699047D02*
X135083334Y-119556190D01*
X135083334Y-119556190D02*
X135130953Y-119365714D01*
X135130953Y-119365714D02*
X135178572Y-119270476D01*
X135178572Y-119270476D02*
X135273810Y-119175238D01*
X135273810Y-119175238D02*
X135416667Y-119127619D01*
X135416667Y-119127619D02*
X135511905Y-119127619D01*
X135511905Y-119127619D02*
X135654762Y-119175238D01*
X135654762Y-119175238D02*
X135702381Y-119222857D01*
X136416667Y-119127619D02*
X136416667Y-119841904D01*
X136416667Y-119841904D02*
X136369048Y-119984761D01*
X136369048Y-119984761D02*
X136273810Y-120080000D01*
X136273810Y-120080000D02*
X136130953Y-120127619D01*
X136130953Y-120127619D02*
X136035715Y-120127619D01*
X137369048Y-120127619D02*
X136892858Y-120127619D01*
X136892858Y-120127619D02*
X136892858Y-119127619D01*
X138273810Y-120032380D02*
X138226191Y-120080000D01*
X138226191Y-120080000D02*
X138083334Y-120127619D01*
X138083334Y-120127619D02*
X137988096Y-120127619D01*
X137988096Y-120127619D02*
X137845239Y-120080000D01*
X137845239Y-120080000D02*
X137750001Y-119984761D01*
X137750001Y-119984761D02*
X137702382Y-119889523D01*
X137702382Y-119889523D02*
X137654763Y-119699047D01*
X137654763Y-119699047D02*
X137654763Y-119556190D01*
X137654763Y-119556190D02*
X137702382Y-119365714D01*
X137702382Y-119365714D02*
X137750001Y-119270476D01*
X137750001Y-119270476D02*
X137845239Y-119175238D01*
X137845239Y-119175238D02*
X137988096Y-119127619D01*
X137988096Y-119127619D02*
X138083334Y-119127619D01*
X138083334Y-119127619D02*
X138226191Y-119175238D01*
X138226191Y-119175238D02*
X138273810Y-119222857D01*
X138988096Y-119127619D02*
X138988096Y-119841904D01*
X138988096Y-119841904D02*
X138940477Y-119984761D01*
X138940477Y-119984761D02*
X138845239Y-120080000D01*
X138845239Y-120080000D02*
X138702382Y-120127619D01*
X138702382Y-120127619D02*
X138607144Y-120127619D01*
X139940477Y-120127619D02*
X139464287Y-120127619D01*
X139464287Y-120127619D02*
X139464287Y-119127619D01*
X140845239Y-120032380D02*
X140797620Y-120080000D01*
X140797620Y-120080000D02*
X140654763Y-120127619D01*
X140654763Y-120127619D02*
X140559525Y-120127619D01*
X140559525Y-120127619D02*
X140416668Y-120080000D01*
X140416668Y-120080000D02*
X140321430Y-119984761D01*
X140321430Y-119984761D02*
X140273811Y-119889523D01*
X140273811Y-119889523D02*
X140226192Y-119699047D01*
X140226192Y-119699047D02*
X140226192Y-119556190D01*
X140226192Y-119556190D02*
X140273811Y-119365714D01*
X140273811Y-119365714D02*
X140321430Y-119270476D01*
X140321430Y-119270476D02*
X140416668Y-119175238D01*
X140416668Y-119175238D02*
X140559525Y-119127619D01*
X140559525Y-119127619D02*
X140654763Y-119127619D01*
X140654763Y-119127619D02*
X140797620Y-119175238D01*
X140797620Y-119175238D02*
X140845239Y-119222857D01*
X105462619Y-130333332D02*
X106462619Y-129999999D01*
X106462619Y-129999999D02*
X105462619Y-129666666D01*
X106367380Y-128761904D02*
X106415000Y-128809523D01*
X106415000Y-128809523D02*
X106462619Y-128952380D01*
X106462619Y-128952380D02*
X106462619Y-129047618D01*
X106462619Y-129047618D02*
X106415000Y-129190475D01*
X106415000Y-129190475D02*
X106319761Y-129285713D01*
X106319761Y-129285713D02*
X106224523Y-129333332D01*
X106224523Y-129333332D02*
X106034047Y-129380951D01*
X106034047Y-129380951D02*
X105891190Y-129380951D01*
X105891190Y-129380951D02*
X105700714Y-129333332D01*
X105700714Y-129333332D02*
X105605476Y-129285713D01*
X105605476Y-129285713D02*
X105510238Y-129190475D01*
X105510238Y-129190475D02*
X105462619Y-129047618D01*
X105462619Y-129047618D02*
X105462619Y-128952380D01*
X105462619Y-128952380D02*
X105510238Y-128809523D01*
X105510238Y-128809523D02*
X105557857Y-128761904D01*
X106367380Y-127761904D02*
X106415000Y-127809523D01*
X106415000Y-127809523D02*
X106462619Y-127952380D01*
X106462619Y-127952380D02*
X106462619Y-128047618D01*
X106462619Y-128047618D02*
X106415000Y-128190475D01*
X106415000Y-128190475D02*
X106319761Y-128285713D01*
X106319761Y-128285713D02*
X106224523Y-128333332D01*
X106224523Y-128333332D02*
X106034047Y-128380951D01*
X106034047Y-128380951D02*
X105891190Y-128380951D01*
X105891190Y-128380951D02*
X105700714Y-128333332D01*
X105700714Y-128333332D02*
X105605476Y-128285713D01*
X105605476Y-128285713D02*
X105510238Y-128190475D01*
X105510238Y-128190475D02*
X105462619Y-128047618D01*
X105462619Y-128047618D02*
X105462619Y-127952380D01*
X105462619Y-127952380D02*
X105510238Y-127809523D01*
X105510238Y-127809523D02*
X105557857Y-127761904D01*
X105510238Y-134761904D02*
X105462619Y-134857142D01*
X105462619Y-134857142D02*
X105462619Y-134999999D01*
X105462619Y-134999999D02*
X105510238Y-135142856D01*
X105510238Y-135142856D02*
X105605476Y-135238094D01*
X105605476Y-135238094D02*
X105700714Y-135285713D01*
X105700714Y-135285713D02*
X105891190Y-135333332D01*
X105891190Y-135333332D02*
X106034047Y-135333332D01*
X106034047Y-135333332D02*
X106224523Y-135285713D01*
X106224523Y-135285713D02*
X106319761Y-135238094D01*
X106319761Y-135238094D02*
X106415000Y-135142856D01*
X106415000Y-135142856D02*
X106462619Y-134999999D01*
X106462619Y-134999999D02*
X106462619Y-134904761D01*
X106462619Y-134904761D02*
X106415000Y-134761904D01*
X106415000Y-134761904D02*
X106367380Y-134714285D01*
X106367380Y-134714285D02*
X106034047Y-134714285D01*
X106034047Y-134714285D02*
X106034047Y-134904761D01*
X106462619Y-134285713D02*
X105462619Y-134285713D01*
X105462619Y-134285713D02*
X106462619Y-133714285D01*
X106462619Y-133714285D02*
X105462619Y-133714285D01*
X106462619Y-133238094D02*
X105462619Y-133238094D01*
X105462619Y-133238094D02*
X105462619Y-132999999D01*
X105462619Y-132999999D02*
X105510238Y-132857142D01*
X105510238Y-132857142D02*
X105605476Y-132761904D01*
X105605476Y-132761904D02*
X105700714Y-132714285D01*
X105700714Y-132714285D02*
X105891190Y-132666666D01*
X105891190Y-132666666D02*
X106034047Y-132666666D01*
X106034047Y-132666666D02*
X106224523Y-132714285D01*
X106224523Y-132714285D02*
X106319761Y-132761904D01*
X106319761Y-132761904D02*
X106415000Y-132857142D01*
X106415000Y-132857142D02*
X106462619Y-132999999D01*
X106462619Y-132999999D02*
X106462619Y-133238094D01*
X111190476Y-132091904D02*
X111666666Y-132091904D01*
X111095238Y-132377619D02*
X111428571Y-131377619D01*
X111428571Y-131377619D02*
X111761904Y-132377619D01*
X112000000Y-131377619D02*
X112666666Y-131377619D01*
X112666666Y-131377619D02*
X112000000Y-132377619D01*
X112000000Y-132377619D02*
X112666666Y-132377619D01*
X113000000Y-131472857D02*
X113047619Y-131425238D01*
X113047619Y-131425238D02*
X113142857Y-131377619D01*
X113142857Y-131377619D02*
X113380952Y-131377619D01*
X113380952Y-131377619D02*
X113476190Y-131425238D01*
X113476190Y-131425238D02*
X113523809Y-131472857D01*
X113523809Y-131472857D02*
X113571428Y-131568095D01*
X113571428Y-131568095D02*
X113571428Y-131663333D01*
X113571428Y-131663333D02*
X113523809Y-131806190D01*
X113523809Y-131806190D02*
X112952381Y-132377619D01*
X112952381Y-132377619D02*
X113571428Y-132377619D01*
X114523809Y-132377619D02*
X113952381Y-132377619D01*
X114238095Y-132377619D02*
X114238095Y-131377619D01*
X114238095Y-131377619D02*
X114142857Y-131520476D01*
X114142857Y-131520476D02*
X114047619Y-131615714D01*
X114047619Y-131615714D02*
X113952381Y-131663333D01*
X115095238Y-131806190D02*
X115000000Y-131758571D01*
X115000000Y-131758571D02*
X114952381Y-131710952D01*
X114952381Y-131710952D02*
X114904762Y-131615714D01*
X114904762Y-131615714D02*
X114904762Y-131568095D01*
X114904762Y-131568095D02*
X114952381Y-131472857D01*
X114952381Y-131472857D02*
X115000000Y-131425238D01*
X115000000Y-131425238D02*
X115095238Y-131377619D01*
X115095238Y-131377619D02*
X115285714Y-131377619D01*
X115285714Y-131377619D02*
X115380952Y-131425238D01*
X115380952Y-131425238D02*
X115428571Y-131472857D01*
X115428571Y-131472857D02*
X115476190Y-131568095D01*
X115476190Y-131568095D02*
X115476190Y-131615714D01*
X115476190Y-131615714D02*
X115428571Y-131710952D01*
X115428571Y-131710952D02*
X115380952Y-131758571D01*
X115380952Y-131758571D02*
X115285714Y-131806190D01*
X115285714Y-131806190D02*
X115095238Y-131806190D01*
X115095238Y-131806190D02*
X115000000Y-131853809D01*
X115000000Y-131853809D02*
X114952381Y-131901428D01*
X114952381Y-131901428D02*
X114904762Y-131996666D01*
X114904762Y-131996666D02*
X114904762Y-132187142D01*
X114904762Y-132187142D02*
X114952381Y-132282380D01*
X114952381Y-132282380D02*
X115000000Y-132330000D01*
X115000000Y-132330000D02*
X115095238Y-132377619D01*
X115095238Y-132377619D02*
X115285714Y-132377619D01*
X115285714Y-132377619D02*
X115380952Y-132330000D01*
X115380952Y-132330000D02*
X115428571Y-132282380D01*
X115428571Y-132282380D02*
X115476190Y-132187142D01*
X115476190Y-132187142D02*
X115476190Y-131996666D01*
X115476190Y-131996666D02*
X115428571Y-131901428D01*
X115428571Y-131901428D02*
X115380952Y-131853809D01*
X115380952Y-131853809D02*
X115285714Y-131806190D01*
X116380952Y-131377619D02*
X115904762Y-131377619D01*
X115904762Y-131377619D02*
X115857143Y-131853809D01*
X115857143Y-131853809D02*
X115904762Y-131806190D01*
X115904762Y-131806190D02*
X116000000Y-131758571D01*
X116000000Y-131758571D02*
X116238095Y-131758571D01*
X116238095Y-131758571D02*
X116333333Y-131806190D01*
X116333333Y-131806190D02*
X116380952Y-131853809D01*
X116380952Y-131853809D02*
X116428571Y-131949047D01*
X116428571Y-131949047D02*
X116428571Y-132187142D01*
X116428571Y-132187142D02*
X116380952Y-132282380D01*
X116380952Y-132282380D02*
X116333333Y-132330000D01*
X116333333Y-132330000D02*
X116238095Y-132377619D01*
X116238095Y-132377619D02*
X116000000Y-132377619D01*
X116000000Y-132377619D02*
X115904762Y-132330000D01*
X115904762Y-132330000D02*
X115857143Y-132282380D01*
D11*
X140728571Y-135260285D02*
X141300000Y-135260285D01*
X140614285Y-135603142D02*
X141014285Y-134403142D01*
X141014285Y-134403142D02*
X141414285Y-135603142D01*
X141814285Y-135603142D02*
X141814285Y-134803142D01*
X141814285Y-135031714D02*
X141871428Y-134917428D01*
X141871428Y-134917428D02*
X141928571Y-134860285D01*
X141928571Y-134860285D02*
X142042856Y-134803142D01*
X142042856Y-134803142D02*
X142157142Y-134803142D01*
X143071428Y-134803142D02*
X143071428Y-135774571D01*
X143071428Y-135774571D02*
X143014285Y-135888857D01*
X143014285Y-135888857D02*
X142957142Y-135946000D01*
X142957142Y-135946000D02*
X142842856Y-136003142D01*
X142842856Y-136003142D02*
X142671428Y-136003142D01*
X142671428Y-136003142D02*
X142557142Y-135946000D01*
X143071428Y-135546000D02*
X142957142Y-135603142D01*
X142957142Y-135603142D02*
X142728570Y-135603142D01*
X142728570Y-135603142D02*
X142614285Y-135546000D01*
X142614285Y-135546000D02*
X142557142Y-135488857D01*
X142557142Y-135488857D02*
X142499999Y-135374571D01*
X142499999Y-135374571D02*
X142499999Y-135031714D01*
X142499999Y-135031714D02*
X142557142Y-134917428D01*
X142557142Y-134917428D02*
X142614285Y-134860285D01*
X142614285Y-134860285D02*
X142728570Y-134803142D01*
X142728570Y-134803142D02*
X142957142Y-134803142D01*
X142957142Y-134803142D02*
X143071428Y-134860285D01*
X144157142Y-134803142D02*
X144157142Y-135603142D01*
X143642856Y-134803142D02*
X143642856Y-135431714D01*
X143642856Y-135431714D02*
X143699999Y-135546000D01*
X143699999Y-135546000D02*
X143814284Y-135603142D01*
X143814284Y-135603142D02*
X143985713Y-135603142D01*
X143985713Y-135603142D02*
X144099999Y-135546000D01*
X144099999Y-135546000D02*
X144157142Y-135488857D01*
X144671427Y-135546000D02*
X144785713Y-135603142D01*
X144785713Y-135603142D02*
X145014284Y-135603142D01*
X145014284Y-135603142D02*
X145128570Y-135546000D01*
X145128570Y-135546000D02*
X145185713Y-135431714D01*
X145185713Y-135431714D02*
X145185713Y-135374571D01*
X145185713Y-135374571D02*
X145128570Y-135260285D01*
X145128570Y-135260285D02*
X145014284Y-135203142D01*
X145014284Y-135203142D02*
X144842856Y-135203142D01*
X144842856Y-135203142D02*
X144728570Y-135146000D01*
X144728570Y-135146000D02*
X144671427Y-135031714D01*
X144671427Y-135031714D02*
X144671427Y-134974571D01*
X144671427Y-134974571D02*
X144728570Y-134860285D01*
X144728570Y-134860285D02*
X144842856Y-134803142D01*
X144842856Y-134803142D02*
X145014284Y-134803142D01*
X145014284Y-134803142D02*
X145128570Y-134860285D01*
X145699999Y-135146000D02*
X146614285Y-135146000D01*
X147814284Y-135603142D02*
X147128570Y-135603142D01*
X147471427Y-135603142D02*
X147471427Y-134403142D01*
X147471427Y-134403142D02*
X147357141Y-134574571D01*
X147357141Y-134574571D02*
X147242856Y-134688857D01*
X147242856Y-134688857D02*
X147128570Y-134746000D01*
X149871427Y-134460285D02*
X149757142Y-134403142D01*
X149757142Y-134403142D02*
X149585713Y-134403142D01*
X149585713Y-134403142D02*
X149414284Y-134460285D01*
X149414284Y-134460285D02*
X149299999Y-134574571D01*
X149299999Y-134574571D02*
X149242856Y-134688857D01*
X149242856Y-134688857D02*
X149185713Y-134917428D01*
X149185713Y-134917428D02*
X149185713Y-135088857D01*
X149185713Y-135088857D02*
X149242856Y-135317428D01*
X149242856Y-135317428D02*
X149299999Y-135431714D01*
X149299999Y-135431714D02*
X149414284Y-135546000D01*
X149414284Y-135546000D02*
X149585713Y-135603142D01*
X149585713Y-135603142D02*
X149699999Y-135603142D01*
X149699999Y-135603142D02*
X149871427Y-135546000D01*
X149871427Y-135546000D02*
X149928570Y-135488857D01*
X149928570Y-135488857D02*
X149928570Y-135088857D01*
X149928570Y-135088857D02*
X149699999Y-135088857D01*
X150442856Y-135603142D02*
X150442856Y-134803142D01*
X150442856Y-135031714D02*
X150499999Y-134917428D01*
X150499999Y-134917428D02*
X150557142Y-134860285D01*
X150557142Y-134860285D02*
X150671427Y-134803142D01*
X150671427Y-134803142D02*
X150785713Y-134803142D01*
X151357141Y-135603142D02*
X151242856Y-135546000D01*
X151242856Y-135546000D02*
X151185713Y-135488857D01*
X151185713Y-135488857D02*
X151128570Y-135374571D01*
X151128570Y-135374571D02*
X151128570Y-135031714D01*
X151128570Y-135031714D02*
X151185713Y-134917428D01*
X151185713Y-134917428D02*
X151242856Y-134860285D01*
X151242856Y-134860285D02*
X151357141Y-134803142D01*
X151357141Y-134803142D02*
X151528570Y-134803142D01*
X151528570Y-134803142D02*
X151642856Y-134860285D01*
X151642856Y-134860285D02*
X151699999Y-134917428D01*
X151699999Y-134917428D02*
X151757141Y-135031714D01*
X151757141Y-135031714D02*
X151757141Y-135374571D01*
X151757141Y-135374571D02*
X151699999Y-135488857D01*
X151699999Y-135488857D02*
X151642856Y-135546000D01*
X151642856Y-135546000D02*
X151528570Y-135603142D01*
X151528570Y-135603142D02*
X151357141Y-135603142D01*
X152785713Y-134803142D02*
X152785713Y-135603142D01*
X152271427Y-134803142D02*
X152271427Y-135431714D01*
X152271427Y-135431714D02*
X152328570Y-135546000D01*
X152328570Y-135546000D02*
X152442855Y-135603142D01*
X152442855Y-135603142D02*
X152614284Y-135603142D01*
X152614284Y-135603142D02*
X152728570Y-135546000D01*
X152728570Y-135546000D02*
X152785713Y-135488857D01*
X153357141Y-134803142D02*
X153357141Y-135603142D01*
X153357141Y-134917428D02*
X153414284Y-134860285D01*
X153414284Y-134860285D02*
X153528569Y-134803142D01*
X153528569Y-134803142D02*
X153699998Y-134803142D01*
X153699998Y-134803142D02*
X153814284Y-134860285D01*
X153814284Y-134860285D02*
X153871427Y-134974571D01*
X153871427Y-134974571D02*
X153871427Y-135603142D01*
X154957141Y-135603142D02*
X154957141Y-134403142D01*
X154957141Y-135546000D02*
X154842855Y-135603142D01*
X154842855Y-135603142D02*
X154614283Y-135603142D01*
X154614283Y-135603142D02*
X154499998Y-135546000D01*
X154499998Y-135546000D02*
X154442855Y-135488857D01*
X154442855Y-135488857D02*
X154385712Y-135374571D01*
X154385712Y-135374571D02*
X154385712Y-135031714D01*
X154385712Y-135031714D02*
X154442855Y-134917428D01*
X154442855Y-134917428D02*
X154499998Y-134860285D01*
X154499998Y-134860285D02*
X154614283Y-134803142D01*
X154614283Y-134803142D02*
X154842855Y-134803142D01*
X154842855Y-134803142D02*
X154957141Y-134860285D01*
X156385712Y-135546000D02*
X156557141Y-135603142D01*
X156557141Y-135603142D02*
X156842855Y-135603142D01*
X156842855Y-135603142D02*
X156957141Y-135546000D01*
X156957141Y-135546000D02*
X157014283Y-135488857D01*
X157014283Y-135488857D02*
X157071426Y-135374571D01*
X157071426Y-135374571D02*
X157071426Y-135260285D01*
X157071426Y-135260285D02*
X157014283Y-135146000D01*
X157014283Y-135146000D02*
X156957141Y-135088857D01*
X156957141Y-135088857D02*
X156842855Y-135031714D01*
X156842855Y-135031714D02*
X156614283Y-134974571D01*
X156614283Y-134974571D02*
X156499998Y-134917428D01*
X156499998Y-134917428D02*
X156442855Y-134860285D01*
X156442855Y-134860285D02*
X156385712Y-134746000D01*
X156385712Y-134746000D02*
X156385712Y-134631714D01*
X156385712Y-134631714D02*
X156442855Y-134517428D01*
X156442855Y-134517428D02*
X156499998Y-134460285D01*
X156499998Y-134460285D02*
X156614283Y-134403142D01*
X156614283Y-134403142D02*
X156899998Y-134403142D01*
X156899998Y-134403142D02*
X157071426Y-134460285D01*
X157414283Y-134803142D02*
X157871426Y-134803142D01*
X157585712Y-134403142D02*
X157585712Y-135431714D01*
X157585712Y-135431714D02*
X157642855Y-135546000D01*
X157642855Y-135546000D02*
X157757140Y-135603142D01*
X157757140Y-135603142D02*
X157871426Y-135603142D01*
X158785712Y-135603142D02*
X158785712Y-134974571D01*
X158785712Y-134974571D02*
X158728569Y-134860285D01*
X158728569Y-134860285D02*
X158614283Y-134803142D01*
X158614283Y-134803142D02*
X158385712Y-134803142D01*
X158385712Y-134803142D02*
X158271426Y-134860285D01*
X158785712Y-135546000D02*
X158671426Y-135603142D01*
X158671426Y-135603142D02*
X158385712Y-135603142D01*
X158385712Y-135603142D02*
X158271426Y-135546000D01*
X158271426Y-135546000D02*
X158214283Y-135431714D01*
X158214283Y-135431714D02*
X158214283Y-135317428D01*
X158214283Y-135317428D02*
X158271426Y-135203142D01*
X158271426Y-135203142D02*
X158385712Y-135146000D01*
X158385712Y-135146000D02*
X158671426Y-135146000D01*
X158671426Y-135146000D02*
X158785712Y-135088857D01*
X159185711Y-134803142D02*
X159642854Y-134803142D01*
X159357140Y-134403142D02*
X159357140Y-135431714D01*
X159357140Y-135431714D02*
X159414283Y-135546000D01*
X159414283Y-135546000D02*
X159528568Y-135603142D01*
X159528568Y-135603142D02*
X159642854Y-135603142D01*
X160042854Y-135603142D02*
X160042854Y-134803142D01*
X160042854Y-134403142D02*
X159985711Y-134460285D01*
X159985711Y-134460285D02*
X160042854Y-134517428D01*
X160042854Y-134517428D02*
X160099997Y-134460285D01*
X160099997Y-134460285D02*
X160042854Y-134403142D01*
X160042854Y-134403142D02*
X160042854Y-134517428D01*
X160785711Y-135603142D02*
X160671426Y-135546000D01*
X160671426Y-135546000D02*
X160614283Y-135488857D01*
X160614283Y-135488857D02*
X160557140Y-135374571D01*
X160557140Y-135374571D02*
X160557140Y-135031714D01*
X160557140Y-135031714D02*
X160614283Y-134917428D01*
X160614283Y-134917428D02*
X160671426Y-134860285D01*
X160671426Y-134860285D02*
X160785711Y-134803142D01*
X160785711Y-134803142D02*
X160957140Y-134803142D01*
X160957140Y-134803142D02*
X161071426Y-134860285D01*
X161071426Y-134860285D02*
X161128569Y-134917428D01*
X161128569Y-134917428D02*
X161185711Y-135031714D01*
X161185711Y-135031714D02*
X161185711Y-135374571D01*
X161185711Y-135374571D02*
X161128569Y-135488857D01*
X161128569Y-135488857D02*
X161071426Y-135546000D01*
X161071426Y-135546000D02*
X160957140Y-135603142D01*
X160957140Y-135603142D02*
X160785711Y-135603142D01*
X161699997Y-134803142D02*
X161699997Y-135603142D01*
X161699997Y-134917428D02*
X161757140Y-134860285D01*
X161757140Y-134860285D02*
X161871425Y-134803142D01*
X161871425Y-134803142D02*
X162042854Y-134803142D01*
X162042854Y-134803142D02*
X162157140Y-134860285D01*
X162157140Y-134860285D02*
X162214283Y-134974571D01*
X162214283Y-134974571D02*
X162214283Y-135603142D01*
D10*
X141309523Y-137032380D02*
X141261904Y-137080000D01*
X141261904Y-137080000D02*
X141119047Y-137127619D01*
X141119047Y-137127619D02*
X141023809Y-137127619D01*
X141023809Y-137127619D02*
X140880952Y-137080000D01*
X140880952Y-137080000D02*
X140785714Y-136984761D01*
X140785714Y-136984761D02*
X140738095Y-136889523D01*
X140738095Y-136889523D02*
X140690476Y-136699047D01*
X140690476Y-136699047D02*
X140690476Y-136556190D01*
X140690476Y-136556190D02*
X140738095Y-136365714D01*
X140738095Y-136365714D02*
X140785714Y-136270476D01*
X140785714Y-136270476D02*
X140880952Y-136175238D01*
X140880952Y-136175238D02*
X141023809Y-136127619D01*
X141023809Y-136127619D02*
X141119047Y-136127619D01*
X141119047Y-136127619D02*
X141261904Y-136175238D01*
X141261904Y-136175238D02*
X141309523Y-136222857D01*
X142166666Y-137127619D02*
X142166666Y-136603809D01*
X142166666Y-136603809D02*
X142119047Y-136508571D01*
X142119047Y-136508571D02*
X142023809Y-136460952D01*
X142023809Y-136460952D02*
X141833333Y-136460952D01*
X141833333Y-136460952D02*
X141738095Y-136508571D01*
X142166666Y-137080000D02*
X142071428Y-137127619D01*
X142071428Y-137127619D02*
X141833333Y-137127619D01*
X141833333Y-137127619D02*
X141738095Y-137080000D01*
X141738095Y-137080000D02*
X141690476Y-136984761D01*
X141690476Y-136984761D02*
X141690476Y-136889523D01*
X141690476Y-136889523D02*
X141738095Y-136794285D01*
X141738095Y-136794285D02*
X141833333Y-136746666D01*
X141833333Y-136746666D02*
X142071428Y-136746666D01*
X142071428Y-136746666D02*
X142166666Y-136699047D01*
X142642857Y-137127619D02*
X142642857Y-136460952D01*
X142642857Y-136651428D02*
X142690476Y-136556190D01*
X142690476Y-136556190D02*
X142738095Y-136508571D01*
X142738095Y-136508571D02*
X142833333Y-136460952D01*
X142833333Y-136460952D02*
X142928571Y-136460952D01*
X143261905Y-136460952D02*
X143261905Y-137127619D01*
X143261905Y-136556190D02*
X143309524Y-136508571D01*
X143309524Y-136508571D02*
X143404762Y-136460952D01*
X143404762Y-136460952D02*
X143547619Y-136460952D01*
X143547619Y-136460952D02*
X143642857Y-136508571D01*
X143642857Y-136508571D02*
X143690476Y-136603809D01*
X143690476Y-136603809D02*
X143690476Y-137127619D01*
X144547619Y-137080000D02*
X144452381Y-137127619D01*
X144452381Y-137127619D02*
X144261905Y-137127619D01*
X144261905Y-137127619D02*
X144166667Y-137080000D01*
X144166667Y-137080000D02*
X144119048Y-136984761D01*
X144119048Y-136984761D02*
X144119048Y-136603809D01*
X144119048Y-136603809D02*
X144166667Y-136508571D01*
X144166667Y-136508571D02*
X144261905Y-136460952D01*
X144261905Y-136460952D02*
X144452381Y-136460952D01*
X144452381Y-136460952D02*
X144547619Y-136508571D01*
X144547619Y-136508571D02*
X144595238Y-136603809D01*
X144595238Y-136603809D02*
X144595238Y-136699047D01*
X144595238Y-136699047D02*
X144119048Y-136794285D01*
X145452381Y-136460952D02*
X145452381Y-137270476D01*
X145452381Y-137270476D02*
X145404762Y-137365714D01*
X145404762Y-137365714D02*
X145357143Y-137413333D01*
X145357143Y-137413333D02*
X145261905Y-137460952D01*
X145261905Y-137460952D02*
X145119048Y-137460952D01*
X145119048Y-137460952D02*
X145023810Y-137413333D01*
X145452381Y-137080000D02*
X145357143Y-137127619D01*
X145357143Y-137127619D02*
X145166667Y-137127619D01*
X145166667Y-137127619D02*
X145071429Y-137080000D01*
X145071429Y-137080000D02*
X145023810Y-137032380D01*
X145023810Y-137032380D02*
X144976191Y-136937142D01*
X144976191Y-136937142D02*
X144976191Y-136651428D01*
X144976191Y-136651428D02*
X145023810Y-136556190D01*
X145023810Y-136556190D02*
X145071429Y-136508571D01*
X145071429Y-136508571D02*
X145166667Y-136460952D01*
X145166667Y-136460952D02*
X145357143Y-136460952D01*
X145357143Y-136460952D02*
X145452381Y-136508571D01*
X145928572Y-137127619D02*
X145928572Y-136460952D01*
X145928572Y-136127619D02*
X145880953Y-136175238D01*
X145880953Y-136175238D02*
X145928572Y-136222857D01*
X145928572Y-136222857D02*
X145976191Y-136175238D01*
X145976191Y-136175238D02*
X145928572Y-136127619D01*
X145928572Y-136127619D02*
X145928572Y-136222857D01*
X146785714Y-137080000D02*
X146690476Y-137127619D01*
X146690476Y-137127619D02*
X146500000Y-137127619D01*
X146500000Y-137127619D02*
X146404762Y-137080000D01*
X146404762Y-137080000D02*
X146357143Y-136984761D01*
X146357143Y-136984761D02*
X146357143Y-136603809D01*
X146357143Y-136603809D02*
X146404762Y-136508571D01*
X146404762Y-136508571D02*
X146500000Y-136460952D01*
X146500000Y-136460952D02*
X146690476Y-136460952D01*
X146690476Y-136460952D02*
X146785714Y-136508571D01*
X146785714Y-136508571D02*
X146833333Y-136603809D01*
X146833333Y-136603809D02*
X146833333Y-136699047D01*
X146833333Y-136699047D02*
X146357143Y-136794285D01*
X148023810Y-137127619D02*
X148023810Y-136127619D01*
X148023810Y-136127619D02*
X148357143Y-136841904D01*
X148357143Y-136841904D02*
X148690476Y-136127619D01*
X148690476Y-136127619D02*
X148690476Y-137127619D01*
X149547619Y-137080000D02*
X149452381Y-137127619D01*
X149452381Y-137127619D02*
X149261905Y-137127619D01*
X149261905Y-137127619D02*
X149166667Y-137080000D01*
X149166667Y-137080000D02*
X149119048Y-136984761D01*
X149119048Y-136984761D02*
X149119048Y-136603809D01*
X149119048Y-136603809D02*
X149166667Y-136508571D01*
X149166667Y-136508571D02*
X149261905Y-136460952D01*
X149261905Y-136460952D02*
X149452381Y-136460952D01*
X149452381Y-136460952D02*
X149547619Y-136508571D01*
X149547619Y-136508571D02*
X149595238Y-136603809D01*
X149595238Y-136603809D02*
X149595238Y-136699047D01*
X149595238Y-136699047D02*
X149119048Y-136794285D01*
X150166667Y-137127619D02*
X150071429Y-137080000D01*
X150071429Y-137080000D02*
X150023810Y-136984761D01*
X150023810Y-136984761D02*
X150023810Y-136127619D01*
X150690477Y-137127619D02*
X150595239Y-137080000D01*
X150595239Y-137080000D02*
X150547620Y-136984761D01*
X150547620Y-136984761D02*
X150547620Y-136127619D01*
X151214287Y-137127619D02*
X151119049Y-137080000D01*
X151119049Y-137080000D02*
X151071430Y-137032380D01*
X151071430Y-137032380D02*
X151023811Y-136937142D01*
X151023811Y-136937142D02*
X151023811Y-136651428D01*
X151023811Y-136651428D02*
X151071430Y-136556190D01*
X151071430Y-136556190D02*
X151119049Y-136508571D01*
X151119049Y-136508571D02*
X151214287Y-136460952D01*
X151214287Y-136460952D02*
X151357144Y-136460952D01*
X151357144Y-136460952D02*
X151452382Y-136508571D01*
X151452382Y-136508571D02*
X151500001Y-136556190D01*
X151500001Y-136556190D02*
X151547620Y-136651428D01*
X151547620Y-136651428D02*
X151547620Y-136937142D01*
X151547620Y-136937142D02*
X151500001Y-137032380D01*
X151500001Y-137032380D02*
X151452382Y-137080000D01*
X151452382Y-137080000D02*
X151357144Y-137127619D01*
X151357144Y-137127619D02*
X151214287Y-137127619D01*
X151976192Y-136460952D02*
X151976192Y-137127619D01*
X151976192Y-136556190D02*
X152023811Y-136508571D01*
X152023811Y-136508571D02*
X152119049Y-136460952D01*
X152119049Y-136460952D02*
X152261906Y-136460952D01*
X152261906Y-136460952D02*
X152357144Y-136508571D01*
X152357144Y-136508571D02*
X152404763Y-136603809D01*
X152404763Y-136603809D02*
X152404763Y-137127619D01*
X153642859Y-136127619D02*
X153642859Y-136937142D01*
X153642859Y-136937142D02*
X153690478Y-137032380D01*
X153690478Y-137032380D02*
X153738097Y-137080000D01*
X153738097Y-137080000D02*
X153833335Y-137127619D01*
X153833335Y-137127619D02*
X154023811Y-137127619D01*
X154023811Y-137127619D02*
X154119049Y-137080000D01*
X154119049Y-137080000D02*
X154166668Y-137032380D01*
X154166668Y-137032380D02*
X154214287Y-136937142D01*
X154214287Y-136937142D02*
X154214287Y-136127619D01*
X154690478Y-136460952D02*
X154690478Y-137127619D01*
X154690478Y-136556190D02*
X154738097Y-136508571D01*
X154738097Y-136508571D02*
X154833335Y-136460952D01*
X154833335Y-136460952D02*
X154976192Y-136460952D01*
X154976192Y-136460952D02*
X155071430Y-136508571D01*
X155071430Y-136508571D02*
X155119049Y-136603809D01*
X155119049Y-136603809D02*
X155119049Y-137127619D01*
X155595240Y-137127619D02*
X155595240Y-136460952D01*
X155595240Y-136127619D02*
X155547621Y-136175238D01*
X155547621Y-136175238D02*
X155595240Y-136222857D01*
X155595240Y-136222857D02*
X155642859Y-136175238D01*
X155642859Y-136175238D02*
X155595240Y-136127619D01*
X155595240Y-136127619D02*
X155595240Y-136222857D01*
X155976192Y-136460952D02*
X156214287Y-137127619D01*
X156214287Y-137127619D02*
X156452382Y-136460952D01*
X157214287Y-137080000D02*
X157119049Y-137127619D01*
X157119049Y-137127619D02*
X156928573Y-137127619D01*
X156928573Y-137127619D02*
X156833335Y-137080000D01*
X156833335Y-137080000D02*
X156785716Y-136984761D01*
X156785716Y-136984761D02*
X156785716Y-136603809D01*
X156785716Y-136603809D02*
X156833335Y-136508571D01*
X156833335Y-136508571D02*
X156928573Y-136460952D01*
X156928573Y-136460952D02*
X157119049Y-136460952D01*
X157119049Y-136460952D02*
X157214287Y-136508571D01*
X157214287Y-136508571D02*
X157261906Y-136603809D01*
X157261906Y-136603809D02*
X157261906Y-136699047D01*
X157261906Y-136699047D02*
X156785716Y-136794285D01*
X157690478Y-137127619D02*
X157690478Y-136460952D01*
X157690478Y-136651428D02*
X157738097Y-136556190D01*
X157738097Y-136556190D02*
X157785716Y-136508571D01*
X157785716Y-136508571D02*
X157880954Y-136460952D01*
X157880954Y-136460952D02*
X157976192Y-136460952D01*
X158261907Y-137080000D02*
X158357145Y-137127619D01*
X158357145Y-137127619D02*
X158547621Y-137127619D01*
X158547621Y-137127619D02*
X158642859Y-137080000D01*
X158642859Y-137080000D02*
X158690478Y-136984761D01*
X158690478Y-136984761D02*
X158690478Y-136937142D01*
X158690478Y-136937142D02*
X158642859Y-136841904D01*
X158642859Y-136841904D02*
X158547621Y-136794285D01*
X158547621Y-136794285D02*
X158404764Y-136794285D01*
X158404764Y-136794285D02*
X158309526Y-136746666D01*
X158309526Y-136746666D02*
X158261907Y-136651428D01*
X158261907Y-136651428D02*
X158261907Y-136603809D01*
X158261907Y-136603809D02*
X158309526Y-136508571D01*
X158309526Y-136508571D02*
X158404764Y-136460952D01*
X158404764Y-136460952D02*
X158547621Y-136460952D01*
X158547621Y-136460952D02*
X158642859Y-136508571D01*
X159119050Y-137127619D02*
X159119050Y-136460952D01*
X159119050Y-136127619D02*
X159071431Y-136175238D01*
X159071431Y-136175238D02*
X159119050Y-136222857D01*
X159119050Y-136222857D02*
X159166669Y-136175238D01*
X159166669Y-136175238D02*
X159119050Y-136127619D01*
X159119050Y-136127619D02*
X159119050Y-136222857D01*
X159452383Y-136460952D02*
X159833335Y-136460952D01*
X159595240Y-136127619D02*
X159595240Y-136984761D01*
X159595240Y-136984761D02*
X159642859Y-137080000D01*
X159642859Y-137080000D02*
X159738097Y-137127619D01*
X159738097Y-137127619D02*
X159833335Y-137127619D01*
X160071431Y-136460952D02*
X160309526Y-137127619D01*
X160547621Y-136460952D02*
X160309526Y-137127619D01*
X160309526Y-137127619D02*
X160214288Y-137365714D01*
X160214288Y-137365714D02*
X160166669Y-137413333D01*
X160166669Y-137413333D02*
X160071431Y-137460952D01*
X105462619Y-139238095D02*
X105462619Y-139428571D01*
X105462619Y-139428571D02*
X105510238Y-139523809D01*
X105510238Y-139523809D02*
X105557857Y-139571428D01*
X105557857Y-139571428D02*
X105700714Y-139666666D01*
X105700714Y-139666666D02*
X105891190Y-139714285D01*
X105891190Y-139714285D02*
X106272142Y-139714285D01*
X106272142Y-139714285D02*
X106367380Y-139666666D01*
X106367380Y-139666666D02*
X106415000Y-139619047D01*
X106415000Y-139619047D02*
X106462619Y-139523809D01*
X106462619Y-139523809D02*
X106462619Y-139333333D01*
X106462619Y-139333333D02*
X106415000Y-139238095D01*
X106415000Y-139238095D02*
X106367380Y-139190476D01*
X106367380Y-139190476D02*
X106272142Y-139142857D01*
X106272142Y-139142857D02*
X106034047Y-139142857D01*
X106034047Y-139142857D02*
X105938809Y-139190476D01*
X105938809Y-139190476D02*
X105891190Y-139238095D01*
X105891190Y-139238095D02*
X105843571Y-139333333D01*
X105843571Y-139333333D02*
X105843571Y-139523809D01*
X105843571Y-139523809D02*
X105891190Y-139619047D01*
X105891190Y-139619047D02*
X105938809Y-139666666D01*
X105938809Y-139666666D02*
X106034047Y-139714285D01*
X105462619Y-138857142D02*
X106462619Y-138523809D01*
X106462619Y-138523809D02*
X105462619Y-138190476D01*
X124333333Y-130462619D02*
X124000000Y-129986428D01*
X123761905Y-130462619D02*
X123761905Y-129462619D01*
X123761905Y-129462619D02*
X124142857Y-129462619D01*
X124142857Y-129462619D02*
X124238095Y-129510238D01*
X124238095Y-129510238D02*
X124285714Y-129557857D01*
X124285714Y-129557857D02*
X124333333Y-129653095D01*
X124333333Y-129653095D02*
X124333333Y-129795952D01*
X124333333Y-129795952D02*
X124285714Y-129891190D01*
X124285714Y-129891190D02*
X124238095Y-129938809D01*
X124238095Y-129938809D02*
X124142857Y-129986428D01*
X124142857Y-129986428D02*
X123761905Y-129986428D01*
X124904762Y-129891190D02*
X124809524Y-129843571D01*
X124809524Y-129843571D02*
X124761905Y-129795952D01*
X124761905Y-129795952D02*
X124714286Y-129700714D01*
X124714286Y-129700714D02*
X124714286Y-129653095D01*
X124714286Y-129653095D02*
X124761905Y-129557857D01*
X124761905Y-129557857D02*
X124809524Y-129510238D01*
X124809524Y-129510238D02*
X124904762Y-129462619D01*
X124904762Y-129462619D02*
X125095238Y-129462619D01*
X125095238Y-129462619D02*
X125190476Y-129510238D01*
X125190476Y-129510238D02*
X125238095Y-129557857D01*
X125238095Y-129557857D02*
X125285714Y-129653095D01*
X125285714Y-129653095D02*
X125285714Y-129700714D01*
X125285714Y-129700714D02*
X125238095Y-129795952D01*
X125238095Y-129795952D02*
X125190476Y-129843571D01*
X125190476Y-129843571D02*
X125095238Y-129891190D01*
X125095238Y-129891190D02*
X124904762Y-129891190D01*
X124904762Y-129891190D02*
X124809524Y-129938809D01*
X124809524Y-129938809D02*
X124761905Y-129986428D01*
X124761905Y-129986428D02*
X124714286Y-130081666D01*
X124714286Y-130081666D02*
X124714286Y-130272142D01*
X124714286Y-130272142D02*
X124761905Y-130367380D01*
X124761905Y-130367380D02*
X124809524Y-130415000D01*
X124809524Y-130415000D02*
X124904762Y-130462619D01*
X124904762Y-130462619D02*
X125095238Y-130462619D01*
X125095238Y-130462619D02*
X125190476Y-130415000D01*
X125190476Y-130415000D02*
X125238095Y-130367380D01*
X125238095Y-130367380D02*
X125285714Y-130272142D01*
X125285714Y-130272142D02*
X125285714Y-130081666D01*
X125285714Y-130081666D02*
X125238095Y-129986428D01*
X125238095Y-129986428D02*
X125190476Y-129938809D01*
X125190476Y-129938809D02*
X125095238Y-129891190D01*
X142833333Y-140182619D02*
X142500000Y-139706428D01*
X142261905Y-140182619D02*
X142261905Y-139182619D01*
X142261905Y-139182619D02*
X142642857Y-139182619D01*
X142642857Y-139182619D02*
X142738095Y-139230238D01*
X142738095Y-139230238D02*
X142785714Y-139277857D01*
X142785714Y-139277857D02*
X142833333Y-139373095D01*
X142833333Y-139373095D02*
X142833333Y-139515952D01*
X142833333Y-139515952D02*
X142785714Y-139611190D01*
X142785714Y-139611190D02*
X142738095Y-139658809D01*
X142738095Y-139658809D02*
X142642857Y-139706428D01*
X142642857Y-139706428D02*
X142261905Y-139706428D01*
X143738095Y-139182619D02*
X143261905Y-139182619D01*
X143261905Y-139182619D02*
X143214286Y-139658809D01*
X143214286Y-139658809D02*
X143261905Y-139611190D01*
X143261905Y-139611190D02*
X143357143Y-139563571D01*
X143357143Y-139563571D02*
X143595238Y-139563571D01*
X143595238Y-139563571D02*
X143690476Y-139611190D01*
X143690476Y-139611190D02*
X143738095Y-139658809D01*
X143738095Y-139658809D02*
X143785714Y-139754047D01*
X143785714Y-139754047D02*
X143785714Y-139992142D01*
X143785714Y-139992142D02*
X143738095Y-140087380D01*
X143738095Y-140087380D02*
X143690476Y-140135000D01*
X143690476Y-140135000D02*
X143595238Y-140182619D01*
X143595238Y-140182619D02*
X143357143Y-140182619D01*
X143357143Y-140182619D02*
X143261905Y-140135000D01*
X143261905Y-140135000D02*
X143214286Y-140087380D01*
X121712619Y-140666666D02*
X121236428Y-140999999D01*
X121712619Y-141238094D02*
X120712619Y-141238094D01*
X120712619Y-141238094D02*
X120712619Y-140857142D01*
X120712619Y-140857142D02*
X120760238Y-140761904D01*
X120760238Y-140761904D02*
X120807857Y-140714285D01*
X120807857Y-140714285D02*
X120903095Y-140666666D01*
X120903095Y-140666666D02*
X121045952Y-140666666D01*
X121045952Y-140666666D02*
X121141190Y-140714285D01*
X121141190Y-140714285D02*
X121188809Y-140761904D01*
X121188809Y-140761904D02*
X121236428Y-140857142D01*
X121236428Y-140857142D02*
X121236428Y-141238094D01*
X120712619Y-140333332D02*
X120712619Y-139714285D01*
X120712619Y-139714285D02*
X121093571Y-140047618D01*
X121093571Y-140047618D02*
X121093571Y-139904761D01*
X121093571Y-139904761D02*
X121141190Y-139809523D01*
X121141190Y-139809523D02*
X121188809Y-139761904D01*
X121188809Y-139761904D02*
X121284047Y-139714285D01*
X121284047Y-139714285D02*
X121522142Y-139714285D01*
X121522142Y-139714285D02*
X121617380Y-139761904D01*
X121617380Y-139761904D02*
X121665000Y-139809523D01*
X121665000Y-139809523D02*
X121712619Y-139904761D01*
X121712619Y-139904761D02*
X121712619Y-140190475D01*
X121712619Y-140190475D02*
X121665000Y-140285713D01*
X121665000Y-140285713D02*
X121617380Y-140333332D01*
X132404761Y-137962619D02*
X132071428Y-137486428D01*
X131833333Y-137962619D02*
X131833333Y-136962619D01*
X131833333Y-136962619D02*
X132214285Y-136962619D01*
X132214285Y-136962619D02*
X132309523Y-137010238D01*
X132309523Y-137010238D02*
X132357142Y-137057857D01*
X132357142Y-137057857D02*
X132404761Y-137153095D01*
X132404761Y-137153095D02*
X132404761Y-137295952D01*
X132404761Y-137295952D02*
X132357142Y-137391190D01*
X132357142Y-137391190D02*
X132309523Y-137438809D01*
X132309523Y-137438809D02*
X132214285Y-137486428D01*
X132214285Y-137486428D02*
X131833333Y-137486428D01*
X132690476Y-136962619D02*
X133023809Y-137962619D01*
X133023809Y-137962619D02*
X133357142Y-136962619D01*
X134214285Y-137962619D02*
X133642857Y-137962619D01*
X133928571Y-137962619D02*
X133928571Y-136962619D01*
X133928571Y-136962619D02*
X133833333Y-137105476D01*
X133833333Y-137105476D02*
X133738095Y-137200714D01*
X133738095Y-137200714D02*
X133642857Y-137248333D01*
X117962619Y-119166666D02*
X117486428Y-119499999D01*
X117962619Y-119738094D02*
X116962619Y-119738094D01*
X116962619Y-119738094D02*
X116962619Y-119357142D01*
X116962619Y-119357142D02*
X117010238Y-119261904D01*
X117010238Y-119261904D02*
X117057857Y-119214285D01*
X117057857Y-119214285D02*
X117153095Y-119166666D01*
X117153095Y-119166666D02*
X117295952Y-119166666D01*
X117295952Y-119166666D02*
X117391190Y-119214285D01*
X117391190Y-119214285D02*
X117438809Y-119261904D01*
X117438809Y-119261904D02*
X117486428Y-119357142D01*
X117486428Y-119357142D02*
X117486428Y-119738094D01*
X117057857Y-118785713D02*
X117010238Y-118738094D01*
X117010238Y-118738094D02*
X116962619Y-118642856D01*
X116962619Y-118642856D02*
X116962619Y-118404761D01*
X116962619Y-118404761D02*
X117010238Y-118309523D01*
X117010238Y-118309523D02*
X117057857Y-118261904D01*
X117057857Y-118261904D02*
X117153095Y-118214285D01*
X117153095Y-118214285D02*
X117248333Y-118214285D01*
X117248333Y-118214285D02*
X117391190Y-118261904D01*
X117391190Y-118261904D02*
X117962619Y-118833332D01*
X117962619Y-118833332D02*
X117962619Y-118214285D01*
X109367380Y-131666666D02*
X109415000Y-131714285D01*
X109415000Y-131714285D02*
X109462619Y-131857142D01*
X109462619Y-131857142D02*
X109462619Y-131952380D01*
X109462619Y-131952380D02*
X109415000Y-132095237D01*
X109415000Y-132095237D02*
X109319761Y-132190475D01*
X109319761Y-132190475D02*
X109224523Y-132238094D01*
X109224523Y-132238094D02*
X109034047Y-132285713D01*
X109034047Y-132285713D02*
X108891190Y-132285713D01*
X108891190Y-132285713D02*
X108700714Y-132238094D01*
X108700714Y-132238094D02*
X108605476Y-132190475D01*
X108605476Y-132190475D02*
X108510238Y-132095237D01*
X108510238Y-132095237D02*
X108462619Y-131952380D01*
X108462619Y-131952380D02*
X108462619Y-131857142D01*
X108462619Y-131857142D02*
X108510238Y-131714285D01*
X108510238Y-131714285D02*
X108557857Y-131666666D01*
X108462619Y-131333332D02*
X108462619Y-130714285D01*
X108462619Y-130714285D02*
X108843571Y-131047618D01*
X108843571Y-131047618D02*
X108843571Y-130904761D01*
X108843571Y-130904761D02*
X108891190Y-130809523D01*
X108891190Y-130809523D02*
X108938809Y-130761904D01*
X108938809Y-130761904D02*
X109034047Y-130714285D01*
X109034047Y-130714285D02*
X109272142Y-130714285D01*
X109272142Y-130714285D02*
X109367380Y-130761904D01*
X109367380Y-130761904D02*
X109415000Y-130809523D01*
X109415000Y-130809523D02*
X109462619Y-130904761D01*
X109462619Y-130904761D02*
X109462619Y-131190475D01*
X109462619Y-131190475D02*
X109415000Y-131285713D01*
X109415000Y-131285713D02*
X109367380Y-131333332D01*
X116367380Y-107916666D02*
X116415000Y-107964285D01*
X116415000Y-107964285D02*
X116462619Y-108107142D01*
X116462619Y-108107142D02*
X116462619Y-108202380D01*
X116462619Y-108202380D02*
X116415000Y-108345237D01*
X116415000Y-108345237D02*
X116319761Y-108440475D01*
X116319761Y-108440475D02*
X116224523Y-108488094D01*
X116224523Y-108488094D02*
X116034047Y-108535713D01*
X116034047Y-108535713D02*
X115891190Y-108535713D01*
X115891190Y-108535713D02*
X115700714Y-108488094D01*
X115700714Y-108488094D02*
X115605476Y-108440475D01*
X115605476Y-108440475D02*
X115510238Y-108345237D01*
X115510238Y-108345237D02*
X115462619Y-108202380D01*
X115462619Y-108202380D02*
X115462619Y-108107142D01*
X115462619Y-108107142D02*
X115510238Y-107964285D01*
X115510238Y-107964285D02*
X115557857Y-107916666D01*
X115462619Y-107011904D02*
X115462619Y-107488094D01*
X115462619Y-107488094D02*
X115938809Y-107535713D01*
X115938809Y-107535713D02*
X115891190Y-107488094D01*
X115891190Y-107488094D02*
X115843571Y-107392856D01*
X115843571Y-107392856D02*
X115843571Y-107154761D01*
X115843571Y-107154761D02*
X115891190Y-107059523D01*
X115891190Y-107059523D02*
X115938809Y-107011904D01*
X115938809Y-107011904D02*
X116034047Y-106964285D01*
X116034047Y-106964285D02*
X116272142Y-106964285D01*
X116272142Y-106964285D02*
X116367380Y-107011904D01*
X116367380Y-107011904D02*
X116415000Y-107059523D01*
X116415000Y-107059523D02*
X116462619Y-107154761D01*
X116462619Y-107154761D02*
X116462619Y-107392856D01*
X116462619Y-107392856D02*
X116415000Y-107488094D01*
X116415000Y-107488094D02*
X116367380Y-107535713D01*
X162333333Y-113867380D02*
X162285714Y-113915000D01*
X162285714Y-113915000D02*
X162142857Y-113962619D01*
X162142857Y-113962619D02*
X162047619Y-113962619D01*
X162047619Y-113962619D02*
X161904762Y-113915000D01*
X161904762Y-113915000D02*
X161809524Y-113819761D01*
X161809524Y-113819761D02*
X161761905Y-113724523D01*
X161761905Y-113724523D02*
X161714286Y-113534047D01*
X161714286Y-113534047D02*
X161714286Y-113391190D01*
X161714286Y-113391190D02*
X161761905Y-113200714D01*
X161761905Y-113200714D02*
X161809524Y-113105476D01*
X161809524Y-113105476D02*
X161904762Y-113010238D01*
X161904762Y-113010238D02*
X162047619Y-112962619D01*
X162047619Y-112962619D02*
X162142857Y-112962619D01*
X162142857Y-112962619D02*
X162285714Y-113010238D01*
X162285714Y-113010238D02*
X162333333Y-113057857D01*
X162714286Y-113057857D02*
X162761905Y-113010238D01*
X162761905Y-113010238D02*
X162857143Y-112962619D01*
X162857143Y-112962619D02*
X163095238Y-112962619D01*
X163095238Y-112962619D02*
X163190476Y-113010238D01*
X163190476Y-113010238D02*
X163238095Y-113057857D01*
X163238095Y-113057857D02*
X163285714Y-113153095D01*
X163285714Y-113153095D02*
X163285714Y-113248333D01*
X163285714Y-113248333D02*
X163238095Y-113391190D01*
X163238095Y-113391190D02*
X162666667Y-113962619D01*
X162666667Y-113962619D02*
X163285714Y-113962619D01*
X112712619Y-108666666D02*
X112236428Y-108999999D01*
X112712619Y-109238094D02*
X111712619Y-109238094D01*
X111712619Y-109238094D02*
X111712619Y-108857142D01*
X111712619Y-108857142D02*
X111760238Y-108761904D01*
X111760238Y-108761904D02*
X111807857Y-108714285D01*
X111807857Y-108714285D02*
X111903095Y-108666666D01*
X111903095Y-108666666D02*
X112045952Y-108666666D01*
X112045952Y-108666666D02*
X112141190Y-108714285D01*
X112141190Y-108714285D02*
X112188809Y-108761904D01*
X112188809Y-108761904D02*
X112236428Y-108857142D01*
X112236428Y-108857142D02*
X112236428Y-109238094D01*
X111712619Y-108333332D02*
X111712619Y-107666666D01*
X111712619Y-107666666D02*
X112712619Y-108095237D01*
X109367380Y-137666666D02*
X109415000Y-137714285D01*
X109415000Y-137714285D02*
X109462619Y-137857142D01*
X109462619Y-137857142D02*
X109462619Y-137952380D01*
X109462619Y-137952380D02*
X109415000Y-138095237D01*
X109415000Y-138095237D02*
X109319761Y-138190475D01*
X109319761Y-138190475D02*
X109224523Y-138238094D01*
X109224523Y-138238094D02*
X109034047Y-138285713D01*
X109034047Y-138285713D02*
X108891190Y-138285713D01*
X108891190Y-138285713D02*
X108700714Y-138238094D01*
X108700714Y-138238094D02*
X108605476Y-138190475D01*
X108605476Y-138190475D02*
X108510238Y-138095237D01*
X108510238Y-138095237D02*
X108462619Y-137952380D01*
X108462619Y-137952380D02*
X108462619Y-137857142D01*
X108462619Y-137857142D02*
X108510238Y-137714285D01*
X108510238Y-137714285D02*
X108557857Y-137666666D01*
X108795952Y-136809523D02*
X109462619Y-136809523D01*
X108415000Y-137047618D02*
X109129285Y-137285713D01*
X109129285Y-137285713D02*
X109129285Y-136666666D01*
X115462619Y-119166666D02*
X114986428Y-119499999D01*
X115462619Y-119738094D02*
X114462619Y-119738094D01*
X114462619Y-119738094D02*
X114462619Y-119357142D01*
X114462619Y-119357142D02*
X114510238Y-119261904D01*
X114510238Y-119261904D02*
X114557857Y-119214285D01*
X114557857Y-119214285D02*
X114653095Y-119166666D01*
X114653095Y-119166666D02*
X114795952Y-119166666D01*
X114795952Y-119166666D02*
X114891190Y-119214285D01*
X114891190Y-119214285D02*
X114938809Y-119261904D01*
X114938809Y-119261904D02*
X114986428Y-119357142D01*
X114986428Y-119357142D02*
X114986428Y-119738094D01*
X115462619Y-118214285D02*
X115462619Y-118785713D01*
X115462619Y-118499999D02*
X114462619Y-118499999D01*
X114462619Y-118499999D02*
X114605476Y-118595237D01*
X114605476Y-118595237D02*
X114700714Y-118690475D01*
X114700714Y-118690475D02*
X114748333Y-118785713D01*
X162333333Y-115867380D02*
X162285714Y-115915000D01*
X162285714Y-115915000D02*
X162142857Y-115962619D01*
X162142857Y-115962619D02*
X162047619Y-115962619D01*
X162047619Y-115962619D02*
X161904762Y-115915000D01*
X161904762Y-115915000D02*
X161809524Y-115819761D01*
X161809524Y-115819761D02*
X161761905Y-115724523D01*
X161761905Y-115724523D02*
X161714286Y-115534047D01*
X161714286Y-115534047D02*
X161714286Y-115391190D01*
X161714286Y-115391190D02*
X161761905Y-115200714D01*
X161761905Y-115200714D02*
X161809524Y-115105476D01*
X161809524Y-115105476D02*
X161904762Y-115010238D01*
X161904762Y-115010238D02*
X162047619Y-114962619D01*
X162047619Y-114962619D02*
X162142857Y-114962619D01*
X162142857Y-114962619D02*
X162285714Y-115010238D01*
X162285714Y-115010238D02*
X162333333Y-115057857D01*
X163285714Y-115962619D02*
X162714286Y-115962619D01*
X163000000Y-115962619D02*
X163000000Y-114962619D01*
X163000000Y-114962619D02*
X162904762Y-115105476D01*
X162904762Y-115105476D02*
X162809524Y-115200714D01*
X162809524Y-115200714D02*
X162714286Y-115248333D01*
X124333333Y-135462619D02*
X124000000Y-134986428D01*
X123761905Y-135462619D02*
X123761905Y-134462619D01*
X123761905Y-134462619D02*
X124142857Y-134462619D01*
X124142857Y-134462619D02*
X124238095Y-134510238D01*
X124238095Y-134510238D02*
X124285714Y-134557857D01*
X124285714Y-134557857D02*
X124333333Y-134653095D01*
X124333333Y-134653095D02*
X124333333Y-134795952D01*
X124333333Y-134795952D02*
X124285714Y-134891190D01*
X124285714Y-134891190D02*
X124238095Y-134938809D01*
X124238095Y-134938809D02*
X124142857Y-134986428D01*
X124142857Y-134986428D02*
X123761905Y-134986428D01*
X125190476Y-134462619D02*
X125000000Y-134462619D01*
X125000000Y-134462619D02*
X124904762Y-134510238D01*
X124904762Y-134510238D02*
X124857143Y-134557857D01*
X124857143Y-134557857D02*
X124761905Y-134700714D01*
X124761905Y-134700714D02*
X124714286Y-134891190D01*
X124714286Y-134891190D02*
X124714286Y-135272142D01*
X124714286Y-135272142D02*
X124761905Y-135367380D01*
X124761905Y-135367380D02*
X124809524Y-135415000D01*
X124809524Y-135415000D02*
X124904762Y-135462619D01*
X124904762Y-135462619D02*
X125095238Y-135462619D01*
X125095238Y-135462619D02*
X125190476Y-135415000D01*
X125190476Y-135415000D02*
X125238095Y-135367380D01*
X125238095Y-135367380D02*
X125285714Y-135272142D01*
X125285714Y-135272142D02*
X125285714Y-135034047D01*
X125285714Y-135034047D02*
X125238095Y-134938809D01*
X125238095Y-134938809D02*
X125190476Y-134891190D01*
X125190476Y-134891190D02*
X125095238Y-134843571D01*
X125095238Y-134843571D02*
X124904762Y-134843571D01*
X124904762Y-134843571D02*
X124809524Y-134891190D01*
X124809524Y-134891190D02*
X124761905Y-134938809D01*
X124761905Y-134938809D02*
X124714286Y-135034047D01*
X124333333Y-137962619D02*
X124000000Y-137486428D01*
X123761905Y-137962619D02*
X123761905Y-136962619D01*
X123761905Y-136962619D02*
X124142857Y-136962619D01*
X124142857Y-136962619D02*
X124238095Y-137010238D01*
X124238095Y-137010238D02*
X124285714Y-137057857D01*
X124285714Y-137057857D02*
X124333333Y-137153095D01*
X124333333Y-137153095D02*
X124333333Y-137295952D01*
X124333333Y-137295952D02*
X124285714Y-137391190D01*
X124285714Y-137391190D02*
X124238095Y-137438809D01*
X124238095Y-137438809D02*
X124142857Y-137486428D01*
X124142857Y-137486428D02*
X123761905Y-137486428D01*
X125190476Y-137295952D02*
X125190476Y-137962619D01*
X124952381Y-136915000D02*
X124714286Y-137629285D01*
X124714286Y-137629285D02*
X125333333Y-137629285D01*
X118367380Y-107916666D02*
X118415000Y-107964285D01*
X118415000Y-107964285D02*
X118462619Y-108107142D01*
X118462619Y-108107142D02*
X118462619Y-108202380D01*
X118462619Y-108202380D02*
X118415000Y-108345237D01*
X118415000Y-108345237D02*
X118319761Y-108440475D01*
X118319761Y-108440475D02*
X118224523Y-108488094D01*
X118224523Y-108488094D02*
X118034047Y-108535713D01*
X118034047Y-108535713D02*
X117891190Y-108535713D01*
X117891190Y-108535713D02*
X117700714Y-108488094D01*
X117700714Y-108488094D02*
X117605476Y-108440475D01*
X117605476Y-108440475D02*
X117510238Y-108345237D01*
X117510238Y-108345237D02*
X117462619Y-108202380D01*
X117462619Y-108202380D02*
X117462619Y-108107142D01*
X117462619Y-108107142D02*
X117510238Y-107964285D01*
X117510238Y-107964285D02*
X117557857Y-107916666D01*
X117462619Y-107059523D02*
X117462619Y-107249999D01*
X117462619Y-107249999D02*
X117510238Y-107345237D01*
X117510238Y-107345237D02*
X117557857Y-107392856D01*
X117557857Y-107392856D02*
X117700714Y-107488094D01*
X117700714Y-107488094D02*
X117891190Y-107535713D01*
X117891190Y-107535713D02*
X118272142Y-107535713D01*
X118272142Y-107535713D02*
X118367380Y-107488094D01*
X118367380Y-107488094D02*
X118415000Y-107440475D01*
X118415000Y-107440475D02*
X118462619Y-107345237D01*
X118462619Y-107345237D02*
X118462619Y-107154761D01*
X118462619Y-107154761D02*
X118415000Y-107059523D01*
X118415000Y-107059523D02*
X118367380Y-107011904D01*
X118367380Y-107011904D02*
X118272142Y-106964285D01*
X118272142Y-106964285D02*
X118034047Y-106964285D01*
X118034047Y-106964285D02*
X117938809Y-107011904D01*
X117938809Y-107011904D02*
X117891190Y-107059523D01*
X117891190Y-107059523D02*
X117843571Y-107154761D01*
X117843571Y-107154761D02*
X117843571Y-107345237D01*
X117843571Y-107345237D02*
X117891190Y-107440475D01*
X117891190Y-107440475D02*
X117938809Y-107488094D01*
X117938809Y-107488094D02*
X118034047Y-107535713D01*
D12*
X121727064Y-130735000D02*
X121272936Y-130735000D01*
X121727064Y-129265000D02*
X121272936Y-129265000D01*
X142276263Y-140645000D02*
X143723737Y-140645000D01*
X142276263Y-143355000D02*
X143723737Y-143355000D01*
X104500000Y-139000000D02*
G75*
G03*
X104500000Y-139000000I-1500000J0D01*
G01*
X104500000Y-134000000D02*
G75*
G03*
X104500000Y-134000000I-1500000J0D01*
G01*
X118765000Y-140727064D02*
X118765000Y-140272936D01*
X120235000Y-140727064D02*
X120235000Y-140272936D01*
X138021000Y-130830000D02*
X136700000Y-130830000D01*
X138021000Y-130830000D02*
X138021000Y-134767000D01*
X134250000Y-130830000D02*
X133870000Y-130830000D01*
X132129000Y-130830000D02*
X131370000Y-130830000D01*
X129630000Y-130830000D02*
X127980000Y-130830000D01*
X127980000Y-130830000D02*
X127980000Y-134767000D01*
X138021000Y-139134000D02*
X138021000Y-143070000D01*
X127980000Y-139134000D02*
X127980000Y-143070000D01*
X138021000Y-143070000D02*
X127980000Y-143070000D01*
X116765000Y-116227064D02*
X116765000Y-115772936D01*
X118235000Y-116227064D02*
X118235000Y-115772936D01*
X109735000Y-134238748D02*
X109735000Y-134761252D01*
X108265000Y-134238748D02*
X108265000Y-134761252D01*
X116510000Y-110353733D02*
X116510000Y-110646267D01*
X115490000Y-110353733D02*
X115490000Y-110646267D01*
X159353733Y-112990000D02*
X159646267Y-112990000D01*
X159353733Y-114010000D02*
X159646267Y-114010000D01*
X114735000Y-108272936D02*
X114735000Y-108727064D01*
X113265000Y-108272936D02*
X113265000Y-108727064D01*
X152245000Y-128550000D02*
X152245000Y-131450000D01*
X154150000Y-126645000D02*
X157050000Y-126645000D01*
X154150000Y-133355000D02*
X157050000Y-133355000D01*
X158955000Y-128550000D02*
X158955000Y-131450000D01*
X108265000Y-140761252D02*
X108265000Y-140238748D01*
X109735000Y-140761252D02*
X109735000Y-140238748D01*
X107070000Y-106120000D02*
X108400000Y-106120000D01*
X109670000Y-106120000D02*
X157990000Y-106120000D01*
X107070000Y-104790000D02*
X107070000Y-106120000D01*
X107070000Y-103520000D02*
X109670000Y-103520000D01*
X109670000Y-103520000D02*
X109670000Y-106120000D01*
X107070000Y-100920000D02*
X107070000Y-103520000D01*
X107070000Y-100920000D02*
X157990000Y-100920000D01*
X157990000Y-100920000D02*
X157990000Y-106120000D01*
X117730000Y-135730000D02*
X117460000Y-135730000D01*
X117460000Y-135730000D02*
X117460000Y-132900000D01*
X111100000Y-135730000D02*
X111100000Y-134630000D01*
X110830000Y-135730000D02*
X111100000Y-135730000D01*
X117730000Y-142150000D02*
X117730000Y-135730000D01*
X110830000Y-142150000D02*
X110830000Y-135730000D01*
X114265000Y-116227064D02*
X114265000Y-115772936D01*
X115735000Y-116227064D02*
X115735000Y-115772936D01*
D13*
X120300000Y-107500000D02*
X155700000Y-107500000D01*
X120300000Y-125500000D02*
X120300000Y-107500000D01*
X120300000Y-125500000D02*
X155700000Y-125500000D01*
X155700000Y-125500000D02*
X155700000Y-107500000D01*
D12*
X164000000Y-119500000D02*
G75*
G03*
X164000000Y-119500000I-1500000J0D01*
G01*
X94200000Y-107700000D02*
X108900000Y-107700000D01*
X94200000Y-116900000D02*
X94200000Y-107700000D01*
X103000000Y-116900000D02*
X94200000Y-116900000D01*
X108050000Y-107500000D02*
X109100000Y-107500000D01*
X108900000Y-107700000D02*
X108900000Y-110300000D01*
X108900000Y-114200000D02*
X108900000Y-116900000D01*
X108900000Y-116900000D02*
X107000000Y-116900000D01*
X109100000Y-108550000D02*
X109100000Y-107500000D01*
X123360000Y-133460000D02*
X123360000Y-131540000D01*
X123360000Y-131540000D02*
X120500000Y-131540000D01*
X120500000Y-133460000D02*
X123360000Y-133460000D01*
X159353733Y-114990000D02*
X159646267Y-114990000D01*
X159353733Y-116010000D02*
X159646267Y-116010000D01*
X121272936Y-134265000D02*
X121727064Y-134265000D01*
X121272936Y-135735000D02*
X121727064Y-135735000D01*
X121272936Y-136765000D02*
X121727064Y-136765000D01*
X121272936Y-138235000D02*
X121727064Y-138235000D01*
G36*
X117673007Y-120953317D02*
G01*
X117696843Y-120971937D01*
X117696849Y-120972269D01*
X117676546Y-120998174D01*
X117670168Y-120998950D01*
X117651292Y-121022098D01*
X117643488Y-121077417D01*
X117635263Y-121139033D01*
X117616807Y-121172374D01*
X117598652Y-121161102D01*
X117590323Y-121106747D01*
X117590126Y-121093907D01*
X117583528Y-121031561D01*
X117567271Y-120999930D01*
X117563446Y-120998950D01*
X117537540Y-120978646D01*
X117536765Y-120972269D01*
X117559950Y-120953536D01*
X117615811Y-120945590D01*
X117616807Y-120945588D01*
X117673007Y-120953317D01*
G37*
G36*
X117929068Y-120987340D02*
G01*
X117933954Y-121065604D01*
X117933818Y-121072322D01*
X117931060Y-121143186D01*
X117926229Y-121165013D01*
X117917257Y-121142124D01*
X117911466Y-121119013D01*
X117892271Y-121038971D01*
X117871709Y-121112343D01*
X117850461Y-121165194D01*
X117830252Y-121185714D01*
X117808866Y-121163109D01*
X117788795Y-121112343D01*
X117768234Y-121038971D01*
X117749038Y-121119013D01*
X117737589Y-121160199D01*
X117731191Y-121158571D01*
X117727777Y-121109805D01*
X117726686Y-121072322D01*
X117731332Y-120992121D01*
X117746830Y-120950949D01*
X117768185Y-120953353D01*
X117790404Y-121003881D01*
X117792615Y-121012290D01*
X117813040Y-121062231D01*
X117832636Y-121078992D01*
X117855740Y-121056386D01*
X117872657Y-121012290D01*
X117894064Y-120956408D01*
X117914320Y-120949517D01*
X117929068Y-120987340D01*
G37*
G36*
X106818479Y-120803908D02*
G01*
X106964874Y-120836743D01*
X107132013Y-120892064D01*
X107330206Y-120971758D01*
X107470653Y-121026373D01*
X107591298Y-121063297D01*
X107679532Y-121078755D01*
X107688331Y-121078992D01*
X107784269Y-121063463D01*
X107851357Y-121021722D01*
X107878271Y-120961035D01*
X107878362Y-120957023D01*
X107902405Y-120927268D01*
X107958404Y-120918908D01*
X108038446Y-120918908D01*
X108038446Y-121612605D01*
X108038446Y-122306303D01*
X107961373Y-122306303D01*
X107908480Y-122299307D01*
X107881047Y-122267969D01*
X107866122Y-122209407D01*
X107823917Y-122051780D01*
X107755784Y-121873584D01*
X107670299Y-121694952D01*
X107585019Y-121549538D01*
X107423567Y-121336084D01*
X107251655Y-121173724D01*
X107066787Y-121060788D01*
X106866468Y-120995607D01*
X106731093Y-120978304D01*
X106556233Y-120977506D01*
X106416127Y-121001362D01*
X106296247Y-121054058D01*
X106187446Y-121135016D01*
X106072649Y-121255632D01*
X105976470Y-121401056D01*
X105897940Y-121575235D01*
X105836090Y-121782112D01*
X105789951Y-122025634D01*
X105758554Y-122309746D01*
X105740932Y-122638392D01*
X105736047Y-122973320D01*
X105742544Y-123353959D01*
X105762465Y-123685899D01*
X105796479Y-123972255D01*
X105845252Y-124216141D01*
X105909455Y-124420673D01*
X105989753Y-124588964D01*
X106086817Y-124724131D01*
X106118952Y-124758335D01*
X106198421Y-124831444D01*
X106273332Y-124881292D01*
X106356932Y-124912154D01*
X106462471Y-124928305D01*
X106603198Y-124934022D01*
X106664391Y-124934349D01*
X106797475Y-124933279D01*
X106892412Y-124928277D01*
X106964400Y-124916659D01*
X107028638Y-124895740D01*
X107100327Y-124862833D01*
X107117435Y-124854307D01*
X107310206Y-124729091D01*
X107483276Y-124559959D01*
X107631484Y-124354334D01*
X107749671Y-124119643D01*
X107832677Y-123863311D01*
X107845224Y-123807091D01*
X107890526Y-123586975D01*
X107977826Y-123586975D01*
X108065126Y-123586975D01*
X108065126Y-124307353D01*
X108065126Y-125027731D01*
X107971744Y-125027731D01*
X107908967Y-125023210D01*
X107883220Y-125000643D01*
X107878362Y-124949595D01*
X107859516Y-124867549D01*
X107811199Y-124808381D01*
X107750736Y-124787605D01*
X107709179Y-124798917D01*
X107632679Y-124829369D01*
X107533767Y-124873738D01*
X107465824Y-124906368D01*
X107341860Y-124963588D01*
X107214997Y-125015821D01*
X107105737Y-125054842D01*
X107068560Y-125065698D01*
X106880613Y-125101205D01*
X106670604Y-125119207D01*
X106461726Y-125118811D01*
X106277170Y-125099124D01*
X106264181Y-125096694D01*
X105966088Y-125013203D01*
X105695577Y-124884122D01*
X105453112Y-124709820D01*
X105239157Y-124490663D01*
X105054176Y-124227020D01*
X104968145Y-124069584D01*
X104883296Y-123885459D01*
X104821933Y-123713390D01*
X104780820Y-123538409D01*
X104756719Y-123345548D01*
X104746393Y-123119838D01*
X104745478Y-123040021D01*
X104750258Y-122795442D01*
X104769805Y-122586476D01*
X104807719Y-122396554D01*
X104867603Y-122209109D01*
X104953058Y-122007572D01*
X104984154Y-121942020D01*
X105150998Y-121649331D01*
X105348344Y-121395392D01*
X105572999Y-121182561D01*
X105821768Y-121013195D01*
X106091459Y-120889652D01*
X106378878Y-120814289D01*
X106538335Y-120794609D01*
X106680432Y-120790788D01*
X106818479Y-120803908D01*
G37*
G36*
X114975420Y-121024462D02*
G01*
X114975420Y-121103335D01*
X114781985Y-121111174D01*
X114588551Y-121119013D01*
X114580490Y-122279622D01*
X114578856Y-122633980D01*
X114579390Y-122939889D01*
X114582320Y-123202225D01*
X114587875Y-123425864D01*
X114596282Y-123615684D01*
X114607771Y-123776561D01*
X114622571Y-123913371D01*
X114640909Y-124030992D01*
X114663015Y-124134299D01*
X114668435Y-124155699D01*
X114749560Y-124389002D01*
X114860247Y-124578304D01*
X115001182Y-124724478D01*
X115173052Y-124828397D01*
X115209651Y-124843588D01*
X115345025Y-124880377D01*
X115508140Y-124901101D01*
X115680031Y-124905395D01*
X115841731Y-124892894D01*
X115974278Y-124863235D01*
X115987274Y-124858525D01*
X116172744Y-124759902D01*
X116337287Y-124616914D01*
X116473888Y-124436714D01*
X116554109Y-124280672D01*
X116567687Y-124247924D01*
X116579153Y-124215991D01*
X116588711Y-124180236D01*
X116596569Y-124136021D01*
X116602930Y-124078709D01*
X116608002Y-124003661D01*
X116611988Y-123906241D01*
X116615096Y-123781811D01*
X116617529Y-123625733D01*
X116619494Y-123433369D01*
X116621196Y-123200082D01*
X116622841Y-122921235D01*
X116624035Y-122702590D01*
X116631789Y-121271251D01*
X116569104Y-121198376D01*
X116513186Y-121149261D01*
X116440241Y-121122479D01*
X116367916Y-121112192D01*
X116286982Y-121102369D01*
X116245876Y-121087329D01*
X116231178Y-121058358D01*
X116229412Y-121022236D01*
X116229412Y-120945588D01*
X116736345Y-120945588D01*
X117243277Y-120945588D01*
X117243277Y-121025630D01*
X117239725Y-121075070D01*
X117219355Y-121098336D01*
X117167602Y-121105263D01*
X117124702Y-121105672D01*
X117003935Y-121124000D01*
X116917556Y-121180957D01*
X116862439Y-121279506D01*
X116840799Y-121374728D01*
X116836530Y-121430981D01*
X116832477Y-121534486D01*
X116828739Y-121679135D01*
X116825417Y-121858821D01*
X116822609Y-122067435D01*
X116820415Y-122298868D01*
X116818935Y-122547013D01*
X116818335Y-122751891D01*
X116817123Y-123083382D01*
X116814631Y-123373782D01*
X116810907Y-123620954D01*
X116806001Y-123822762D01*
X116799961Y-123977070D01*
X116792836Y-124081741D01*
X116786902Y-124125945D01*
X116710771Y-124368242D01*
X116590866Y-124581558D01*
X116429825Y-124763248D01*
X116230289Y-124910662D01*
X115994893Y-125021153D01*
X115850889Y-125065279D01*
X115748012Y-125084620D01*
X115610500Y-125101192D01*
X115455632Y-125113873D01*
X115300689Y-125121544D01*
X115162949Y-125123085D01*
X115059694Y-125117375D01*
X115055462Y-125116842D01*
X114764949Y-125057695D01*
X114505035Y-124961605D01*
X114279234Y-124830717D01*
X114091060Y-124667174D01*
X113944027Y-124473122D01*
X113914348Y-124420544D01*
X113877517Y-124350788D01*
X113846221Y-124288479D01*
X113819977Y-124228744D01*
X113798299Y-124166708D01*
X113780706Y-124097495D01*
X113766714Y-124016232D01*
X113755839Y-123918044D01*
X113747597Y-123798055D01*
X113741506Y-123651391D01*
X113737082Y-123473177D01*
X113733841Y-123258540D01*
X113731299Y-123002603D01*
X113728974Y-122700493D01*
X113727809Y-122539759D01*
X113717370Y-121105672D01*
X113519295Y-121105672D01*
X113321219Y-121105672D01*
X113321219Y-121025630D01*
X113321219Y-120945588D01*
X114148320Y-120945588D01*
X114975420Y-120945588D01*
X114975420Y-121024462D01*
G37*
G36*
X113054412Y-121025630D02*
G01*
X113054412Y-121105672D01*
X112867647Y-121105672D01*
X112680883Y-121105672D01*
X112680883Y-122986660D01*
X112680883Y-124867647D01*
X112867647Y-124867647D01*
X113054412Y-124867647D01*
X113054412Y-124947689D01*
X113054412Y-125027731D01*
X112253992Y-125027731D01*
X111453572Y-125027731D01*
X111453572Y-124948858D01*
X111453572Y-124869985D01*
X111647006Y-124862146D01*
X111840441Y-124854307D01*
X111847297Y-123014489D01*
X111848127Y-122707328D01*
X111848299Y-122416948D01*
X111847850Y-122147573D01*
X111846816Y-121903424D01*
X111845233Y-121688723D01*
X111843139Y-121507693D01*
X111840568Y-121364555D01*
X111837558Y-121263532D01*
X111834145Y-121208847D01*
X111831676Y-121200203D01*
X111819935Y-121228443D01*
X111792103Y-121303202D01*
X111749552Y-121420573D01*
X111693655Y-121576653D01*
X111625782Y-121767535D01*
X111547305Y-121989315D01*
X111459596Y-122238087D01*
X111364027Y-122509946D01*
X111261968Y-122800988D01*
X111154792Y-123107306D01*
X111043871Y-123424997D01*
X110930576Y-123750154D01*
X110816278Y-124078873D01*
X110702349Y-124407248D01*
X110590162Y-124731374D01*
X110517254Y-124942477D01*
X110490148Y-125002068D01*
X110453005Y-125023400D01*
X110403500Y-125022519D01*
X110320169Y-125014391D01*
X109639222Y-123075269D01*
X109530839Y-122767088D01*
X109427276Y-122473509D01*
X109329926Y-122198425D01*
X109240183Y-121945733D01*
X109159439Y-121719326D01*
X109089088Y-121523099D01*
X109030523Y-121360948D01*
X108985136Y-121236767D01*
X108954322Y-121154451D01*
X108939473Y-121117895D01*
X108938592Y-121116463D01*
X108934366Y-121137743D01*
X108930696Y-121207025D01*
X108927569Y-121318949D01*
X108924978Y-121468159D01*
X108922913Y-121649297D01*
X108921363Y-121857006D01*
X108920320Y-122085927D01*
X108919773Y-122330704D01*
X108919713Y-122585978D01*
X108920131Y-122846392D01*
X108921016Y-123106589D01*
X108922359Y-123361210D01*
X108924150Y-123604899D01*
X108926380Y-123832297D01*
X108929039Y-124038048D01*
X108932118Y-124216793D01*
X108935606Y-124363175D01*
X108939495Y-124471836D01*
X108943774Y-124537419D01*
X108944763Y-124545511D01*
X108975818Y-124682364D01*
X109027053Y-124775172D01*
X109105576Y-124831627D01*
X109218495Y-124859420D01*
X109236700Y-124861390D01*
X109316634Y-124871218D01*
X109356862Y-124886626D01*
X109370935Y-124916563D01*
X109372479Y-124951084D01*
X109372479Y-125027731D01*
X108878887Y-125027731D01*
X108385294Y-125027731D01*
X108385294Y-124951099D01*
X108391458Y-124900190D01*
X108420067Y-124873805D01*
X108486296Y-124858319D01*
X108489124Y-124857864D01*
X108593564Y-124819616D01*
X108673437Y-124749595D01*
X108695673Y-124722558D01*
X108714857Y-124693137D01*
X108731191Y-124657447D01*
X108744876Y-124611602D01*
X108756114Y-124551717D01*
X108765107Y-124473905D01*
X108772056Y-124374283D01*
X108777164Y-124248963D01*
X108780632Y-124094062D01*
X108782661Y-123905692D01*
X108783454Y-123679969D01*
X108783211Y-123413008D01*
X108782136Y-123100923D01*
X108780429Y-122739828D01*
X108780192Y-122693172D01*
X108772164Y-121119013D01*
X108578729Y-121111174D01*
X108385294Y-121103335D01*
X108385294Y-121024462D01*
X108385294Y-120945588D01*
X109112343Y-120945772D01*
X109839391Y-120945955D01*
X110275415Y-122233114D01*
X110361201Y-122486037D01*
X110442652Y-122725562D01*
X110518008Y-122946554D01*
X110585506Y-123143876D01*
X110643386Y-123312393D01*
X110689888Y-123446968D01*
X110723249Y-123542465D01*
X110741708Y-123593749D01*
X110743692Y-123598825D01*
X110751515Y-123613580D01*
X110760774Y-123618415D01*
X110772923Y-123609648D01*
X110789418Y-123583594D01*
X110811714Y-123536569D01*
X110841265Y-123464891D01*
X110879526Y-123364875D01*
X110927954Y-123232837D01*
X110988002Y-123065095D01*
X111061125Y-122857964D01*
X111148779Y-122607761D01*
X111252182Y-122311482D01*
X111728420Y-120945588D01*
X112391416Y-120945588D01*
X113054412Y-120945588D01*
X113054412Y-121025630D01*
G37*
X118510000Y-110353733D02*
X118510000Y-110646267D01*
X117490000Y-110353733D02*
X117490000Y-110646267D01*
X104500000Y-129000000D02*
G75*
G03*
X104500000Y-129000000I-1500000J0D01*
G01*
G36*
X146344498Y-127503657D02*
G01*
X146445478Y-127511715D01*
X146532761Y-127524981D01*
X146565485Y-127532624D01*
X146736420Y-127591218D01*
X146892374Y-127669786D01*
X147032539Y-127766397D01*
X147156106Y-127879119D01*
X147262266Y-128006019D01*
X147350212Y-128145166D01*
X147419134Y-128294628D01*
X147468225Y-128452471D01*
X147496674Y-128616766D01*
X147503674Y-128785578D01*
X147488417Y-128956976D01*
X147450093Y-129129029D01*
X147387894Y-129299803D01*
X147343560Y-129391828D01*
X147312759Y-129444761D01*
X147280482Y-129490989D01*
X147252214Y-129522822D01*
X147247040Y-129527158D01*
X147196280Y-129553730D01*
X147138690Y-129565255D01*
X147084296Y-129560478D01*
X147059676Y-129550619D01*
X147031543Y-129525993D01*
X147006251Y-129490204D01*
X147002729Y-129483299D01*
X146988922Y-129429225D01*
X146998629Y-129372443D01*
X147032402Y-129310666D01*
X147049906Y-129287569D01*
X147087713Y-129231946D01*
X147126677Y-129159901D01*
X147162464Y-129080519D01*
X147190740Y-129002887D01*
X147198568Y-128975911D01*
X147211497Y-128904651D01*
X147218403Y-128817163D01*
X147219270Y-128722606D01*
X147214084Y-128630143D01*
X147202830Y-128548934D01*
X147199276Y-128532357D01*
X147183671Y-128479514D01*
X147159688Y-128414340D01*
X147131377Y-128347447D01*
X147117077Y-128317103D01*
X147087751Y-128260302D01*
X147059449Y-128213784D01*
X147026961Y-128170590D01*
X146985077Y-128123759D01*
X146931507Y-128069234D01*
X146813511Y-127964880D01*
X146693060Y-127885205D01*
X146566871Y-127828812D01*
X146431661Y-127794301D01*
X146284147Y-127780274D01*
X146252197Y-127779801D01*
X146109958Y-127787786D01*
X145981778Y-127813801D01*
X145861135Y-127859844D01*
X145741505Y-127927913D01*
X145719019Y-127943042D01*
X145647614Y-127983350D01*
X145585834Y-127999413D01*
X145533663Y-127991231D01*
X145491088Y-127958806D01*
X145486367Y-127952953D01*
X145469557Y-127910978D01*
X145472584Y-127859804D01*
X145493461Y-127804531D01*
X145530200Y-127750259D01*
X145580813Y-127702085D01*
X145585577Y-127698518D01*
X145652777Y-127655526D01*
X145735976Y-127611729D01*
X145825609Y-127571548D01*
X145912113Y-127539402D01*
X145960263Y-127525374D01*
X146037704Y-127511665D01*
X146132778Y-127503538D01*
X146237654Y-127500900D01*
X146344498Y-127503657D01*
G37*
G36*
X146374164Y-126669169D02*
G01*
X146479229Y-126674698D01*
X146570222Y-126683513D01*
X146617668Y-126690819D01*
X146811684Y-126738148D01*
X147008802Y-126807366D01*
X147202925Y-126895942D01*
X147387959Y-127001349D01*
X147427053Y-127026685D01*
X147518662Y-127094222D01*
X147617841Y-127179039D01*
X147719268Y-127275732D01*
X147817624Y-127378897D01*
X147907587Y-127483131D01*
X147983836Y-127583028D01*
X148004388Y-127613071D01*
X148122042Y-127810579D01*
X148216053Y-128013319D01*
X148288869Y-128226901D01*
X148314311Y-128323626D01*
X148322255Y-128359813D01*
X148328378Y-128397082D01*
X148332904Y-128439431D01*
X148336062Y-128490857D01*
X148338077Y-128555360D01*
X148339177Y-128636936D01*
X148339588Y-128739584D01*
X148339610Y-128769588D01*
X148339161Y-128890024D01*
X148337645Y-128987660D01*
X148334913Y-129065770D01*
X148330820Y-129127630D01*
X148325216Y-129176514D01*
X148319937Y-129206620D01*
X148270837Y-129391821D01*
X148201130Y-129578797D01*
X148114360Y-129759446D01*
X148014070Y-129925671D01*
X147990399Y-129959703D01*
X147948427Y-130016679D01*
X147915385Y-130056348D01*
X147886427Y-130083560D01*
X147856707Y-130103169D01*
X147837442Y-130112862D01*
X147764157Y-130137852D01*
X147701271Y-130139452D01*
X147665515Y-130127995D01*
X147640072Y-130106210D01*
X147621254Y-130076019D01*
X147612893Y-130035558D01*
X147620618Y-129989262D01*
X147645626Y-129933847D01*
X147689111Y-129866031D01*
X147706502Y-129842015D01*
X147768616Y-129749432D01*
X147831137Y-129640989D01*
X147889054Y-129526349D01*
X147937352Y-129415172D01*
X147959653Y-129354078D01*
X148017049Y-129142460D01*
X148049456Y-128930485D01*
X148057575Y-128719926D01*
X148042106Y-128512555D01*
X148003750Y-128310143D01*
X147943207Y-128114463D01*
X147861179Y-127927286D01*
X147758365Y-127750386D01*
X147635467Y-127585533D01*
X147493186Y-127434500D01*
X147332221Y-127299059D01*
X147153274Y-127180982D01*
X147085644Y-127143622D01*
X146896830Y-127058790D01*
X146699364Y-126997250D01*
X146495910Y-126958787D01*
X146289129Y-126943184D01*
X146081684Y-126950224D01*
X145876237Y-126979691D01*
X145675452Y-127031367D01*
X145481989Y-127105037D01*
X145298513Y-127200483D01*
X145148862Y-127301233D01*
X145076234Y-127350761D01*
X145015685Y-127379354D01*
X144964252Y-127387392D01*
X144918970Y-127375257D01*
X144876874Y-127343331D01*
X144870795Y-127337014D01*
X144847293Y-127295010D01*
X144848480Y-127246675D01*
X144873885Y-127192587D01*
X144923036Y-127133326D01*
X144995464Y-127069471D01*
X145090697Y-127001599D01*
X145195907Y-126937335D01*
X145385397Y-126841102D01*
X145585410Y-126764420D01*
X145800373Y-126705672D01*
X145870823Y-126690832D01*
X145946362Y-126679926D01*
X146041125Y-126672307D01*
X146148452Y-126667974D01*
X146261685Y-126666928D01*
X146374164Y-126669169D01*
G37*
G36*
X145877359Y-128710479D02*
G01*
X146161068Y-128710479D01*
X146172133Y-128764228D01*
X146201635Y-128805281D01*
X146244037Y-128831231D01*
X146293798Y-128839673D01*
X146345380Y-128828199D01*
X146380885Y-128805964D01*
X146417992Y-128760602D01*
X146429924Y-128708499D01*
X146417227Y-128651986D01*
X146386534Y-128605670D01*
X146345122Y-128578761D01*
X146298268Y-128570055D01*
X146251250Y-128578347D01*
X146209344Y-128602432D01*
X146177829Y-128641104D01*
X146161980Y-128693160D01*
X146161068Y-128710479D01*
X145877359Y-128710479D01*
X145876450Y-128676615D01*
X145885609Y-128599958D01*
X145905452Y-128535509D01*
X145906931Y-128532357D01*
X145940245Y-128480874D01*
X145989624Y-128425892D01*
X146047406Y-128374771D01*
X146105933Y-128334874D01*
X146120331Y-128327247D01*
X146156835Y-128311869D01*
X146194944Y-128302786D01*
X146243241Y-128298574D01*
X146298048Y-128297758D01*
X146381070Y-128302161D01*
X146447513Y-128317373D01*
X146505731Y-128346932D01*
X146564073Y-128394381D01*
X146592780Y-128422704D01*
X146655342Y-128503926D01*
X146694260Y-128592602D01*
X146709701Y-128685526D01*
X146701836Y-128779490D01*
X146670832Y-128871286D01*
X146616859Y-128957707D01*
X146561491Y-129016990D01*
X146478115Y-129077731D01*
X146388332Y-129114703D01*
X146294984Y-129127249D01*
X146200913Y-129114714D01*
X146174114Y-129106368D01*
X146140102Y-129094635D01*
X146118394Y-129087650D01*
X146114890Y-129086800D01*
X146105340Y-129095861D01*
X146079244Y-129121916D01*
X146038267Y-129163272D01*
X145984073Y-129218238D01*
X145918327Y-129285121D01*
X145842692Y-129362230D01*
X145758833Y-129447872D01*
X145668413Y-129540354D01*
X145612778Y-129597324D01*
X145114428Y-130107849D01*
X146241112Y-131235481D01*
X147367796Y-132363112D01*
X147263431Y-132461892D01*
X147137380Y-132572559D01*
X146992863Y-132684680D01*
X146836780Y-132793598D01*
X146676031Y-132894657D01*
X146517514Y-132983202D01*
X146418563Y-133032016D01*
X146147573Y-133143703D01*
X145867147Y-133231480D01*
X145576373Y-133295604D01*
X145365622Y-133326619D01*
X145301129Y-133331952D01*
X145216485Y-133335572D01*
X145117571Y-133337535D01*
X145010269Y-133337897D01*
X144900459Y-133336714D01*
X144794021Y-133334042D01*
X144696837Y-133329937D01*
X144614787Y-133324455D01*
X144562968Y-133318977D01*
X144269031Y-133266411D01*
X143984805Y-133189678D01*
X143710809Y-133089030D01*
X143447561Y-132964719D01*
X143195581Y-132816996D01*
X142955387Y-132646114D01*
X142727498Y-132452325D01*
X142674653Y-132402396D01*
X142470436Y-132187778D01*
X142287781Y-131958725D01*
X142127134Y-131716130D01*
X141988940Y-131460885D01*
X141873646Y-131193882D01*
X141781698Y-130916015D01*
X141713543Y-130628174D01*
X141678900Y-130410944D01*
X141669152Y-130308150D01*
X141663208Y-130187094D01*
X141660936Y-130054156D01*
X141661788Y-129961081D01*
X142221742Y-129961081D01*
X142224624Y-130131284D01*
X142235279Y-130298586D01*
X142253454Y-130454198D01*
X142265938Y-130528351D01*
X142328960Y-130792168D01*
X142415571Y-131044864D01*
X142525645Y-131286197D01*
X142659054Y-131515922D01*
X142815672Y-131733797D01*
X142995373Y-131939578D01*
X143008176Y-131952867D01*
X143198280Y-132130397D01*
X143405085Y-132288570D01*
X143626939Y-132426574D01*
X143862191Y-132543599D01*
X144109190Y-132638832D01*
X144366285Y-132711464D01*
X144631824Y-132760683D01*
X144660811Y-132764548D01*
X144731899Y-132770962D01*
X144822242Y-132775046D01*
X144925117Y-132776856D01*
X145033795Y-132776448D01*
X145141553Y-132773878D01*
X145241663Y-132769202D01*
X145327400Y-132762477D01*
X145360095Y-132758719D01*
X145626985Y-132711156D01*
X145885950Y-132639752D01*
X146134433Y-132545253D01*
X146210275Y-132510751D01*
X146275343Y-132478938D01*
X146343466Y-132443966D01*
X146408845Y-132408976D01*
X146465683Y-132377110D01*
X146508183Y-132351510D01*
X146524126Y-132340661D01*
X146515461Y-132331268D01*
X146489189Y-132304289D01*
X146446162Y-132260577D01*
X146387230Y-132200989D01*
X146313245Y-132126377D01*
X146225059Y-132037597D01*
X146123522Y-131935503D01*
X146009485Y-131820950D01*
X145883800Y-131694791D01*
X145747319Y-131557882D01*
X145600891Y-131411077D01*
X145445369Y-131255230D01*
X145281604Y-131091197D01*
X145110447Y-130919830D01*
X144932749Y-130741986D01*
X144749362Y-130558518D01*
X144595429Y-130404571D01*
X144407978Y-130217166D01*
X144225452Y-130034753D01*
X144048704Y-129858182D01*
X143878589Y-129688305D01*
X143715962Y-129525972D01*
X143561678Y-129372035D01*
X143416590Y-129227346D01*
X143281553Y-129092755D01*
X143157423Y-128969113D01*
X143045052Y-128857273D01*
X142945296Y-128758084D01*
X142859010Y-128672398D01*
X142787047Y-128601067D01*
X142730263Y-128544941D01*
X142689511Y-128504872D01*
X142665647Y-128481711D01*
X142659280Y-128475932D01*
X142631258Y-128518840D01*
X142596025Y-128580617D01*
X142556189Y-128655958D01*
X142514357Y-128739556D01*
X142473136Y-128826108D01*
X142435133Y-128910308D01*
X142402954Y-128986851D01*
X142384722Y-129034617D01*
X142347893Y-129148469D01*
X142312470Y-129278683D01*
X142280744Y-129415542D01*
X142255004Y-129549331D01*
X142240326Y-129647126D01*
X142226891Y-129796766D01*
X142221742Y-129961081D01*
X141661788Y-129961081D01*
X141662204Y-129915714D01*
X141666881Y-129778148D01*
X141674834Y-129647838D01*
X141685932Y-129531163D01*
X141698921Y-129440709D01*
X141762810Y-129152295D01*
X141850012Y-128872674D01*
X141959705Y-128603517D01*
X142091069Y-128346495D01*
X142243281Y-128103276D01*
X142415519Y-127875533D01*
X142536505Y-127738002D01*
X142632553Y-127635070D01*
X143206389Y-128214047D01*
X143329946Y-128338694D01*
X143465917Y-128475836D01*
X143610009Y-128621143D01*
X143757927Y-128770287D01*
X143905379Y-128918939D01*
X144048070Y-129062769D01*
X144181706Y-129197450D01*
X144301995Y-129318651D01*
X144320595Y-129337389D01*
X144418804Y-129436426D01*
X144511616Y-129530217D01*
X144597381Y-129617081D01*
X144674448Y-129695339D01*
X144741169Y-129763309D01*
X144795893Y-129819312D01*
X144836971Y-129861667D01*
X144862753Y-129888695D01*
X144871487Y-129898478D01*
X144881043Y-129895423D01*
X144904694Y-129877340D01*
X144942994Y-129843703D01*
X144996499Y-129793986D01*
X145065763Y-129727662D01*
X145151342Y-129644206D01*
X145253790Y-129543091D01*
X145373664Y-129423791D01*
X145397837Y-129399643D01*
X145913666Y-128884084D01*
X145892427Y-128821752D01*
X145878535Y-128754279D01*
X145877359Y-128710479D01*
G37*
%LPC*%
D14*
X122500000Y-130000000D03*
X120500000Y-130000000D03*
D15*
X141450000Y-142000000D03*
X144550000Y-142000000D03*
D16*
X103000000Y-139000000D03*
X103000000Y-134000000D03*
D17*
X119500000Y-141500000D03*
X119500000Y-139500000D03*
D18*
X135500000Y-129950000D03*
D19*
X133000000Y-129950000D03*
X130500000Y-129950000D03*
D20*
X137400000Y-136950000D03*
X128600000Y-136950000D03*
D17*
X117500000Y-117000000D03*
X117500000Y-115000000D03*
D21*
X109000000Y-133462500D03*
X109000000Y-135537500D03*
D22*
X116000000Y-109637500D03*
X116000000Y-111362500D03*
D23*
X158637500Y-113500000D03*
X160362500Y-113500000D03*
D24*
X114000000Y-107500000D03*
X114000000Y-109500000D03*
D25*
X155600000Y-130000000D03*
D26*
X153060000Y-127460000D03*
X153060000Y-132540000D03*
X158140000Y-127460000D03*
X158140000Y-132540000D03*
D27*
X109000000Y-141537500D03*
X109000000Y-139462500D03*
D28*
X159475000Y-103500000D03*
X160068109Y-102068109D03*
X160068109Y-104931891D03*
X161500000Y-101475000D03*
D29*
X161500000Y-103500000D03*
D28*
X161500000Y-105525000D03*
X162931891Y-102068109D03*
X162931891Y-104931891D03*
X163525000Y-103500000D03*
D30*
X108400000Y-104790000D03*
D31*
X108400000Y-102250000D03*
X110940000Y-104790000D03*
X110940000Y-102250000D03*
X113480000Y-104790000D03*
X113480000Y-102250000D03*
X116020000Y-104790000D03*
X116020000Y-102250000D03*
X118560000Y-104790000D03*
X118560000Y-102250000D03*
X121100000Y-104790000D03*
X121100000Y-102250000D03*
X123640000Y-104790000D03*
X123640000Y-102250000D03*
X126180000Y-104790000D03*
X126180000Y-102250000D03*
X128720000Y-104790000D03*
X128720000Y-102250000D03*
X131260000Y-104790000D03*
X131260000Y-102250000D03*
X133800000Y-104790000D03*
X133800000Y-102250000D03*
X136340000Y-104790000D03*
X136340000Y-102250000D03*
X138880000Y-104790000D03*
X138880000Y-102250000D03*
X141420000Y-104790000D03*
X141420000Y-102250000D03*
X143960000Y-104790000D03*
X143960000Y-102250000D03*
X146500000Y-104790000D03*
X146500000Y-102250000D03*
X149040000Y-104790000D03*
X149040000Y-102250000D03*
X151580000Y-104790000D03*
X151580000Y-102250000D03*
X154120000Y-104790000D03*
X154120000Y-102250000D03*
X156660000Y-104790000D03*
X156660000Y-102250000D03*
D32*
X116560000Y-134000000D03*
D33*
X114280000Y-140300000D03*
D32*
X112000000Y-134000000D03*
D17*
X115000000Y-117000000D03*
X115000000Y-115000000D03*
D34*
X155600000Y-123500000D03*
X155600000Y-121500000D03*
X155600000Y-119500000D03*
X155600000Y-117500000D03*
X155600000Y-115500000D03*
X155600000Y-113500000D03*
X155600000Y-111500000D03*
X155600000Y-109500000D03*
X120600000Y-109500000D03*
X120600000Y-111500000D03*
X120600000Y-113500000D03*
X120600000Y-115500000D03*
X120600000Y-117500000D03*
X120600000Y-119500000D03*
X120600000Y-121500000D03*
X120600000Y-123500000D03*
D35*
X141032500Y-114750000D03*
D16*
X162500000Y-119500000D03*
D36*
X108000000Y-112300000D03*
D37*
X102000000Y-112300000D03*
D38*
X105000000Y-117000000D03*
D39*
X122525000Y-132500000D03*
X120475000Y-132500000D03*
D23*
X158637500Y-115500000D03*
X160362500Y-115500000D03*
D40*
X120500000Y-135000000D03*
X122500000Y-135000000D03*
X120500000Y-137500000D03*
X122500000Y-137500000D03*
D22*
X118000000Y-109637500D03*
X118000000Y-111362500D03*
D16*
X103000000Y-129000000D03*
D28*
X101475000Y-103500000D03*
X102068109Y-102068109D03*
X102068109Y-104931891D03*
X103500000Y-101475000D03*
D29*
X103500000Y-103500000D03*
D28*
X103500000Y-105525000D03*
X104931891Y-102068109D03*
X104931891Y-104931891D03*
X105525000Y-103500000D03*
M02*
