G04 #@! TF.GenerationSoftware,KiCad,Pcbnew,7.0.1*
G04 #@! TF.CreationDate,2023-11-13T16:16:04-05:00*
G04 #@! TF.ProjectId,Radio HAT,52616469-6f20-4484-9154-2e6b69636164,v1.1*
G04 #@! TF.SameCoordinates,Original*
G04 #@! TF.FileFunction,Paste,Top*
G04 #@! TF.FilePolarity,Positive*
%FSLAX46Y46*%
G04 Gerber Fmt 4.6, Leading zero omitted, Abs format (unit mm)*
G04 Created by KiCad (PCBNEW 7.0.1) date 2023-11-13 16:16:04*
%MOMM*%
%LPD*%
G01*
G04 APERTURE LIST*
G04 Aperture macros list*
%AMRoundRect*
0 Rectangle with rounded corners*
0 $1 Rounding radius*
0 $2 $3 $4 $5 $6 $7 $8 $9 X,Y pos of 4 corners*
0 Add a 4 corners polygon primitive as box body*
4,1,4,$2,$3,$4,$5,$6,$7,$8,$9,$2,$3,0*
0 Add four circle primitives for the rounded corners*
1,1,$1+$1,$2,$3*
1,1,$1+$1,$4,$5*
1,1,$1+$1,$6,$7*
1,1,$1+$1,$8,$9*
0 Add four rect primitives between the rounded corners*
20,1,$1+$1,$2,$3,$4,$5,0*
20,1,$1+$1,$4,$5,$6,$7,0*
20,1,$1+$1,$6,$7,$8,$9,0*
20,1,$1+$1,$8,$9,$2,$3,0*%
G04 Aperture macros list end*
%ADD10RoundRect,0.250000X0.350000X0.450000X-0.350000X0.450000X-0.350000X-0.450000X0.350000X-0.450000X0*%
%ADD11RoundRect,0.250000X-0.400000X-1.075000X0.400000X-1.075000X0.400000X1.075000X-0.400000X1.075000X0*%
%ADD12RoundRect,0.250000X0.450000X-0.350000X0.450000X0.350000X-0.450000X0.350000X-0.450000X-0.350000X0*%
%ADD13RoundRect,0.250000X-0.475000X0.337500X-0.475000X-0.337500X0.475000X-0.337500X0.475000X0.337500X0*%
%ADD14RoundRect,0.237500X-0.237500X0.300000X-0.237500X-0.300000X0.237500X-0.300000X0.237500X0.300000X0*%
%ADD15RoundRect,0.237500X-0.300000X-0.237500X0.300000X-0.237500X0.300000X0.237500X-0.300000X0.237500X0*%
%ADD16RoundRect,0.250000X-0.450000X0.350000X-0.450000X-0.350000X0.450000X-0.350000X0.450000X0.350000X0*%
%ADD17RoundRect,0.250000X0.475000X-0.337500X0.475000X0.337500X-0.475000X0.337500X-0.475000X-0.337500X0*%
%ADD18RoundRect,0.250000X-0.350000X0.850000X-0.350000X-0.850000X0.350000X-0.850000X0.350000X0.850000X0*%
%ADD19RoundRect,0.250000X-1.125000X1.275000X-1.125000X-1.275000X1.125000X-1.275000X1.125000X1.275000X0*%
%ADD20R,2.000000X1.300000*%
%ADD21RoundRect,0.250000X0.325000X0.450000X-0.325000X0.450000X-0.325000X-0.450000X0.325000X-0.450000X0*%
%ADD22RoundRect,0.250000X-0.350000X-0.450000X0.350000X-0.450000X0.350000X0.450000X-0.350000X0.450000X0*%
G04 APERTURE END LIST*
D10*
X122500000Y-130000000D03*
X120500000Y-130000000D03*
D11*
X141450000Y-142000000D03*
X144550000Y-142000000D03*
D12*
X119500000Y-141500000D03*
X119500000Y-139500000D03*
X117500000Y-117000000D03*
X117500000Y-115000000D03*
D13*
X109000000Y-133462500D03*
X109000000Y-135537500D03*
D14*
X116000000Y-109637500D03*
X116000000Y-111362500D03*
D15*
X158637500Y-113500000D03*
X160362500Y-113500000D03*
D16*
X114000000Y-107500000D03*
X114000000Y-109500000D03*
D17*
X109000000Y-141537500D03*
X109000000Y-139462500D03*
D18*
X116560000Y-134000000D03*
D19*
X115805000Y-138625000D03*
X112755000Y-138625000D03*
X115805000Y-141975000D03*
X112755000Y-141975000D03*
D18*
X112000000Y-134000000D03*
D12*
X115000000Y-117000000D03*
X115000000Y-115000000D03*
D20*
X155600000Y-123500000D03*
X155600000Y-121500000D03*
X155600000Y-119500000D03*
X155600000Y-117500000D03*
X155600000Y-115500000D03*
X155600000Y-113500000D03*
X155600000Y-111500000D03*
X155600000Y-109500000D03*
X120600000Y-109500000D03*
X120600000Y-111500000D03*
X120600000Y-113500000D03*
X120600000Y-115500000D03*
X120600000Y-117500000D03*
X120600000Y-119500000D03*
X120600000Y-121500000D03*
X120600000Y-123500000D03*
D21*
X122525000Y-132500000D03*
X120475000Y-132500000D03*
D15*
X158637500Y-115500000D03*
X160362500Y-115500000D03*
D22*
X120500000Y-135000000D03*
X122500000Y-135000000D03*
X120500000Y-137500000D03*
X122500000Y-137500000D03*
D14*
X118000000Y-109637500D03*
X118000000Y-111362500D03*
M02*
