%TF.GenerationSoftware,KiCad,Pcbnew,7.0.1*%
%TF.CreationDate,2023-11-13T16:16:11-05:00*%
%TF.ProjectId,Radio HAT,52616469-6f20-4484-9154-2e6b69636164,v1.1*%
%TF.SameCoordinates,Original*%
%TF.FileFunction,Drillmap*%
%TF.FilePolarity,Positive*%
%FSLAX45Y45*%
G04 Gerber Fmt 4.5, Leading zero omitted, Abs format (unit mm)*
G04 Created by KiCad (PCBNEW 7.0.1) date 2023-11-13 16:16:11*
%MOMM*%
%LPD*%
G01*
G04 APERTURE LIST*
%ADD10C,0.100000*%
%ADD11C,0.200000*%
G04 APERTURE END LIST*
D10*
X16500000Y-10300000D02*
X16500000Y-13700000D01*
X16500000Y-10300000D02*
G75*
G03*
X16200000Y-10000000I-300000J0D01*
G01*
X10000000Y-10300000D02*
X10000000Y-13700000D01*
X10300000Y-10000000D02*
G75*
G03*
X10000000Y-10300000I0J-300000D01*
G01*
X16200000Y-14500000D02*
X10300000Y-14500000D01*
X10000000Y-13700000D02*
X10000000Y-14200000D01*
X10000000Y-14200000D02*
G75*
G03*
X10300000Y-14500000I300000J0D01*
G01*
X16500000Y-13700000D02*
X16500000Y-14200000D01*
X10300000Y-10000000D02*
X16200000Y-10000000D01*
X16200000Y-14500000D02*
G75*
G03*
X16500000Y-14200000I0J300000D01*
G01*
D11*
X10242619Y-14817524D02*
X10242619Y-14617524D01*
X10242619Y-14617524D02*
X10290238Y-14617524D01*
X10290238Y-14617524D02*
X10318810Y-14627048D01*
X10318810Y-14627048D02*
X10337857Y-14646095D01*
X10337857Y-14646095D02*
X10347381Y-14665143D01*
X10347381Y-14665143D02*
X10356905Y-14703238D01*
X10356905Y-14703238D02*
X10356905Y-14731809D01*
X10356905Y-14731809D02*
X10347381Y-14769905D01*
X10347381Y-14769905D02*
X10337857Y-14788952D01*
X10337857Y-14788952D02*
X10318810Y-14808000D01*
X10318810Y-14808000D02*
X10290238Y-14817524D01*
X10290238Y-14817524D02*
X10242619Y-14817524D01*
X10442619Y-14817524D02*
X10442619Y-14684190D01*
X10442619Y-14722286D02*
X10452143Y-14703238D01*
X10452143Y-14703238D02*
X10461667Y-14693714D01*
X10461667Y-14693714D02*
X10480714Y-14684190D01*
X10480714Y-14684190D02*
X10499762Y-14684190D01*
X10566429Y-14817524D02*
X10566429Y-14684190D01*
X10566429Y-14617524D02*
X10556905Y-14627048D01*
X10556905Y-14627048D02*
X10566429Y-14636571D01*
X10566429Y-14636571D02*
X10575952Y-14627048D01*
X10575952Y-14627048D02*
X10566429Y-14617524D01*
X10566429Y-14617524D02*
X10566429Y-14636571D01*
X10690238Y-14817524D02*
X10671190Y-14808000D01*
X10671190Y-14808000D02*
X10661667Y-14788952D01*
X10661667Y-14788952D02*
X10661667Y-14617524D01*
X10795000Y-14817524D02*
X10775952Y-14808000D01*
X10775952Y-14808000D02*
X10766429Y-14788952D01*
X10766429Y-14788952D02*
X10766429Y-14617524D01*
X11023571Y-14817524D02*
X11023571Y-14617524D01*
X11023571Y-14617524D02*
X11090238Y-14760381D01*
X11090238Y-14760381D02*
X11156905Y-14617524D01*
X11156905Y-14617524D02*
X11156905Y-14817524D01*
X11337857Y-14817524D02*
X11337857Y-14712762D01*
X11337857Y-14712762D02*
X11328333Y-14693714D01*
X11328333Y-14693714D02*
X11309286Y-14684190D01*
X11309286Y-14684190D02*
X11271190Y-14684190D01*
X11271190Y-14684190D02*
X11252143Y-14693714D01*
X11337857Y-14808000D02*
X11318809Y-14817524D01*
X11318809Y-14817524D02*
X11271190Y-14817524D01*
X11271190Y-14817524D02*
X11252143Y-14808000D01*
X11252143Y-14808000D02*
X11242619Y-14788952D01*
X11242619Y-14788952D02*
X11242619Y-14769905D01*
X11242619Y-14769905D02*
X11252143Y-14750857D01*
X11252143Y-14750857D02*
X11271190Y-14741333D01*
X11271190Y-14741333D02*
X11318809Y-14741333D01*
X11318809Y-14741333D02*
X11337857Y-14731809D01*
X11433095Y-14684190D02*
X11433095Y-14884190D01*
X11433095Y-14693714D02*
X11452143Y-14684190D01*
X11452143Y-14684190D02*
X11490238Y-14684190D01*
X11490238Y-14684190D02*
X11509286Y-14693714D01*
X11509286Y-14693714D02*
X11518809Y-14703238D01*
X11518809Y-14703238D02*
X11528333Y-14722286D01*
X11528333Y-14722286D02*
X11528333Y-14779428D01*
X11528333Y-14779428D02*
X11518809Y-14798476D01*
X11518809Y-14798476D02*
X11509286Y-14808000D01*
X11509286Y-14808000D02*
X11490238Y-14817524D01*
X11490238Y-14817524D02*
X11452143Y-14817524D01*
X11452143Y-14817524D02*
X11433095Y-14808000D01*
X11614048Y-14798476D02*
X11623571Y-14808000D01*
X11623571Y-14808000D02*
X11614048Y-14817524D01*
X11614048Y-14817524D02*
X11604524Y-14808000D01*
X11604524Y-14808000D02*
X11614048Y-14798476D01*
X11614048Y-14798476D02*
X11614048Y-14817524D01*
X11614048Y-14693714D02*
X11623571Y-14703238D01*
X11623571Y-14703238D02*
X11614048Y-14712762D01*
X11614048Y-14712762D02*
X11604524Y-14703238D01*
X11604524Y-14703238D02*
X11614048Y-14693714D01*
X11614048Y-14693714D02*
X11614048Y-14712762D01*
M02*
