%TF.GenerationSoftware,KiCad,Pcbnew,7.0.1*%
%TF.CreationDate,2023-11-13T16:16:11-05:00*%
%TF.ProjectId,Radio HAT,52616469-6f20-4484-9154-2e6b69636164,v1.1*%
%TF.SameCoordinates,Original*%
%TF.FileFunction,Drillmap*%
%TF.FilePolarity,Positive*%
%FSLAX45Y45*%
G04 Gerber Fmt 4.5, Leading zero omitted, Abs format (unit mm)*
G04 Created by KiCad (PCBNEW 7.0.1) date 2023-11-13 16:16:11*
%MOMM*%
%LPD*%
G01*
G04 APERTURE LIST*
%ADD10C,0.100000*%
%ADD11C,0.200000*%
%ADD12C,0.040000*%
%ADD13C,0.050000*%
%ADD14C,0.060000*%
%ADD15C,0.150000*%
%ADD16C,0.170000*%
%ADD17C,0.180000*%
%ADD18C,0.270000*%
G04 APERTURE END LIST*
D10*
X16500000Y-10300000D02*
X16500000Y-13700000D01*
X16500000Y-10300000D02*
G75*
G03*
X16200000Y-10000000I-300000J0D01*
G01*
X10000000Y-10300000D02*
X10000000Y-13700000D01*
X10300000Y-10000000D02*
G75*
G03*
X10000000Y-10300000I0J-300000D01*
G01*
X16200000Y-14500000D02*
X10300000Y-14500000D01*
X10000000Y-13700000D02*
X10000000Y-14200000D01*
X10000000Y-14200000D02*
G75*
G03*
X10300000Y-14500000I300000J0D01*
G01*
X16500000Y-13700000D02*
X16500000Y-14200000D01*
X10300000Y-10000000D02*
X16200000Y-10000000D01*
X16200000Y-14500000D02*
G75*
G03*
X16500000Y-14200000I0J300000D01*
G01*
D11*
D12*
X10080000Y-10880000D02*
X10120000Y-10920000D01*
X10120000Y-10880000D02*
X10080000Y-10920000D01*
X10080000Y-11880000D02*
X10120000Y-11920000D01*
X10120000Y-11880000D02*
X10080000Y-11920000D01*
X10080000Y-12080000D02*
X10120000Y-12120000D01*
X10120000Y-12080000D02*
X10080000Y-12120000D01*
X10080000Y-12280000D02*
X10120000Y-12320000D01*
X10120000Y-12280000D02*
X10080000Y-12320000D01*
X10080000Y-12480000D02*
X10120000Y-12520000D01*
X10120000Y-12480000D02*
X10080000Y-12520000D01*
X10080000Y-13180000D02*
X10120000Y-13220000D01*
X10120000Y-13180000D02*
X10080000Y-13220000D01*
X10080000Y-13680000D02*
X10120000Y-13720000D01*
X10120000Y-13680000D02*
X10080000Y-13720000D01*
X10080000Y-14180000D02*
X10120000Y-14220000D01*
X10120000Y-14180000D02*
X10080000Y-14220000D01*
X10280000Y-10880000D02*
X10320000Y-10920000D01*
X10320000Y-10880000D02*
X10280000Y-10920000D01*
X10280000Y-12080000D02*
X10320000Y-12120000D01*
X10320000Y-12080000D02*
X10280000Y-12120000D01*
X10280000Y-12280000D02*
X10320000Y-12320000D01*
X10320000Y-12280000D02*
X10280000Y-12320000D01*
X10280000Y-12480000D02*
X10320000Y-12520000D01*
X10320000Y-12480000D02*
X10280000Y-12520000D01*
X10280000Y-14380000D02*
X10320000Y-14420000D01*
X10320000Y-14380000D02*
X10280000Y-14420000D01*
X10430000Y-11080000D02*
X10470000Y-11120000D01*
X10470000Y-11080000D02*
X10430000Y-11120000D01*
X10430000Y-11280000D02*
X10470000Y-11320000D01*
X10470000Y-11280000D02*
X10430000Y-11320000D01*
X10480000Y-14380000D02*
X10520000Y-14420000D01*
X10520000Y-14380000D02*
X10480000Y-14420000D01*
X10680000Y-13530000D02*
X10720000Y-13570000D01*
X10720000Y-13530000D02*
X10680000Y-13570000D01*
X10680000Y-13930000D02*
X10720000Y-13970000D01*
X10720000Y-13930000D02*
X10680000Y-13970000D01*
X10680000Y-14380000D02*
X10720000Y-14420000D01*
X10720000Y-14380000D02*
X10680000Y-14420000D01*
X10880000Y-14380000D02*
X10920000Y-14420000D01*
X10920000Y-14380000D02*
X10880000Y-14420000D01*
X11080000Y-10980000D02*
X11120000Y-11020000D01*
X11120000Y-10980000D02*
X11080000Y-11020000D01*
X11080000Y-11180000D02*
X11120000Y-11220000D01*
X11120000Y-11180000D02*
X11080000Y-11220000D01*
X11080000Y-11380000D02*
X11120000Y-11420000D01*
X11120000Y-11380000D02*
X11080000Y-11420000D01*
X11080000Y-11580000D02*
X11120000Y-11620000D01*
X11120000Y-11580000D02*
X11080000Y-11620000D01*
X11080000Y-11780000D02*
X11120000Y-11820000D01*
X11120000Y-11780000D02*
X11080000Y-11820000D01*
X11080000Y-11980000D02*
X11120000Y-12020000D01*
X11120000Y-11980000D02*
X11080000Y-12020000D01*
X11280000Y-11180000D02*
X11320000Y-11220000D01*
X11320000Y-11180000D02*
X11280000Y-11220000D01*
X11280000Y-11380000D02*
X11320000Y-11420000D01*
X11320000Y-11380000D02*
X11280000Y-11420000D01*
X11280000Y-11580000D02*
X11320000Y-11620000D01*
X11320000Y-11580000D02*
X11280000Y-11620000D01*
X11280000Y-11780000D02*
X11320000Y-11820000D01*
X11320000Y-11780000D02*
X11280000Y-11820000D01*
X11280000Y-11980000D02*
X11320000Y-12020000D01*
X11320000Y-11980000D02*
X11280000Y-12020000D01*
X11280000Y-12180000D02*
X11320000Y-12220000D01*
X11320000Y-12180000D02*
X11280000Y-12220000D01*
X11480000Y-12380000D02*
X11520000Y-12420000D01*
X11520000Y-12380000D02*
X11480000Y-12420000D01*
X11580000Y-12580000D02*
X11620000Y-12620000D01*
X11620000Y-12580000D02*
X11580000Y-12620000D01*
X11580000Y-12780000D02*
X11620000Y-12820000D01*
X11620000Y-12780000D02*
X11580000Y-12820000D01*
X11580000Y-12980000D02*
X11620000Y-13020000D01*
X11620000Y-12980000D02*
X11580000Y-13020000D01*
X11630000Y-11230000D02*
X11670000Y-11270000D01*
X11670000Y-11230000D02*
X11630000Y-11270000D01*
X11780000Y-12580000D02*
X11820000Y-12620000D01*
X11820000Y-12580000D02*
X11780000Y-12620000D01*
X11780000Y-12780000D02*
X11820000Y-12820000D01*
X11820000Y-12780000D02*
X11780000Y-12820000D01*
X11780000Y-12980000D02*
X11820000Y-13020000D01*
X11820000Y-12980000D02*
X11780000Y-13020000D01*
X11780000Y-13180000D02*
X11820000Y-13220000D01*
X11820000Y-13180000D02*
X11780000Y-13220000D01*
X11830000Y-11230000D02*
X11870000Y-11270000D01*
X11870000Y-11230000D02*
X11830000Y-11270000D01*
X11980000Y-12580000D02*
X12020000Y-12620000D01*
X12020000Y-12580000D02*
X11980000Y-12620000D01*
X11980000Y-12780000D02*
X12020000Y-12820000D01*
X12020000Y-12780000D02*
X11980000Y-12820000D01*
X12130000Y-13905000D02*
X12170000Y-13945000D01*
X12170000Y-13905000D02*
X12130000Y-13945000D01*
X12230000Y-11130000D02*
X12270000Y-11170000D01*
X12270000Y-11130000D02*
X12230000Y-11170000D01*
X12230000Y-11330000D02*
X12270000Y-11370000D01*
X12270000Y-11330000D02*
X12230000Y-11370000D01*
X12230000Y-11530000D02*
X12270000Y-11570000D01*
X12270000Y-11530000D02*
X12230000Y-11570000D01*
X12230000Y-11730000D02*
X12270000Y-11770000D01*
X12270000Y-11730000D02*
X12230000Y-11770000D01*
X12230000Y-11930000D02*
X12270000Y-11970000D01*
X12270000Y-11930000D02*
X12230000Y-11970000D01*
X12230000Y-12130000D02*
X12270000Y-12170000D01*
X12270000Y-12130000D02*
X12230000Y-12170000D01*
X12280000Y-10880000D02*
X12320000Y-10920000D01*
X12320000Y-10880000D02*
X12280000Y-10920000D01*
X12380000Y-12380000D02*
X12420000Y-12420000D01*
X12420000Y-12380000D02*
X12380000Y-12420000D01*
X12380000Y-13880000D02*
X12420000Y-13920000D01*
X12420000Y-13880000D02*
X12380000Y-13920000D01*
X12480000Y-10880000D02*
X12520000Y-10920000D01*
X12520000Y-10880000D02*
X12480000Y-10920000D01*
X12580000Y-12380000D02*
X12620000Y-12420000D01*
X12620000Y-12380000D02*
X12580000Y-12420000D01*
X12580000Y-13880000D02*
X12620000Y-13920000D01*
X12620000Y-13880000D02*
X12580000Y-13920000D01*
X12680000Y-10880000D02*
X12720000Y-10920000D01*
X12720000Y-10880000D02*
X12680000Y-10920000D01*
X12780000Y-12380000D02*
X12820000Y-12420000D01*
X12820000Y-12380000D02*
X12780000Y-12420000D01*
X12980000Y-12380000D02*
X13020000Y-12420000D01*
X13020000Y-12380000D02*
X12980000Y-12420000D01*
X13080000Y-13880000D02*
X13120000Y-13920000D01*
X13120000Y-13880000D02*
X13080000Y-13920000D01*
X13180000Y-10880000D02*
X13220000Y-10920000D01*
X13220000Y-10880000D02*
X13180000Y-10920000D01*
X13180000Y-12380000D02*
X13220000Y-12420000D01*
X13220000Y-12380000D02*
X13180000Y-12420000D01*
X13280000Y-13880000D02*
X13320000Y-13920000D01*
X13320000Y-13880000D02*
X13280000Y-13920000D01*
X13380000Y-11480000D02*
X13420000Y-11520000D01*
X13420000Y-11480000D02*
X13380000Y-11520000D01*
X13380000Y-12380000D02*
X13420000Y-12420000D01*
X13420000Y-12380000D02*
X13380000Y-12420000D01*
X13480000Y-13880000D02*
X13520000Y-13920000D01*
X13520000Y-13880000D02*
X13480000Y-13920000D01*
X13580000Y-12380000D02*
X13620000Y-12420000D01*
X13620000Y-12380000D02*
X13580000Y-12420000D01*
X13780000Y-11080000D02*
X13820000Y-11120000D01*
X13820000Y-11080000D02*
X13780000Y-11120000D01*
X13780000Y-12380000D02*
X13820000Y-12420000D01*
X13820000Y-12380000D02*
X13780000Y-12420000D01*
X13980000Y-10680000D02*
X14020000Y-10720000D01*
X14020000Y-10680000D02*
X13980000Y-10720000D01*
X13980000Y-11080000D02*
X14020000Y-11120000D01*
X14020000Y-11080000D02*
X13980000Y-11120000D01*
X13980000Y-12380000D02*
X14020000Y-12420000D01*
X14020000Y-12380000D02*
X13980000Y-12420000D01*
X13980000Y-13880000D02*
X14020000Y-13920000D01*
X14020000Y-13880000D02*
X13980000Y-13920000D01*
X14080000Y-11880000D02*
X14120000Y-11920000D01*
X14120000Y-11880000D02*
X14080000Y-11920000D01*
X14080000Y-12780000D02*
X14120000Y-12820000D01*
X14120000Y-12780000D02*
X14080000Y-12820000D01*
X14080000Y-12980000D02*
X14120000Y-13020000D01*
X14120000Y-12980000D02*
X14080000Y-13020000D01*
X14080000Y-13180000D02*
X14120000Y-13220000D01*
X14120000Y-13180000D02*
X14080000Y-13220000D01*
X14180000Y-10680000D02*
X14220000Y-10720000D01*
X14220000Y-10680000D02*
X14180000Y-10720000D01*
X14180000Y-11080000D02*
X14220000Y-11120000D01*
X14220000Y-11080000D02*
X14180000Y-11120000D01*
X14180000Y-12380000D02*
X14220000Y-12420000D01*
X14220000Y-12380000D02*
X14180000Y-12420000D01*
X14180000Y-12580000D02*
X14220000Y-12620000D01*
X14220000Y-12580000D02*
X14180000Y-12620000D01*
X14180000Y-13380000D02*
X14220000Y-13420000D01*
X14220000Y-13380000D02*
X14180000Y-13420000D01*
X14280000Y-11880000D02*
X14320000Y-11920000D01*
X14320000Y-11880000D02*
X14280000Y-11920000D01*
X14380000Y-10880000D02*
X14420000Y-10920000D01*
X14420000Y-10880000D02*
X14380000Y-10920000D01*
X14380000Y-11080000D02*
X14420000Y-11120000D01*
X14420000Y-11080000D02*
X14380000Y-11120000D01*
X14380000Y-12380000D02*
X14420000Y-12420000D01*
X14420000Y-12380000D02*
X14380000Y-12420000D01*
X14380000Y-12580000D02*
X14420000Y-12620000D01*
X14420000Y-12580000D02*
X14380000Y-12620000D01*
X14380000Y-13380000D02*
X14420000Y-13420000D01*
X14420000Y-13380000D02*
X14380000Y-13420000D01*
X14480000Y-11880000D02*
X14520000Y-11920000D01*
X14520000Y-11880000D02*
X14480000Y-11920000D01*
X14580000Y-10680000D02*
X14620000Y-10720000D01*
X14620000Y-10680000D02*
X14580000Y-10720000D01*
X14580000Y-10880000D02*
X14620000Y-10920000D01*
X14620000Y-10880000D02*
X14580000Y-10920000D01*
X14580000Y-11080000D02*
X14620000Y-11120000D01*
X14620000Y-11080000D02*
X14580000Y-11120000D01*
X14580000Y-12180000D02*
X14620000Y-12220000D01*
X14620000Y-12180000D02*
X14580000Y-12220000D01*
X14580000Y-12380000D02*
X14620000Y-12420000D01*
X14620000Y-12380000D02*
X14580000Y-12420000D01*
X14580000Y-12580000D02*
X14620000Y-12620000D01*
X14620000Y-12580000D02*
X14580000Y-12620000D01*
X14580000Y-13380000D02*
X14620000Y-13420000D01*
X14620000Y-13380000D02*
X14580000Y-13420000D01*
X14580000Y-13880000D02*
X14620000Y-13920000D01*
X14620000Y-13880000D02*
X14580000Y-13920000D01*
X14780000Y-11980000D02*
X14820000Y-12020000D01*
X14820000Y-11980000D02*
X14780000Y-12020000D01*
X14780000Y-12180000D02*
X14820000Y-12220000D01*
X14820000Y-12180000D02*
X14780000Y-12220000D01*
X14780000Y-12380000D02*
X14820000Y-12420000D01*
X14820000Y-12380000D02*
X14780000Y-12420000D01*
X14780000Y-12580000D02*
X14820000Y-12620000D01*
X14820000Y-12580000D02*
X14780000Y-12620000D01*
X14780000Y-13380000D02*
X14820000Y-13420000D01*
X14820000Y-13380000D02*
X14780000Y-13420000D01*
X14780000Y-13880000D02*
X14820000Y-13920000D01*
X14820000Y-13880000D02*
X14780000Y-13920000D01*
X14880000Y-12780000D02*
X14920000Y-12820000D01*
X14920000Y-12780000D02*
X14880000Y-12820000D01*
X14880000Y-12980000D02*
X14920000Y-13020000D01*
X14920000Y-12980000D02*
X14880000Y-13020000D01*
X14880000Y-13180000D02*
X14920000Y-13220000D01*
X14920000Y-13180000D02*
X14880000Y-13220000D01*
X14980000Y-11780000D02*
X15020000Y-11820000D01*
X15020000Y-11780000D02*
X14980000Y-11820000D01*
X14980000Y-11980000D02*
X15020000Y-12020000D01*
X15020000Y-11980000D02*
X14980000Y-12020000D01*
X14980000Y-12180000D02*
X15020000Y-12220000D01*
X15020000Y-12180000D02*
X14980000Y-12220000D01*
X14980000Y-12380000D02*
X15020000Y-12420000D01*
X15020000Y-12380000D02*
X14980000Y-12420000D01*
X14980000Y-13880000D02*
X15020000Y-13920000D01*
X15020000Y-13880000D02*
X14980000Y-13920000D01*
X15180000Y-12180000D02*
X15220000Y-12220000D01*
X15220000Y-12180000D02*
X15180000Y-12220000D01*
X15180000Y-12280000D02*
X15220000Y-12320000D01*
X15220000Y-12280000D02*
X15180000Y-12320000D01*
X15180000Y-12380000D02*
X15220000Y-12420000D01*
X15220000Y-12380000D02*
X15180000Y-12420000D01*
X15180000Y-12480000D02*
X15220000Y-12520000D01*
X15220000Y-12480000D02*
X15180000Y-12520000D01*
X15180000Y-12880000D02*
X15220000Y-12920000D01*
X15220000Y-12880000D02*
X15180000Y-12920000D01*
X15180000Y-12980000D02*
X15220000Y-13020000D01*
X15220000Y-12980000D02*
X15180000Y-13020000D01*
X15180000Y-13080000D02*
X15220000Y-13120000D01*
X15220000Y-13080000D02*
X15180000Y-13120000D01*
X15180000Y-13880000D02*
X15220000Y-13920000D01*
X15220000Y-13880000D02*
X15180000Y-13920000D01*
X15280000Y-12080000D02*
X15320000Y-12120000D01*
X15320000Y-12080000D02*
X15280000Y-12120000D01*
X15280000Y-12180000D02*
X15320000Y-12220000D01*
X15320000Y-12180000D02*
X15280000Y-12220000D01*
X15280000Y-12280000D02*
X15320000Y-12320000D01*
X15320000Y-12280000D02*
X15280000Y-12320000D01*
X15280000Y-12380000D02*
X15320000Y-12420000D01*
X15320000Y-12380000D02*
X15280000Y-12420000D01*
X15280000Y-12480000D02*
X15320000Y-12520000D01*
X15320000Y-12480000D02*
X15280000Y-12520000D01*
X15280000Y-12980000D02*
X15320000Y-13020000D01*
X15320000Y-12980000D02*
X15280000Y-13020000D01*
X15355000Y-11130000D02*
X15395000Y-11170000D01*
X15395000Y-11130000D02*
X15355000Y-11170000D01*
X15355000Y-11330000D02*
X15395000Y-11370000D01*
X15395000Y-11330000D02*
X15355000Y-11370000D01*
X15355000Y-11730000D02*
X15395000Y-11770000D01*
X15395000Y-11730000D02*
X15355000Y-11770000D01*
X15355000Y-11930000D02*
X15395000Y-11970000D01*
X15395000Y-11930000D02*
X15355000Y-11970000D01*
X15380000Y-13880000D02*
X15420000Y-13920000D01*
X15420000Y-13880000D02*
X15380000Y-13920000D01*
X15580000Y-13880000D02*
X15620000Y-13920000D01*
X15620000Y-13880000D02*
X15580000Y-13920000D01*
X15730000Y-10930000D02*
X15770000Y-10970000D01*
X15770000Y-10930000D02*
X15730000Y-10970000D01*
X15780000Y-12080000D02*
X15820000Y-12120000D01*
X15820000Y-12080000D02*
X15780000Y-12120000D01*
X15780000Y-12180000D02*
X15820000Y-12220000D01*
X15820000Y-12180000D02*
X15780000Y-12220000D01*
X15780000Y-12280000D02*
X15820000Y-12320000D01*
X15820000Y-12280000D02*
X15780000Y-12320000D01*
X15780000Y-12380000D02*
X15820000Y-12420000D01*
X15820000Y-12380000D02*
X15780000Y-12420000D01*
X15780000Y-12480000D02*
X15820000Y-12520000D01*
X15820000Y-12480000D02*
X15780000Y-12520000D01*
X15780000Y-12980000D02*
X15820000Y-13020000D01*
X15820000Y-12980000D02*
X15780000Y-13020000D01*
X15780000Y-13880000D02*
X15820000Y-13920000D01*
X15820000Y-13880000D02*
X15780000Y-13920000D01*
X15880000Y-12180000D02*
X15920000Y-12220000D01*
X15920000Y-12180000D02*
X15880000Y-12220000D01*
X15880000Y-12280000D02*
X15920000Y-12320000D01*
X15920000Y-12280000D02*
X15880000Y-12320000D01*
X15880000Y-12380000D02*
X15920000Y-12420000D01*
X15920000Y-12380000D02*
X15880000Y-12420000D01*
X15880000Y-12480000D02*
X15920000Y-12520000D01*
X15920000Y-12480000D02*
X15880000Y-12520000D01*
X15880000Y-12880000D02*
X15920000Y-12920000D01*
X15920000Y-12880000D02*
X15880000Y-12920000D01*
X15880000Y-12980000D02*
X15920000Y-13020000D01*
X15920000Y-12980000D02*
X15880000Y-13020000D01*
X15880000Y-13080000D02*
X15920000Y-13120000D01*
X15920000Y-13080000D02*
X15880000Y-13120000D01*
X15980000Y-10680000D02*
X16020000Y-10720000D01*
X16020000Y-10680000D02*
X15980000Y-10720000D01*
X15980000Y-10880000D02*
X16020000Y-10920000D01*
X16020000Y-10880000D02*
X15980000Y-10920000D01*
X15980000Y-13780000D02*
X16020000Y-13820000D01*
X16020000Y-13780000D02*
X15980000Y-13820000D01*
X16080000Y-12380000D02*
X16120000Y-12420000D01*
X16120000Y-12380000D02*
X16080000Y-12420000D01*
X16080000Y-12580000D02*
X16120000Y-12620000D01*
X16120000Y-12580000D02*
X16080000Y-12620000D01*
X16080000Y-12780000D02*
X16120000Y-12820000D01*
X16120000Y-12780000D02*
X16080000Y-12820000D01*
X16080000Y-12980000D02*
X16120000Y-13020000D01*
X16120000Y-12980000D02*
X16080000Y-13020000D01*
X16080000Y-13180000D02*
X16120000Y-13220000D01*
X16120000Y-13180000D02*
X16080000Y-13220000D01*
X16080000Y-13380000D02*
X16120000Y-13420000D01*
X16120000Y-13380000D02*
X16080000Y-13420000D01*
X16080000Y-13580000D02*
X16120000Y-13620000D01*
X16120000Y-13580000D02*
X16080000Y-13620000D01*
X16180000Y-10680000D02*
X16220000Y-10720000D01*
X16220000Y-10680000D02*
X16180000Y-10720000D01*
X16180000Y-10880000D02*
X16220000Y-10920000D01*
X16220000Y-10880000D02*
X16180000Y-10920000D01*
X16180000Y-11080000D02*
X16220000Y-11120000D01*
X16220000Y-11080000D02*
X16180000Y-11120000D01*
X16180000Y-11330000D02*
X16220000Y-11370000D01*
X16220000Y-11330000D02*
X16180000Y-11370000D01*
X16180000Y-11530000D02*
X16220000Y-11570000D01*
X16220000Y-11530000D02*
X16180000Y-11570000D01*
X16380000Y-10680000D02*
X16420000Y-10720000D01*
X16420000Y-10680000D02*
X16380000Y-10720000D01*
X16380000Y-10880000D02*
X16420000Y-10920000D01*
X16420000Y-10880000D02*
X16380000Y-10920000D01*
X16380000Y-11080000D02*
X16420000Y-11120000D01*
X16420000Y-11080000D02*
X16380000Y-11120000D01*
X16380000Y-11330000D02*
X16420000Y-11370000D01*
X16420000Y-11330000D02*
X16380000Y-11370000D01*
X16380000Y-11530000D02*
X16420000Y-11570000D01*
X16420000Y-11530000D02*
X16380000Y-11570000D01*
D13*
X10172500Y-10350000D02*
G75*
G03*
X10172500Y-10350000I-25000J0D01*
G01*
X10231811Y-10206811D02*
G75*
G03*
X10231811Y-10206811I-25000J0D01*
G01*
X10231811Y-10493189D02*
G75*
G03*
X10231811Y-10493189I-25000J0D01*
G01*
X10375000Y-10147500D02*
G75*
G03*
X10375000Y-10147500I-25000J0D01*
G01*
X10375000Y-10552500D02*
G75*
G03*
X10375000Y-10552500I-25000J0D01*
G01*
X10518189Y-10206811D02*
G75*
G03*
X10518189Y-10206811I-25000J0D01*
G01*
X10518189Y-10493189D02*
G75*
G03*
X10518189Y-10493189I-25000J0D01*
G01*
X10577500Y-10350000D02*
G75*
G03*
X10577500Y-10350000I-25000J0D01*
G01*
X15972500Y-10350000D02*
G75*
G03*
X15972500Y-10350000I-25000J0D01*
G01*
X16031811Y-10206811D02*
G75*
G03*
X16031811Y-10206811I-25000J0D01*
G01*
X16031811Y-10493189D02*
G75*
G03*
X16031811Y-10493189I-25000J0D01*
G01*
X16175000Y-10147500D02*
G75*
G03*
X16175000Y-10147500I-25000J0D01*
G01*
X16175000Y-10552500D02*
G75*
G03*
X16175000Y-10552500I-25000J0D01*
G01*
X16318189Y-10206811D02*
G75*
G03*
X16318189Y-10206811I-25000J0D01*
G01*
X16318189Y-10493189D02*
G75*
G03*
X16318189Y-10493189I-25000J0D01*
G01*
X16377500Y-10350000D02*
G75*
G03*
X16377500Y-10350000I-25000J0D01*
G01*
D14*
X11850000Y-12320000D02*
X11850000Y-12380000D01*
X11820000Y-12350000D02*
X11880000Y-12350000D01*
X12250000Y-12770000D02*
X12250000Y-12830000D01*
X12220000Y-12800000D02*
X12280000Y-12800000D01*
X12700000Y-13120000D02*
X12700000Y-13180000D01*
X12670000Y-13150000D02*
X12730000Y-13150000D01*
X13600000Y-11270000D02*
X13600000Y-11330000D01*
X13570000Y-11300000D02*
X13630000Y-11300000D01*
X13600000Y-11620000D02*
X13600000Y-11680000D01*
X13570000Y-11650000D02*
X13630000Y-11650000D01*
X14100000Y-11270000D02*
X14100000Y-11330000D01*
X14070000Y-11300000D02*
X14130000Y-11300000D01*
X14100000Y-11620000D02*
X14100000Y-11680000D01*
X14070000Y-11650000D02*
X14130000Y-11650000D01*
X14450000Y-13770000D02*
X14450000Y-13830000D01*
X14420000Y-13800000D02*
X14480000Y-13800000D01*
X14600000Y-11270000D02*
X14600000Y-11330000D01*
X14570000Y-11300000D02*
X14630000Y-11300000D01*
X14600000Y-11620000D02*
X14600000Y-11680000D01*
X14570000Y-11650000D02*
X14630000Y-11650000D01*
D10*
X10235356Y-11265356D02*
X10235356Y-11194644D01*
X10164644Y-11194644D01*
X10164644Y-11265356D01*
X10235356Y-11265356D01*
D11*
X10150000Y-11130000D02*
X10150000Y-11330000D01*
X10150000Y-11330000D02*
G75*
G03*
X10250000Y-11330000I50000J0D01*
G01*
X10250000Y-11330000D02*
X10250000Y-11130000D01*
X10250000Y-11130000D02*
G75*
G03*
X10150000Y-11130000I-50000J0D01*
G01*
D10*
X10335356Y-12935356D02*
X10335356Y-12864644D01*
X10264644Y-12864644D01*
X10264644Y-12935356D01*
X10335356Y-12935356D01*
X10335356Y-13435356D02*
X10335356Y-13364644D01*
X10264644Y-13364644D01*
X10264644Y-13435356D01*
X10335356Y-13435356D01*
X10335356Y-13935356D02*
X10335356Y-13864644D01*
X10264644Y-13864644D01*
X10264644Y-13935356D01*
X10335356Y-13935356D01*
X10535356Y-11735356D02*
X10535356Y-11664644D01*
X10464644Y-11664644D01*
X10464644Y-11735356D01*
X10535356Y-11735356D01*
D11*
X10400000Y-11750000D02*
X10600000Y-11750000D01*
X10600000Y-11750000D02*
G75*
G03*
X10600000Y-11650000I0J50000D01*
G01*
X10600000Y-11650000D02*
X10400000Y-11650000D01*
X10400000Y-11650000D02*
G75*
G03*
X10400000Y-11750000I0J-50000D01*
G01*
D10*
X10835356Y-11265356D02*
X10835356Y-11194644D01*
X10764644Y-11194644D01*
X10764644Y-11265356D01*
X10835356Y-11265356D01*
D11*
X10750000Y-11130000D02*
X10750000Y-11330000D01*
X10750000Y-11330000D02*
G75*
G03*
X10850000Y-11330000I50000J0D01*
G01*
X10850000Y-11330000D02*
X10850000Y-11130000D01*
X10850000Y-11130000D02*
G75*
G03*
X10750000Y-11130000I-50000J0D01*
G01*
D10*
X10875356Y-10260356D02*
X10875356Y-10189644D01*
X10804644Y-10189644D01*
X10804644Y-10260356D01*
X10875356Y-10260356D01*
X10875356Y-10514356D02*
X10875356Y-10443644D01*
X10804644Y-10443644D01*
X10804644Y-10514356D01*
X10875356Y-10514356D01*
X11129356Y-10260356D02*
X11129356Y-10189644D01*
X11058644Y-10189644D01*
X11058644Y-10260356D01*
X11129356Y-10260356D01*
X11129356Y-10514356D02*
X11129356Y-10443644D01*
X11058644Y-10443644D01*
X11058644Y-10514356D01*
X11129356Y-10514356D01*
X11383356Y-10260356D02*
X11383356Y-10189644D01*
X11312644Y-10189644D01*
X11312644Y-10260356D01*
X11383356Y-10260356D01*
X11383356Y-10514356D02*
X11383356Y-10443644D01*
X11312644Y-10443644D01*
X11312644Y-10514356D01*
X11383356Y-10514356D01*
X11637356Y-10260356D02*
X11637356Y-10189644D01*
X11566644Y-10189644D01*
X11566644Y-10260356D01*
X11637356Y-10260356D01*
X11637356Y-10514356D02*
X11637356Y-10443644D01*
X11566644Y-10443644D01*
X11566644Y-10514356D01*
X11637356Y-10514356D01*
X11891356Y-10260356D02*
X11891356Y-10189644D01*
X11820644Y-10189644D01*
X11820644Y-10260356D01*
X11891356Y-10260356D01*
X11891356Y-10514356D02*
X11891356Y-10443644D01*
X11820644Y-10443644D01*
X11820644Y-10514356D01*
X11891356Y-10514356D01*
X12145356Y-10260356D02*
X12145356Y-10189644D01*
X12074644Y-10189644D01*
X12074644Y-10260356D01*
X12145356Y-10260356D01*
X12145356Y-10514356D02*
X12145356Y-10443644D01*
X12074644Y-10443644D01*
X12074644Y-10514356D01*
X12145356Y-10514356D01*
X12399356Y-10260356D02*
X12399356Y-10189644D01*
X12328644Y-10189644D01*
X12328644Y-10260356D01*
X12399356Y-10260356D01*
X12399356Y-10514356D02*
X12399356Y-10443644D01*
X12328644Y-10443644D01*
X12328644Y-10514356D01*
X12399356Y-10514356D01*
X12653356Y-10260356D02*
X12653356Y-10189644D01*
X12582644Y-10189644D01*
X12582644Y-10260356D01*
X12653356Y-10260356D01*
X12653356Y-10514356D02*
X12653356Y-10443644D01*
X12582644Y-10443644D01*
X12582644Y-10514356D01*
X12653356Y-10514356D01*
X12907356Y-10260356D02*
X12907356Y-10189644D01*
X12836644Y-10189644D01*
X12836644Y-10260356D01*
X12907356Y-10260356D01*
X12907356Y-10514356D02*
X12907356Y-10443644D01*
X12836644Y-10443644D01*
X12836644Y-10514356D01*
X12907356Y-10514356D01*
X13085356Y-13030356D02*
X13085356Y-12959644D01*
X13014644Y-12959644D01*
X13014644Y-13030356D01*
X13085356Y-13030356D01*
X13161356Y-10260356D02*
X13161356Y-10189644D01*
X13090644Y-10189644D01*
X13090644Y-10260356D01*
X13161356Y-10260356D01*
X13161356Y-10514356D02*
X13161356Y-10443644D01*
X13090644Y-10443644D01*
X13090644Y-10514356D01*
X13161356Y-10514356D01*
X13335356Y-13030356D02*
X13335356Y-12959644D01*
X13264644Y-12959644D01*
X13264644Y-13030356D01*
X13335356Y-13030356D01*
X13415356Y-10260356D02*
X13415356Y-10189644D01*
X13344644Y-10189644D01*
X13344644Y-10260356D01*
X13415356Y-10260356D01*
X13415356Y-10514356D02*
X13415356Y-10443644D01*
X13344644Y-10443644D01*
X13344644Y-10514356D01*
X13415356Y-10514356D01*
X13585356Y-13030356D02*
X13585356Y-12959644D01*
X13514644Y-12959644D01*
X13514644Y-13030356D01*
X13585356Y-13030356D01*
X13669356Y-10260356D02*
X13669356Y-10189644D01*
X13598644Y-10189644D01*
X13598644Y-10260356D01*
X13669356Y-10260356D01*
X13669356Y-10514356D02*
X13669356Y-10443644D01*
X13598644Y-10443644D01*
X13598644Y-10514356D01*
X13669356Y-10514356D01*
X13923356Y-10260356D02*
X13923356Y-10189644D01*
X13852644Y-10189644D01*
X13852644Y-10260356D01*
X13923356Y-10260356D01*
X13923356Y-10514356D02*
X13923356Y-10443644D01*
X13852644Y-10443644D01*
X13852644Y-10514356D01*
X13923356Y-10514356D01*
X14177356Y-10260356D02*
X14177356Y-10189644D01*
X14106644Y-10189644D01*
X14106644Y-10260356D01*
X14177356Y-10260356D01*
X14177356Y-10514356D02*
X14177356Y-10443644D01*
X14106644Y-10443644D01*
X14106644Y-10514356D01*
X14177356Y-10514356D01*
X14431356Y-10260356D02*
X14431356Y-10189644D01*
X14360644Y-10189644D01*
X14360644Y-10260356D01*
X14431356Y-10260356D01*
X14431356Y-10514356D02*
X14431356Y-10443644D01*
X14360644Y-10443644D01*
X14360644Y-10514356D01*
X14431356Y-10514356D01*
X14685356Y-10260356D02*
X14685356Y-10189644D01*
X14614644Y-10189644D01*
X14614644Y-10260356D01*
X14685356Y-10260356D01*
X14685356Y-10514356D02*
X14685356Y-10443644D01*
X14614644Y-10443644D01*
X14614644Y-10514356D01*
X14685356Y-10514356D01*
X14939356Y-10260356D02*
X14939356Y-10189644D01*
X14868644Y-10189644D01*
X14868644Y-10260356D01*
X14939356Y-10260356D01*
X14939356Y-10514356D02*
X14939356Y-10443644D01*
X14868644Y-10443644D01*
X14868644Y-10514356D01*
X14939356Y-10514356D01*
X15193356Y-10260356D02*
X15193356Y-10189644D01*
X15122644Y-10189644D01*
X15122644Y-10260356D01*
X15193356Y-10260356D01*
X15193356Y-10514356D02*
X15193356Y-10443644D01*
X15122644Y-10443644D01*
X15122644Y-10514356D01*
X15193356Y-10514356D01*
X15447356Y-10260356D02*
X15447356Y-10189644D01*
X15376644Y-10189644D01*
X15376644Y-10260356D01*
X15447356Y-10260356D01*
X15447356Y-10514356D02*
X15447356Y-10443644D01*
X15376644Y-10443644D01*
X15376644Y-10514356D01*
X15447356Y-10514356D01*
X15701356Y-10260356D02*
X15701356Y-10189644D01*
X15630644Y-10189644D01*
X15630644Y-10260356D01*
X15701356Y-10260356D01*
X15701356Y-10514356D02*
X15701356Y-10443644D01*
X15630644Y-10443644D01*
X15630644Y-10514356D01*
X15701356Y-10514356D01*
X16285356Y-11985356D02*
X16285356Y-11914644D01*
X16214644Y-11914644D01*
X16214644Y-11985356D01*
X16285356Y-11985356D01*
D15*
X15560000Y-13075000D02*
X15635000Y-13000000D01*
X15560000Y-12925000D01*
X15485000Y-13000000D01*
X15560000Y-13075000D01*
D16*
X15221000Y-12661000D02*
X15391000Y-12831000D01*
X15391000Y-12661000D02*
X15221000Y-12831000D01*
X15391000Y-12746000D02*
G75*
G03*
X15391000Y-12746000I-85000J0D01*
G01*
X15221000Y-13169000D02*
X15391000Y-13339000D01*
X15391000Y-13169000D02*
X15221000Y-13339000D01*
X15391000Y-13254000D02*
G75*
G03*
X15391000Y-13254000I-85000J0D01*
G01*
X15729000Y-12661000D02*
X15899000Y-12831000D01*
X15899000Y-12661000D02*
X15729000Y-12831000D01*
X15899000Y-12746000D02*
G75*
G03*
X15899000Y-12746000I-85000J0D01*
G01*
X15729000Y-13169000D02*
X15899000Y-13339000D01*
X15899000Y-13169000D02*
X15729000Y-13339000D01*
X15899000Y-13254000D02*
G75*
G03*
X15899000Y-13254000I-85000J0D01*
G01*
D17*
X12770000Y-13605000D02*
X12950000Y-13785000D01*
X12950000Y-13605000D02*
X12770000Y-13785000D01*
X12860000Y-13605000D02*
X12860000Y-13785000D01*
X12770000Y-13695000D02*
X12950000Y-13695000D01*
D11*
X12770000Y-13680000D02*
X12770000Y-13710000D01*
X12770000Y-13710000D02*
G75*
G03*
X12950000Y-13710000I90000J0D01*
G01*
X12950000Y-13710000D02*
X12950000Y-13680000D01*
X12950000Y-13680000D02*
G75*
G03*
X12770000Y-13680000I-90000J0D01*
G01*
D17*
X13650000Y-13605000D02*
X13830000Y-13785000D01*
X13830000Y-13605000D02*
X13650000Y-13785000D01*
X13740000Y-13605000D02*
X13740000Y-13785000D01*
X13650000Y-13695000D02*
X13830000Y-13695000D01*
D11*
X13650000Y-13680000D02*
X13650000Y-13710000D01*
X13650000Y-13710000D02*
G75*
G03*
X13830000Y-13710000I90000J0D01*
G01*
X13830000Y-13710000D02*
X13830000Y-13680000D01*
X13830000Y-13680000D02*
G75*
G03*
X13650000Y-13680000I-90000J0D01*
G01*
D18*
X10215000Y-10215000D02*
X10485000Y-10485000D01*
X10485000Y-10215000D02*
X10215000Y-10485000D01*
X10445460Y-10445460D02*
X10445460Y-10254540D01*
X10254540Y-10254540D01*
X10254540Y-10445460D01*
X10445460Y-10445460D01*
X16015000Y-10215000D02*
X16285000Y-10485000D01*
X16285000Y-10215000D02*
X16015000Y-10485000D01*
X16245460Y-10445460D02*
X16245460Y-10254540D01*
X16054540Y-10254540D01*
X16054540Y-10445460D01*
X16245460Y-10445460D01*
D11*
X10242619Y-14817524D02*
X10242619Y-14617524D01*
X10242619Y-14617524D02*
X10290238Y-14617524D01*
X10290238Y-14617524D02*
X10318810Y-14627048D01*
X10318810Y-14627048D02*
X10337857Y-14646095D01*
X10337857Y-14646095D02*
X10347381Y-14665143D01*
X10347381Y-14665143D02*
X10356905Y-14703238D01*
X10356905Y-14703238D02*
X10356905Y-14731809D01*
X10356905Y-14731809D02*
X10347381Y-14769905D01*
X10347381Y-14769905D02*
X10337857Y-14788952D01*
X10337857Y-14788952D02*
X10318810Y-14808000D01*
X10318810Y-14808000D02*
X10290238Y-14817524D01*
X10290238Y-14817524D02*
X10242619Y-14817524D01*
X10442619Y-14817524D02*
X10442619Y-14684190D01*
X10442619Y-14722286D02*
X10452143Y-14703238D01*
X10452143Y-14703238D02*
X10461667Y-14693714D01*
X10461667Y-14693714D02*
X10480714Y-14684190D01*
X10480714Y-14684190D02*
X10499762Y-14684190D01*
X10566429Y-14817524D02*
X10566429Y-14684190D01*
X10566429Y-14617524D02*
X10556905Y-14627048D01*
X10556905Y-14627048D02*
X10566429Y-14636571D01*
X10566429Y-14636571D02*
X10575952Y-14627048D01*
X10575952Y-14627048D02*
X10566429Y-14617524D01*
X10566429Y-14617524D02*
X10566429Y-14636571D01*
X10690238Y-14817524D02*
X10671190Y-14808000D01*
X10671190Y-14808000D02*
X10661667Y-14788952D01*
X10661667Y-14788952D02*
X10661667Y-14617524D01*
X10795000Y-14817524D02*
X10775952Y-14808000D01*
X10775952Y-14808000D02*
X10766429Y-14788952D01*
X10766429Y-14788952D02*
X10766429Y-14617524D01*
X11023571Y-14817524D02*
X11023571Y-14617524D01*
X11023571Y-14617524D02*
X11090238Y-14760381D01*
X11090238Y-14760381D02*
X11156905Y-14617524D01*
X11156905Y-14617524D02*
X11156905Y-14817524D01*
X11337857Y-14817524D02*
X11337857Y-14712762D01*
X11337857Y-14712762D02*
X11328333Y-14693714D01*
X11328333Y-14693714D02*
X11309286Y-14684190D01*
X11309286Y-14684190D02*
X11271190Y-14684190D01*
X11271190Y-14684190D02*
X11252143Y-14693714D01*
X11337857Y-14808000D02*
X11318809Y-14817524D01*
X11318809Y-14817524D02*
X11271190Y-14817524D01*
X11271190Y-14817524D02*
X11252143Y-14808000D01*
X11252143Y-14808000D02*
X11242619Y-14788952D01*
X11242619Y-14788952D02*
X11242619Y-14769905D01*
X11242619Y-14769905D02*
X11252143Y-14750857D01*
X11252143Y-14750857D02*
X11271190Y-14741333D01*
X11271190Y-14741333D02*
X11318809Y-14741333D01*
X11318809Y-14741333D02*
X11337857Y-14731809D01*
X11433095Y-14684190D02*
X11433095Y-14884190D01*
X11433095Y-14693714D02*
X11452143Y-14684190D01*
X11452143Y-14684190D02*
X11490238Y-14684190D01*
X11490238Y-14684190D02*
X11509286Y-14693714D01*
X11509286Y-14693714D02*
X11518809Y-14703238D01*
X11518809Y-14703238D02*
X11528333Y-14722286D01*
X11528333Y-14722286D02*
X11528333Y-14779428D01*
X11528333Y-14779428D02*
X11518809Y-14798476D01*
X11518809Y-14798476D02*
X11509286Y-14808000D01*
X11509286Y-14808000D02*
X11490238Y-14817524D01*
X11490238Y-14817524D02*
X11452143Y-14817524D01*
X11452143Y-14817524D02*
X11433095Y-14808000D01*
X11614048Y-14798476D02*
X11623571Y-14808000D01*
X11623571Y-14808000D02*
X11614048Y-14817524D01*
X11614048Y-14817524D02*
X11604524Y-14808000D01*
X11604524Y-14808000D02*
X11614048Y-14798476D01*
X11614048Y-14798476D02*
X11614048Y-14817524D01*
X11614048Y-14693714D02*
X11623571Y-14703238D01*
X11623571Y-14703238D02*
X11614048Y-14712762D01*
X11614048Y-14712762D02*
X11604524Y-14703238D01*
X11604524Y-14703238D02*
X11614048Y-14693714D01*
X11614048Y-14693714D02*
X11614048Y-14712762D01*
D12*
X9955000Y-15125000D02*
X9995000Y-15165000D01*
X9995000Y-15125000D02*
X9955000Y-15165000D01*
D11*
X10280714Y-15037524D02*
X10299762Y-15037524D01*
X10299762Y-15037524D02*
X10318810Y-15047048D01*
X10318810Y-15047048D02*
X10328333Y-15056571D01*
X10328333Y-15056571D02*
X10337857Y-15075619D01*
X10337857Y-15075619D02*
X10347381Y-15113714D01*
X10347381Y-15113714D02*
X10347381Y-15161333D01*
X10347381Y-15161333D02*
X10337857Y-15199428D01*
X10337857Y-15199428D02*
X10328333Y-15218476D01*
X10328333Y-15218476D02*
X10318810Y-15228000D01*
X10318810Y-15228000D02*
X10299762Y-15237524D01*
X10299762Y-15237524D02*
X10280714Y-15237524D01*
X10280714Y-15237524D02*
X10261667Y-15228000D01*
X10261667Y-15228000D02*
X10252143Y-15218476D01*
X10252143Y-15218476D02*
X10242619Y-15199428D01*
X10242619Y-15199428D02*
X10233095Y-15161333D01*
X10233095Y-15161333D02*
X10233095Y-15113714D01*
X10233095Y-15113714D02*
X10242619Y-15075619D01*
X10242619Y-15075619D02*
X10252143Y-15056571D01*
X10252143Y-15056571D02*
X10261667Y-15047048D01*
X10261667Y-15047048D02*
X10280714Y-15037524D01*
X10433095Y-15218476D02*
X10442619Y-15228000D01*
X10442619Y-15228000D02*
X10433095Y-15237524D01*
X10433095Y-15237524D02*
X10423571Y-15228000D01*
X10423571Y-15228000D02*
X10433095Y-15218476D01*
X10433095Y-15218476D02*
X10433095Y-15237524D01*
X10614048Y-15104190D02*
X10614048Y-15237524D01*
X10566429Y-15028000D02*
X10518810Y-15170857D01*
X10518810Y-15170857D02*
X10642619Y-15170857D01*
X10756905Y-15037524D02*
X10775952Y-15037524D01*
X10775952Y-15037524D02*
X10795000Y-15047048D01*
X10795000Y-15047048D02*
X10804524Y-15056571D01*
X10804524Y-15056571D02*
X10814048Y-15075619D01*
X10814048Y-15075619D02*
X10823571Y-15113714D01*
X10823571Y-15113714D02*
X10823571Y-15161333D01*
X10823571Y-15161333D02*
X10814048Y-15199428D01*
X10814048Y-15199428D02*
X10804524Y-15218476D01*
X10804524Y-15218476D02*
X10795000Y-15228000D01*
X10795000Y-15228000D02*
X10775952Y-15237524D01*
X10775952Y-15237524D02*
X10756905Y-15237524D01*
X10756905Y-15237524D02*
X10737857Y-15228000D01*
X10737857Y-15228000D02*
X10728333Y-15218476D01*
X10728333Y-15218476D02*
X10718810Y-15199428D01*
X10718810Y-15199428D02*
X10709286Y-15161333D01*
X10709286Y-15161333D02*
X10709286Y-15113714D01*
X10709286Y-15113714D02*
X10718810Y-15075619D01*
X10718810Y-15075619D02*
X10728333Y-15056571D01*
X10728333Y-15056571D02*
X10737857Y-15047048D01*
X10737857Y-15047048D02*
X10756905Y-15037524D01*
X10947381Y-15037524D02*
X10966429Y-15037524D01*
X10966429Y-15037524D02*
X10985476Y-15047048D01*
X10985476Y-15047048D02*
X10995000Y-15056571D01*
X10995000Y-15056571D02*
X11004524Y-15075619D01*
X11004524Y-15075619D02*
X11014048Y-15113714D01*
X11014048Y-15113714D02*
X11014048Y-15161333D01*
X11014048Y-15161333D02*
X11004524Y-15199428D01*
X11004524Y-15199428D02*
X10995000Y-15218476D01*
X10995000Y-15218476D02*
X10985476Y-15228000D01*
X10985476Y-15228000D02*
X10966429Y-15237524D01*
X10966429Y-15237524D02*
X10947381Y-15237524D01*
X10947381Y-15237524D02*
X10928333Y-15228000D01*
X10928333Y-15228000D02*
X10918810Y-15218476D01*
X10918810Y-15218476D02*
X10909286Y-15199428D01*
X10909286Y-15199428D02*
X10899762Y-15161333D01*
X10899762Y-15161333D02*
X10899762Y-15113714D01*
X10899762Y-15113714D02*
X10909286Y-15075619D01*
X10909286Y-15075619D02*
X10918810Y-15056571D01*
X10918810Y-15056571D02*
X10928333Y-15047048D01*
X10928333Y-15047048D02*
X10947381Y-15037524D01*
X11099762Y-15237524D02*
X11099762Y-15104190D01*
X11099762Y-15123238D02*
X11109286Y-15113714D01*
X11109286Y-15113714D02*
X11128333Y-15104190D01*
X11128333Y-15104190D02*
X11156905Y-15104190D01*
X11156905Y-15104190D02*
X11175952Y-15113714D01*
X11175952Y-15113714D02*
X11185476Y-15132762D01*
X11185476Y-15132762D02*
X11185476Y-15237524D01*
X11185476Y-15132762D02*
X11195000Y-15113714D01*
X11195000Y-15113714D02*
X11214048Y-15104190D01*
X11214048Y-15104190D02*
X11242619Y-15104190D01*
X11242619Y-15104190D02*
X11261667Y-15113714D01*
X11261667Y-15113714D02*
X11271190Y-15132762D01*
X11271190Y-15132762D02*
X11271190Y-15237524D01*
X11366429Y-15237524D02*
X11366429Y-15104190D01*
X11366429Y-15123238D02*
X11375952Y-15113714D01*
X11375952Y-15113714D02*
X11395000Y-15104190D01*
X11395000Y-15104190D02*
X11423571Y-15104190D01*
X11423571Y-15104190D02*
X11442619Y-15113714D01*
X11442619Y-15113714D02*
X11452143Y-15132762D01*
X11452143Y-15132762D02*
X11452143Y-15237524D01*
X11452143Y-15132762D02*
X11461667Y-15113714D01*
X11461667Y-15113714D02*
X11480714Y-15104190D01*
X11480714Y-15104190D02*
X11509286Y-15104190D01*
X11509286Y-15104190D02*
X11528333Y-15113714D01*
X11528333Y-15113714D02*
X11537857Y-15132762D01*
X11537857Y-15132762D02*
X11537857Y-15237524D01*
X11928333Y-15028000D02*
X11756905Y-15285143D01*
X12185476Y-15037524D02*
X12204524Y-15037524D01*
X12204524Y-15037524D02*
X12223572Y-15047048D01*
X12223572Y-15047048D02*
X12233095Y-15056571D01*
X12233095Y-15056571D02*
X12242619Y-15075619D01*
X12242619Y-15075619D02*
X12252143Y-15113714D01*
X12252143Y-15113714D02*
X12252143Y-15161333D01*
X12252143Y-15161333D02*
X12242619Y-15199428D01*
X12242619Y-15199428D02*
X12233095Y-15218476D01*
X12233095Y-15218476D02*
X12223572Y-15228000D01*
X12223572Y-15228000D02*
X12204524Y-15237524D01*
X12204524Y-15237524D02*
X12185476Y-15237524D01*
X12185476Y-15237524D02*
X12166429Y-15228000D01*
X12166429Y-15228000D02*
X12156905Y-15218476D01*
X12156905Y-15218476D02*
X12147381Y-15199428D01*
X12147381Y-15199428D02*
X12137857Y-15161333D01*
X12137857Y-15161333D02*
X12137857Y-15113714D01*
X12137857Y-15113714D02*
X12147381Y-15075619D01*
X12147381Y-15075619D02*
X12156905Y-15056571D01*
X12156905Y-15056571D02*
X12166429Y-15047048D01*
X12166429Y-15047048D02*
X12185476Y-15037524D01*
X12337857Y-15218476D02*
X12347381Y-15228000D01*
X12347381Y-15228000D02*
X12337857Y-15237524D01*
X12337857Y-15237524D02*
X12328333Y-15228000D01*
X12328333Y-15228000D02*
X12337857Y-15218476D01*
X12337857Y-15218476D02*
X12337857Y-15237524D01*
X12471191Y-15037524D02*
X12490238Y-15037524D01*
X12490238Y-15037524D02*
X12509286Y-15047048D01*
X12509286Y-15047048D02*
X12518810Y-15056571D01*
X12518810Y-15056571D02*
X12528333Y-15075619D01*
X12528333Y-15075619D02*
X12537857Y-15113714D01*
X12537857Y-15113714D02*
X12537857Y-15161333D01*
X12537857Y-15161333D02*
X12528333Y-15199428D01*
X12528333Y-15199428D02*
X12518810Y-15218476D01*
X12518810Y-15218476D02*
X12509286Y-15228000D01*
X12509286Y-15228000D02*
X12490238Y-15237524D01*
X12490238Y-15237524D02*
X12471191Y-15237524D01*
X12471191Y-15237524D02*
X12452143Y-15228000D01*
X12452143Y-15228000D02*
X12442619Y-15218476D01*
X12442619Y-15218476D02*
X12433095Y-15199428D01*
X12433095Y-15199428D02*
X12423572Y-15161333D01*
X12423572Y-15161333D02*
X12423572Y-15113714D01*
X12423572Y-15113714D02*
X12433095Y-15075619D01*
X12433095Y-15075619D02*
X12442619Y-15056571D01*
X12442619Y-15056571D02*
X12452143Y-15047048D01*
X12452143Y-15047048D02*
X12471191Y-15037524D01*
X12728333Y-15237524D02*
X12614048Y-15237524D01*
X12671191Y-15237524D02*
X12671191Y-15037524D01*
X12671191Y-15037524D02*
X12652143Y-15066095D01*
X12652143Y-15066095D02*
X12633095Y-15085143D01*
X12633095Y-15085143D02*
X12614048Y-15094667D01*
X12909286Y-15037524D02*
X12814048Y-15037524D01*
X12814048Y-15037524D02*
X12804524Y-15132762D01*
X12804524Y-15132762D02*
X12814048Y-15123238D01*
X12814048Y-15123238D02*
X12833095Y-15113714D01*
X12833095Y-15113714D02*
X12880714Y-15113714D01*
X12880714Y-15113714D02*
X12899762Y-15123238D01*
X12899762Y-15123238D02*
X12909286Y-15132762D01*
X12909286Y-15132762D02*
X12918810Y-15151809D01*
X12918810Y-15151809D02*
X12918810Y-15199428D01*
X12918810Y-15199428D02*
X12909286Y-15218476D01*
X12909286Y-15218476D02*
X12899762Y-15228000D01*
X12899762Y-15228000D02*
X12880714Y-15237524D01*
X12880714Y-15237524D02*
X12833095Y-15237524D01*
X12833095Y-15237524D02*
X12814048Y-15228000D01*
X12814048Y-15228000D02*
X12804524Y-15218476D01*
X12985476Y-15037524D02*
X13118810Y-15037524D01*
X13118810Y-15037524D02*
X13033095Y-15237524D01*
X13185476Y-15037524D02*
X13185476Y-15075619D01*
X13261667Y-15037524D02*
X13261667Y-15075619D01*
X13556905Y-15313714D02*
X13547381Y-15304190D01*
X13547381Y-15304190D02*
X13528334Y-15275619D01*
X13528334Y-15275619D02*
X13518810Y-15256571D01*
X13518810Y-15256571D02*
X13509286Y-15228000D01*
X13509286Y-15228000D02*
X13499762Y-15180381D01*
X13499762Y-15180381D02*
X13499762Y-15142286D01*
X13499762Y-15142286D02*
X13509286Y-15094667D01*
X13509286Y-15094667D02*
X13518810Y-15066095D01*
X13518810Y-15066095D02*
X13528334Y-15047048D01*
X13528334Y-15047048D02*
X13547381Y-15018476D01*
X13547381Y-15018476D02*
X13556905Y-15008952D01*
X13737857Y-15237524D02*
X13623572Y-15237524D01*
X13680714Y-15237524D02*
X13680714Y-15037524D01*
X13680714Y-15037524D02*
X13661667Y-15066095D01*
X13661667Y-15066095D02*
X13642619Y-15085143D01*
X13642619Y-15085143D02*
X13623572Y-15094667D01*
X13909286Y-15037524D02*
X13871191Y-15037524D01*
X13871191Y-15037524D02*
X13852143Y-15047048D01*
X13852143Y-15047048D02*
X13842619Y-15056571D01*
X13842619Y-15056571D02*
X13823572Y-15085143D01*
X13823572Y-15085143D02*
X13814048Y-15123238D01*
X13814048Y-15123238D02*
X13814048Y-15199428D01*
X13814048Y-15199428D02*
X13823572Y-15218476D01*
X13823572Y-15218476D02*
X13833095Y-15228000D01*
X13833095Y-15228000D02*
X13852143Y-15237524D01*
X13852143Y-15237524D02*
X13890238Y-15237524D01*
X13890238Y-15237524D02*
X13909286Y-15228000D01*
X13909286Y-15228000D02*
X13918810Y-15218476D01*
X13918810Y-15218476D02*
X13928334Y-15199428D01*
X13928334Y-15199428D02*
X13928334Y-15151809D01*
X13928334Y-15151809D02*
X13918810Y-15132762D01*
X13918810Y-15132762D02*
X13909286Y-15123238D01*
X13909286Y-15123238D02*
X13890238Y-15113714D01*
X13890238Y-15113714D02*
X13852143Y-15113714D01*
X13852143Y-15113714D02*
X13833095Y-15123238D01*
X13833095Y-15123238D02*
X13823572Y-15132762D01*
X13823572Y-15132762D02*
X13814048Y-15151809D01*
X13995000Y-15037524D02*
X14128334Y-15037524D01*
X14128334Y-15037524D02*
X14042619Y-15237524D01*
X14356905Y-15237524D02*
X14356905Y-15037524D01*
X14442619Y-15237524D02*
X14442619Y-15132762D01*
X14442619Y-15132762D02*
X14433096Y-15113714D01*
X14433096Y-15113714D02*
X14414048Y-15104190D01*
X14414048Y-15104190D02*
X14385476Y-15104190D01*
X14385476Y-15104190D02*
X14366429Y-15113714D01*
X14366429Y-15113714D02*
X14356905Y-15123238D01*
X14566429Y-15237524D02*
X14547381Y-15228000D01*
X14547381Y-15228000D02*
X14537857Y-15218476D01*
X14537857Y-15218476D02*
X14528334Y-15199428D01*
X14528334Y-15199428D02*
X14528334Y-15142286D01*
X14528334Y-15142286D02*
X14537857Y-15123238D01*
X14537857Y-15123238D02*
X14547381Y-15113714D01*
X14547381Y-15113714D02*
X14566429Y-15104190D01*
X14566429Y-15104190D02*
X14595000Y-15104190D01*
X14595000Y-15104190D02*
X14614048Y-15113714D01*
X14614048Y-15113714D02*
X14623572Y-15123238D01*
X14623572Y-15123238D02*
X14633096Y-15142286D01*
X14633096Y-15142286D02*
X14633096Y-15199428D01*
X14633096Y-15199428D02*
X14623572Y-15218476D01*
X14623572Y-15218476D02*
X14614048Y-15228000D01*
X14614048Y-15228000D02*
X14595000Y-15237524D01*
X14595000Y-15237524D02*
X14566429Y-15237524D01*
X14747381Y-15237524D02*
X14728334Y-15228000D01*
X14728334Y-15228000D02*
X14718810Y-15208952D01*
X14718810Y-15208952D02*
X14718810Y-15037524D01*
X14899762Y-15228000D02*
X14880715Y-15237524D01*
X14880715Y-15237524D02*
X14842619Y-15237524D01*
X14842619Y-15237524D02*
X14823572Y-15228000D01*
X14823572Y-15228000D02*
X14814048Y-15208952D01*
X14814048Y-15208952D02*
X14814048Y-15132762D01*
X14814048Y-15132762D02*
X14823572Y-15113714D01*
X14823572Y-15113714D02*
X14842619Y-15104190D01*
X14842619Y-15104190D02*
X14880715Y-15104190D01*
X14880715Y-15104190D02*
X14899762Y-15113714D01*
X14899762Y-15113714D02*
X14909286Y-15132762D01*
X14909286Y-15132762D02*
X14909286Y-15151809D01*
X14909286Y-15151809D02*
X14814048Y-15170857D01*
X14985477Y-15228000D02*
X15004524Y-15237524D01*
X15004524Y-15237524D02*
X15042619Y-15237524D01*
X15042619Y-15237524D02*
X15061667Y-15228000D01*
X15061667Y-15228000D02*
X15071191Y-15208952D01*
X15071191Y-15208952D02*
X15071191Y-15199428D01*
X15071191Y-15199428D02*
X15061667Y-15180381D01*
X15061667Y-15180381D02*
X15042619Y-15170857D01*
X15042619Y-15170857D02*
X15014048Y-15170857D01*
X15014048Y-15170857D02*
X14995000Y-15161333D01*
X14995000Y-15161333D02*
X14985477Y-15142286D01*
X14985477Y-15142286D02*
X14985477Y-15132762D01*
X14985477Y-15132762D02*
X14995000Y-15113714D01*
X14995000Y-15113714D02*
X15014048Y-15104190D01*
X15014048Y-15104190D02*
X15042619Y-15104190D01*
X15042619Y-15104190D02*
X15061667Y-15113714D01*
X15137858Y-15313714D02*
X15147381Y-15304190D01*
X15147381Y-15304190D02*
X15166429Y-15275619D01*
X15166429Y-15275619D02*
X15175953Y-15256571D01*
X15175953Y-15256571D02*
X15185477Y-15228000D01*
X15185477Y-15228000D02*
X15195000Y-15180381D01*
X15195000Y-15180381D02*
X15195000Y-15142286D01*
X15195000Y-15142286D02*
X15185477Y-15094667D01*
X15185477Y-15094667D02*
X15175953Y-15066095D01*
X15175953Y-15066095D02*
X15166429Y-15047048D01*
X15166429Y-15047048D02*
X15147381Y-15018476D01*
X15147381Y-15018476D02*
X15137858Y-15008952D01*
D13*
X9995000Y-15409000D02*
G75*
G03*
X9995000Y-15409000I-25000J0D01*
G01*
D11*
X10280714Y-15301524D02*
X10299762Y-15301524D01*
X10299762Y-15301524D02*
X10318810Y-15311048D01*
X10318810Y-15311048D02*
X10328333Y-15320571D01*
X10328333Y-15320571D02*
X10337857Y-15339619D01*
X10337857Y-15339619D02*
X10347381Y-15377714D01*
X10347381Y-15377714D02*
X10347381Y-15425333D01*
X10347381Y-15425333D02*
X10337857Y-15463428D01*
X10337857Y-15463428D02*
X10328333Y-15482476D01*
X10328333Y-15482476D02*
X10318810Y-15492000D01*
X10318810Y-15492000D02*
X10299762Y-15501524D01*
X10299762Y-15501524D02*
X10280714Y-15501524D01*
X10280714Y-15501524D02*
X10261667Y-15492000D01*
X10261667Y-15492000D02*
X10252143Y-15482476D01*
X10252143Y-15482476D02*
X10242619Y-15463428D01*
X10242619Y-15463428D02*
X10233095Y-15425333D01*
X10233095Y-15425333D02*
X10233095Y-15377714D01*
X10233095Y-15377714D02*
X10242619Y-15339619D01*
X10242619Y-15339619D02*
X10252143Y-15320571D01*
X10252143Y-15320571D02*
X10261667Y-15311048D01*
X10261667Y-15311048D02*
X10280714Y-15301524D01*
X10433095Y-15482476D02*
X10442619Y-15492000D01*
X10442619Y-15492000D02*
X10433095Y-15501524D01*
X10433095Y-15501524D02*
X10423571Y-15492000D01*
X10423571Y-15492000D02*
X10433095Y-15482476D01*
X10433095Y-15482476D02*
X10433095Y-15501524D01*
X10623571Y-15301524D02*
X10528333Y-15301524D01*
X10528333Y-15301524D02*
X10518810Y-15396762D01*
X10518810Y-15396762D02*
X10528333Y-15387238D01*
X10528333Y-15387238D02*
X10547381Y-15377714D01*
X10547381Y-15377714D02*
X10595000Y-15377714D01*
X10595000Y-15377714D02*
X10614048Y-15387238D01*
X10614048Y-15387238D02*
X10623571Y-15396762D01*
X10623571Y-15396762D02*
X10633095Y-15415809D01*
X10633095Y-15415809D02*
X10633095Y-15463428D01*
X10633095Y-15463428D02*
X10623571Y-15482476D01*
X10623571Y-15482476D02*
X10614048Y-15492000D01*
X10614048Y-15492000D02*
X10595000Y-15501524D01*
X10595000Y-15501524D02*
X10547381Y-15501524D01*
X10547381Y-15501524D02*
X10528333Y-15492000D01*
X10528333Y-15492000D02*
X10518810Y-15482476D01*
X10756905Y-15301524D02*
X10775952Y-15301524D01*
X10775952Y-15301524D02*
X10795000Y-15311048D01*
X10795000Y-15311048D02*
X10804524Y-15320571D01*
X10804524Y-15320571D02*
X10814048Y-15339619D01*
X10814048Y-15339619D02*
X10823571Y-15377714D01*
X10823571Y-15377714D02*
X10823571Y-15425333D01*
X10823571Y-15425333D02*
X10814048Y-15463428D01*
X10814048Y-15463428D02*
X10804524Y-15482476D01*
X10804524Y-15482476D02*
X10795000Y-15492000D01*
X10795000Y-15492000D02*
X10775952Y-15501524D01*
X10775952Y-15501524D02*
X10756905Y-15501524D01*
X10756905Y-15501524D02*
X10737857Y-15492000D01*
X10737857Y-15492000D02*
X10728333Y-15482476D01*
X10728333Y-15482476D02*
X10718810Y-15463428D01*
X10718810Y-15463428D02*
X10709286Y-15425333D01*
X10709286Y-15425333D02*
X10709286Y-15377714D01*
X10709286Y-15377714D02*
X10718810Y-15339619D01*
X10718810Y-15339619D02*
X10728333Y-15320571D01*
X10728333Y-15320571D02*
X10737857Y-15311048D01*
X10737857Y-15311048D02*
X10756905Y-15301524D01*
X10947381Y-15301524D02*
X10966429Y-15301524D01*
X10966429Y-15301524D02*
X10985476Y-15311048D01*
X10985476Y-15311048D02*
X10995000Y-15320571D01*
X10995000Y-15320571D02*
X11004524Y-15339619D01*
X11004524Y-15339619D02*
X11014048Y-15377714D01*
X11014048Y-15377714D02*
X11014048Y-15425333D01*
X11014048Y-15425333D02*
X11004524Y-15463428D01*
X11004524Y-15463428D02*
X10995000Y-15482476D01*
X10995000Y-15482476D02*
X10985476Y-15492000D01*
X10985476Y-15492000D02*
X10966429Y-15501524D01*
X10966429Y-15501524D02*
X10947381Y-15501524D01*
X10947381Y-15501524D02*
X10928333Y-15492000D01*
X10928333Y-15492000D02*
X10918810Y-15482476D01*
X10918810Y-15482476D02*
X10909286Y-15463428D01*
X10909286Y-15463428D02*
X10899762Y-15425333D01*
X10899762Y-15425333D02*
X10899762Y-15377714D01*
X10899762Y-15377714D02*
X10909286Y-15339619D01*
X10909286Y-15339619D02*
X10918810Y-15320571D01*
X10918810Y-15320571D02*
X10928333Y-15311048D01*
X10928333Y-15311048D02*
X10947381Y-15301524D01*
X11099762Y-15501524D02*
X11099762Y-15368190D01*
X11099762Y-15387238D02*
X11109286Y-15377714D01*
X11109286Y-15377714D02*
X11128333Y-15368190D01*
X11128333Y-15368190D02*
X11156905Y-15368190D01*
X11156905Y-15368190D02*
X11175952Y-15377714D01*
X11175952Y-15377714D02*
X11185476Y-15396762D01*
X11185476Y-15396762D02*
X11185476Y-15501524D01*
X11185476Y-15396762D02*
X11195000Y-15377714D01*
X11195000Y-15377714D02*
X11214048Y-15368190D01*
X11214048Y-15368190D02*
X11242619Y-15368190D01*
X11242619Y-15368190D02*
X11261667Y-15377714D01*
X11261667Y-15377714D02*
X11271190Y-15396762D01*
X11271190Y-15396762D02*
X11271190Y-15501524D01*
X11366429Y-15501524D02*
X11366429Y-15368190D01*
X11366429Y-15387238D02*
X11375952Y-15377714D01*
X11375952Y-15377714D02*
X11395000Y-15368190D01*
X11395000Y-15368190D02*
X11423571Y-15368190D01*
X11423571Y-15368190D02*
X11442619Y-15377714D01*
X11442619Y-15377714D02*
X11452143Y-15396762D01*
X11452143Y-15396762D02*
X11452143Y-15501524D01*
X11452143Y-15396762D02*
X11461667Y-15377714D01*
X11461667Y-15377714D02*
X11480714Y-15368190D01*
X11480714Y-15368190D02*
X11509286Y-15368190D01*
X11509286Y-15368190D02*
X11528333Y-15377714D01*
X11528333Y-15377714D02*
X11537857Y-15396762D01*
X11537857Y-15396762D02*
X11537857Y-15501524D01*
X11928333Y-15292000D02*
X11756905Y-15549143D01*
X12185476Y-15301524D02*
X12204524Y-15301524D01*
X12204524Y-15301524D02*
X12223572Y-15311048D01*
X12223572Y-15311048D02*
X12233095Y-15320571D01*
X12233095Y-15320571D02*
X12242619Y-15339619D01*
X12242619Y-15339619D02*
X12252143Y-15377714D01*
X12252143Y-15377714D02*
X12252143Y-15425333D01*
X12252143Y-15425333D02*
X12242619Y-15463428D01*
X12242619Y-15463428D02*
X12233095Y-15482476D01*
X12233095Y-15482476D02*
X12223572Y-15492000D01*
X12223572Y-15492000D02*
X12204524Y-15501524D01*
X12204524Y-15501524D02*
X12185476Y-15501524D01*
X12185476Y-15501524D02*
X12166429Y-15492000D01*
X12166429Y-15492000D02*
X12156905Y-15482476D01*
X12156905Y-15482476D02*
X12147381Y-15463428D01*
X12147381Y-15463428D02*
X12137857Y-15425333D01*
X12137857Y-15425333D02*
X12137857Y-15377714D01*
X12137857Y-15377714D02*
X12147381Y-15339619D01*
X12147381Y-15339619D02*
X12156905Y-15320571D01*
X12156905Y-15320571D02*
X12166429Y-15311048D01*
X12166429Y-15311048D02*
X12185476Y-15301524D01*
X12337857Y-15482476D02*
X12347381Y-15492000D01*
X12347381Y-15492000D02*
X12337857Y-15501524D01*
X12337857Y-15501524D02*
X12328333Y-15492000D01*
X12328333Y-15492000D02*
X12337857Y-15482476D01*
X12337857Y-15482476D02*
X12337857Y-15501524D01*
X12471191Y-15301524D02*
X12490238Y-15301524D01*
X12490238Y-15301524D02*
X12509286Y-15311048D01*
X12509286Y-15311048D02*
X12518810Y-15320571D01*
X12518810Y-15320571D02*
X12528333Y-15339619D01*
X12528333Y-15339619D02*
X12537857Y-15377714D01*
X12537857Y-15377714D02*
X12537857Y-15425333D01*
X12537857Y-15425333D02*
X12528333Y-15463428D01*
X12528333Y-15463428D02*
X12518810Y-15482476D01*
X12518810Y-15482476D02*
X12509286Y-15492000D01*
X12509286Y-15492000D02*
X12490238Y-15501524D01*
X12490238Y-15501524D02*
X12471191Y-15501524D01*
X12471191Y-15501524D02*
X12452143Y-15492000D01*
X12452143Y-15492000D02*
X12442619Y-15482476D01*
X12442619Y-15482476D02*
X12433095Y-15463428D01*
X12433095Y-15463428D02*
X12423572Y-15425333D01*
X12423572Y-15425333D02*
X12423572Y-15377714D01*
X12423572Y-15377714D02*
X12433095Y-15339619D01*
X12433095Y-15339619D02*
X12442619Y-15320571D01*
X12442619Y-15320571D02*
X12452143Y-15311048D01*
X12452143Y-15311048D02*
X12471191Y-15301524D01*
X12728333Y-15501524D02*
X12614048Y-15501524D01*
X12671191Y-15501524D02*
X12671191Y-15301524D01*
X12671191Y-15301524D02*
X12652143Y-15330095D01*
X12652143Y-15330095D02*
X12633095Y-15349143D01*
X12633095Y-15349143D02*
X12614048Y-15358667D01*
X12823572Y-15501524D02*
X12861667Y-15501524D01*
X12861667Y-15501524D02*
X12880714Y-15492000D01*
X12880714Y-15492000D02*
X12890238Y-15482476D01*
X12890238Y-15482476D02*
X12909286Y-15453905D01*
X12909286Y-15453905D02*
X12918810Y-15415809D01*
X12918810Y-15415809D02*
X12918810Y-15339619D01*
X12918810Y-15339619D02*
X12909286Y-15320571D01*
X12909286Y-15320571D02*
X12899762Y-15311048D01*
X12899762Y-15311048D02*
X12880714Y-15301524D01*
X12880714Y-15301524D02*
X12842619Y-15301524D01*
X12842619Y-15301524D02*
X12823572Y-15311048D01*
X12823572Y-15311048D02*
X12814048Y-15320571D01*
X12814048Y-15320571D02*
X12804524Y-15339619D01*
X12804524Y-15339619D02*
X12804524Y-15387238D01*
X12804524Y-15387238D02*
X12814048Y-15406286D01*
X12814048Y-15406286D02*
X12823572Y-15415809D01*
X12823572Y-15415809D02*
X12842619Y-15425333D01*
X12842619Y-15425333D02*
X12880714Y-15425333D01*
X12880714Y-15425333D02*
X12899762Y-15415809D01*
X12899762Y-15415809D02*
X12909286Y-15406286D01*
X12909286Y-15406286D02*
X12918810Y-15387238D01*
X12985476Y-15301524D02*
X13118810Y-15301524D01*
X13118810Y-15301524D02*
X13033095Y-15501524D01*
X13185476Y-15301524D02*
X13185476Y-15339619D01*
X13261667Y-15301524D02*
X13261667Y-15339619D01*
X13556905Y-15577714D02*
X13547381Y-15568190D01*
X13547381Y-15568190D02*
X13528334Y-15539619D01*
X13528334Y-15539619D02*
X13518810Y-15520571D01*
X13518810Y-15520571D02*
X13509286Y-15492000D01*
X13509286Y-15492000D02*
X13499762Y-15444381D01*
X13499762Y-15444381D02*
X13499762Y-15406286D01*
X13499762Y-15406286D02*
X13509286Y-15358667D01*
X13509286Y-15358667D02*
X13518810Y-15330095D01*
X13518810Y-15330095D02*
X13528334Y-15311048D01*
X13528334Y-15311048D02*
X13547381Y-15282476D01*
X13547381Y-15282476D02*
X13556905Y-15272952D01*
X13737857Y-15501524D02*
X13623572Y-15501524D01*
X13680714Y-15501524D02*
X13680714Y-15301524D01*
X13680714Y-15301524D02*
X13661667Y-15330095D01*
X13661667Y-15330095D02*
X13642619Y-15349143D01*
X13642619Y-15349143D02*
X13623572Y-15358667D01*
X13909286Y-15301524D02*
X13871191Y-15301524D01*
X13871191Y-15301524D02*
X13852143Y-15311048D01*
X13852143Y-15311048D02*
X13842619Y-15320571D01*
X13842619Y-15320571D02*
X13823572Y-15349143D01*
X13823572Y-15349143D02*
X13814048Y-15387238D01*
X13814048Y-15387238D02*
X13814048Y-15463428D01*
X13814048Y-15463428D02*
X13823572Y-15482476D01*
X13823572Y-15482476D02*
X13833095Y-15492000D01*
X13833095Y-15492000D02*
X13852143Y-15501524D01*
X13852143Y-15501524D02*
X13890238Y-15501524D01*
X13890238Y-15501524D02*
X13909286Y-15492000D01*
X13909286Y-15492000D02*
X13918810Y-15482476D01*
X13918810Y-15482476D02*
X13928334Y-15463428D01*
X13928334Y-15463428D02*
X13928334Y-15415809D01*
X13928334Y-15415809D02*
X13918810Y-15396762D01*
X13918810Y-15396762D02*
X13909286Y-15387238D01*
X13909286Y-15387238D02*
X13890238Y-15377714D01*
X13890238Y-15377714D02*
X13852143Y-15377714D01*
X13852143Y-15377714D02*
X13833095Y-15387238D01*
X13833095Y-15387238D02*
X13823572Y-15396762D01*
X13823572Y-15396762D02*
X13814048Y-15415809D01*
X14166429Y-15501524D02*
X14166429Y-15301524D01*
X14252143Y-15501524D02*
X14252143Y-15396762D01*
X14252143Y-15396762D02*
X14242619Y-15377714D01*
X14242619Y-15377714D02*
X14223572Y-15368190D01*
X14223572Y-15368190D02*
X14195000Y-15368190D01*
X14195000Y-15368190D02*
X14175953Y-15377714D01*
X14175953Y-15377714D02*
X14166429Y-15387238D01*
X14375953Y-15501524D02*
X14356905Y-15492000D01*
X14356905Y-15492000D02*
X14347381Y-15482476D01*
X14347381Y-15482476D02*
X14337857Y-15463428D01*
X14337857Y-15463428D02*
X14337857Y-15406286D01*
X14337857Y-15406286D02*
X14347381Y-15387238D01*
X14347381Y-15387238D02*
X14356905Y-15377714D01*
X14356905Y-15377714D02*
X14375953Y-15368190D01*
X14375953Y-15368190D02*
X14404524Y-15368190D01*
X14404524Y-15368190D02*
X14423572Y-15377714D01*
X14423572Y-15377714D02*
X14433096Y-15387238D01*
X14433096Y-15387238D02*
X14442619Y-15406286D01*
X14442619Y-15406286D02*
X14442619Y-15463428D01*
X14442619Y-15463428D02*
X14433096Y-15482476D01*
X14433096Y-15482476D02*
X14423572Y-15492000D01*
X14423572Y-15492000D02*
X14404524Y-15501524D01*
X14404524Y-15501524D02*
X14375953Y-15501524D01*
X14556905Y-15501524D02*
X14537857Y-15492000D01*
X14537857Y-15492000D02*
X14528334Y-15472952D01*
X14528334Y-15472952D02*
X14528334Y-15301524D01*
X14709286Y-15492000D02*
X14690238Y-15501524D01*
X14690238Y-15501524D02*
X14652143Y-15501524D01*
X14652143Y-15501524D02*
X14633096Y-15492000D01*
X14633096Y-15492000D02*
X14623572Y-15472952D01*
X14623572Y-15472952D02*
X14623572Y-15396762D01*
X14623572Y-15396762D02*
X14633096Y-15377714D01*
X14633096Y-15377714D02*
X14652143Y-15368190D01*
X14652143Y-15368190D02*
X14690238Y-15368190D01*
X14690238Y-15368190D02*
X14709286Y-15377714D01*
X14709286Y-15377714D02*
X14718810Y-15396762D01*
X14718810Y-15396762D02*
X14718810Y-15415809D01*
X14718810Y-15415809D02*
X14623572Y-15434857D01*
X14795000Y-15492000D02*
X14814048Y-15501524D01*
X14814048Y-15501524D02*
X14852143Y-15501524D01*
X14852143Y-15501524D02*
X14871191Y-15492000D01*
X14871191Y-15492000D02*
X14880715Y-15472952D01*
X14880715Y-15472952D02*
X14880715Y-15463428D01*
X14880715Y-15463428D02*
X14871191Y-15444381D01*
X14871191Y-15444381D02*
X14852143Y-15434857D01*
X14852143Y-15434857D02*
X14823572Y-15434857D01*
X14823572Y-15434857D02*
X14804524Y-15425333D01*
X14804524Y-15425333D02*
X14795000Y-15406286D01*
X14795000Y-15406286D02*
X14795000Y-15396762D01*
X14795000Y-15396762D02*
X14804524Y-15377714D01*
X14804524Y-15377714D02*
X14823572Y-15368190D01*
X14823572Y-15368190D02*
X14852143Y-15368190D01*
X14852143Y-15368190D02*
X14871191Y-15377714D01*
X14947381Y-15577714D02*
X14956905Y-15568190D01*
X14956905Y-15568190D02*
X14975953Y-15539619D01*
X14975953Y-15539619D02*
X14985477Y-15520571D01*
X14985477Y-15520571D02*
X14995000Y-15492000D01*
X14995000Y-15492000D02*
X15004524Y-15444381D01*
X15004524Y-15444381D02*
X15004524Y-15406286D01*
X15004524Y-15406286D02*
X14995000Y-15358667D01*
X14995000Y-15358667D02*
X14985477Y-15330095D01*
X14985477Y-15330095D02*
X14975953Y-15311048D01*
X14975953Y-15311048D02*
X14956905Y-15282476D01*
X14956905Y-15282476D02*
X14947381Y-15272952D01*
D14*
X9965000Y-15643000D02*
X9965000Y-15703000D01*
X9935000Y-15673000D02*
X9995000Y-15673000D01*
D11*
X10280714Y-15565524D02*
X10299762Y-15565524D01*
X10299762Y-15565524D02*
X10318810Y-15575048D01*
X10318810Y-15575048D02*
X10328333Y-15584571D01*
X10328333Y-15584571D02*
X10337857Y-15603619D01*
X10337857Y-15603619D02*
X10347381Y-15641714D01*
X10347381Y-15641714D02*
X10347381Y-15689333D01*
X10347381Y-15689333D02*
X10337857Y-15727428D01*
X10337857Y-15727428D02*
X10328333Y-15746476D01*
X10328333Y-15746476D02*
X10318810Y-15756000D01*
X10318810Y-15756000D02*
X10299762Y-15765524D01*
X10299762Y-15765524D02*
X10280714Y-15765524D01*
X10280714Y-15765524D02*
X10261667Y-15756000D01*
X10261667Y-15756000D02*
X10252143Y-15746476D01*
X10252143Y-15746476D02*
X10242619Y-15727428D01*
X10242619Y-15727428D02*
X10233095Y-15689333D01*
X10233095Y-15689333D02*
X10233095Y-15641714D01*
X10233095Y-15641714D02*
X10242619Y-15603619D01*
X10242619Y-15603619D02*
X10252143Y-15584571D01*
X10252143Y-15584571D02*
X10261667Y-15575048D01*
X10261667Y-15575048D02*
X10280714Y-15565524D01*
X10433095Y-15746476D02*
X10442619Y-15756000D01*
X10442619Y-15756000D02*
X10433095Y-15765524D01*
X10433095Y-15765524D02*
X10423571Y-15756000D01*
X10423571Y-15756000D02*
X10433095Y-15746476D01*
X10433095Y-15746476D02*
X10433095Y-15765524D01*
X10614048Y-15565524D02*
X10575952Y-15565524D01*
X10575952Y-15565524D02*
X10556905Y-15575048D01*
X10556905Y-15575048D02*
X10547381Y-15584571D01*
X10547381Y-15584571D02*
X10528333Y-15613143D01*
X10528333Y-15613143D02*
X10518810Y-15651238D01*
X10518810Y-15651238D02*
X10518810Y-15727428D01*
X10518810Y-15727428D02*
X10528333Y-15746476D01*
X10528333Y-15746476D02*
X10537857Y-15756000D01*
X10537857Y-15756000D02*
X10556905Y-15765524D01*
X10556905Y-15765524D02*
X10595000Y-15765524D01*
X10595000Y-15765524D02*
X10614048Y-15756000D01*
X10614048Y-15756000D02*
X10623571Y-15746476D01*
X10623571Y-15746476D02*
X10633095Y-15727428D01*
X10633095Y-15727428D02*
X10633095Y-15679809D01*
X10633095Y-15679809D02*
X10623571Y-15660762D01*
X10623571Y-15660762D02*
X10614048Y-15651238D01*
X10614048Y-15651238D02*
X10595000Y-15641714D01*
X10595000Y-15641714D02*
X10556905Y-15641714D01*
X10556905Y-15641714D02*
X10537857Y-15651238D01*
X10537857Y-15651238D02*
X10528333Y-15660762D01*
X10528333Y-15660762D02*
X10518810Y-15679809D01*
X10756905Y-15565524D02*
X10775952Y-15565524D01*
X10775952Y-15565524D02*
X10795000Y-15575048D01*
X10795000Y-15575048D02*
X10804524Y-15584571D01*
X10804524Y-15584571D02*
X10814048Y-15603619D01*
X10814048Y-15603619D02*
X10823571Y-15641714D01*
X10823571Y-15641714D02*
X10823571Y-15689333D01*
X10823571Y-15689333D02*
X10814048Y-15727428D01*
X10814048Y-15727428D02*
X10804524Y-15746476D01*
X10804524Y-15746476D02*
X10795000Y-15756000D01*
X10795000Y-15756000D02*
X10775952Y-15765524D01*
X10775952Y-15765524D02*
X10756905Y-15765524D01*
X10756905Y-15765524D02*
X10737857Y-15756000D01*
X10737857Y-15756000D02*
X10728333Y-15746476D01*
X10728333Y-15746476D02*
X10718810Y-15727428D01*
X10718810Y-15727428D02*
X10709286Y-15689333D01*
X10709286Y-15689333D02*
X10709286Y-15641714D01*
X10709286Y-15641714D02*
X10718810Y-15603619D01*
X10718810Y-15603619D02*
X10728333Y-15584571D01*
X10728333Y-15584571D02*
X10737857Y-15575048D01*
X10737857Y-15575048D02*
X10756905Y-15565524D01*
X10947381Y-15565524D02*
X10966429Y-15565524D01*
X10966429Y-15565524D02*
X10985476Y-15575048D01*
X10985476Y-15575048D02*
X10995000Y-15584571D01*
X10995000Y-15584571D02*
X11004524Y-15603619D01*
X11004524Y-15603619D02*
X11014048Y-15641714D01*
X11014048Y-15641714D02*
X11014048Y-15689333D01*
X11014048Y-15689333D02*
X11004524Y-15727428D01*
X11004524Y-15727428D02*
X10995000Y-15746476D01*
X10995000Y-15746476D02*
X10985476Y-15756000D01*
X10985476Y-15756000D02*
X10966429Y-15765524D01*
X10966429Y-15765524D02*
X10947381Y-15765524D01*
X10947381Y-15765524D02*
X10928333Y-15756000D01*
X10928333Y-15756000D02*
X10918810Y-15746476D01*
X10918810Y-15746476D02*
X10909286Y-15727428D01*
X10909286Y-15727428D02*
X10899762Y-15689333D01*
X10899762Y-15689333D02*
X10899762Y-15641714D01*
X10899762Y-15641714D02*
X10909286Y-15603619D01*
X10909286Y-15603619D02*
X10918810Y-15584571D01*
X10918810Y-15584571D02*
X10928333Y-15575048D01*
X10928333Y-15575048D02*
X10947381Y-15565524D01*
X11099762Y-15765524D02*
X11099762Y-15632190D01*
X11099762Y-15651238D02*
X11109286Y-15641714D01*
X11109286Y-15641714D02*
X11128333Y-15632190D01*
X11128333Y-15632190D02*
X11156905Y-15632190D01*
X11156905Y-15632190D02*
X11175952Y-15641714D01*
X11175952Y-15641714D02*
X11185476Y-15660762D01*
X11185476Y-15660762D02*
X11185476Y-15765524D01*
X11185476Y-15660762D02*
X11195000Y-15641714D01*
X11195000Y-15641714D02*
X11214048Y-15632190D01*
X11214048Y-15632190D02*
X11242619Y-15632190D01*
X11242619Y-15632190D02*
X11261667Y-15641714D01*
X11261667Y-15641714D02*
X11271190Y-15660762D01*
X11271190Y-15660762D02*
X11271190Y-15765524D01*
X11366429Y-15765524D02*
X11366429Y-15632190D01*
X11366429Y-15651238D02*
X11375952Y-15641714D01*
X11375952Y-15641714D02*
X11395000Y-15632190D01*
X11395000Y-15632190D02*
X11423571Y-15632190D01*
X11423571Y-15632190D02*
X11442619Y-15641714D01*
X11442619Y-15641714D02*
X11452143Y-15660762D01*
X11452143Y-15660762D02*
X11452143Y-15765524D01*
X11452143Y-15660762D02*
X11461667Y-15641714D01*
X11461667Y-15641714D02*
X11480714Y-15632190D01*
X11480714Y-15632190D02*
X11509286Y-15632190D01*
X11509286Y-15632190D02*
X11528333Y-15641714D01*
X11528333Y-15641714D02*
X11537857Y-15660762D01*
X11537857Y-15660762D02*
X11537857Y-15765524D01*
X11928333Y-15556000D02*
X11756905Y-15813143D01*
X12185476Y-15565524D02*
X12204524Y-15565524D01*
X12204524Y-15565524D02*
X12223572Y-15575048D01*
X12223572Y-15575048D02*
X12233095Y-15584571D01*
X12233095Y-15584571D02*
X12242619Y-15603619D01*
X12242619Y-15603619D02*
X12252143Y-15641714D01*
X12252143Y-15641714D02*
X12252143Y-15689333D01*
X12252143Y-15689333D02*
X12242619Y-15727428D01*
X12242619Y-15727428D02*
X12233095Y-15746476D01*
X12233095Y-15746476D02*
X12223572Y-15756000D01*
X12223572Y-15756000D02*
X12204524Y-15765524D01*
X12204524Y-15765524D02*
X12185476Y-15765524D01*
X12185476Y-15765524D02*
X12166429Y-15756000D01*
X12166429Y-15756000D02*
X12156905Y-15746476D01*
X12156905Y-15746476D02*
X12147381Y-15727428D01*
X12147381Y-15727428D02*
X12137857Y-15689333D01*
X12137857Y-15689333D02*
X12137857Y-15641714D01*
X12137857Y-15641714D02*
X12147381Y-15603619D01*
X12147381Y-15603619D02*
X12156905Y-15584571D01*
X12156905Y-15584571D02*
X12166429Y-15575048D01*
X12166429Y-15575048D02*
X12185476Y-15565524D01*
X12337857Y-15746476D02*
X12347381Y-15756000D01*
X12347381Y-15756000D02*
X12337857Y-15765524D01*
X12337857Y-15765524D02*
X12328333Y-15756000D01*
X12328333Y-15756000D02*
X12337857Y-15746476D01*
X12337857Y-15746476D02*
X12337857Y-15765524D01*
X12471191Y-15565524D02*
X12490238Y-15565524D01*
X12490238Y-15565524D02*
X12509286Y-15575048D01*
X12509286Y-15575048D02*
X12518810Y-15584571D01*
X12518810Y-15584571D02*
X12528333Y-15603619D01*
X12528333Y-15603619D02*
X12537857Y-15641714D01*
X12537857Y-15641714D02*
X12537857Y-15689333D01*
X12537857Y-15689333D02*
X12528333Y-15727428D01*
X12528333Y-15727428D02*
X12518810Y-15746476D01*
X12518810Y-15746476D02*
X12509286Y-15756000D01*
X12509286Y-15756000D02*
X12490238Y-15765524D01*
X12490238Y-15765524D02*
X12471191Y-15765524D01*
X12471191Y-15765524D02*
X12452143Y-15756000D01*
X12452143Y-15756000D02*
X12442619Y-15746476D01*
X12442619Y-15746476D02*
X12433095Y-15727428D01*
X12433095Y-15727428D02*
X12423572Y-15689333D01*
X12423572Y-15689333D02*
X12423572Y-15641714D01*
X12423572Y-15641714D02*
X12433095Y-15603619D01*
X12433095Y-15603619D02*
X12442619Y-15584571D01*
X12442619Y-15584571D02*
X12452143Y-15575048D01*
X12452143Y-15575048D02*
X12471191Y-15565524D01*
X12614048Y-15584571D02*
X12623572Y-15575048D01*
X12623572Y-15575048D02*
X12642619Y-15565524D01*
X12642619Y-15565524D02*
X12690238Y-15565524D01*
X12690238Y-15565524D02*
X12709286Y-15575048D01*
X12709286Y-15575048D02*
X12718810Y-15584571D01*
X12718810Y-15584571D02*
X12728333Y-15603619D01*
X12728333Y-15603619D02*
X12728333Y-15622667D01*
X12728333Y-15622667D02*
X12718810Y-15651238D01*
X12718810Y-15651238D02*
X12604524Y-15765524D01*
X12604524Y-15765524D02*
X12728333Y-15765524D01*
X12795000Y-15565524D02*
X12918810Y-15565524D01*
X12918810Y-15565524D02*
X12852143Y-15641714D01*
X12852143Y-15641714D02*
X12880714Y-15641714D01*
X12880714Y-15641714D02*
X12899762Y-15651238D01*
X12899762Y-15651238D02*
X12909286Y-15660762D01*
X12909286Y-15660762D02*
X12918810Y-15679809D01*
X12918810Y-15679809D02*
X12918810Y-15727428D01*
X12918810Y-15727428D02*
X12909286Y-15746476D01*
X12909286Y-15746476D02*
X12899762Y-15756000D01*
X12899762Y-15756000D02*
X12880714Y-15765524D01*
X12880714Y-15765524D02*
X12823572Y-15765524D01*
X12823572Y-15765524D02*
X12804524Y-15756000D01*
X12804524Y-15756000D02*
X12795000Y-15746476D01*
X13090238Y-15565524D02*
X13052143Y-15565524D01*
X13052143Y-15565524D02*
X13033095Y-15575048D01*
X13033095Y-15575048D02*
X13023572Y-15584571D01*
X13023572Y-15584571D02*
X13004524Y-15613143D01*
X13004524Y-15613143D02*
X12995000Y-15651238D01*
X12995000Y-15651238D02*
X12995000Y-15727428D01*
X12995000Y-15727428D02*
X13004524Y-15746476D01*
X13004524Y-15746476D02*
X13014048Y-15756000D01*
X13014048Y-15756000D02*
X13033095Y-15765524D01*
X13033095Y-15765524D02*
X13071191Y-15765524D01*
X13071191Y-15765524D02*
X13090238Y-15756000D01*
X13090238Y-15756000D02*
X13099762Y-15746476D01*
X13099762Y-15746476D02*
X13109286Y-15727428D01*
X13109286Y-15727428D02*
X13109286Y-15679809D01*
X13109286Y-15679809D02*
X13099762Y-15660762D01*
X13099762Y-15660762D02*
X13090238Y-15651238D01*
X13090238Y-15651238D02*
X13071191Y-15641714D01*
X13071191Y-15641714D02*
X13033095Y-15641714D01*
X13033095Y-15641714D02*
X13014048Y-15651238D01*
X13014048Y-15651238D02*
X13004524Y-15660762D01*
X13004524Y-15660762D02*
X12995000Y-15679809D01*
X13185476Y-15565524D02*
X13185476Y-15603619D01*
X13261667Y-15565524D02*
X13261667Y-15603619D01*
X13556905Y-15841714D02*
X13547381Y-15832190D01*
X13547381Y-15832190D02*
X13528334Y-15803619D01*
X13528334Y-15803619D02*
X13518810Y-15784571D01*
X13518810Y-15784571D02*
X13509286Y-15756000D01*
X13509286Y-15756000D02*
X13499762Y-15708381D01*
X13499762Y-15708381D02*
X13499762Y-15670286D01*
X13499762Y-15670286D02*
X13509286Y-15622667D01*
X13509286Y-15622667D02*
X13518810Y-15594095D01*
X13518810Y-15594095D02*
X13528334Y-15575048D01*
X13528334Y-15575048D02*
X13547381Y-15546476D01*
X13547381Y-15546476D02*
X13556905Y-15536952D01*
X13737857Y-15765524D02*
X13623572Y-15765524D01*
X13680714Y-15765524D02*
X13680714Y-15565524D01*
X13680714Y-15565524D02*
X13661667Y-15594095D01*
X13661667Y-15594095D02*
X13642619Y-15613143D01*
X13642619Y-15613143D02*
X13623572Y-15622667D01*
X13861667Y-15565524D02*
X13880715Y-15565524D01*
X13880715Y-15565524D02*
X13899762Y-15575048D01*
X13899762Y-15575048D02*
X13909286Y-15584571D01*
X13909286Y-15584571D02*
X13918810Y-15603619D01*
X13918810Y-15603619D02*
X13928334Y-15641714D01*
X13928334Y-15641714D02*
X13928334Y-15689333D01*
X13928334Y-15689333D02*
X13918810Y-15727428D01*
X13918810Y-15727428D02*
X13909286Y-15746476D01*
X13909286Y-15746476D02*
X13899762Y-15756000D01*
X13899762Y-15756000D02*
X13880715Y-15765524D01*
X13880715Y-15765524D02*
X13861667Y-15765524D01*
X13861667Y-15765524D02*
X13842619Y-15756000D01*
X13842619Y-15756000D02*
X13833095Y-15746476D01*
X13833095Y-15746476D02*
X13823572Y-15727428D01*
X13823572Y-15727428D02*
X13814048Y-15689333D01*
X13814048Y-15689333D02*
X13814048Y-15641714D01*
X13814048Y-15641714D02*
X13823572Y-15603619D01*
X13823572Y-15603619D02*
X13833095Y-15584571D01*
X13833095Y-15584571D02*
X13842619Y-15575048D01*
X13842619Y-15575048D02*
X13861667Y-15565524D01*
X14166429Y-15765524D02*
X14166429Y-15565524D01*
X14252143Y-15765524D02*
X14252143Y-15660762D01*
X14252143Y-15660762D02*
X14242619Y-15641714D01*
X14242619Y-15641714D02*
X14223572Y-15632190D01*
X14223572Y-15632190D02*
X14195000Y-15632190D01*
X14195000Y-15632190D02*
X14175953Y-15641714D01*
X14175953Y-15641714D02*
X14166429Y-15651238D01*
X14375953Y-15765524D02*
X14356905Y-15756000D01*
X14356905Y-15756000D02*
X14347381Y-15746476D01*
X14347381Y-15746476D02*
X14337857Y-15727428D01*
X14337857Y-15727428D02*
X14337857Y-15670286D01*
X14337857Y-15670286D02*
X14347381Y-15651238D01*
X14347381Y-15651238D02*
X14356905Y-15641714D01*
X14356905Y-15641714D02*
X14375953Y-15632190D01*
X14375953Y-15632190D02*
X14404524Y-15632190D01*
X14404524Y-15632190D02*
X14423572Y-15641714D01*
X14423572Y-15641714D02*
X14433096Y-15651238D01*
X14433096Y-15651238D02*
X14442619Y-15670286D01*
X14442619Y-15670286D02*
X14442619Y-15727428D01*
X14442619Y-15727428D02*
X14433096Y-15746476D01*
X14433096Y-15746476D02*
X14423572Y-15756000D01*
X14423572Y-15756000D02*
X14404524Y-15765524D01*
X14404524Y-15765524D02*
X14375953Y-15765524D01*
X14556905Y-15765524D02*
X14537857Y-15756000D01*
X14537857Y-15756000D02*
X14528334Y-15736952D01*
X14528334Y-15736952D02*
X14528334Y-15565524D01*
X14709286Y-15756000D02*
X14690238Y-15765524D01*
X14690238Y-15765524D02*
X14652143Y-15765524D01*
X14652143Y-15765524D02*
X14633096Y-15756000D01*
X14633096Y-15756000D02*
X14623572Y-15736952D01*
X14623572Y-15736952D02*
X14623572Y-15660762D01*
X14623572Y-15660762D02*
X14633096Y-15641714D01*
X14633096Y-15641714D02*
X14652143Y-15632190D01*
X14652143Y-15632190D02*
X14690238Y-15632190D01*
X14690238Y-15632190D02*
X14709286Y-15641714D01*
X14709286Y-15641714D02*
X14718810Y-15660762D01*
X14718810Y-15660762D02*
X14718810Y-15679809D01*
X14718810Y-15679809D02*
X14623572Y-15698857D01*
X14795000Y-15756000D02*
X14814048Y-15765524D01*
X14814048Y-15765524D02*
X14852143Y-15765524D01*
X14852143Y-15765524D02*
X14871191Y-15756000D01*
X14871191Y-15756000D02*
X14880715Y-15736952D01*
X14880715Y-15736952D02*
X14880715Y-15727428D01*
X14880715Y-15727428D02*
X14871191Y-15708381D01*
X14871191Y-15708381D02*
X14852143Y-15698857D01*
X14852143Y-15698857D02*
X14823572Y-15698857D01*
X14823572Y-15698857D02*
X14804524Y-15689333D01*
X14804524Y-15689333D02*
X14795000Y-15670286D01*
X14795000Y-15670286D02*
X14795000Y-15660762D01*
X14795000Y-15660762D02*
X14804524Y-15641714D01*
X14804524Y-15641714D02*
X14823572Y-15632190D01*
X14823572Y-15632190D02*
X14852143Y-15632190D01*
X14852143Y-15632190D02*
X14871191Y-15641714D01*
X14947381Y-15841714D02*
X14956905Y-15832190D01*
X14956905Y-15832190D02*
X14975953Y-15803619D01*
X14975953Y-15803619D02*
X14985477Y-15784571D01*
X14985477Y-15784571D02*
X14995000Y-15756000D01*
X14995000Y-15756000D02*
X15004524Y-15708381D01*
X15004524Y-15708381D02*
X15004524Y-15670286D01*
X15004524Y-15670286D02*
X14995000Y-15622667D01*
X14995000Y-15622667D02*
X14985477Y-15594095D01*
X14985477Y-15594095D02*
X14975953Y-15575048D01*
X14975953Y-15575048D02*
X14956905Y-15546476D01*
X14956905Y-15546476D02*
X14947381Y-15536952D01*
D10*
X9980356Y-15972356D02*
X9980356Y-15901644D01*
X9909644Y-15901644D01*
X9909644Y-15972356D01*
X9980356Y-15972356D01*
D11*
X10347381Y-16029524D02*
X10233095Y-16029524D01*
X10290238Y-16029524D02*
X10290238Y-15829524D01*
X10290238Y-15829524D02*
X10271190Y-15858095D01*
X10271190Y-15858095D02*
X10252143Y-15877143D01*
X10252143Y-15877143D02*
X10233095Y-15886667D01*
X10433095Y-16010476D02*
X10442619Y-16020000D01*
X10442619Y-16020000D02*
X10433095Y-16029524D01*
X10433095Y-16029524D02*
X10423571Y-16020000D01*
X10423571Y-16020000D02*
X10433095Y-16010476D01*
X10433095Y-16010476D02*
X10433095Y-16029524D01*
X10566429Y-15829524D02*
X10585476Y-15829524D01*
X10585476Y-15829524D02*
X10604524Y-15839048D01*
X10604524Y-15839048D02*
X10614048Y-15848571D01*
X10614048Y-15848571D02*
X10623571Y-15867619D01*
X10623571Y-15867619D02*
X10633095Y-15905714D01*
X10633095Y-15905714D02*
X10633095Y-15953333D01*
X10633095Y-15953333D02*
X10623571Y-15991428D01*
X10623571Y-15991428D02*
X10614048Y-16010476D01*
X10614048Y-16010476D02*
X10604524Y-16020000D01*
X10604524Y-16020000D02*
X10585476Y-16029524D01*
X10585476Y-16029524D02*
X10566429Y-16029524D01*
X10566429Y-16029524D02*
X10547381Y-16020000D01*
X10547381Y-16020000D02*
X10537857Y-16010476D01*
X10537857Y-16010476D02*
X10528333Y-15991428D01*
X10528333Y-15991428D02*
X10518810Y-15953333D01*
X10518810Y-15953333D02*
X10518810Y-15905714D01*
X10518810Y-15905714D02*
X10528333Y-15867619D01*
X10528333Y-15867619D02*
X10537857Y-15848571D01*
X10537857Y-15848571D02*
X10547381Y-15839048D01*
X10547381Y-15839048D02*
X10566429Y-15829524D01*
X10756905Y-15829524D02*
X10775952Y-15829524D01*
X10775952Y-15829524D02*
X10795000Y-15839048D01*
X10795000Y-15839048D02*
X10804524Y-15848571D01*
X10804524Y-15848571D02*
X10814048Y-15867619D01*
X10814048Y-15867619D02*
X10823571Y-15905714D01*
X10823571Y-15905714D02*
X10823571Y-15953333D01*
X10823571Y-15953333D02*
X10814048Y-15991428D01*
X10814048Y-15991428D02*
X10804524Y-16010476D01*
X10804524Y-16010476D02*
X10795000Y-16020000D01*
X10795000Y-16020000D02*
X10775952Y-16029524D01*
X10775952Y-16029524D02*
X10756905Y-16029524D01*
X10756905Y-16029524D02*
X10737857Y-16020000D01*
X10737857Y-16020000D02*
X10728333Y-16010476D01*
X10728333Y-16010476D02*
X10718810Y-15991428D01*
X10718810Y-15991428D02*
X10709286Y-15953333D01*
X10709286Y-15953333D02*
X10709286Y-15905714D01*
X10709286Y-15905714D02*
X10718810Y-15867619D01*
X10718810Y-15867619D02*
X10728333Y-15848571D01*
X10728333Y-15848571D02*
X10737857Y-15839048D01*
X10737857Y-15839048D02*
X10756905Y-15829524D01*
X10947381Y-15829524D02*
X10966429Y-15829524D01*
X10966429Y-15829524D02*
X10985476Y-15839048D01*
X10985476Y-15839048D02*
X10995000Y-15848571D01*
X10995000Y-15848571D02*
X11004524Y-15867619D01*
X11004524Y-15867619D02*
X11014048Y-15905714D01*
X11014048Y-15905714D02*
X11014048Y-15953333D01*
X11014048Y-15953333D02*
X11004524Y-15991428D01*
X11004524Y-15991428D02*
X10995000Y-16010476D01*
X10995000Y-16010476D02*
X10985476Y-16020000D01*
X10985476Y-16020000D02*
X10966429Y-16029524D01*
X10966429Y-16029524D02*
X10947381Y-16029524D01*
X10947381Y-16029524D02*
X10928333Y-16020000D01*
X10928333Y-16020000D02*
X10918810Y-16010476D01*
X10918810Y-16010476D02*
X10909286Y-15991428D01*
X10909286Y-15991428D02*
X10899762Y-15953333D01*
X10899762Y-15953333D02*
X10899762Y-15905714D01*
X10899762Y-15905714D02*
X10909286Y-15867619D01*
X10909286Y-15867619D02*
X10918810Y-15848571D01*
X10918810Y-15848571D02*
X10928333Y-15839048D01*
X10928333Y-15839048D02*
X10947381Y-15829524D01*
X11099762Y-16029524D02*
X11099762Y-15896190D01*
X11099762Y-15915238D02*
X11109286Y-15905714D01*
X11109286Y-15905714D02*
X11128333Y-15896190D01*
X11128333Y-15896190D02*
X11156905Y-15896190D01*
X11156905Y-15896190D02*
X11175952Y-15905714D01*
X11175952Y-15905714D02*
X11185476Y-15924762D01*
X11185476Y-15924762D02*
X11185476Y-16029524D01*
X11185476Y-15924762D02*
X11195000Y-15905714D01*
X11195000Y-15905714D02*
X11214048Y-15896190D01*
X11214048Y-15896190D02*
X11242619Y-15896190D01*
X11242619Y-15896190D02*
X11261667Y-15905714D01*
X11261667Y-15905714D02*
X11271190Y-15924762D01*
X11271190Y-15924762D02*
X11271190Y-16029524D01*
X11366429Y-16029524D02*
X11366429Y-15896190D01*
X11366429Y-15915238D02*
X11375952Y-15905714D01*
X11375952Y-15905714D02*
X11395000Y-15896190D01*
X11395000Y-15896190D02*
X11423571Y-15896190D01*
X11423571Y-15896190D02*
X11442619Y-15905714D01*
X11442619Y-15905714D02*
X11452143Y-15924762D01*
X11452143Y-15924762D02*
X11452143Y-16029524D01*
X11452143Y-15924762D02*
X11461667Y-15905714D01*
X11461667Y-15905714D02*
X11480714Y-15896190D01*
X11480714Y-15896190D02*
X11509286Y-15896190D01*
X11509286Y-15896190D02*
X11528333Y-15905714D01*
X11528333Y-15905714D02*
X11537857Y-15924762D01*
X11537857Y-15924762D02*
X11537857Y-16029524D01*
X11928333Y-15820000D02*
X11756905Y-16077143D01*
X12185476Y-15829524D02*
X12204524Y-15829524D01*
X12204524Y-15829524D02*
X12223572Y-15839048D01*
X12223572Y-15839048D02*
X12233095Y-15848571D01*
X12233095Y-15848571D02*
X12242619Y-15867619D01*
X12242619Y-15867619D02*
X12252143Y-15905714D01*
X12252143Y-15905714D02*
X12252143Y-15953333D01*
X12252143Y-15953333D02*
X12242619Y-15991428D01*
X12242619Y-15991428D02*
X12233095Y-16010476D01*
X12233095Y-16010476D02*
X12223572Y-16020000D01*
X12223572Y-16020000D02*
X12204524Y-16029524D01*
X12204524Y-16029524D02*
X12185476Y-16029524D01*
X12185476Y-16029524D02*
X12166429Y-16020000D01*
X12166429Y-16020000D02*
X12156905Y-16010476D01*
X12156905Y-16010476D02*
X12147381Y-15991428D01*
X12147381Y-15991428D02*
X12137857Y-15953333D01*
X12137857Y-15953333D02*
X12137857Y-15905714D01*
X12137857Y-15905714D02*
X12147381Y-15867619D01*
X12147381Y-15867619D02*
X12156905Y-15848571D01*
X12156905Y-15848571D02*
X12166429Y-15839048D01*
X12166429Y-15839048D02*
X12185476Y-15829524D01*
X12337857Y-16010476D02*
X12347381Y-16020000D01*
X12347381Y-16020000D02*
X12337857Y-16029524D01*
X12337857Y-16029524D02*
X12328333Y-16020000D01*
X12328333Y-16020000D02*
X12337857Y-16010476D01*
X12337857Y-16010476D02*
X12337857Y-16029524D01*
X12471191Y-15829524D02*
X12490238Y-15829524D01*
X12490238Y-15829524D02*
X12509286Y-15839048D01*
X12509286Y-15839048D02*
X12518810Y-15848571D01*
X12518810Y-15848571D02*
X12528333Y-15867619D01*
X12528333Y-15867619D02*
X12537857Y-15905714D01*
X12537857Y-15905714D02*
X12537857Y-15953333D01*
X12537857Y-15953333D02*
X12528333Y-15991428D01*
X12528333Y-15991428D02*
X12518810Y-16010476D01*
X12518810Y-16010476D02*
X12509286Y-16020000D01*
X12509286Y-16020000D02*
X12490238Y-16029524D01*
X12490238Y-16029524D02*
X12471191Y-16029524D01*
X12471191Y-16029524D02*
X12452143Y-16020000D01*
X12452143Y-16020000D02*
X12442619Y-16010476D01*
X12442619Y-16010476D02*
X12433095Y-15991428D01*
X12433095Y-15991428D02*
X12423572Y-15953333D01*
X12423572Y-15953333D02*
X12423572Y-15905714D01*
X12423572Y-15905714D02*
X12433095Y-15867619D01*
X12433095Y-15867619D02*
X12442619Y-15848571D01*
X12442619Y-15848571D02*
X12452143Y-15839048D01*
X12452143Y-15839048D02*
X12471191Y-15829524D01*
X12604524Y-15829524D02*
X12728333Y-15829524D01*
X12728333Y-15829524D02*
X12661667Y-15905714D01*
X12661667Y-15905714D02*
X12690238Y-15905714D01*
X12690238Y-15905714D02*
X12709286Y-15915238D01*
X12709286Y-15915238D02*
X12718810Y-15924762D01*
X12718810Y-15924762D02*
X12728333Y-15943809D01*
X12728333Y-15943809D02*
X12728333Y-15991428D01*
X12728333Y-15991428D02*
X12718810Y-16010476D01*
X12718810Y-16010476D02*
X12709286Y-16020000D01*
X12709286Y-16020000D02*
X12690238Y-16029524D01*
X12690238Y-16029524D02*
X12633095Y-16029524D01*
X12633095Y-16029524D02*
X12614048Y-16020000D01*
X12614048Y-16020000D02*
X12604524Y-16010476D01*
X12823572Y-16029524D02*
X12861667Y-16029524D01*
X12861667Y-16029524D02*
X12880714Y-16020000D01*
X12880714Y-16020000D02*
X12890238Y-16010476D01*
X12890238Y-16010476D02*
X12909286Y-15981905D01*
X12909286Y-15981905D02*
X12918810Y-15943809D01*
X12918810Y-15943809D02*
X12918810Y-15867619D01*
X12918810Y-15867619D02*
X12909286Y-15848571D01*
X12909286Y-15848571D02*
X12899762Y-15839048D01*
X12899762Y-15839048D02*
X12880714Y-15829524D01*
X12880714Y-15829524D02*
X12842619Y-15829524D01*
X12842619Y-15829524D02*
X12823572Y-15839048D01*
X12823572Y-15839048D02*
X12814048Y-15848571D01*
X12814048Y-15848571D02*
X12804524Y-15867619D01*
X12804524Y-15867619D02*
X12804524Y-15915238D01*
X12804524Y-15915238D02*
X12814048Y-15934286D01*
X12814048Y-15934286D02*
X12823572Y-15943809D01*
X12823572Y-15943809D02*
X12842619Y-15953333D01*
X12842619Y-15953333D02*
X12880714Y-15953333D01*
X12880714Y-15953333D02*
X12899762Y-15943809D01*
X12899762Y-15943809D02*
X12909286Y-15934286D01*
X12909286Y-15934286D02*
X12918810Y-15915238D01*
X13090238Y-15896190D02*
X13090238Y-16029524D01*
X13042619Y-15820000D02*
X12995000Y-15962857D01*
X12995000Y-15962857D02*
X13118810Y-15962857D01*
X13185476Y-15829524D02*
X13185476Y-15867619D01*
X13261667Y-15829524D02*
X13261667Y-15867619D01*
X13556905Y-16105714D02*
X13547381Y-16096190D01*
X13547381Y-16096190D02*
X13528334Y-16067619D01*
X13528334Y-16067619D02*
X13518810Y-16048571D01*
X13518810Y-16048571D02*
X13509286Y-16020000D01*
X13509286Y-16020000D02*
X13499762Y-15972381D01*
X13499762Y-15972381D02*
X13499762Y-15934286D01*
X13499762Y-15934286D02*
X13509286Y-15886667D01*
X13509286Y-15886667D02*
X13518810Y-15858095D01*
X13518810Y-15858095D02*
X13528334Y-15839048D01*
X13528334Y-15839048D02*
X13547381Y-15810476D01*
X13547381Y-15810476D02*
X13556905Y-15800952D01*
X13718810Y-15896190D02*
X13718810Y-16029524D01*
X13671191Y-15820000D02*
X13623572Y-15962857D01*
X13623572Y-15962857D02*
X13747381Y-15962857D01*
X13804524Y-15829524D02*
X13937857Y-15829524D01*
X13937857Y-15829524D02*
X13852143Y-16029524D01*
X14166429Y-16029524D02*
X14166429Y-15829524D01*
X14252143Y-16029524D02*
X14252143Y-15924762D01*
X14252143Y-15924762D02*
X14242619Y-15905714D01*
X14242619Y-15905714D02*
X14223572Y-15896190D01*
X14223572Y-15896190D02*
X14195000Y-15896190D01*
X14195000Y-15896190D02*
X14175953Y-15905714D01*
X14175953Y-15905714D02*
X14166429Y-15915238D01*
X14375953Y-16029524D02*
X14356905Y-16020000D01*
X14356905Y-16020000D02*
X14347381Y-16010476D01*
X14347381Y-16010476D02*
X14337857Y-15991428D01*
X14337857Y-15991428D02*
X14337857Y-15934286D01*
X14337857Y-15934286D02*
X14347381Y-15915238D01*
X14347381Y-15915238D02*
X14356905Y-15905714D01*
X14356905Y-15905714D02*
X14375953Y-15896190D01*
X14375953Y-15896190D02*
X14404524Y-15896190D01*
X14404524Y-15896190D02*
X14423572Y-15905714D01*
X14423572Y-15905714D02*
X14433096Y-15915238D01*
X14433096Y-15915238D02*
X14442619Y-15934286D01*
X14442619Y-15934286D02*
X14442619Y-15991428D01*
X14442619Y-15991428D02*
X14433096Y-16010476D01*
X14433096Y-16010476D02*
X14423572Y-16020000D01*
X14423572Y-16020000D02*
X14404524Y-16029524D01*
X14404524Y-16029524D02*
X14375953Y-16029524D01*
X14556905Y-16029524D02*
X14537857Y-16020000D01*
X14537857Y-16020000D02*
X14528334Y-16000952D01*
X14528334Y-16000952D02*
X14528334Y-15829524D01*
X14709286Y-16020000D02*
X14690238Y-16029524D01*
X14690238Y-16029524D02*
X14652143Y-16029524D01*
X14652143Y-16029524D02*
X14633096Y-16020000D01*
X14633096Y-16020000D02*
X14623572Y-16000952D01*
X14623572Y-16000952D02*
X14623572Y-15924762D01*
X14623572Y-15924762D02*
X14633096Y-15905714D01*
X14633096Y-15905714D02*
X14652143Y-15896190D01*
X14652143Y-15896190D02*
X14690238Y-15896190D01*
X14690238Y-15896190D02*
X14709286Y-15905714D01*
X14709286Y-15905714D02*
X14718810Y-15924762D01*
X14718810Y-15924762D02*
X14718810Y-15943809D01*
X14718810Y-15943809D02*
X14623572Y-15962857D01*
X14795000Y-16020000D02*
X14814048Y-16029524D01*
X14814048Y-16029524D02*
X14852143Y-16029524D01*
X14852143Y-16029524D02*
X14871191Y-16020000D01*
X14871191Y-16020000D02*
X14880715Y-16000952D01*
X14880715Y-16000952D02*
X14880715Y-15991428D01*
X14880715Y-15991428D02*
X14871191Y-15972381D01*
X14871191Y-15972381D02*
X14852143Y-15962857D01*
X14852143Y-15962857D02*
X14823572Y-15962857D01*
X14823572Y-15962857D02*
X14804524Y-15953333D01*
X14804524Y-15953333D02*
X14795000Y-15934286D01*
X14795000Y-15934286D02*
X14795000Y-15924762D01*
X14795000Y-15924762D02*
X14804524Y-15905714D01*
X14804524Y-15905714D02*
X14823572Y-15896190D01*
X14823572Y-15896190D02*
X14852143Y-15896190D01*
X14852143Y-15896190D02*
X14871191Y-15905714D01*
X15118810Y-15953333D02*
X15271191Y-15953333D01*
X15195000Y-16029524D02*
X15195000Y-15877143D01*
X15499762Y-15829524D02*
X15623572Y-15829524D01*
X15623572Y-15829524D02*
X15556905Y-15905714D01*
X15556905Y-15905714D02*
X15585477Y-15905714D01*
X15585477Y-15905714D02*
X15604524Y-15915238D01*
X15604524Y-15915238D02*
X15614048Y-15924762D01*
X15614048Y-15924762D02*
X15623572Y-15943809D01*
X15623572Y-15943809D02*
X15623572Y-15991428D01*
X15623572Y-15991428D02*
X15614048Y-16010476D01*
X15614048Y-16010476D02*
X15604524Y-16020000D01*
X15604524Y-16020000D02*
X15585477Y-16029524D01*
X15585477Y-16029524D02*
X15528334Y-16029524D01*
X15528334Y-16029524D02*
X15509286Y-16020000D01*
X15509286Y-16020000D02*
X15499762Y-16010476D01*
X15852143Y-16020000D02*
X15871191Y-16029524D01*
X15871191Y-16029524D02*
X15909286Y-16029524D01*
X15909286Y-16029524D02*
X15928334Y-16020000D01*
X15928334Y-16020000D02*
X15937858Y-16000952D01*
X15937858Y-16000952D02*
X15937858Y-15991428D01*
X15937858Y-15991428D02*
X15928334Y-15972381D01*
X15928334Y-15972381D02*
X15909286Y-15962857D01*
X15909286Y-15962857D02*
X15880715Y-15962857D01*
X15880715Y-15962857D02*
X15861667Y-15953333D01*
X15861667Y-15953333D02*
X15852143Y-15934286D01*
X15852143Y-15934286D02*
X15852143Y-15924762D01*
X15852143Y-15924762D02*
X15861667Y-15905714D01*
X15861667Y-15905714D02*
X15880715Y-15896190D01*
X15880715Y-15896190D02*
X15909286Y-15896190D01*
X15909286Y-15896190D02*
X15928334Y-15905714D01*
X16052143Y-16029524D02*
X16033096Y-16020000D01*
X16033096Y-16020000D02*
X16023572Y-16000952D01*
X16023572Y-16000952D02*
X16023572Y-15829524D01*
X16156905Y-16029524D02*
X16137858Y-16020000D01*
X16137858Y-16020000D02*
X16128334Y-16010476D01*
X16128334Y-16010476D02*
X16118810Y-15991428D01*
X16118810Y-15991428D02*
X16118810Y-15934286D01*
X16118810Y-15934286D02*
X16128334Y-15915238D01*
X16128334Y-15915238D02*
X16137858Y-15905714D01*
X16137858Y-15905714D02*
X16156905Y-15896190D01*
X16156905Y-15896190D02*
X16185477Y-15896190D01*
X16185477Y-15896190D02*
X16204524Y-15905714D01*
X16204524Y-15905714D02*
X16214048Y-15915238D01*
X16214048Y-15915238D02*
X16223572Y-15934286D01*
X16223572Y-15934286D02*
X16223572Y-15991428D01*
X16223572Y-15991428D02*
X16214048Y-16010476D01*
X16214048Y-16010476D02*
X16204524Y-16020000D01*
X16204524Y-16020000D02*
X16185477Y-16029524D01*
X16185477Y-16029524D02*
X16156905Y-16029524D01*
X16280715Y-15896190D02*
X16356905Y-15896190D01*
X16309286Y-15829524D02*
X16309286Y-16000952D01*
X16309286Y-16000952D02*
X16318810Y-16020000D01*
X16318810Y-16020000D02*
X16337858Y-16029524D01*
X16337858Y-16029524D02*
X16356905Y-16029524D01*
X16414048Y-16020000D02*
X16433096Y-16029524D01*
X16433096Y-16029524D02*
X16471191Y-16029524D01*
X16471191Y-16029524D02*
X16490239Y-16020000D01*
X16490239Y-16020000D02*
X16499762Y-16000952D01*
X16499762Y-16000952D02*
X16499762Y-15991428D01*
X16499762Y-15991428D02*
X16490239Y-15972381D01*
X16490239Y-15972381D02*
X16471191Y-15962857D01*
X16471191Y-15962857D02*
X16442620Y-15962857D01*
X16442620Y-15962857D02*
X16423572Y-15953333D01*
X16423572Y-15953333D02*
X16414048Y-15934286D01*
X16414048Y-15934286D02*
X16414048Y-15924762D01*
X16414048Y-15924762D02*
X16423572Y-15905714D01*
X16423572Y-15905714D02*
X16442620Y-15896190D01*
X16442620Y-15896190D02*
X16471191Y-15896190D01*
X16471191Y-15896190D02*
X16490239Y-15905714D01*
X16566429Y-16105714D02*
X16575953Y-16096190D01*
X16575953Y-16096190D02*
X16595001Y-16067619D01*
X16595001Y-16067619D02*
X16604524Y-16048571D01*
X16604524Y-16048571D02*
X16614048Y-16020000D01*
X16614048Y-16020000D02*
X16623572Y-15972381D01*
X16623572Y-15972381D02*
X16623572Y-15934286D01*
X16623572Y-15934286D02*
X16614048Y-15886667D01*
X16614048Y-15886667D02*
X16604524Y-15858095D01*
X16604524Y-15858095D02*
X16595001Y-15839048D01*
X16595001Y-15839048D02*
X16575953Y-15810476D01*
X16575953Y-15810476D02*
X16566429Y-15800952D01*
D15*
X9920000Y-16276000D02*
X9995000Y-16201000D01*
X9920000Y-16126000D01*
X9845000Y-16201000D01*
X9920000Y-16276000D01*
D11*
X10347381Y-16293524D02*
X10233095Y-16293524D01*
X10290238Y-16293524D02*
X10290238Y-16093524D01*
X10290238Y-16093524D02*
X10271190Y-16122095D01*
X10271190Y-16122095D02*
X10252143Y-16141143D01*
X10252143Y-16141143D02*
X10233095Y-16150667D01*
X10433095Y-16274476D02*
X10442619Y-16284000D01*
X10442619Y-16284000D02*
X10433095Y-16293524D01*
X10433095Y-16293524D02*
X10423571Y-16284000D01*
X10423571Y-16284000D02*
X10433095Y-16274476D01*
X10433095Y-16274476D02*
X10433095Y-16293524D01*
X10623571Y-16093524D02*
X10528333Y-16093524D01*
X10528333Y-16093524D02*
X10518810Y-16188762D01*
X10518810Y-16188762D02*
X10528333Y-16179238D01*
X10528333Y-16179238D02*
X10547381Y-16169714D01*
X10547381Y-16169714D02*
X10595000Y-16169714D01*
X10595000Y-16169714D02*
X10614048Y-16179238D01*
X10614048Y-16179238D02*
X10623571Y-16188762D01*
X10623571Y-16188762D02*
X10633095Y-16207809D01*
X10633095Y-16207809D02*
X10633095Y-16255428D01*
X10633095Y-16255428D02*
X10623571Y-16274476D01*
X10623571Y-16274476D02*
X10614048Y-16284000D01*
X10614048Y-16284000D02*
X10595000Y-16293524D01*
X10595000Y-16293524D02*
X10547381Y-16293524D01*
X10547381Y-16293524D02*
X10528333Y-16284000D01*
X10528333Y-16284000D02*
X10518810Y-16274476D01*
X10756905Y-16093524D02*
X10775952Y-16093524D01*
X10775952Y-16093524D02*
X10795000Y-16103048D01*
X10795000Y-16103048D02*
X10804524Y-16112571D01*
X10804524Y-16112571D02*
X10814048Y-16131619D01*
X10814048Y-16131619D02*
X10823571Y-16169714D01*
X10823571Y-16169714D02*
X10823571Y-16217333D01*
X10823571Y-16217333D02*
X10814048Y-16255428D01*
X10814048Y-16255428D02*
X10804524Y-16274476D01*
X10804524Y-16274476D02*
X10795000Y-16284000D01*
X10795000Y-16284000D02*
X10775952Y-16293524D01*
X10775952Y-16293524D02*
X10756905Y-16293524D01*
X10756905Y-16293524D02*
X10737857Y-16284000D01*
X10737857Y-16284000D02*
X10728333Y-16274476D01*
X10728333Y-16274476D02*
X10718810Y-16255428D01*
X10718810Y-16255428D02*
X10709286Y-16217333D01*
X10709286Y-16217333D02*
X10709286Y-16169714D01*
X10709286Y-16169714D02*
X10718810Y-16131619D01*
X10718810Y-16131619D02*
X10728333Y-16112571D01*
X10728333Y-16112571D02*
X10737857Y-16103048D01*
X10737857Y-16103048D02*
X10756905Y-16093524D01*
X10947381Y-16093524D02*
X10966429Y-16093524D01*
X10966429Y-16093524D02*
X10985476Y-16103048D01*
X10985476Y-16103048D02*
X10995000Y-16112571D01*
X10995000Y-16112571D02*
X11004524Y-16131619D01*
X11004524Y-16131619D02*
X11014048Y-16169714D01*
X11014048Y-16169714D02*
X11014048Y-16217333D01*
X11014048Y-16217333D02*
X11004524Y-16255428D01*
X11004524Y-16255428D02*
X10995000Y-16274476D01*
X10995000Y-16274476D02*
X10985476Y-16284000D01*
X10985476Y-16284000D02*
X10966429Y-16293524D01*
X10966429Y-16293524D02*
X10947381Y-16293524D01*
X10947381Y-16293524D02*
X10928333Y-16284000D01*
X10928333Y-16284000D02*
X10918810Y-16274476D01*
X10918810Y-16274476D02*
X10909286Y-16255428D01*
X10909286Y-16255428D02*
X10899762Y-16217333D01*
X10899762Y-16217333D02*
X10899762Y-16169714D01*
X10899762Y-16169714D02*
X10909286Y-16131619D01*
X10909286Y-16131619D02*
X10918810Y-16112571D01*
X10918810Y-16112571D02*
X10928333Y-16103048D01*
X10928333Y-16103048D02*
X10947381Y-16093524D01*
X11099762Y-16293524D02*
X11099762Y-16160190D01*
X11099762Y-16179238D02*
X11109286Y-16169714D01*
X11109286Y-16169714D02*
X11128333Y-16160190D01*
X11128333Y-16160190D02*
X11156905Y-16160190D01*
X11156905Y-16160190D02*
X11175952Y-16169714D01*
X11175952Y-16169714D02*
X11185476Y-16188762D01*
X11185476Y-16188762D02*
X11185476Y-16293524D01*
X11185476Y-16188762D02*
X11195000Y-16169714D01*
X11195000Y-16169714D02*
X11214048Y-16160190D01*
X11214048Y-16160190D02*
X11242619Y-16160190D01*
X11242619Y-16160190D02*
X11261667Y-16169714D01*
X11261667Y-16169714D02*
X11271190Y-16188762D01*
X11271190Y-16188762D02*
X11271190Y-16293524D01*
X11366429Y-16293524D02*
X11366429Y-16160190D01*
X11366429Y-16179238D02*
X11375952Y-16169714D01*
X11375952Y-16169714D02*
X11395000Y-16160190D01*
X11395000Y-16160190D02*
X11423571Y-16160190D01*
X11423571Y-16160190D02*
X11442619Y-16169714D01*
X11442619Y-16169714D02*
X11452143Y-16188762D01*
X11452143Y-16188762D02*
X11452143Y-16293524D01*
X11452143Y-16188762D02*
X11461667Y-16169714D01*
X11461667Y-16169714D02*
X11480714Y-16160190D01*
X11480714Y-16160190D02*
X11509286Y-16160190D01*
X11509286Y-16160190D02*
X11528333Y-16169714D01*
X11528333Y-16169714D02*
X11537857Y-16188762D01*
X11537857Y-16188762D02*
X11537857Y-16293524D01*
X11928333Y-16084000D02*
X11756905Y-16341143D01*
X12185476Y-16093524D02*
X12204524Y-16093524D01*
X12204524Y-16093524D02*
X12223572Y-16103048D01*
X12223572Y-16103048D02*
X12233095Y-16112571D01*
X12233095Y-16112571D02*
X12242619Y-16131619D01*
X12242619Y-16131619D02*
X12252143Y-16169714D01*
X12252143Y-16169714D02*
X12252143Y-16217333D01*
X12252143Y-16217333D02*
X12242619Y-16255428D01*
X12242619Y-16255428D02*
X12233095Y-16274476D01*
X12233095Y-16274476D02*
X12223572Y-16284000D01*
X12223572Y-16284000D02*
X12204524Y-16293524D01*
X12204524Y-16293524D02*
X12185476Y-16293524D01*
X12185476Y-16293524D02*
X12166429Y-16284000D01*
X12166429Y-16284000D02*
X12156905Y-16274476D01*
X12156905Y-16274476D02*
X12147381Y-16255428D01*
X12147381Y-16255428D02*
X12137857Y-16217333D01*
X12137857Y-16217333D02*
X12137857Y-16169714D01*
X12137857Y-16169714D02*
X12147381Y-16131619D01*
X12147381Y-16131619D02*
X12156905Y-16112571D01*
X12156905Y-16112571D02*
X12166429Y-16103048D01*
X12166429Y-16103048D02*
X12185476Y-16093524D01*
X12337857Y-16274476D02*
X12347381Y-16284000D01*
X12347381Y-16284000D02*
X12337857Y-16293524D01*
X12337857Y-16293524D02*
X12328333Y-16284000D01*
X12328333Y-16284000D02*
X12337857Y-16274476D01*
X12337857Y-16274476D02*
X12337857Y-16293524D01*
X12471191Y-16093524D02*
X12490238Y-16093524D01*
X12490238Y-16093524D02*
X12509286Y-16103048D01*
X12509286Y-16103048D02*
X12518810Y-16112571D01*
X12518810Y-16112571D02*
X12528333Y-16131619D01*
X12528333Y-16131619D02*
X12537857Y-16169714D01*
X12537857Y-16169714D02*
X12537857Y-16217333D01*
X12537857Y-16217333D02*
X12528333Y-16255428D01*
X12528333Y-16255428D02*
X12518810Y-16274476D01*
X12518810Y-16274476D02*
X12509286Y-16284000D01*
X12509286Y-16284000D02*
X12490238Y-16293524D01*
X12490238Y-16293524D02*
X12471191Y-16293524D01*
X12471191Y-16293524D02*
X12452143Y-16284000D01*
X12452143Y-16284000D02*
X12442619Y-16274476D01*
X12442619Y-16274476D02*
X12433095Y-16255428D01*
X12433095Y-16255428D02*
X12423572Y-16217333D01*
X12423572Y-16217333D02*
X12423572Y-16169714D01*
X12423572Y-16169714D02*
X12433095Y-16131619D01*
X12433095Y-16131619D02*
X12442619Y-16112571D01*
X12442619Y-16112571D02*
X12452143Y-16103048D01*
X12452143Y-16103048D02*
X12471191Y-16093524D01*
X12718810Y-16093524D02*
X12623572Y-16093524D01*
X12623572Y-16093524D02*
X12614048Y-16188762D01*
X12614048Y-16188762D02*
X12623572Y-16179238D01*
X12623572Y-16179238D02*
X12642619Y-16169714D01*
X12642619Y-16169714D02*
X12690238Y-16169714D01*
X12690238Y-16169714D02*
X12709286Y-16179238D01*
X12709286Y-16179238D02*
X12718810Y-16188762D01*
X12718810Y-16188762D02*
X12728333Y-16207809D01*
X12728333Y-16207809D02*
X12728333Y-16255428D01*
X12728333Y-16255428D02*
X12718810Y-16274476D01*
X12718810Y-16274476D02*
X12709286Y-16284000D01*
X12709286Y-16284000D02*
X12690238Y-16293524D01*
X12690238Y-16293524D02*
X12642619Y-16293524D01*
X12642619Y-16293524D02*
X12623572Y-16284000D01*
X12623572Y-16284000D02*
X12614048Y-16274476D01*
X12823572Y-16293524D02*
X12861667Y-16293524D01*
X12861667Y-16293524D02*
X12880714Y-16284000D01*
X12880714Y-16284000D02*
X12890238Y-16274476D01*
X12890238Y-16274476D02*
X12909286Y-16245905D01*
X12909286Y-16245905D02*
X12918810Y-16207809D01*
X12918810Y-16207809D02*
X12918810Y-16131619D01*
X12918810Y-16131619D02*
X12909286Y-16112571D01*
X12909286Y-16112571D02*
X12899762Y-16103048D01*
X12899762Y-16103048D02*
X12880714Y-16093524D01*
X12880714Y-16093524D02*
X12842619Y-16093524D01*
X12842619Y-16093524D02*
X12823572Y-16103048D01*
X12823572Y-16103048D02*
X12814048Y-16112571D01*
X12814048Y-16112571D02*
X12804524Y-16131619D01*
X12804524Y-16131619D02*
X12804524Y-16179238D01*
X12804524Y-16179238D02*
X12814048Y-16198286D01*
X12814048Y-16198286D02*
X12823572Y-16207809D01*
X12823572Y-16207809D02*
X12842619Y-16217333D01*
X12842619Y-16217333D02*
X12880714Y-16217333D01*
X12880714Y-16217333D02*
X12899762Y-16207809D01*
X12899762Y-16207809D02*
X12909286Y-16198286D01*
X12909286Y-16198286D02*
X12918810Y-16179238D01*
X13109286Y-16293524D02*
X12995000Y-16293524D01*
X13052143Y-16293524D02*
X13052143Y-16093524D01*
X13052143Y-16093524D02*
X13033095Y-16122095D01*
X13033095Y-16122095D02*
X13014048Y-16141143D01*
X13014048Y-16141143D02*
X12995000Y-16150667D01*
X13185476Y-16093524D02*
X13185476Y-16131619D01*
X13261667Y-16093524D02*
X13261667Y-16131619D01*
X13556905Y-16369714D02*
X13547381Y-16360190D01*
X13547381Y-16360190D02*
X13528334Y-16331619D01*
X13528334Y-16331619D02*
X13518810Y-16312571D01*
X13518810Y-16312571D02*
X13509286Y-16284000D01*
X13509286Y-16284000D02*
X13499762Y-16236381D01*
X13499762Y-16236381D02*
X13499762Y-16198286D01*
X13499762Y-16198286D02*
X13509286Y-16150667D01*
X13509286Y-16150667D02*
X13518810Y-16122095D01*
X13518810Y-16122095D02*
X13528334Y-16103048D01*
X13528334Y-16103048D02*
X13547381Y-16074476D01*
X13547381Y-16074476D02*
X13556905Y-16064952D01*
X13737857Y-16293524D02*
X13623572Y-16293524D01*
X13680714Y-16293524D02*
X13680714Y-16093524D01*
X13680714Y-16093524D02*
X13661667Y-16122095D01*
X13661667Y-16122095D02*
X13642619Y-16141143D01*
X13642619Y-16141143D02*
X13623572Y-16150667D01*
X13975953Y-16293524D02*
X13975953Y-16093524D01*
X14061667Y-16293524D02*
X14061667Y-16188762D01*
X14061667Y-16188762D02*
X14052143Y-16169714D01*
X14052143Y-16169714D02*
X14033096Y-16160190D01*
X14033096Y-16160190D02*
X14004524Y-16160190D01*
X14004524Y-16160190D02*
X13985476Y-16169714D01*
X13985476Y-16169714D02*
X13975953Y-16179238D01*
X14185476Y-16293524D02*
X14166429Y-16284000D01*
X14166429Y-16284000D02*
X14156905Y-16274476D01*
X14156905Y-16274476D02*
X14147381Y-16255428D01*
X14147381Y-16255428D02*
X14147381Y-16198286D01*
X14147381Y-16198286D02*
X14156905Y-16179238D01*
X14156905Y-16179238D02*
X14166429Y-16169714D01*
X14166429Y-16169714D02*
X14185476Y-16160190D01*
X14185476Y-16160190D02*
X14214048Y-16160190D01*
X14214048Y-16160190D02*
X14233096Y-16169714D01*
X14233096Y-16169714D02*
X14242619Y-16179238D01*
X14242619Y-16179238D02*
X14252143Y-16198286D01*
X14252143Y-16198286D02*
X14252143Y-16255428D01*
X14252143Y-16255428D02*
X14242619Y-16274476D01*
X14242619Y-16274476D02*
X14233096Y-16284000D01*
X14233096Y-16284000D02*
X14214048Y-16293524D01*
X14214048Y-16293524D02*
X14185476Y-16293524D01*
X14366429Y-16293524D02*
X14347381Y-16284000D01*
X14347381Y-16284000D02*
X14337857Y-16264952D01*
X14337857Y-16264952D02*
X14337857Y-16093524D01*
X14518810Y-16284000D02*
X14499762Y-16293524D01*
X14499762Y-16293524D02*
X14461667Y-16293524D01*
X14461667Y-16293524D02*
X14442619Y-16284000D01*
X14442619Y-16284000D02*
X14433096Y-16264952D01*
X14433096Y-16264952D02*
X14433096Y-16188762D01*
X14433096Y-16188762D02*
X14442619Y-16169714D01*
X14442619Y-16169714D02*
X14461667Y-16160190D01*
X14461667Y-16160190D02*
X14499762Y-16160190D01*
X14499762Y-16160190D02*
X14518810Y-16169714D01*
X14518810Y-16169714D02*
X14528334Y-16188762D01*
X14528334Y-16188762D02*
X14528334Y-16207809D01*
X14528334Y-16207809D02*
X14433096Y-16226857D01*
X14595000Y-16369714D02*
X14604524Y-16360190D01*
X14604524Y-16360190D02*
X14623572Y-16331619D01*
X14623572Y-16331619D02*
X14633096Y-16312571D01*
X14633096Y-16312571D02*
X14642619Y-16284000D01*
X14642619Y-16284000D02*
X14652143Y-16236381D01*
X14652143Y-16236381D02*
X14652143Y-16198286D01*
X14652143Y-16198286D02*
X14642619Y-16150667D01*
X14642619Y-16150667D02*
X14633096Y-16122095D01*
X14633096Y-16122095D02*
X14623572Y-16103048D01*
X14623572Y-16103048D02*
X14604524Y-16074476D01*
X14604524Y-16074476D02*
X14595000Y-16064952D01*
D16*
X9825000Y-16386000D02*
X9995000Y-16556000D01*
X9995000Y-16386000D02*
X9825000Y-16556000D01*
X9995000Y-16471000D02*
G75*
G03*
X9995000Y-16471000I-85000J0D01*
G01*
D11*
X10347381Y-16563524D02*
X10233095Y-16563524D01*
X10290238Y-16563524D02*
X10290238Y-16363524D01*
X10290238Y-16363524D02*
X10271190Y-16392095D01*
X10271190Y-16392095D02*
X10252143Y-16411143D01*
X10252143Y-16411143D02*
X10233095Y-16420667D01*
X10433095Y-16544476D02*
X10442619Y-16554000D01*
X10442619Y-16554000D02*
X10433095Y-16563524D01*
X10433095Y-16563524D02*
X10423571Y-16554000D01*
X10423571Y-16554000D02*
X10433095Y-16544476D01*
X10433095Y-16544476D02*
X10433095Y-16563524D01*
X10509286Y-16363524D02*
X10642619Y-16363524D01*
X10642619Y-16363524D02*
X10556905Y-16563524D01*
X10756905Y-16363524D02*
X10775952Y-16363524D01*
X10775952Y-16363524D02*
X10795000Y-16373048D01*
X10795000Y-16373048D02*
X10804524Y-16382571D01*
X10804524Y-16382571D02*
X10814048Y-16401619D01*
X10814048Y-16401619D02*
X10823571Y-16439714D01*
X10823571Y-16439714D02*
X10823571Y-16487333D01*
X10823571Y-16487333D02*
X10814048Y-16525428D01*
X10814048Y-16525428D02*
X10804524Y-16544476D01*
X10804524Y-16544476D02*
X10795000Y-16554000D01*
X10795000Y-16554000D02*
X10775952Y-16563524D01*
X10775952Y-16563524D02*
X10756905Y-16563524D01*
X10756905Y-16563524D02*
X10737857Y-16554000D01*
X10737857Y-16554000D02*
X10728333Y-16544476D01*
X10728333Y-16544476D02*
X10718810Y-16525428D01*
X10718810Y-16525428D02*
X10709286Y-16487333D01*
X10709286Y-16487333D02*
X10709286Y-16439714D01*
X10709286Y-16439714D02*
X10718810Y-16401619D01*
X10718810Y-16401619D02*
X10728333Y-16382571D01*
X10728333Y-16382571D02*
X10737857Y-16373048D01*
X10737857Y-16373048D02*
X10756905Y-16363524D01*
X10947381Y-16363524D02*
X10966429Y-16363524D01*
X10966429Y-16363524D02*
X10985476Y-16373048D01*
X10985476Y-16373048D02*
X10995000Y-16382571D01*
X10995000Y-16382571D02*
X11004524Y-16401619D01*
X11004524Y-16401619D02*
X11014048Y-16439714D01*
X11014048Y-16439714D02*
X11014048Y-16487333D01*
X11014048Y-16487333D02*
X11004524Y-16525428D01*
X11004524Y-16525428D02*
X10995000Y-16544476D01*
X10995000Y-16544476D02*
X10985476Y-16554000D01*
X10985476Y-16554000D02*
X10966429Y-16563524D01*
X10966429Y-16563524D02*
X10947381Y-16563524D01*
X10947381Y-16563524D02*
X10928333Y-16554000D01*
X10928333Y-16554000D02*
X10918810Y-16544476D01*
X10918810Y-16544476D02*
X10909286Y-16525428D01*
X10909286Y-16525428D02*
X10899762Y-16487333D01*
X10899762Y-16487333D02*
X10899762Y-16439714D01*
X10899762Y-16439714D02*
X10909286Y-16401619D01*
X10909286Y-16401619D02*
X10918810Y-16382571D01*
X10918810Y-16382571D02*
X10928333Y-16373048D01*
X10928333Y-16373048D02*
X10947381Y-16363524D01*
X11099762Y-16563524D02*
X11099762Y-16430190D01*
X11099762Y-16449238D02*
X11109286Y-16439714D01*
X11109286Y-16439714D02*
X11128333Y-16430190D01*
X11128333Y-16430190D02*
X11156905Y-16430190D01*
X11156905Y-16430190D02*
X11175952Y-16439714D01*
X11175952Y-16439714D02*
X11185476Y-16458762D01*
X11185476Y-16458762D02*
X11185476Y-16563524D01*
X11185476Y-16458762D02*
X11195000Y-16439714D01*
X11195000Y-16439714D02*
X11214048Y-16430190D01*
X11214048Y-16430190D02*
X11242619Y-16430190D01*
X11242619Y-16430190D02*
X11261667Y-16439714D01*
X11261667Y-16439714D02*
X11271190Y-16458762D01*
X11271190Y-16458762D02*
X11271190Y-16563524D01*
X11366429Y-16563524D02*
X11366429Y-16430190D01*
X11366429Y-16449238D02*
X11375952Y-16439714D01*
X11375952Y-16439714D02*
X11395000Y-16430190D01*
X11395000Y-16430190D02*
X11423571Y-16430190D01*
X11423571Y-16430190D02*
X11442619Y-16439714D01*
X11442619Y-16439714D02*
X11452143Y-16458762D01*
X11452143Y-16458762D02*
X11452143Y-16563524D01*
X11452143Y-16458762D02*
X11461667Y-16439714D01*
X11461667Y-16439714D02*
X11480714Y-16430190D01*
X11480714Y-16430190D02*
X11509286Y-16430190D01*
X11509286Y-16430190D02*
X11528333Y-16439714D01*
X11528333Y-16439714D02*
X11537857Y-16458762D01*
X11537857Y-16458762D02*
X11537857Y-16563524D01*
X11928333Y-16354000D02*
X11756905Y-16611143D01*
X12185476Y-16363524D02*
X12204524Y-16363524D01*
X12204524Y-16363524D02*
X12223572Y-16373048D01*
X12223572Y-16373048D02*
X12233095Y-16382571D01*
X12233095Y-16382571D02*
X12242619Y-16401619D01*
X12242619Y-16401619D02*
X12252143Y-16439714D01*
X12252143Y-16439714D02*
X12252143Y-16487333D01*
X12252143Y-16487333D02*
X12242619Y-16525428D01*
X12242619Y-16525428D02*
X12233095Y-16544476D01*
X12233095Y-16544476D02*
X12223572Y-16554000D01*
X12223572Y-16554000D02*
X12204524Y-16563524D01*
X12204524Y-16563524D02*
X12185476Y-16563524D01*
X12185476Y-16563524D02*
X12166429Y-16554000D01*
X12166429Y-16554000D02*
X12156905Y-16544476D01*
X12156905Y-16544476D02*
X12147381Y-16525428D01*
X12147381Y-16525428D02*
X12137857Y-16487333D01*
X12137857Y-16487333D02*
X12137857Y-16439714D01*
X12137857Y-16439714D02*
X12147381Y-16401619D01*
X12147381Y-16401619D02*
X12156905Y-16382571D01*
X12156905Y-16382571D02*
X12166429Y-16373048D01*
X12166429Y-16373048D02*
X12185476Y-16363524D01*
X12337857Y-16544476D02*
X12347381Y-16554000D01*
X12347381Y-16554000D02*
X12337857Y-16563524D01*
X12337857Y-16563524D02*
X12328333Y-16554000D01*
X12328333Y-16554000D02*
X12337857Y-16544476D01*
X12337857Y-16544476D02*
X12337857Y-16563524D01*
X12471191Y-16363524D02*
X12490238Y-16363524D01*
X12490238Y-16363524D02*
X12509286Y-16373048D01*
X12509286Y-16373048D02*
X12518810Y-16382571D01*
X12518810Y-16382571D02*
X12528333Y-16401619D01*
X12528333Y-16401619D02*
X12537857Y-16439714D01*
X12537857Y-16439714D02*
X12537857Y-16487333D01*
X12537857Y-16487333D02*
X12528333Y-16525428D01*
X12528333Y-16525428D02*
X12518810Y-16544476D01*
X12518810Y-16544476D02*
X12509286Y-16554000D01*
X12509286Y-16554000D02*
X12490238Y-16563524D01*
X12490238Y-16563524D02*
X12471191Y-16563524D01*
X12471191Y-16563524D02*
X12452143Y-16554000D01*
X12452143Y-16554000D02*
X12442619Y-16544476D01*
X12442619Y-16544476D02*
X12433095Y-16525428D01*
X12433095Y-16525428D02*
X12423572Y-16487333D01*
X12423572Y-16487333D02*
X12423572Y-16439714D01*
X12423572Y-16439714D02*
X12433095Y-16401619D01*
X12433095Y-16401619D02*
X12442619Y-16382571D01*
X12442619Y-16382571D02*
X12452143Y-16373048D01*
X12452143Y-16373048D02*
X12471191Y-16363524D01*
X12709286Y-16363524D02*
X12671191Y-16363524D01*
X12671191Y-16363524D02*
X12652143Y-16373048D01*
X12652143Y-16373048D02*
X12642619Y-16382571D01*
X12642619Y-16382571D02*
X12623572Y-16411143D01*
X12623572Y-16411143D02*
X12614048Y-16449238D01*
X12614048Y-16449238D02*
X12614048Y-16525428D01*
X12614048Y-16525428D02*
X12623572Y-16544476D01*
X12623572Y-16544476D02*
X12633095Y-16554000D01*
X12633095Y-16554000D02*
X12652143Y-16563524D01*
X12652143Y-16563524D02*
X12690238Y-16563524D01*
X12690238Y-16563524D02*
X12709286Y-16554000D01*
X12709286Y-16554000D02*
X12718810Y-16544476D01*
X12718810Y-16544476D02*
X12728333Y-16525428D01*
X12728333Y-16525428D02*
X12728333Y-16477809D01*
X12728333Y-16477809D02*
X12718810Y-16458762D01*
X12718810Y-16458762D02*
X12709286Y-16449238D01*
X12709286Y-16449238D02*
X12690238Y-16439714D01*
X12690238Y-16439714D02*
X12652143Y-16439714D01*
X12652143Y-16439714D02*
X12633095Y-16449238D01*
X12633095Y-16449238D02*
X12623572Y-16458762D01*
X12623572Y-16458762D02*
X12614048Y-16477809D01*
X12899762Y-16363524D02*
X12861667Y-16363524D01*
X12861667Y-16363524D02*
X12842619Y-16373048D01*
X12842619Y-16373048D02*
X12833095Y-16382571D01*
X12833095Y-16382571D02*
X12814048Y-16411143D01*
X12814048Y-16411143D02*
X12804524Y-16449238D01*
X12804524Y-16449238D02*
X12804524Y-16525428D01*
X12804524Y-16525428D02*
X12814048Y-16544476D01*
X12814048Y-16544476D02*
X12823572Y-16554000D01*
X12823572Y-16554000D02*
X12842619Y-16563524D01*
X12842619Y-16563524D02*
X12880714Y-16563524D01*
X12880714Y-16563524D02*
X12899762Y-16554000D01*
X12899762Y-16554000D02*
X12909286Y-16544476D01*
X12909286Y-16544476D02*
X12918810Y-16525428D01*
X12918810Y-16525428D02*
X12918810Y-16477809D01*
X12918810Y-16477809D02*
X12909286Y-16458762D01*
X12909286Y-16458762D02*
X12899762Y-16449238D01*
X12899762Y-16449238D02*
X12880714Y-16439714D01*
X12880714Y-16439714D02*
X12842619Y-16439714D01*
X12842619Y-16439714D02*
X12823572Y-16449238D01*
X12823572Y-16449238D02*
X12814048Y-16458762D01*
X12814048Y-16458762D02*
X12804524Y-16477809D01*
X13014048Y-16563524D02*
X13052143Y-16563524D01*
X13052143Y-16563524D02*
X13071191Y-16554000D01*
X13071191Y-16554000D02*
X13080714Y-16544476D01*
X13080714Y-16544476D02*
X13099762Y-16515905D01*
X13099762Y-16515905D02*
X13109286Y-16477809D01*
X13109286Y-16477809D02*
X13109286Y-16401619D01*
X13109286Y-16401619D02*
X13099762Y-16382571D01*
X13099762Y-16382571D02*
X13090238Y-16373048D01*
X13090238Y-16373048D02*
X13071191Y-16363524D01*
X13071191Y-16363524D02*
X13033095Y-16363524D01*
X13033095Y-16363524D02*
X13014048Y-16373048D01*
X13014048Y-16373048D02*
X13004524Y-16382571D01*
X13004524Y-16382571D02*
X12995000Y-16401619D01*
X12995000Y-16401619D02*
X12995000Y-16449238D01*
X12995000Y-16449238D02*
X13004524Y-16468286D01*
X13004524Y-16468286D02*
X13014048Y-16477809D01*
X13014048Y-16477809D02*
X13033095Y-16487333D01*
X13033095Y-16487333D02*
X13071191Y-16487333D01*
X13071191Y-16487333D02*
X13090238Y-16477809D01*
X13090238Y-16477809D02*
X13099762Y-16468286D01*
X13099762Y-16468286D02*
X13109286Y-16449238D01*
X13185476Y-16363524D02*
X13185476Y-16401619D01*
X13261667Y-16363524D02*
X13261667Y-16401619D01*
X13556905Y-16639714D02*
X13547381Y-16630190D01*
X13547381Y-16630190D02*
X13528334Y-16601619D01*
X13528334Y-16601619D02*
X13518810Y-16582571D01*
X13518810Y-16582571D02*
X13509286Y-16554000D01*
X13509286Y-16554000D02*
X13499762Y-16506381D01*
X13499762Y-16506381D02*
X13499762Y-16468286D01*
X13499762Y-16468286D02*
X13509286Y-16420667D01*
X13509286Y-16420667D02*
X13518810Y-16392095D01*
X13518810Y-16392095D02*
X13528334Y-16373048D01*
X13528334Y-16373048D02*
X13547381Y-16344476D01*
X13547381Y-16344476D02*
X13556905Y-16334952D01*
X13718810Y-16430190D02*
X13718810Y-16563524D01*
X13671191Y-16354000D02*
X13623572Y-16496857D01*
X13623572Y-16496857D02*
X13747381Y-16496857D01*
X13975953Y-16563524D02*
X13975953Y-16363524D01*
X14061667Y-16563524D02*
X14061667Y-16458762D01*
X14061667Y-16458762D02*
X14052143Y-16439714D01*
X14052143Y-16439714D02*
X14033096Y-16430190D01*
X14033096Y-16430190D02*
X14004524Y-16430190D01*
X14004524Y-16430190D02*
X13985476Y-16439714D01*
X13985476Y-16439714D02*
X13975953Y-16449238D01*
X14185476Y-16563524D02*
X14166429Y-16554000D01*
X14166429Y-16554000D02*
X14156905Y-16544476D01*
X14156905Y-16544476D02*
X14147381Y-16525428D01*
X14147381Y-16525428D02*
X14147381Y-16468286D01*
X14147381Y-16468286D02*
X14156905Y-16449238D01*
X14156905Y-16449238D02*
X14166429Y-16439714D01*
X14166429Y-16439714D02*
X14185476Y-16430190D01*
X14185476Y-16430190D02*
X14214048Y-16430190D01*
X14214048Y-16430190D02*
X14233096Y-16439714D01*
X14233096Y-16439714D02*
X14242619Y-16449238D01*
X14242619Y-16449238D02*
X14252143Y-16468286D01*
X14252143Y-16468286D02*
X14252143Y-16525428D01*
X14252143Y-16525428D02*
X14242619Y-16544476D01*
X14242619Y-16544476D02*
X14233096Y-16554000D01*
X14233096Y-16554000D02*
X14214048Y-16563524D01*
X14214048Y-16563524D02*
X14185476Y-16563524D01*
X14366429Y-16563524D02*
X14347381Y-16554000D01*
X14347381Y-16554000D02*
X14337857Y-16534952D01*
X14337857Y-16534952D02*
X14337857Y-16363524D01*
X14518810Y-16554000D02*
X14499762Y-16563524D01*
X14499762Y-16563524D02*
X14461667Y-16563524D01*
X14461667Y-16563524D02*
X14442619Y-16554000D01*
X14442619Y-16554000D02*
X14433096Y-16534952D01*
X14433096Y-16534952D02*
X14433096Y-16458762D01*
X14433096Y-16458762D02*
X14442619Y-16439714D01*
X14442619Y-16439714D02*
X14461667Y-16430190D01*
X14461667Y-16430190D02*
X14499762Y-16430190D01*
X14499762Y-16430190D02*
X14518810Y-16439714D01*
X14518810Y-16439714D02*
X14528334Y-16458762D01*
X14528334Y-16458762D02*
X14528334Y-16477809D01*
X14528334Y-16477809D02*
X14433096Y-16496857D01*
X14604524Y-16554000D02*
X14623572Y-16563524D01*
X14623572Y-16563524D02*
X14661667Y-16563524D01*
X14661667Y-16563524D02*
X14680715Y-16554000D01*
X14680715Y-16554000D02*
X14690238Y-16534952D01*
X14690238Y-16534952D02*
X14690238Y-16525428D01*
X14690238Y-16525428D02*
X14680715Y-16506381D01*
X14680715Y-16506381D02*
X14661667Y-16496857D01*
X14661667Y-16496857D02*
X14633096Y-16496857D01*
X14633096Y-16496857D02*
X14614048Y-16487333D01*
X14614048Y-16487333D02*
X14604524Y-16468286D01*
X14604524Y-16468286D02*
X14604524Y-16458762D01*
X14604524Y-16458762D02*
X14614048Y-16439714D01*
X14614048Y-16439714D02*
X14633096Y-16430190D01*
X14633096Y-16430190D02*
X14661667Y-16430190D01*
X14661667Y-16430190D02*
X14680715Y-16439714D01*
X14756905Y-16639714D02*
X14766429Y-16630190D01*
X14766429Y-16630190D02*
X14785477Y-16601619D01*
X14785477Y-16601619D02*
X14795000Y-16582571D01*
X14795000Y-16582571D02*
X14804524Y-16554000D01*
X14804524Y-16554000D02*
X14814048Y-16506381D01*
X14814048Y-16506381D02*
X14814048Y-16468286D01*
X14814048Y-16468286D02*
X14804524Y-16420667D01*
X14804524Y-16420667D02*
X14795000Y-16392095D01*
X14795000Y-16392095D02*
X14785477Y-16373048D01*
X14785477Y-16373048D02*
X14766429Y-16344476D01*
X14766429Y-16344476D02*
X14756905Y-16334952D01*
D17*
X9815000Y-16671000D02*
X9995000Y-16851000D01*
X9995000Y-16671000D02*
X9815000Y-16851000D01*
X9905000Y-16671000D02*
X9905000Y-16851000D01*
X9815000Y-16761000D02*
X9995000Y-16761000D01*
D11*
X10347381Y-16853524D02*
X10233095Y-16853524D01*
X10290238Y-16853524D02*
X10290238Y-16653524D01*
X10290238Y-16653524D02*
X10271190Y-16682095D01*
X10271190Y-16682095D02*
X10252143Y-16701143D01*
X10252143Y-16701143D02*
X10233095Y-16710667D01*
X10433095Y-16834476D02*
X10442619Y-16844000D01*
X10442619Y-16844000D02*
X10433095Y-16853524D01*
X10433095Y-16853524D02*
X10423571Y-16844000D01*
X10423571Y-16844000D02*
X10433095Y-16834476D01*
X10433095Y-16834476D02*
X10433095Y-16853524D01*
X10556905Y-16739238D02*
X10537857Y-16729714D01*
X10537857Y-16729714D02*
X10528333Y-16720190D01*
X10528333Y-16720190D02*
X10518810Y-16701143D01*
X10518810Y-16701143D02*
X10518810Y-16691619D01*
X10518810Y-16691619D02*
X10528333Y-16672571D01*
X10528333Y-16672571D02*
X10537857Y-16663048D01*
X10537857Y-16663048D02*
X10556905Y-16653524D01*
X10556905Y-16653524D02*
X10595000Y-16653524D01*
X10595000Y-16653524D02*
X10614048Y-16663048D01*
X10614048Y-16663048D02*
X10623571Y-16672571D01*
X10623571Y-16672571D02*
X10633095Y-16691619D01*
X10633095Y-16691619D02*
X10633095Y-16701143D01*
X10633095Y-16701143D02*
X10623571Y-16720190D01*
X10623571Y-16720190D02*
X10614048Y-16729714D01*
X10614048Y-16729714D02*
X10595000Y-16739238D01*
X10595000Y-16739238D02*
X10556905Y-16739238D01*
X10556905Y-16739238D02*
X10537857Y-16748762D01*
X10537857Y-16748762D02*
X10528333Y-16758286D01*
X10528333Y-16758286D02*
X10518810Y-16777333D01*
X10518810Y-16777333D02*
X10518810Y-16815429D01*
X10518810Y-16815429D02*
X10528333Y-16834476D01*
X10528333Y-16834476D02*
X10537857Y-16844000D01*
X10537857Y-16844000D02*
X10556905Y-16853524D01*
X10556905Y-16853524D02*
X10595000Y-16853524D01*
X10595000Y-16853524D02*
X10614048Y-16844000D01*
X10614048Y-16844000D02*
X10623571Y-16834476D01*
X10623571Y-16834476D02*
X10633095Y-16815429D01*
X10633095Y-16815429D02*
X10633095Y-16777333D01*
X10633095Y-16777333D02*
X10623571Y-16758286D01*
X10623571Y-16758286D02*
X10614048Y-16748762D01*
X10614048Y-16748762D02*
X10595000Y-16739238D01*
X10756905Y-16653524D02*
X10775952Y-16653524D01*
X10775952Y-16653524D02*
X10795000Y-16663048D01*
X10795000Y-16663048D02*
X10804524Y-16672571D01*
X10804524Y-16672571D02*
X10814048Y-16691619D01*
X10814048Y-16691619D02*
X10823571Y-16729714D01*
X10823571Y-16729714D02*
X10823571Y-16777333D01*
X10823571Y-16777333D02*
X10814048Y-16815429D01*
X10814048Y-16815429D02*
X10804524Y-16834476D01*
X10804524Y-16834476D02*
X10795000Y-16844000D01*
X10795000Y-16844000D02*
X10775952Y-16853524D01*
X10775952Y-16853524D02*
X10756905Y-16853524D01*
X10756905Y-16853524D02*
X10737857Y-16844000D01*
X10737857Y-16844000D02*
X10728333Y-16834476D01*
X10728333Y-16834476D02*
X10718810Y-16815429D01*
X10718810Y-16815429D02*
X10709286Y-16777333D01*
X10709286Y-16777333D02*
X10709286Y-16729714D01*
X10709286Y-16729714D02*
X10718810Y-16691619D01*
X10718810Y-16691619D02*
X10728333Y-16672571D01*
X10728333Y-16672571D02*
X10737857Y-16663048D01*
X10737857Y-16663048D02*
X10756905Y-16653524D01*
X10947381Y-16653524D02*
X10966429Y-16653524D01*
X10966429Y-16653524D02*
X10985476Y-16663048D01*
X10985476Y-16663048D02*
X10995000Y-16672571D01*
X10995000Y-16672571D02*
X11004524Y-16691619D01*
X11004524Y-16691619D02*
X11014048Y-16729714D01*
X11014048Y-16729714D02*
X11014048Y-16777333D01*
X11014048Y-16777333D02*
X11004524Y-16815429D01*
X11004524Y-16815429D02*
X10995000Y-16834476D01*
X10995000Y-16834476D02*
X10985476Y-16844000D01*
X10985476Y-16844000D02*
X10966429Y-16853524D01*
X10966429Y-16853524D02*
X10947381Y-16853524D01*
X10947381Y-16853524D02*
X10928333Y-16844000D01*
X10928333Y-16844000D02*
X10918810Y-16834476D01*
X10918810Y-16834476D02*
X10909286Y-16815429D01*
X10909286Y-16815429D02*
X10899762Y-16777333D01*
X10899762Y-16777333D02*
X10899762Y-16729714D01*
X10899762Y-16729714D02*
X10909286Y-16691619D01*
X10909286Y-16691619D02*
X10918810Y-16672571D01*
X10918810Y-16672571D02*
X10928333Y-16663048D01*
X10928333Y-16663048D02*
X10947381Y-16653524D01*
X11099762Y-16853524D02*
X11099762Y-16720190D01*
X11099762Y-16739238D02*
X11109286Y-16729714D01*
X11109286Y-16729714D02*
X11128333Y-16720190D01*
X11128333Y-16720190D02*
X11156905Y-16720190D01*
X11156905Y-16720190D02*
X11175952Y-16729714D01*
X11175952Y-16729714D02*
X11185476Y-16748762D01*
X11185476Y-16748762D02*
X11185476Y-16853524D01*
X11185476Y-16748762D02*
X11195000Y-16729714D01*
X11195000Y-16729714D02*
X11214048Y-16720190D01*
X11214048Y-16720190D02*
X11242619Y-16720190D01*
X11242619Y-16720190D02*
X11261667Y-16729714D01*
X11261667Y-16729714D02*
X11271190Y-16748762D01*
X11271190Y-16748762D02*
X11271190Y-16853524D01*
X11366429Y-16853524D02*
X11366429Y-16720190D01*
X11366429Y-16739238D02*
X11375952Y-16729714D01*
X11375952Y-16729714D02*
X11395000Y-16720190D01*
X11395000Y-16720190D02*
X11423571Y-16720190D01*
X11423571Y-16720190D02*
X11442619Y-16729714D01*
X11442619Y-16729714D02*
X11452143Y-16748762D01*
X11452143Y-16748762D02*
X11452143Y-16853524D01*
X11452143Y-16748762D02*
X11461667Y-16729714D01*
X11461667Y-16729714D02*
X11480714Y-16720190D01*
X11480714Y-16720190D02*
X11509286Y-16720190D01*
X11509286Y-16720190D02*
X11528333Y-16729714D01*
X11528333Y-16729714D02*
X11537857Y-16748762D01*
X11537857Y-16748762D02*
X11537857Y-16853524D01*
X11928333Y-16644000D02*
X11756905Y-16901143D01*
X12185476Y-16653524D02*
X12204524Y-16653524D01*
X12204524Y-16653524D02*
X12223572Y-16663048D01*
X12223572Y-16663048D02*
X12233095Y-16672571D01*
X12233095Y-16672571D02*
X12242619Y-16691619D01*
X12242619Y-16691619D02*
X12252143Y-16729714D01*
X12252143Y-16729714D02*
X12252143Y-16777333D01*
X12252143Y-16777333D02*
X12242619Y-16815429D01*
X12242619Y-16815429D02*
X12233095Y-16834476D01*
X12233095Y-16834476D02*
X12223572Y-16844000D01*
X12223572Y-16844000D02*
X12204524Y-16853524D01*
X12204524Y-16853524D02*
X12185476Y-16853524D01*
X12185476Y-16853524D02*
X12166429Y-16844000D01*
X12166429Y-16844000D02*
X12156905Y-16834476D01*
X12156905Y-16834476D02*
X12147381Y-16815429D01*
X12147381Y-16815429D02*
X12137857Y-16777333D01*
X12137857Y-16777333D02*
X12137857Y-16729714D01*
X12137857Y-16729714D02*
X12147381Y-16691619D01*
X12147381Y-16691619D02*
X12156905Y-16672571D01*
X12156905Y-16672571D02*
X12166429Y-16663048D01*
X12166429Y-16663048D02*
X12185476Y-16653524D01*
X12337857Y-16834476D02*
X12347381Y-16844000D01*
X12347381Y-16844000D02*
X12337857Y-16853524D01*
X12337857Y-16853524D02*
X12328333Y-16844000D01*
X12328333Y-16844000D02*
X12337857Y-16834476D01*
X12337857Y-16834476D02*
X12337857Y-16853524D01*
X12471191Y-16653524D02*
X12490238Y-16653524D01*
X12490238Y-16653524D02*
X12509286Y-16663048D01*
X12509286Y-16663048D02*
X12518810Y-16672571D01*
X12518810Y-16672571D02*
X12528333Y-16691619D01*
X12528333Y-16691619D02*
X12537857Y-16729714D01*
X12537857Y-16729714D02*
X12537857Y-16777333D01*
X12537857Y-16777333D02*
X12528333Y-16815429D01*
X12528333Y-16815429D02*
X12518810Y-16834476D01*
X12518810Y-16834476D02*
X12509286Y-16844000D01*
X12509286Y-16844000D02*
X12490238Y-16853524D01*
X12490238Y-16853524D02*
X12471191Y-16853524D01*
X12471191Y-16853524D02*
X12452143Y-16844000D01*
X12452143Y-16844000D02*
X12442619Y-16834476D01*
X12442619Y-16834476D02*
X12433095Y-16815429D01*
X12433095Y-16815429D02*
X12423572Y-16777333D01*
X12423572Y-16777333D02*
X12423572Y-16729714D01*
X12423572Y-16729714D02*
X12433095Y-16691619D01*
X12433095Y-16691619D02*
X12442619Y-16672571D01*
X12442619Y-16672571D02*
X12452143Y-16663048D01*
X12452143Y-16663048D02*
X12471191Y-16653524D01*
X12604524Y-16653524D02*
X12737857Y-16653524D01*
X12737857Y-16653524D02*
X12652143Y-16853524D01*
X12852143Y-16653524D02*
X12871191Y-16653524D01*
X12871191Y-16653524D02*
X12890238Y-16663048D01*
X12890238Y-16663048D02*
X12899762Y-16672571D01*
X12899762Y-16672571D02*
X12909286Y-16691619D01*
X12909286Y-16691619D02*
X12918810Y-16729714D01*
X12918810Y-16729714D02*
X12918810Y-16777333D01*
X12918810Y-16777333D02*
X12909286Y-16815429D01*
X12909286Y-16815429D02*
X12899762Y-16834476D01*
X12899762Y-16834476D02*
X12890238Y-16844000D01*
X12890238Y-16844000D02*
X12871191Y-16853524D01*
X12871191Y-16853524D02*
X12852143Y-16853524D01*
X12852143Y-16853524D02*
X12833095Y-16844000D01*
X12833095Y-16844000D02*
X12823572Y-16834476D01*
X12823572Y-16834476D02*
X12814048Y-16815429D01*
X12814048Y-16815429D02*
X12804524Y-16777333D01*
X12804524Y-16777333D02*
X12804524Y-16729714D01*
X12804524Y-16729714D02*
X12814048Y-16691619D01*
X12814048Y-16691619D02*
X12823572Y-16672571D01*
X12823572Y-16672571D02*
X12833095Y-16663048D01*
X12833095Y-16663048D02*
X12852143Y-16653524D01*
X13014048Y-16853524D02*
X13052143Y-16853524D01*
X13052143Y-16853524D02*
X13071191Y-16844000D01*
X13071191Y-16844000D02*
X13080714Y-16834476D01*
X13080714Y-16834476D02*
X13099762Y-16805905D01*
X13099762Y-16805905D02*
X13109286Y-16767809D01*
X13109286Y-16767809D02*
X13109286Y-16691619D01*
X13109286Y-16691619D02*
X13099762Y-16672571D01*
X13099762Y-16672571D02*
X13090238Y-16663048D01*
X13090238Y-16663048D02*
X13071191Y-16653524D01*
X13071191Y-16653524D02*
X13033095Y-16653524D01*
X13033095Y-16653524D02*
X13014048Y-16663048D01*
X13014048Y-16663048D02*
X13004524Y-16672571D01*
X13004524Y-16672571D02*
X12995000Y-16691619D01*
X12995000Y-16691619D02*
X12995000Y-16739238D01*
X12995000Y-16739238D02*
X13004524Y-16758286D01*
X13004524Y-16758286D02*
X13014048Y-16767809D01*
X13014048Y-16767809D02*
X13033095Y-16777333D01*
X13033095Y-16777333D02*
X13071191Y-16777333D01*
X13071191Y-16777333D02*
X13090238Y-16767809D01*
X13090238Y-16767809D02*
X13099762Y-16758286D01*
X13099762Y-16758286D02*
X13109286Y-16739238D01*
X13185476Y-16653524D02*
X13185476Y-16691619D01*
X13261667Y-16653524D02*
X13261667Y-16691619D01*
X13556905Y-16929714D02*
X13547381Y-16920190D01*
X13547381Y-16920190D02*
X13528334Y-16891619D01*
X13528334Y-16891619D02*
X13518810Y-16872571D01*
X13518810Y-16872571D02*
X13509286Y-16844000D01*
X13509286Y-16844000D02*
X13499762Y-16796381D01*
X13499762Y-16796381D02*
X13499762Y-16758286D01*
X13499762Y-16758286D02*
X13509286Y-16710667D01*
X13509286Y-16710667D02*
X13518810Y-16682095D01*
X13518810Y-16682095D02*
X13528334Y-16663048D01*
X13528334Y-16663048D02*
X13547381Y-16634476D01*
X13547381Y-16634476D02*
X13556905Y-16624952D01*
X13671191Y-16653524D02*
X13690238Y-16653524D01*
X13690238Y-16653524D02*
X13709286Y-16663048D01*
X13709286Y-16663048D02*
X13718810Y-16672571D01*
X13718810Y-16672571D02*
X13728334Y-16691619D01*
X13728334Y-16691619D02*
X13737857Y-16729714D01*
X13737857Y-16729714D02*
X13737857Y-16777333D01*
X13737857Y-16777333D02*
X13728334Y-16815429D01*
X13728334Y-16815429D02*
X13718810Y-16834476D01*
X13718810Y-16834476D02*
X13709286Y-16844000D01*
X13709286Y-16844000D02*
X13690238Y-16853524D01*
X13690238Y-16853524D02*
X13671191Y-16853524D01*
X13671191Y-16853524D02*
X13652143Y-16844000D01*
X13652143Y-16844000D02*
X13642619Y-16834476D01*
X13642619Y-16834476D02*
X13633095Y-16815429D01*
X13633095Y-16815429D02*
X13623572Y-16777333D01*
X13623572Y-16777333D02*
X13623572Y-16729714D01*
X13623572Y-16729714D02*
X13633095Y-16691619D01*
X13633095Y-16691619D02*
X13642619Y-16672571D01*
X13642619Y-16672571D02*
X13652143Y-16663048D01*
X13652143Y-16663048D02*
X13671191Y-16653524D01*
X13975953Y-16853524D02*
X13975953Y-16653524D01*
X14061667Y-16853524D02*
X14061667Y-16748762D01*
X14061667Y-16748762D02*
X14052143Y-16729714D01*
X14052143Y-16729714D02*
X14033096Y-16720190D01*
X14033096Y-16720190D02*
X14004524Y-16720190D01*
X14004524Y-16720190D02*
X13985476Y-16729714D01*
X13985476Y-16729714D02*
X13975953Y-16739238D01*
X14185476Y-16853524D02*
X14166429Y-16844000D01*
X14166429Y-16844000D02*
X14156905Y-16834476D01*
X14156905Y-16834476D02*
X14147381Y-16815429D01*
X14147381Y-16815429D02*
X14147381Y-16758286D01*
X14147381Y-16758286D02*
X14156905Y-16739238D01*
X14156905Y-16739238D02*
X14166429Y-16729714D01*
X14166429Y-16729714D02*
X14185476Y-16720190D01*
X14185476Y-16720190D02*
X14214048Y-16720190D01*
X14214048Y-16720190D02*
X14233096Y-16729714D01*
X14233096Y-16729714D02*
X14242619Y-16739238D01*
X14242619Y-16739238D02*
X14252143Y-16758286D01*
X14252143Y-16758286D02*
X14252143Y-16815429D01*
X14252143Y-16815429D02*
X14242619Y-16834476D01*
X14242619Y-16834476D02*
X14233096Y-16844000D01*
X14233096Y-16844000D02*
X14214048Y-16853524D01*
X14214048Y-16853524D02*
X14185476Y-16853524D01*
X14366429Y-16853524D02*
X14347381Y-16844000D01*
X14347381Y-16844000D02*
X14337857Y-16824952D01*
X14337857Y-16824952D02*
X14337857Y-16653524D01*
X14518810Y-16844000D02*
X14499762Y-16853524D01*
X14499762Y-16853524D02*
X14461667Y-16853524D01*
X14461667Y-16853524D02*
X14442619Y-16844000D01*
X14442619Y-16844000D02*
X14433096Y-16824952D01*
X14433096Y-16824952D02*
X14433096Y-16748762D01*
X14433096Y-16748762D02*
X14442619Y-16729714D01*
X14442619Y-16729714D02*
X14461667Y-16720190D01*
X14461667Y-16720190D02*
X14499762Y-16720190D01*
X14499762Y-16720190D02*
X14518810Y-16729714D01*
X14518810Y-16729714D02*
X14528334Y-16748762D01*
X14528334Y-16748762D02*
X14528334Y-16767809D01*
X14528334Y-16767809D02*
X14433096Y-16786857D01*
X14604524Y-16844000D02*
X14623572Y-16853524D01*
X14623572Y-16853524D02*
X14661667Y-16853524D01*
X14661667Y-16853524D02*
X14680715Y-16844000D01*
X14680715Y-16844000D02*
X14690238Y-16824952D01*
X14690238Y-16824952D02*
X14690238Y-16815429D01*
X14690238Y-16815429D02*
X14680715Y-16796381D01*
X14680715Y-16796381D02*
X14661667Y-16786857D01*
X14661667Y-16786857D02*
X14633096Y-16786857D01*
X14633096Y-16786857D02*
X14614048Y-16777333D01*
X14614048Y-16777333D02*
X14604524Y-16758286D01*
X14604524Y-16758286D02*
X14604524Y-16748762D01*
X14604524Y-16748762D02*
X14614048Y-16729714D01*
X14614048Y-16729714D02*
X14633096Y-16720190D01*
X14633096Y-16720190D02*
X14661667Y-16720190D01*
X14661667Y-16720190D02*
X14680715Y-16729714D01*
X14928334Y-16777333D02*
X15080715Y-16777333D01*
X15004524Y-16853524D02*
X15004524Y-16701143D01*
X15318810Y-16672571D02*
X15328334Y-16663048D01*
X15328334Y-16663048D02*
X15347381Y-16653524D01*
X15347381Y-16653524D02*
X15395000Y-16653524D01*
X15395000Y-16653524D02*
X15414048Y-16663048D01*
X15414048Y-16663048D02*
X15423572Y-16672571D01*
X15423572Y-16672571D02*
X15433096Y-16691619D01*
X15433096Y-16691619D02*
X15433096Y-16710667D01*
X15433096Y-16710667D02*
X15423572Y-16739238D01*
X15423572Y-16739238D02*
X15309286Y-16853524D01*
X15309286Y-16853524D02*
X15433096Y-16853524D01*
X15661667Y-16844000D02*
X15680715Y-16853524D01*
X15680715Y-16853524D02*
X15718810Y-16853524D01*
X15718810Y-16853524D02*
X15737858Y-16844000D01*
X15737858Y-16844000D02*
X15747381Y-16824952D01*
X15747381Y-16824952D02*
X15747381Y-16815429D01*
X15747381Y-16815429D02*
X15737858Y-16796381D01*
X15737858Y-16796381D02*
X15718810Y-16786857D01*
X15718810Y-16786857D02*
X15690239Y-16786857D01*
X15690239Y-16786857D02*
X15671191Y-16777333D01*
X15671191Y-16777333D02*
X15661667Y-16758286D01*
X15661667Y-16758286D02*
X15661667Y-16748762D01*
X15661667Y-16748762D02*
X15671191Y-16729714D01*
X15671191Y-16729714D02*
X15690239Y-16720190D01*
X15690239Y-16720190D02*
X15718810Y-16720190D01*
X15718810Y-16720190D02*
X15737858Y-16729714D01*
X15861667Y-16853524D02*
X15842620Y-16844000D01*
X15842620Y-16844000D02*
X15833096Y-16824952D01*
X15833096Y-16824952D02*
X15833096Y-16653524D01*
X15966429Y-16853524D02*
X15947381Y-16844000D01*
X15947381Y-16844000D02*
X15937858Y-16834476D01*
X15937858Y-16834476D02*
X15928334Y-16815429D01*
X15928334Y-16815429D02*
X15928334Y-16758286D01*
X15928334Y-16758286D02*
X15937858Y-16739238D01*
X15937858Y-16739238D02*
X15947381Y-16729714D01*
X15947381Y-16729714D02*
X15966429Y-16720190D01*
X15966429Y-16720190D02*
X15995001Y-16720190D01*
X15995001Y-16720190D02*
X16014048Y-16729714D01*
X16014048Y-16729714D02*
X16023572Y-16739238D01*
X16023572Y-16739238D02*
X16033096Y-16758286D01*
X16033096Y-16758286D02*
X16033096Y-16815429D01*
X16033096Y-16815429D02*
X16023572Y-16834476D01*
X16023572Y-16834476D02*
X16014048Y-16844000D01*
X16014048Y-16844000D02*
X15995001Y-16853524D01*
X15995001Y-16853524D02*
X15966429Y-16853524D01*
X16090239Y-16720190D02*
X16166429Y-16720190D01*
X16118810Y-16653524D02*
X16118810Y-16824952D01*
X16118810Y-16824952D02*
X16128334Y-16844000D01*
X16128334Y-16844000D02*
X16147381Y-16853524D01*
X16147381Y-16853524D02*
X16166429Y-16853524D01*
X16223572Y-16844000D02*
X16242620Y-16853524D01*
X16242620Y-16853524D02*
X16280715Y-16853524D01*
X16280715Y-16853524D02*
X16299762Y-16844000D01*
X16299762Y-16844000D02*
X16309286Y-16824952D01*
X16309286Y-16824952D02*
X16309286Y-16815429D01*
X16309286Y-16815429D02*
X16299762Y-16796381D01*
X16299762Y-16796381D02*
X16280715Y-16786857D01*
X16280715Y-16786857D02*
X16252143Y-16786857D01*
X16252143Y-16786857D02*
X16233096Y-16777333D01*
X16233096Y-16777333D02*
X16223572Y-16758286D01*
X16223572Y-16758286D02*
X16223572Y-16748762D01*
X16223572Y-16748762D02*
X16233096Y-16729714D01*
X16233096Y-16729714D02*
X16252143Y-16720190D01*
X16252143Y-16720190D02*
X16280715Y-16720190D01*
X16280715Y-16720190D02*
X16299762Y-16729714D01*
X16375953Y-16929714D02*
X16385477Y-16920190D01*
X16385477Y-16920190D02*
X16404524Y-16891619D01*
X16404524Y-16891619D02*
X16414048Y-16872571D01*
X16414048Y-16872571D02*
X16423572Y-16844000D01*
X16423572Y-16844000D02*
X16433096Y-16796381D01*
X16433096Y-16796381D02*
X16433096Y-16758286D01*
X16433096Y-16758286D02*
X16423572Y-16710667D01*
X16423572Y-16710667D02*
X16414048Y-16682095D01*
X16414048Y-16682095D02*
X16404524Y-16663048D01*
X16404524Y-16663048D02*
X16385477Y-16634476D01*
X16385477Y-16634476D02*
X16375953Y-16624952D01*
X9795000Y-16961000D02*
X9995000Y-17161000D01*
X9995000Y-16961000D02*
X9795000Y-17161000D01*
X9965711Y-17131711D02*
X9965711Y-16990289D01*
X9824289Y-16990289D01*
X9824289Y-17131711D01*
X9965711Y-17131711D01*
X10233095Y-16972571D02*
X10242619Y-16963048D01*
X10242619Y-16963048D02*
X10261667Y-16953524D01*
X10261667Y-16953524D02*
X10309286Y-16953524D01*
X10309286Y-16953524D02*
X10328333Y-16963048D01*
X10328333Y-16963048D02*
X10337857Y-16972571D01*
X10337857Y-16972571D02*
X10347381Y-16991619D01*
X10347381Y-16991619D02*
X10347381Y-17010667D01*
X10347381Y-17010667D02*
X10337857Y-17039238D01*
X10337857Y-17039238D02*
X10223571Y-17153524D01*
X10223571Y-17153524D02*
X10347381Y-17153524D01*
X10433095Y-17134476D02*
X10442619Y-17144000D01*
X10442619Y-17144000D02*
X10433095Y-17153524D01*
X10433095Y-17153524D02*
X10423571Y-17144000D01*
X10423571Y-17144000D02*
X10433095Y-17134476D01*
X10433095Y-17134476D02*
X10433095Y-17153524D01*
X10509286Y-16953524D02*
X10642619Y-16953524D01*
X10642619Y-16953524D02*
X10556905Y-17153524D01*
X10756905Y-16953524D02*
X10775952Y-16953524D01*
X10775952Y-16953524D02*
X10795000Y-16963048D01*
X10795000Y-16963048D02*
X10804524Y-16972571D01*
X10804524Y-16972571D02*
X10814048Y-16991619D01*
X10814048Y-16991619D02*
X10823571Y-17029714D01*
X10823571Y-17029714D02*
X10823571Y-17077333D01*
X10823571Y-17077333D02*
X10814048Y-17115429D01*
X10814048Y-17115429D02*
X10804524Y-17134476D01*
X10804524Y-17134476D02*
X10795000Y-17144000D01*
X10795000Y-17144000D02*
X10775952Y-17153524D01*
X10775952Y-17153524D02*
X10756905Y-17153524D01*
X10756905Y-17153524D02*
X10737857Y-17144000D01*
X10737857Y-17144000D02*
X10728333Y-17134476D01*
X10728333Y-17134476D02*
X10718810Y-17115429D01*
X10718810Y-17115429D02*
X10709286Y-17077333D01*
X10709286Y-17077333D02*
X10709286Y-17029714D01*
X10709286Y-17029714D02*
X10718810Y-16991619D01*
X10718810Y-16991619D02*
X10728333Y-16972571D01*
X10728333Y-16972571D02*
X10737857Y-16963048D01*
X10737857Y-16963048D02*
X10756905Y-16953524D01*
X10947381Y-16953524D02*
X10966429Y-16953524D01*
X10966429Y-16953524D02*
X10985476Y-16963048D01*
X10985476Y-16963048D02*
X10995000Y-16972571D01*
X10995000Y-16972571D02*
X11004524Y-16991619D01*
X11004524Y-16991619D02*
X11014048Y-17029714D01*
X11014048Y-17029714D02*
X11014048Y-17077333D01*
X11014048Y-17077333D02*
X11004524Y-17115429D01*
X11004524Y-17115429D02*
X10995000Y-17134476D01*
X10995000Y-17134476D02*
X10985476Y-17144000D01*
X10985476Y-17144000D02*
X10966429Y-17153524D01*
X10966429Y-17153524D02*
X10947381Y-17153524D01*
X10947381Y-17153524D02*
X10928333Y-17144000D01*
X10928333Y-17144000D02*
X10918810Y-17134476D01*
X10918810Y-17134476D02*
X10909286Y-17115429D01*
X10909286Y-17115429D02*
X10899762Y-17077333D01*
X10899762Y-17077333D02*
X10899762Y-17029714D01*
X10899762Y-17029714D02*
X10909286Y-16991619D01*
X10909286Y-16991619D02*
X10918810Y-16972571D01*
X10918810Y-16972571D02*
X10928333Y-16963048D01*
X10928333Y-16963048D02*
X10947381Y-16953524D01*
X11099762Y-17153524D02*
X11099762Y-17020190D01*
X11099762Y-17039238D02*
X11109286Y-17029714D01*
X11109286Y-17029714D02*
X11128333Y-17020190D01*
X11128333Y-17020190D02*
X11156905Y-17020190D01*
X11156905Y-17020190D02*
X11175952Y-17029714D01*
X11175952Y-17029714D02*
X11185476Y-17048762D01*
X11185476Y-17048762D02*
X11185476Y-17153524D01*
X11185476Y-17048762D02*
X11195000Y-17029714D01*
X11195000Y-17029714D02*
X11214048Y-17020190D01*
X11214048Y-17020190D02*
X11242619Y-17020190D01*
X11242619Y-17020190D02*
X11261667Y-17029714D01*
X11261667Y-17029714D02*
X11271190Y-17048762D01*
X11271190Y-17048762D02*
X11271190Y-17153524D01*
X11366429Y-17153524D02*
X11366429Y-17020190D01*
X11366429Y-17039238D02*
X11375952Y-17029714D01*
X11375952Y-17029714D02*
X11395000Y-17020190D01*
X11395000Y-17020190D02*
X11423571Y-17020190D01*
X11423571Y-17020190D02*
X11442619Y-17029714D01*
X11442619Y-17029714D02*
X11452143Y-17048762D01*
X11452143Y-17048762D02*
X11452143Y-17153524D01*
X11452143Y-17048762D02*
X11461667Y-17029714D01*
X11461667Y-17029714D02*
X11480714Y-17020190D01*
X11480714Y-17020190D02*
X11509286Y-17020190D01*
X11509286Y-17020190D02*
X11528333Y-17029714D01*
X11528333Y-17029714D02*
X11537857Y-17048762D01*
X11537857Y-17048762D02*
X11537857Y-17153524D01*
X11928333Y-16944000D02*
X11756905Y-17201143D01*
X12185476Y-16953524D02*
X12204524Y-16953524D01*
X12204524Y-16953524D02*
X12223572Y-16963048D01*
X12223572Y-16963048D02*
X12233095Y-16972571D01*
X12233095Y-16972571D02*
X12242619Y-16991619D01*
X12242619Y-16991619D02*
X12252143Y-17029714D01*
X12252143Y-17029714D02*
X12252143Y-17077333D01*
X12252143Y-17077333D02*
X12242619Y-17115429D01*
X12242619Y-17115429D02*
X12233095Y-17134476D01*
X12233095Y-17134476D02*
X12223572Y-17144000D01*
X12223572Y-17144000D02*
X12204524Y-17153524D01*
X12204524Y-17153524D02*
X12185476Y-17153524D01*
X12185476Y-17153524D02*
X12166429Y-17144000D01*
X12166429Y-17144000D02*
X12156905Y-17134476D01*
X12156905Y-17134476D02*
X12147381Y-17115429D01*
X12147381Y-17115429D02*
X12137857Y-17077333D01*
X12137857Y-17077333D02*
X12137857Y-17029714D01*
X12137857Y-17029714D02*
X12147381Y-16991619D01*
X12147381Y-16991619D02*
X12156905Y-16972571D01*
X12156905Y-16972571D02*
X12166429Y-16963048D01*
X12166429Y-16963048D02*
X12185476Y-16953524D01*
X12337857Y-17134476D02*
X12347381Y-17144000D01*
X12347381Y-17144000D02*
X12337857Y-17153524D01*
X12337857Y-17153524D02*
X12328333Y-17144000D01*
X12328333Y-17144000D02*
X12337857Y-17134476D01*
X12337857Y-17134476D02*
X12337857Y-17153524D01*
X12537857Y-17153524D02*
X12423572Y-17153524D01*
X12480714Y-17153524D02*
X12480714Y-16953524D01*
X12480714Y-16953524D02*
X12461667Y-16982095D01*
X12461667Y-16982095D02*
X12442619Y-17001143D01*
X12442619Y-17001143D02*
X12423572Y-17010667D01*
X12661667Y-16953524D02*
X12680714Y-16953524D01*
X12680714Y-16953524D02*
X12699762Y-16963048D01*
X12699762Y-16963048D02*
X12709286Y-16972571D01*
X12709286Y-16972571D02*
X12718810Y-16991619D01*
X12718810Y-16991619D02*
X12728333Y-17029714D01*
X12728333Y-17029714D02*
X12728333Y-17077333D01*
X12728333Y-17077333D02*
X12718810Y-17115429D01*
X12718810Y-17115429D02*
X12709286Y-17134476D01*
X12709286Y-17134476D02*
X12699762Y-17144000D01*
X12699762Y-17144000D02*
X12680714Y-17153524D01*
X12680714Y-17153524D02*
X12661667Y-17153524D01*
X12661667Y-17153524D02*
X12642619Y-17144000D01*
X12642619Y-17144000D02*
X12633095Y-17134476D01*
X12633095Y-17134476D02*
X12623572Y-17115429D01*
X12623572Y-17115429D02*
X12614048Y-17077333D01*
X12614048Y-17077333D02*
X12614048Y-17029714D01*
X12614048Y-17029714D02*
X12623572Y-16991619D01*
X12623572Y-16991619D02*
X12633095Y-16972571D01*
X12633095Y-16972571D02*
X12642619Y-16963048D01*
X12642619Y-16963048D02*
X12661667Y-16953524D01*
X12899762Y-16953524D02*
X12861667Y-16953524D01*
X12861667Y-16953524D02*
X12842619Y-16963048D01*
X12842619Y-16963048D02*
X12833095Y-16972571D01*
X12833095Y-16972571D02*
X12814048Y-17001143D01*
X12814048Y-17001143D02*
X12804524Y-17039238D01*
X12804524Y-17039238D02*
X12804524Y-17115429D01*
X12804524Y-17115429D02*
X12814048Y-17134476D01*
X12814048Y-17134476D02*
X12823572Y-17144000D01*
X12823572Y-17144000D02*
X12842619Y-17153524D01*
X12842619Y-17153524D02*
X12880714Y-17153524D01*
X12880714Y-17153524D02*
X12899762Y-17144000D01*
X12899762Y-17144000D02*
X12909286Y-17134476D01*
X12909286Y-17134476D02*
X12918810Y-17115429D01*
X12918810Y-17115429D02*
X12918810Y-17067810D01*
X12918810Y-17067810D02*
X12909286Y-17048762D01*
X12909286Y-17048762D02*
X12899762Y-17039238D01*
X12899762Y-17039238D02*
X12880714Y-17029714D01*
X12880714Y-17029714D02*
X12842619Y-17029714D01*
X12842619Y-17029714D02*
X12823572Y-17039238D01*
X12823572Y-17039238D02*
X12814048Y-17048762D01*
X12814048Y-17048762D02*
X12804524Y-17067810D01*
X12985476Y-16953524D02*
X13109286Y-16953524D01*
X13109286Y-16953524D02*
X13042619Y-17029714D01*
X13042619Y-17029714D02*
X13071191Y-17029714D01*
X13071191Y-17029714D02*
X13090238Y-17039238D01*
X13090238Y-17039238D02*
X13099762Y-17048762D01*
X13099762Y-17048762D02*
X13109286Y-17067810D01*
X13109286Y-17067810D02*
X13109286Y-17115429D01*
X13109286Y-17115429D02*
X13099762Y-17134476D01*
X13099762Y-17134476D02*
X13090238Y-17144000D01*
X13090238Y-17144000D02*
X13071191Y-17153524D01*
X13071191Y-17153524D02*
X13014048Y-17153524D01*
X13014048Y-17153524D02*
X12995000Y-17144000D01*
X12995000Y-17144000D02*
X12985476Y-17134476D01*
X13185476Y-16953524D02*
X13185476Y-16991619D01*
X13261667Y-16953524D02*
X13261667Y-16991619D01*
X13556905Y-17229714D02*
X13547381Y-17220190D01*
X13547381Y-17220190D02*
X13528334Y-17191619D01*
X13528334Y-17191619D02*
X13518810Y-17172571D01*
X13518810Y-17172571D02*
X13509286Y-17144000D01*
X13509286Y-17144000D02*
X13499762Y-17096381D01*
X13499762Y-17096381D02*
X13499762Y-17058286D01*
X13499762Y-17058286D02*
X13509286Y-17010667D01*
X13509286Y-17010667D02*
X13518810Y-16982095D01*
X13518810Y-16982095D02*
X13528334Y-16963048D01*
X13528334Y-16963048D02*
X13547381Y-16934476D01*
X13547381Y-16934476D02*
X13556905Y-16924952D01*
X13623572Y-16972571D02*
X13633095Y-16963048D01*
X13633095Y-16963048D02*
X13652143Y-16953524D01*
X13652143Y-16953524D02*
X13699762Y-16953524D01*
X13699762Y-16953524D02*
X13718810Y-16963048D01*
X13718810Y-16963048D02*
X13728334Y-16972571D01*
X13728334Y-16972571D02*
X13737857Y-16991619D01*
X13737857Y-16991619D02*
X13737857Y-17010667D01*
X13737857Y-17010667D02*
X13728334Y-17039238D01*
X13728334Y-17039238D02*
X13614048Y-17153524D01*
X13614048Y-17153524D02*
X13737857Y-17153524D01*
X13975953Y-17153524D02*
X13975953Y-16953524D01*
X14061667Y-17153524D02*
X14061667Y-17048762D01*
X14061667Y-17048762D02*
X14052143Y-17029714D01*
X14052143Y-17029714D02*
X14033096Y-17020190D01*
X14033096Y-17020190D02*
X14004524Y-17020190D01*
X14004524Y-17020190D02*
X13985476Y-17029714D01*
X13985476Y-17029714D02*
X13975953Y-17039238D01*
X14185476Y-17153524D02*
X14166429Y-17144000D01*
X14166429Y-17144000D02*
X14156905Y-17134476D01*
X14156905Y-17134476D02*
X14147381Y-17115429D01*
X14147381Y-17115429D02*
X14147381Y-17058286D01*
X14147381Y-17058286D02*
X14156905Y-17039238D01*
X14156905Y-17039238D02*
X14166429Y-17029714D01*
X14166429Y-17029714D02*
X14185476Y-17020190D01*
X14185476Y-17020190D02*
X14214048Y-17020190D01*
X14214048Y-17020190D02*
X14233096Y-17029714D01*
X14233096Y-17029714D02*
X14242619Y-17039238D01*
X14242619Y-17039238D02*
X14252143Y-17058286D01*
X14252143Y-17058286D02*
X14252143Y-17115429D01*
X14252143Y-17115429D02*
X14242619Y-17134476D01*
X14242619Y-17134476D02*
X14233096Y-17144000D01*
X14233096Y-17144000D02*
X14214048Y-17153524D01*
X14214048Y-17153524D02*
X14185476Y-17153524D01*
X14366429Y-17153524D02*
X14347381Y-17144000D01*
X14347381Y-17144000D02*
X14337857Y-17124952D01*
X14337857Y-17124952D02*
X14337857Y-16953524D01*
X14518810Y-17144000D02*
X14499762Y-17153524D01*
X14499762Y-17153524D02*
X14461667Y-17153524D01*
X14461667Y-17153524D02*
X14442619Y-17144000D01*
X14442619Y-17144000D02*
X14433096Y-17124952D01*
X14433096Y-17124952D02*
X14433096Y-17048762D01*
X14433096Y-17048762D02*
X14442619Y-17029714D01*
X14442619Y-17029714D02*
X14461667Y-17020190D01*
X14461667Y-17020190D02*
X14499762Y-17020190D01*
X14499762Y-17020190D02*
X14518810Y-17029714D01*
X14518810Y-17029714D02*
X14528334Y-17048762D01*
X14528334Y-17048762D02*
X14528334Y-17067810D01*
X14528334Y-17067810D02*
X14433096Y-17086857D01*
X14604524Y-17144000D02*
X14623572Y-17153524D01*
X14623572Y-17153524D02*
X14661667Y-17153524D01*
X14661667Y-17153524D02*
X14680715Y-17144000D01*
X14680715Y-17144000D02*
X14690238Y-17124952D01*
X14690238Y-17124952D02*
X14690238Y-17115429D01*
X14690238Y-17115429D02*
X14680715Y-17096381D01*
X14680715Y-17096381D02*
X14661667Y-17086857D01*
X14661667Y-17086857D02*
X14633096Y-17086857D01*
X14633096Y-17086857D02*
X14614048Y-17077333D01*
X14614048Y-17077333D02*
X14604524Y-17058286D01*
X14604524Y-17058286D02*
X14604524Y-17048762D01*
X14604524Y-17048762D02*
X14614048Y-17029714D01*
X14614048Y-17029714D02*
X14633096Y-17020190D01*
X14633096Y-17020190D02*
X14661667Y-17020190D01*
X14661667Y-17020190D02*
X14680715Y-17029714D01*
X14756905Y-17229714D02*
X14766429Y-17220190D01*
X14766429Y-17220190D02*
X14785477Y-17191619D01*
X14785477Y-17191619D02*
X14795000Y-17172571D01*
X14795000Y-17172571D02*
X14804524Y-17144000D01*
X14804524Y-17144000D02*
X14814048Y-17096381D01*
X14814048Y-17096381D02*
X14814048Y-17058286D01*
X14814048Y-17058286D02*
X14804524Y-17010667D01*
X14804524Y-17010667D02*
X14795000Y-16982095D01*
X14795000Y-16982095D02*
X14785477Y-16963048D01*
X14785477Y-16963048D02*
X14766429Y-16934476D01*
X14766429Y-16934476D02*
X14756905Y-16924952D01*
M02*
