G04 #@! TF.GenerationSoftware,KiCad,Pcbnew,7.0.1*
G04 #@! TF.CreationDate,2023-11-13T16:16:05-05:00*
G04 #@! TF.ProjectId,Radio HAT,52616469-6f20-4484-9154-2e6b69636164,v1.1*
G04 #@! TF.SameCoordinates,Original*
G04 #@! TF.FileFunction,Soldermask,Top*
G04 #@! TF.FilePolarity,Negative*
%FSLAX46Y46*%
G04 Gerber Fmt 4.6, Leading zero omitted, Abs format (unit mm)*
G04 Created by KiCad (PCBNEW 7.0.1) date 2023-11-13 16:16:05*
%MOMM*%
%LPD*%
G01*
G04 APERTURE LIST*
G04 Aperture macros list*
%AMRoundRect*
0 Rectangle with rounded corners*
0 $1 Rounding radius*
0 $2 $3 $4 $5 $6 $7 $8 $9 X,Y pos of 4 corners*
0 Add a 4 corners polygon primitive as box body*
4,1,4,$2,$3,$4,$5,$6,$7,$8,$9,$2,$3,0*
0 Add four circle primitives for the rounded corners*
1,1,$1+$1,$2,$3*
1,1,$1+$1,$4,$5*
1,1,$1+$1,$6,$7*
1,1,$1+$1,$8,$9*
0 Add four rect primitives between the rounded corners*
20,1,$1+$1,$2,$3,$4,$5,0*
20,1,$1+$1,$4,$5,$6,$7,0*
20,1,$1+$1,$6,$7,$8,$9,0*
20,1,$1+$1,$8,$9,$2,$3,0*%
G04 Aperture macros list end*
%ADD10RoundRect,0.250000X0.350000X0.450000X-0.350000X0.450000X-0.350000X-0.450000X0.350000X-0.450000X0*%
%ADD11RoundRect,0.250000X-0.400000X-1.075000X0.400000X-1.075000X0.400000X1.075000X-0.400000X1.075000X0*%
%ADD12C,2.000000*%
%ADD13RoundRect,0.250000X0.450000X-0.350000X0.450000X0.350000X-0.450000X0.350000X-0.450000X-0.350000X0*%
%ADD14R,1.800000X1.800000*%
%ADD15C,1.800000*%
%ADD16RoundRect,0.750000X-0.750000X1.250000X-0.750000X-1.250000X0.750000X-1.250000X0.750000X1.250000X0*%
%ADD17RoundRect,0.250000X-0.475000X0.337500X-0.475000X-0.337500X0.475000X-0.337500X0.475000X0.337500X0*%
%ADD18RoundRect,0.237500X-0.237500X0.300000X-0.237500X-0.300000X0.237500X-0.300000X0.237500X0.300000X0*%
%ADD19RoundRect,0.237500X-0.300000X-0.237500X0.300000X-0.237500X0.300000X0.237500X-0.300000X0.237500X0*%
%ADD20RoundRect,0.250000X-0.450000X0.350000X-0.450000X-0.350000X0.450000X-0.350000X0.450000X0.350000X0*%
%ADD21C,2.050000*%
%ADD22C,2.250000*%
%ADD23RoundRect,0.250000X0.475000X-0.337500X0.475000X0.337500X-0.475000X0.337500X-0.475000X-0.337500X0*%
%ADD24C,0.800000*%
%ADD25C,5.400000*%
%ADD26R,1.700000X1.700000*%
%ADD27O,1.700000X1.700000*%
%ADD28RoundRect,0.250000X-0.350000X0.850000X-0.350000X-0.850000X0.350000X-0.850000X0.350000X0.850000X0*%
%ADD29RoundRect,0.249997X-2.650003X2.950003X-2.650003X-2.950003X2.650003X-2.950003X2.650003X2.950003X0*%
%ADD30RoundRect,0.063500X-1.000000X-0.650000X1.000000X-0.650000X1.000000X0.650000X-1.000000X0.650000X0*%
%ADD31RoundRect,0.063500X-5.750000X-2.350000X5.750000X-2.350000X5.750000X2.350000X-5.750000X2.350000X0*%
%ADD32R,3.500000X3.500000*%
%ADD33RoundRect,0.750000X-0.750000X-1.000000X0.750000X-1.000000X0.750000X1.000000X-0.750000X1.000000X0*%
%ADD34RoundRect,0.875000X-0.875000X-0.875000X0.875000X-0.875000X0.875000X0.875000X-0.875000X0.875000X0*%
%ADD35RoundRect,0.250000X0.325000X0.450000X-0.325000X0.450000X-0.325000X-0.450000X0.325000X-0.450000X0*%
%ADD36RoundRect,0.250000X-0.350000X-0.450000X0.350000X-0.450000X0.350000X0.450000X-0.350000X0.450000X0*%
G04 APERTURE END LIST*
D10*
X122500000Y-130000000D03*
X120500000Y-130000000D03*
D11*
X141450000Y-142000000D03*
X144550000Y-142000000D03*
D12*
X103000000Y-139000000D03*
X103000000Y-134000000D03*
D13*
X119500000Y-141500000D03*
X119500000Y-139500000D03*
D14*
X135500000Y-129950000D03*
D15*
X133000000Y-129950000D03*
X130500000Y-129950000D03*
D16*
X137400000Y-136950000D03*
X128600000Y-136950000D03*
D13*
X117500000Y-117000000D03*
X117500000Y-115000000D03*
D17*
X109000000Y-133462500D03*
X109000000Y-135537500D03*
D18*
X116000000Y-109637500D03*
X116000000Y-111362500D03*
D19*
X158637500Y-113500000D03*
X160362500Y-113500000D03*
D20*
X114000000Y-107500000D03*
X114000000Y-109500000D03*
D21*
X155600000Y-130000000D03*
D22*
X153060000Y-127460000D03*
X153060000Y-132540000D03*
X158140000Y-127460000D03*
X158140000Y-132540000D03*
D23*
X109000000Y-141537500D03*
X109000000Y-139462500D03*
D24*
X159475000Y-103500000D03*
X160068109Y-102068109D03*
X160068109Y-104931891D03*
X161500000Y-101475000D03*
D25*
X161500000Y-103500000D03*
D24*
X161500000Y-105525000D03*
X162931891Y-102068109D03*
X162931891Y-104931891D03*
X163525000Y-103500000D03*
D26*
X108400000Y-104790000D03*
D27*
X108400000Y-102250000D03*
X110940000Y-104790000D03*
X110940000Y-102250000D03*
X113480000Y-104790000D03*
X113480000Y-102250000D03*
X116020000Y-104790000D03*
X116020000Y-102250000D03*
X118560000Y-104790000D03*
X118560000Y-102250000D03*
X121100000Y-104790000D03*
X121100000Y-102250000D03*
X123640000Y-104790000D03*
X123640000Y-102250000D03*
X126180000Y-104790000D03*
X126180000Y-102250000D03*
X128720000Y-104790000D03*
X128720000Y-102250000D03*
X131260000Y-104790000D03*
X131260000Y-102250000D03*
X133800000Y-104790000D03*
X133800000Y-102250000D03*
X136340000Y-104790000D03*
X136340000Y-102250000D03*
X138880000Y-104790000D03*
X138880000Y-102250000D03*
X141420000Y-104790000D03*
X141420000Y-102250000D03*
X143960000Y-104790000D03*
X143960000Y-102250000D03*
X146500000Y-104790000D03*
X146500000Y-102250000D03*
X149040000Y-104790000D03*
X149040000Y-102250000D03*
X151580000Y-104790000D03*
X151580000Y-102250000D03*
X154120000Y-104790000D03*
X154120000Y-102250000D03*
X156660000Y-104790000D03*
X156660000Y-102250000D03*
D28*
X116560000Y-134000000D03*
D29*
X114280000Y-140300000D03*
D28*
X112000000Y-134000000D03*
D13*
X115000000Y-117000000D03*
X115000000Y-115000000D03*
D30*
X155600000Y-123500000D03*
X155600000Y-121500000D03*
X155600000Y-119500000D03*
X155600000Y-117500000D03*
X155600000Y-115500000D03*
X155600000Y-113500000D03*
X155600000Y-111500000D03*
X155600000Y-109500000D03*
X120600000Y-109500000D03*
X120600000Y-111500000D03*
X120600000Y-113500000D03*
X120600000Y-115500000D03*
X120600000Y-117500000D03*
X120600000Y-119500000D03*
X120600000Y-121500000D03*
X120600000Y-123500000D03*
D31*
X141032500Y-114750000D03*
D12*
X162500000Y-119500000D03*
D32*
X108000000Y-112300000D03*
D33*
X102000000Y-112300000D03*
D34*
X105000000Y-117000000D03*
D35*
X122525000Y-132500000D03*
X120475000Y-132500000D03*
D19*
X158637500Y-115500000D03*
X160362500Y-115500000D03*
D36*
X120500000Y-135000000D03*
X122500000Y-135000000D03*
X120500000Y-137500000D03*
X122500000Y-137500000D03*
D18*
X118000000Y-109637500D03*
X118000000Y-111362500D03*
D12*
X103000000Y-129000000D03*
D24*
X101475000Y-103500000D03*
X102068109Y-102068109D03*
X102068109Y-104931891D03*
X103500000Y-101475000D03*
D25*
X103500000Y-103500000D03*
D24*
X103500000Y-105525000D03*
X104931891Y-102068109D03*
X104931891Y-104931891D03*
X105525000Y-103500000D03*
M02*
