G04 #@! TF.GenerationSoftware,KiCad,Pcbnew,7.0.1*
G04 #@! TF.CreationDate,2023-11-13T16:16:04-05:00*
G04 #@! TF.ProjectId,Radio HAT,52616469-6f20-4484-9154-2e6b69636164,v1.1*
G04 #@! TF.SameCoordinates,Original*
G04 #@! TF.FileFunction,Copper,L4,Bot*
G04 #@! TF.FilePolarity,Positive*
%FSLAX46Y46*%
G04 Gerber Fmt 4.6, Leading zero omitted, Abs format (unit mm)*
G04 Created by KiCad (PCBNEW 7.0.1) date 2023-11-13 16:16:04*
%MOMM*%
%LPD*%
G01*
G04 APERTURE LIST*
G04 Aperture macros list*
%AMRoundRect*
0 Rectangle with rounded corners*
0 $1 Rounding radius*
0 $2 $3 $4 $5 $6 $7 $8 $9 X,Y pos of 4 corners*
0 Add a 4 corners polygon primitive as box body*
4,1,4,$2,$3,$4,$5,$6,$7,$8,$9,$2,$3,0*
0 Add four circle primitives for the rounded corners*
1,1,$1+$1,$2,$3*
1,1,$1+$1,$4,$5*
1,1,$1+$1,$6,$7*
1,1,$1+$1,$8,$9*
0 Add four rect primitives between the rounded corners*
20,1,$1+$1,$2,$3,$4,$5,0*
20,1,$1+$1,$4,$5,$6,$7,0*
20,1,$1+$1,$6,$7,$8,$9,0*
20,1,$1+$1,$8,$9,$2,$3,0*%
G04 Aperture macros list end*
G04 #@! TA.AperFunction,ComponentPad*
%ADD10C,2.000000*%
G04 #@! TD*
G04 #@! TA.AperFunction,ComponentPad*
%ADD11R,1.800000X1.800000*%
G04 #@! TD*
G04 #@! TA.AperFunction,ComponentPad*
%ADD12C,1.800000*%
G04 #@! TD*
G04 #@! TA.AperFunction,ComponentPad*
%ADD13RoundRect,0.750000X-0.750000X1.250000X-0.750000X-1.250000X0.750000X-1.250000X0.750000X1.250000X0*%
G04 #@! TD*
G04 #@! TA.AperFunction,ComponentPad*
%ADD14C,2.050000*%
G04 #@! TD*
G04 #@! TA.AperFunction,ComponentPad*
%ADD15C,2.250000*%
G04 #@! TD*
G04 #@! TA.AperFunction,ComponentPad*
%ADD16C,0.800000*%
G04 #@! TD*
G04 #@! TA.AperFunction,ComponentPad*
%ADD17C,5.400000*%
G04 #@! TD*
G04 #@! TA.AperFunction,ComponentPad*
%ADD18R,1.700000X1.700000*%
G04 #@! TD*
G04 #@! TA.AperFunction,ComponentPad*
%ADD19O,1.700000X1.700000*%
G04 #@! TD*
G04 #@! TA.AperFunction,ComponentPad*
%ADD20R,3.500000X3.500000*%
G04 #@! TD*
G04 #@! TA.AperFunction,ComponentPad*
%ADD21RoundRect,0.750000X-0.750000X-1.000000X0.750000X-1.000000X0.750000X1.000000X-0.750000X1.000000X0*%
G04 #@! TD*
G04 #@! TA.AperFunction,ComponentPad*
%ADD22RoundRect,0.875000X-0.875000X-0.875000X0.875000X-0.875000X0.875000X0.875000X-0.875000X0.875000X0*%
G04 #@! TD*
G04 #@! TA.AperFunction,ViaPad*
%ADD23C,0.800000*%
G04 #@! TD*
G04 #@! TA.AperFunction,ViaPad*
%ADD24C,1.200000*%
G04 #@! TD*
G04 APERTURE END LIST*
D10*
X103000000Y-139000000D03*
X103000000Y-134000000D03*
D11*
X135500000Y-129950000D03*
D12*
X133000000Y-129950000D03*
X130500000Y-129950000D03*
D13*
X137400000Y-136950000D03*
X128600000Y-136950000D03*
D14*
X155600000Y-130000000D03*
D15*
X153060000Y-127460000D03*
X153060000Y-132540000D03*
X158140000Y-127460000D03*
X158140000Y-132540000D03*
D16*
X159475000Y-103500000D03*
X160068109Y-102068109D03*
X160068109Y-104931891D03*
X161500000Y-101475000D03*
D17*
X161500000Y-103500000D03*
D16*
X161500000Y-105525000D03*
X162931891Y-102068109D03*
X162931891Y-104931891D03*
X163525000Y-103500000D03*
D18*
X108400000Y-104790000D03*
D19*
X108400000Y-102250000D03*
X110940000Y-104790000D03*
X110940000Y-102250000D03*
X113480000Y-104790000D03*
X113480000Y-102250000D03*
X116020000Y-104790000D03*
X116020000Y-102250000D03*
X118560000Y-104790000D03*
X118560000Y-102250000D03*
X121100000Y-104790000D03*
X121100000Y-102250000D03*
X123640000Y-104790000D03*
X123640000Y-102250000D03*
X126180000Y-104790000D03*
X126180000Y-102250000D03*
X128720000Y-104790000D03*
X128720000Y-102250000D03*
X131260000Y-104790000D03*
X131260000Y-102250000D03*
X133800000Y-104790000D03*
X133800000Y-102250000D03*
X136340000Y-104790000D03*
X136340000Y-102250000D03*
X138880000Y-104790000D03*
X138880000Y-102250000D03*
X141420000Y-104790000D03*
X141420000Y-102250000D03*
X143960000Y-104790000D03*
X143960000Y-102250000D03*
X146500000Y-104790000D03*
X146500000Y-102250000D03*
X149040000Y-104790000D03*
X149040000Y-102250000D03*
X151580000Y-104790000D03*
X151580000Y-102250000D03*
X154120000Y-104790000D03*
X154120000Y-102250000D03*
X156660000Y-104790000D03*
X156660000Y-102250000D03*
D10*
X162500000Y-119500000D03*
D20*
X108000000Y-112300000D03*
D21*
X102000000Y-112300000D03*
D22*
X105000000Y-117000000D03*
D10*
X103000000Y-129000000D03*
D16*
X101475000Y-103500000D03*
X102068109Y-102068109D03*
X102068109Y-104931891D03*
X103500000Y-101475000D03*
D17*
X103500000Y-103500000D03*
D16*
X103500000Y-105525000D03*
X104931891Y-102068109D03*
X104931891Y-104931891D03*
X105525000Y-103500000D03*
D23*
X160000000Y-109000000D03*
X103000000Y-109000000D03*
X111000000Y-114000000D03*
X135000000Y-139000000D03*
D24*
X136000000Y-113000000D03*
D23*
X134000000Y-115000000D03*
X149000000Y-130000000D03*
X105000000Y-144000000D03*
D24*
X146000000Y-113000000D03*
D23*
X132000000Y-124000000D03*
X113000000Y-118000000D03*
X141000000Y-119000000D03*
X164000000Y-107000000D03*
X101000000Y-137000000D03*
X158000000Y-125000000D03*
X159000000Y-122000000D03*
X142000000Y-111000000D03*
X111000000Y-110000000D03*
X153000000Y-124000000D03*
X131000000Y-139000000D03*
X144000000Y-124000000D03*
X162000000Y-115500000D03*
X130000000Y-124000000D03*
X156000000Y-139000000D03*
X152000000Y-129000000D03*
X153000000Y-123000000D03*
X113000000Y-112000000D03*
X116500000Y-112500000D03*
D24*
X118500000Y-123500000D03*
D23*
X123000000Y-109000000D03*
X148000000Y-120000000D03*
X146000000Y-124000000D03*
X145000000Y-119000000D03*
X149000000Y-128000000D03*
X118500000Y-112500000D03*
X164000000Y-109000000D03*
X146000000Y-111000000D03*
X103000000Y-125000000D03*
X124000000Y-124000000D03*
X140000000Y-111000000D03*
X107000000Y-135500000D03*
X152000000Y-122000000D03*
X140000000Y-124000000D03*
X160000000Y-107000000D03*
X161000000Y-134000000D03*
X107000000Y-144000000D03*
X101000000Y-142000000D03*
X159000000Y-123000000D03*
X146000000Y-107000000D03*
X101000000Y-121000000D03*
X144000000Y-111000000D03*
X101000000Y-125000000D03*
D24*
X146000000Y-116500000D03*
D23*
X101000000Y-109000000D03*
X124000000Y-139000000D03*
X153000000Y-121000000D03*
X116000000Y-126000000D03*
X111000000Y-116000000D03*
X158000000Y-130000000D03*
X159000000Y-129000000D03*
X136000000Y-124000000D03*
X150000000Y-122000000D03*
X126000000Y-124000000D03*
X162000000Y-107000000D03*
X118000000Y-126000000D03*
X152000000Y-131000000D03*
X138000000Y-111000000D03*
X161000000Y-132000000D03*
X164000000Y-113500000D03*
X149000000Y-132000000D03*
X116000000Y-130000000D03*
X162000000Y-113500000D03*
X111000000Y-112000000D03*
X152000000Y-130000000D03*
X140000000Y-139000000D03*
X120000000Y-128000000D03*
X113000000Y-122000000D03*
X146000000Y-139000000D03*
X150000000Y-139000000D03*
X148000000Y-122000000D03*
X146000000Y-134000000D03*
X148000000Y-126000000D03*
X128000000Y-124000000D03*
X127000000Y-109000000D03*
D24*
X136000000Y-116500000D03*
D23*
X144000000Y-109000000D03*
D24*
X141000000Y-113000000D03*
D23*
X161000000Y-126000000D03*
X120000000Y-126000000D03*
X104500000Y-111000000D03*
X113000000Y-120000000D03*
X115000000Y-124000000D03*
D24*
X122500000Y-128000000D03*
D23*
X152000000Y-124000000D03*
X118000000Y-130000000D03*
X138000000Y-124000000D03*
X141000000Y-132000000D03*
X142000000Y-126000000D03*
X158000000Y-121000000D03*
X140000000Y-107000000D03*
X152000000Y-139000000D03*
X126000000Y-139000000D03*
X150000000Y-118000000D03*
X146000000Y-122000000D03*
X103000000Y-123000000D03*
X162000000Y-109000000D03*
X161000000Y-124000000D03*
X161000000Y-130000000D03*
X132000000Y-109000000D03*
X150000000Y-124000000D03*
X150000000Y-120000000D03*
X107000000Y-139500000D03*
X164000000Y-111000000D03*
X109000000Y-144000000D03*
X125000000Y-109000000D03*
X101000000Y-123000000D03*
X144000000Y-126000000D03*
X142000000Y-124000000D03*
X134000000Y-124000000D03*
X162000000Y-111000000D03*
X121500000Y-139250000D03*
X133000000Y-139000000D03*
X141000000Y-128000000D03*
X111000000Y-118000000D03*
X142000000Y-134000000D03*
X104500000Y-113000000D03*
X154000000Y-139000000D03*
X159000000Y-131000000D03*
X148000000Y-139000000D03*
X101000000Y-119000000D03*
X161000000Y-128000000D03*
X143000000Y-119000000D03*
X116000000Y-128000000D03*
X158000000Y-139000000D03*
X118000000Y-128000000D03*
X159000000Y-130000000D03*
X153000000Y-122000000D03*
X141000000Y-130000000D03*
X101000000Y-132000000D03*
X118000000Y-132000000D03*
X146000000Y-126000000D03*
X164000000Y-115500000D03*
X153000000Y-125000000D03*
X144000000Y-134000000D03*
X113000000Y-114000000D03*
X152000000Y-125000000D03*
X158000000Y-122000000D03*
X146000000Y-109000000D03*
X159000000Y-124000000D03*
X158000000Y-124000000D03*
X158000000Y-123000000D03*
X148000000Y-134000000D03*
D24*
X141000000Y-116500000D03*
D23*
X159000000Y-125000000D03*
X103000000Y-144000000D03*
X160000000Y-138000000D03*
X113000000Y-116000000D03*
X142000000Y-107000000D03*
X148000000Y-124000000D03*
X152000000Y-123000000D03*
X153000000Y-130000000D03*
X161000000Y-136000000D03*
X103000000Y-121000000D03*
X111000000Y-120000000D03*
X122500000Y-121500000D03*
X153750000Y-113500000D03*
X153750000Y-111500000D03*
X157500000Y-109500000D03*
X122500000Y-113500000D03*
X122500000Y-111500000D03*
X153750000Y-119500000D03*
X122500000Y-115500000D03*
X122500000Y-117500000D03*
X122500000Y-119500000D03*
X153750000Y-117500000D03*
D24*
X144500000Y-138000000D03*
X127000000Y-131500000D03*
G04 #@! TA.AperFunction,Conductor*
G36*
X160108782Y-100398345D02*
G01*
X160154229Y-100444305D01*
X160170373Y-100506891D01*
X160152829Y-100569100D01*
X160106362Y-100614028D01*
X159794815Y-100786213D01*
X159501685Y-100994200D01*
X159420397Y-101066842D01*
X159420396Y-101066843D01*
X161500000Y-103146447D01*
X163933155Y-105579601D01*
X164005803Y-105498310D01*
X164213786Y-105205184D01*
X164385972Y-104893638D01*
X164430900Y-104847171D01*
X164493109Y-104829627D01*
X164555695Y-104845771D01*
X164601655Y-104891218D01*
X164618500Y-104953619D01*
X164618500Y-141996519D01*
X164618305Y-142003472D01*
X164602425Y-142286228D01*
X164600868Y-142300046D01*
X164554015Y-142575804D01*
X164550921Y-142589360D01*
X164473486Y-142858144D01*
X164468893Y-142871270D01*
X164361852Y-143129690D01*
X164355818Y-143142219D01*
X164220514Y-143387031D01*
X164213117Y-143398804D01*
X164051256Y-143626927D01*
X164042586Y-143637799D01*
X163856199Y-143846366D01*
X163846366Y-143856199D01*
X163637799Y-144042586D01*
X163626927Y-144051256D01*
X163398804Y-144213117D01*
X163387031Y-144220514D01*
X163142219Y-144355818D01*
X163129690Y-144361852D01*
X162871270Y-144468893D01*
X162858144Y-144473486D01*
X162589360Y-144550921D01*
X162575804Y-144554015D01*
X162300046Y-144600868D01*
X162286228Y-144602425D01*
X162003472Y-144618305D01*
X161996519Y-144618500D01*
X103003481Y-144618500D01*
X102996528Y-144618305D01*
X102713771Y-144602425D01*
X102699953Y-144600868D01*
X102424195Y-144554015D01*
X102410639Y-144550921D01*
X102141855Y-144473486D01*
X102128729Y-144468893D01*
X101870309Y-144361852D01*
X101857780Y-144355818D01*
X101612968Y-144220514D01*
X101601195Y-144213117D01*
X101373072Y-144051256D01*
X101362200Y-144042586D01*
X101153633Y-143856199D01*
X101143800Y-143846366D01*
X100957413Y-143637799D01*
X100948743Y-143626927D01*
X100786882Y-143398804D01*
X100779485Y-143387031D01*
X100644181Y-143142219D01*
X100638150Y-143129697D01*
X100531105Y-142871269D01*
X100526513Y-142858144D01*
X100449078Y-142589360D01*
X100445984Y-142575804D01*
X100399129Y-142300033D01*
X100397575Y-142286239D01*
X100381695Y-142003472D01*
X100381500Y-141996519D01*
X100381500Y-139000000D01*
X101744722Y-139000000D01*
X101763792Y-139217974D01*
X101763793Y-139217977D01*
X101820425Y-139429330D01*
X101912898Y-139627639D01*
X102038402Y-139806877D01*
X102193123Y-139961598D01*
X102372361Y-140087102D01*
X102570670Y-140179575D01*
X102782023Y-140236207D01*
X103000000Y-140255277D01*
X103217977Y-140236207D01*
X103429330Y-140179575D01*
X103627639Y-140087102D01*
X103806877Y-139961598D01*
X103961598Y-139806877D01*
X104087102Y-139627639D01*
X104179575Y-139429330D01*
X104236207Y-139217977D01*
X104255277Y-139000000D01*
X104236207Y-138782023D01*
X104179575Y-138570670D01*
X104087102Y-138372362D01*
X104007048Y-138258033D01*
X126849500Y-138258033D01*
X126860114Y-138377417D01*
X126916091Y-138573050D01*
X127003617Y-138740610D01*
X127010302Y-138753407D01*
X127138891Y-138911109D01*
X127296593Y-139039698D01*
X127476951Y-139133909D01*
X127672582Y-139189886D01*
X127791963Y-139200500D01*
X129408036Y-139200499D01*
X129527418Y-139189886D01*
X129723049Y-139133909D01*
X129903407Y-139039698D01*
X130061109Y-138911109D01*
X130189698Y-138753407D01*
X130283909Y-138573049D01*
X130339886Y-138377418D01*
X130350500Y-138258037D01*
X130350500Y-138258033D01*
X135649500Y-138258033D01*
X135660114Y-138377417D01*
X135716091Y-138573050D01*
X135803617Y-138740610D01*
X135810302Y-138753407D01*
X135938891Y-138911109D01*
X136096593Y-139039698D01*
X136276951Y-139133909D01*
X136472582Y-139189886D01*
X136591963Y-139200500D01*
X138208036Y-139200499D01*
X138327418Y-139189886D01*
X138523049Y-139133909D01*
X138703407Y-139039698D01*
X138861109Y-138911109D01*
X138989698Y-138753407D01*
X139083909Y-138573049D01*
X139139886Y-138377418D01*
X139150500Y-138258037D01*
X139150500Y-138000000D01*
X143644815Y-138000000D01*
X143663503Y-138177804D01*
X143718749Y-138347835D01*
X143808140Y-138502665D01*
X143927771Y-138635527D01*
X144072403Y-138740610D01*
X144072406Y-138740611D01*
X144072407Y-138740612D01*
X144165418Y-138782023D01*
X144235735Y-138813330D01*
X144410607Y-138850500D01*
X144410609Y-138850500D01*
X144589391Y-138850500D01*
X144589393Y-138850500D01*
X144764264Y-138813330D01*
X144764265Y-138813329D01*
X144764267Y-138813329D01*
X144927593Y-138740612D01*
X145072230Y-138635526D01*
X145191859Y-138502665D01*
X145281250Y-138347835D01*
X145336497Y-138177803D01*
X145355185Y-138000000D01*
X145336497Y-137822197D01*
X145281250Y-137652165D01*
X145281250Y-137652164D01*
X145191859Y-137497334D01*
X145072228Y-137364472D01*
X144927596Y-137259389D01*
X144764264Y-137186669D01*
X144589393Y-137149500D01*
X144589391Y-137149500D01*
X144410609Y-137149500D01*
X144410607Y-137149500D01*
X144235735Y-137186669D01*
X144072408Y-137259387D01*
X143927768Y-137364474D01*
X143808140Y-137497334D01*
X143718749Y-137652164D01*
X143663503Y-137822195D01*
X143644815Y-138000000D01*
X139150500Y-138000000D01*
X139150499Y-135641964D01*
X139139886Y-135522582D01*
X139083909Y-135326951D01*
X138989698Y-135146593D01*
X138861109Y-134988891D01*
X138703407Y-134860302D01*
X138703406Y-134860301D01*
X138523050Y-134766091D01*
X138425233Y-134738102D01*
X138327418Y-134710114D01*
X138208037Y-134699500D01*
X138208033Y-134699500D01*
X136591966Y-134699500D01*
X136472582Y-134710114D01*
X136276949Y-134766091D01*
X136096593Y-134860301D01*
X135938891Y-134988891D01*
X135810301Y-135146593D01*
X135716091Y-135326949D01*
X135660114Y-135522582D01*
X135649500Y-135641966D01*
X135649500Y-138258033D01*
X130350500Y-138258033D01*
X130350499Y-135641964D01*
X130339886Y-135522582D01*
X130283909Y-135326951D01*
X130189698Y-135146593D01*
X130061109Y-134988891D01*
X129903407Y-134860302D01*
X129903406Y-134860301D01*
X129723050Y-134766091D01*
X129625233Y-134738102D01*
X129527418Y-134710114D01*
X129408037Y-134699500D01*
X129408033Y-134699500D01*
X127791966Y-134699500D01*
X127672582Y-134710114D01*
X127476949Y-134766091D01*
X127296593Y-134860301D01*
X127138891Y-134988891D01*
X127010301Y-135146593D01*
X126916091Y-135326949D01*
X126860114Y-135522582D01*
X126849500Y-135641966D01*
X126849500Y-138258033D01*
X104007048Y-138258033D01*
X103961598Y-138193123D01*
X103806877Y-138038402D01*
X103627639Y-137912898D01*
X103536205Y-137870261D01*
X103429331Y-137820425D01*
X103217974Y-137763792D01*
X103000000Y-137744722D01*
X102782025Y-137763792D01*
X102570668Y-137820425D01*
X102372361Y-137912898D01*
X102193122Y-138038402D01*
X102038402Y-138193122D01*
X101912898Y-138372361D01*
X101820425Y-138570668D01*
X101763792Y-138782025D01*
X101744722Y-139000000D01*
X100381500Y-139000000D01*
X100381500Y-135223610D01*
X102129942Y-135223610D01*
X102176766Y-135260055D01*
X102395393Y-135378368D01*
X102630506Y-135459083D01*
X102875707Y-135500000D01*
X103124293Y-135500000D01*
X103369493Y-135459083D01*
X103604606Y-135378368D01*
X103823233Y-135260053D01*
X103870056Y-135223609D01*
X103000000Y-134353553D01*
X102129942Y-135223609D01*
X102129942Y-135223610D01*
X100381500Y-135223610D01*
X100381500Y-134000000D01*
X101494858Y-134000000D01*
X101515386Y-134247732D01*
X101576413Y-134488721D01*
X101676268Y-134716370D01*
X101776563Y-134869882D01*
X101776564Y-134869882D01*
X102646447Y-134000001D01*
X103353553Y-134000001D01*
X104223434Y-134869882D01*
X104323730Y-134716369D01*
X104423586Y-134488721D01*
X104484613Y-134247732D01*
X104505141Y-134000000D01*
X104493164Y-133855465D01*
X152098087Y-133855465D01*
X152101895Y-133858718D01*
X152319982Y-133992361D01*
X152556294Y-134090246D01*
X152805006Y-134149956D01*
X153060000Y-134170024D01*
X153314993Y-134149956D01*
X153563705Y-134090246D01*
X153800012Y-133992363D01*
X154018108Y-133858715D01*
X154021911Y-133855465D01*
X157178087Y-133855465D01*
X157181895Y-133858718D01*
X157399982Y-133992361D01*
X157636294Y-134090246D01*
X157885006Y-134149956D01*
X158140000Y-134170024D01*
X158394993Y-134149956D01*
X158643705Y-134090246D01*
X158880012Y-133992363D01*
X159098108Y-133858715D01*
X159101911Y-133855465D01*
X159101912Y-133855464D01*
X158140000Y-132893553D01*
X157178087Y-133855464D01*
X157178087Y-133855465D01*
X154021911Y-133855465D01*
X154021912Y-133855464D01*
X153060000Y-132893553D01*
X152098087Y-133855464D01*
X152098087Y-133855465D01*
X104493164Y-133855465D01*
X104484613Y-133752267D01*
X104423586Y-133511278D01*
X104323730Y-133283630D01*
X104223434Y-133130116D01*
X103353553Y-134000000D01*
X103353553Y-134000001D01*
X102646447Y-134000001D01*
X102646447Y-134000000D01*
X101776564Y-133130116D01*
X101676266Y-133283634D01*
X101576413Y-133511278D01*
X101515386Y-133752267D01*
X101494858Y-134000000D01*
X100381500Y-134000000D01*
X100381500Y-132776390D01*
X102129942Y-132776390D01*
X103000000Y-133646447D01*
X103000001Y-133646447D01*
X103870057Y-132776390D01*
X103870056Y-132776388D01*
X103823235Y-132739947D01*
X103604606Y-132621631D01*
X103369493Y-132540916D01*
X103364004Y-132540000D01*
X151429975Y-132540000D01*
X151450043Y-132794993D01*
X151509753Y-133043705D01*
X151607636Y-133280012D01*
X151741284Y-133498108D01*
X151744533Y-133501911D01*
X151744535Y-133501911D01*
X152706447Y-132540001D01*
X153413553Y-132540001D01*
X154375464Y-133501912D01*
X154375465Y-133501911D01*
X154378715Y-133498108D01*
X154512363Y-133280012D01*
X154610246Y-133043705D01*
X154669956Y-132794993D01*
X154690024Y-132540000D01*
X156509975Y-132540000D01*
X156530043Y-132794993D01*
X156589753Y-133043705D01*
X156687636Y-133280012D01*
X156821284Y-133498108D01*
X156824533Y-133501911D01*
X156824535Y-133501911D01*
X157786447Y-132540001D01*
X157786447Y-132540000D01*
X158493553Y-132540000D01*
X159455464Y-133501912D01*
X159455465Y-133501911D01*
X159458715Y-133498108D01*
X159592363Y-133280012D01*
X159690246Y-133043705D01*
X159749956Y-132794993D01*
X159770024Y-132540000D01*
X159749956Y-132285006D01*
X159690246Y-132036294D01*
X159592361Y-131799982D01*
X159458718Y-131581895D01*
X159455465Y-131578087D01*
X159455464Y-131578087D01*
X158493553Y-132540000D01*
X157786447Y-132540000D01*
X157786447Y-132539999D01*
X156824534Y-131578087D01*
X156824533Y-131578087D01*
X156821281Y-131581895D01*
X156687638Y-131799982D01*
X156589753Y-132036294D01*
X156530043Y-132285006D01*
X156509975Y-132540000D01*
X154690024Y-132540000D01*
X154669956Y-132285006D01*
X154610246Y-132036294D01*
X154512361Y-131799982D01*
X154378718Y-131581895D01*
X154375465Y-131578087D01*
X154375464Y-131578087D01*
X153413553Y-132540000D01*
X153413553Y-132540001D01*
X152706447Y-132540001D01*
X152706447Y-132539999D01*
X151744534Y-131578087D01*
X151744533Y-131578087D01*
X151741281Y-131581895D01*
X151607638Y-131799982D01*
X151509753Y-132036294D01*
X151450043Y-132285006D01*
X151429975Y-132540000D01*
X103364004Y-132540000D01*
X103124293Y-132500000D01*
X102875707Y-132500000D01*
X102630506Y-132540916D01*
X102395393Y-132621631D01*
X102176764Y-132739946D01*
X102129942Y-132776388D01*
X102129942Y-132776390D01*
X100381500Y-132776390D01*
X100381500Y-131499999D01*
X126144815Y-131499999D01*
X126163503Y-131677804D01*
X126218749Y-131847835D01*
X126308140Y-132002665D01*
X126427771Y-132135527D01*
X126572403Y-132240610D01*
X126735735Y-132313330D01*
X126910607Y-132350500D01*
X126910609Y-132350500D01*
X127089391Y-132350500D01*
X127089393Y-132350500D01*
X127264264Y-132313330D01*
X127264265Y-132313329D01*
X127264267Y-132313329D01*
X127427593Y-132240612D01*
X127572230Y-132135526D01*
X127691859Y-132002665D01*
X127781250Y-131847835D01*
X127836497Y-131677803D01*
X127855185Y-131500000D01*
X127836497Y-131322197D01*
X127781250Y-131152165D01*
X127781250Y-131152164D01*
X127691859Y-130997334D01*
X127572228Y-130864472D01*
X127427596Y-130759389D01*
X127264264Y-130686669D01*
X127089393Y-130649500D01*
X127089391Y-130649500D01*
X126910609Y-130649500D01*
X126910607Y-130649500D01*
X126735735Y-130686669D01*
X126572408Y-130759387D01*
X126427768Y-130864474D01*
X126308140Y-130997334D01*
X126218749Y-131152164D01*
X126163503Y-131322195D01*
X126144815Y-131499999D01*
X100381500Y-131499999D01*
X100381500Y-128999999D01*
X101744722Y-128999999D01*
X101763792Y-129217974D01*
X101801798Y-129359816D01*
X101820425Y-129429330D01*
X101912898Y-129627639D01*
X102038402Y-129806877D01*
X102193123Y-129961598D01*
X102372361Y-130087102D01*
X102570670Y-130179575D01*
X102782023Y-130236207D01*
X103000000Y-130255277D01*
X103217977Y-130236207D01*
X103429330Y-130179575D01*
X103627639Y-130087102D01*
X103806877Y-129961598D01*
X103818475Y-129950000D01*
X129344571Y-129950000D01*
X129364243Y-130162310D01*
X129422595Y-130367390D01*
X129517631Y-130558252D01*
X129646126Y-130728405D01*
X129646128Y-130728407D01*
X129803698Y-130872052D01*
X129984981Y-130984298D01*
X130183802Y-131061321D01*
X130393390Y-131100500D01*
X130606608Y-131100500D01*
X130606610Y-131100500D01*
X130816198Y-131061321D01*
X131015019Y-130984298D01*
X131196302Y-130872052D01*
X131353872Y-130728407D01*
X131482366Y-130558255D01*
X131482366Y-130558253D01*
X131482368Y-130558252D01*
X131542288Y-130437914D01*
X131577405Y-130367389D01*
X131630733Y-130179961D01*
X131663133Y-130125408D01*
X131718276Y-130094023D01*
X131781724Y-130094023D01*
X131836867Y-130125408D01*
X131869266Y-130179961D01*
X131922595Y-130367390D01*
X132017631Y-130558252D01*
X132146126Y-130728405D01*
X132146128Y-130728407D01*
X132303698Y-130872052D01*
X132484981Y-130984298D01*
X132683802Y-131061321D01*
X132893390Y-131100500D01*
X133106608Y-131100500D01*
X133106610Y-131100500D01*
X133316198Y-131061321D01*
X133515019Y-130984298D01*
X133696302Y-130872052D01*
X133853872Y-130728407D01*
X133877045Y-130697720D01*
X133924868Y-130659480D01*
X133985158Y-130648786D01*
X134043215Y-130668244D01*
X134084882Y-130713112D01*
X134100000Y-130772447D01*
X134100000Y-130897824D01*
X134106402Y-130957375D01*
X134156647Y-131092089D01*
X134242811Y-131207188D01*
X134357910Y-131293352D01*
X134492624Y-131343597D01*
X134552176Y-131350000D01*
X135250000Y-131350000D01*
X135250000Y-130200000D01*
X135750000Y-130200000D01*
X135750000Y-131350000D01*
X136447824Y-131350000D01*
X136507375Y-131343597D01*
X136642089Y-131293352D01*
X136734017Y-131224534D01*
X152098087Y-131224534D01*
X153060000Y-132186447D01*
X153060001Y-132186447D01*
X154021911Y-131224535D01*
X154021911Y-131224533D01*
X154018108Y-131221284D01*
X153800012Y-131087636D01*
X153563705Y-130989753D01*
X153314993Y-130930043D01*
X153060000Y-130909975D01*
X152805006Y-130930043D01*
X152556294Y-130989753D01*
X152319982Y-131087638D01*
X152101895Y-131221281D01*
X152098087Y-131224533D01*
X152098087Y-131224534D01*
X136734017Y-131224534D01*
X136757188Y-131207188D01*
X136843352Y-131092089D01*
X136893597Y-130957375D01*
X136900000Y-130897824D01*
X136900000Y-130200000D01*
X135750000Y-130200000D01*
X135250000Y-130200000D01*
X135250000Y-129999999D01*
X154319627Y-129999999D01*
X154339079Y-130222331D01*
X154339080Y-130222334D01*
X154396844Y-130437913D01*
X154491165Y-130640186D01*
X154619178Y-130823007D01*
X154776993Y-130980822D01*
X154959814Y-131108835D01*
X155162087Y-131203156D01*
X155377666Y-131260920D01*
X155600000Y-131280372D01*
X155822334Y-131260920D01*
X155958129Y-131224534D01*
X157178087Y-131224534D01*
X158140000Y-132186447D01*
X158140001Y-132186447D01*
X159101911Y-131224535D01*
X159101911Y-131224533D01*
X159098108Y-131221284D01*
X158880012Y-131087636D01*
X158643705Y-130989753D01*
X158394993Y-130930043D01*
X158140000Y-130909975D01*
X157885006Y-130930043D01*
X157636294Y-130989753D01*
X157399982Y-131087638D01*
X157181895Y-131221281D01*
X157178087Y-131224533D01*
X157178087Y-131224534D01*
X155958129Y-131224534D01*
X156037913Y-131203156D01*
X156240186Y-131108835D01*
X156423007Y-130980822D01*
X156580822Y-130823007D01*
X156708835Y-130640186D01*
X156803156Y-130437913D01*
X156860920Y-130222334D01*
X156880372Y-130000000D01*
X156860920Y-129777666D01*
X156803156Y-129562087D01*
X156708835Y-129359814D01*
X156580822Y-129176993D01*
X156423007Y-129019178D01*
X156240186Y-128891165D01*
X156127629Y-128838679D01*
X156037914Y-128796844D01*
X155958126Y-128775465D01*
X157178087Y-128775465D01*
X157181895Y-128778718D01*
X157399982Y-128912361D01*
X157636294Y-129010246D01*
X157885006Y-129069956D01*
X158140000Y-129090024D01*
X158394993Y-129069956D01*
X158643705Y-129010246D01*
X158880012Y-128912363D01*
X159098108Y-128778715D01*
X159101911Y-128775465D01*
X159101912Y-128775464D01*
X158140000Y-127813553D01*
X157178087Y-128775464D01*
X157178087Y-128775465D01*
X155958126Y-128775465D01*
X155822331Y-128739079D01*
X155600000Y-128719627D01*
X155377668Y-128739079D01*
X155162085Y-128796844D01*
X154959816Y-128891164D01*
X154959814Y-128891165D01*
X154789749Y-129010246D01*
X154776989Y-129019181D01*
X154619181Y-129176989D01*
X154619178Y-129176992D01*
X154619178Y-129176993D01*
X154580833Y-129231756D01*
X154491164Y-129359816D01*
X154396844Y-129562085D01*
X154339079Y-129777668D01*
X154319627Y-129999999D01*
X135250000Y-129999999D01*
X135250000Y-128550000D01*
X135750000Y-128550000D01*
X135750000Y-129700000D01*
X136900000Y-129700000D01*
X136900000Y-129002176D01*
X136893597Y-128942624D01*
X136843352Y-128807910D01*
X136819063Y-128775465D01*
X152098087Y-128775465D01*
X152101895Y-128778718D01*
X152319982Y-128912361D01*
X152556294Y-129010246D01*
X152805006Y-129069956D01*
X153060000Y-129090024D01*
X153314993Y-129069956D01*
X153563705Y-129010246D01*
X153800012Y-128912363D01*
X154018108Y-128778715D01*
X154021911Y-128775465D01*
X154021912Y-128775464D01*
X153060000Y-127813553D01*
X152098087Y-128775464D01*
X152098087Y-128775465D01*
X136819063Y-128775465D01*
X136757188Y-128692811D01*
X136642089Y-128606647D01*
X136507375Y-128556402D01*
X136447824Y-128550000D01*
X135750000Y-128550000D01*
X135250000Y-128550000D01*
X134552176Y-128550000D01*
X134492624Y-128556402D01*
X134357910Y-128606647D01*
X134242811Y-128692811D01*
X134156647Y-128807910D01*
X134106402Y-128942624D01*
X134100000Y-129002176D01*
X134100000Y-129127553D01*
X134084882Y-129186888D01*
X134043215Y-129231756D01*
X133985158Y-129251214D01*
X133924868Y-129240520D01*
X133877046Y-129202280D01*
X133853873Y-129171594D01*
X133696301Y-129027947D01*
X133515017Y-128915701D01*
X133316198Y-128838679D01*
X133106610Y-128799500D01*
X132893390Y-128799500D01*
X132753664Y-128825619D01*
X132683801Y-128838679D01*
X132484982Y-128915701D01*
X132303698Y-129027947D01*
X132146126Y-129171594D01*
X132017631Y-129341747D01*
X131922595Y-129532609D01*
X131869266Y-129720038D01*
X131836867Y-129774591D01*
X131781724Y-129805976D01*
X131718276Y-129805976D01*
X131663133Y-129774591D01*
X131630734Y-129720038D01*
X131577404Y-129532609D01*
X131482368Y-129341747D01*
X131353873Y-129171594D01*
X131196301Y-129027947D01*
X131015017Y-128915701D01*
X130816198Y-128838679D01*
X130606610Y-128799500D01*
X130393390Y-128799500D01*
X130253664Y-128825619D01*
X130183801Y-128838679D01*
X129984982Y-128915701D01*
X129803698Y-129027947D01*
X129646126Y-129171594D01*
X129517631Y-129341747D01*
X129422595Y-129532609D01*
X129364243Y-129737689D01*
X129344571Y-129950000D01*
X103818475Y-129950000D01*
X103961598Y-129806877D01*
X104087102Y-129627639D01*
X104179575Y-129429330D01*
X104236207Y-129217977D01*
X104255277Y-129000000D01*
X104236207Y-128782023D01*
X104179575Y-128570670D01*
X104087102Y-128372362D01*
X103961598Y-128193123D01*
X103806877Y-128038402D01*
X103627639Y-127912898D01*
X103536205Y-127870261D01*
X103429331Y-127820425D01*
X103217974Y-127763792D01*
X103000000Y-127744722D01*
X102782025Y-127763792D01*
X102570668Y-127820425D01*
X102372361Y-127912898D01*
X102193122Y-128038402D01*
X102038402Y-128193122D01*
X101912898Y-128372361D01*
X101820425Y-128570668D01*
X101763792Y-128782025D01*
X101744722Y-128999999D01*
X100381500Y-128999999D01*
X100381500Y-127459999D01*
X151429975Y-127459999D01*
X151450043Y-127714993D01*
X151509753Y-127963705D01*
X151607636Y-128200012D01*
X151741284Y-128418108D01*
X151744533Y-128421911D01*
X151744535Y-128421911D01*
X152706447Y-127460001D01*
X153413553Y-127460001D01*
X154375464Y-128421912D01*
X154375465Y-128421911D01*
X154378715Y-128418108D01*
X154512363Y-128200012D01*
X154610246Y-127963705D01*
X154669956Y-127714993D01*
X154690024Y-127459999D01*
X156509975Y-127459999D01*
X156530043Y-127714993D01*
X156589753Y-127963705D01*
X156687636Y-128200012D01*
X156821284Y-128418108D01*
X156824533Y-128421911D01*
X156824535Y-128421911D01*
X157786447Y-127460001D01*
X157786447Y-127460000D01*
X158493553Y-127460000D01*
X159455464Y-128421912D01*
X159455465Y-128421911D01*
X159458715Y-128418108D01*
X159592363Y-128200012D01*
X159690246Y-127963705D01*
X159749956Y-127714993D01*
X159770024Y-127459999D01*
X159749956Y-127205006D01*
X159690246Y-126956294D01*
X159592361Y-126719982D01*
X159458718Y-126501895D01*
X159455465Y-126498087D01*
X159455464Y-126498087D01*
X158493553Y-127460000D01*
X157786447Y-127460000D01*
X157786447Y-127459999D01*
X156824534Y-126498087D01*
X156824533Y-126498087D01*
X156821281Y-126501895D01*
X156687638Y-126719982D01*
X156589753Y-126956294D01*
X156530043Y-127205006D01*
X156509975Y-127459999D01*
X154690024Y-127459999D01*
X154669956Y-127205006D01*
X154610246Y-126956294D01*
X154512361Y-126719982D01*
X154378718Y-126501895D01*
X154375465Y-126498087D01*
X154375464Y-126498087D01*
X153413553Y-127460000D01*
X153413553Y-127460001D01*
X152706447Y-127460001D01*
X152706447Y-127459999D01*
X151744534Y-126498087D01*
X151744533Y-126498087D01*
X151741281Y-126501895D01*
X151607638Y-126719982D01*
X151509753Y-126956294D01*
X151450043Y-127205006D01*
X151429975Y-127459999D01*
X100381500Y-127459999D01*
X100381500Y-126144534D01*
X152098087Y-126144534D01*
X153060000Y-127106447D01*
X153060001Y-127106447D01*
X154021911Y-126144535D01*
X154021911Y-126144534D01*
X157178087Y-126144534D01*
X158140000Y-127106447D01*
X158140001Y-127106447D01*
X159101911Y-126144535D01*
X159101911Y-126144533D01*
X159098108Y-126141284D01*
X158880012Y-126007636D01*
X158643705Y-125909753D01*
X158394993Y-125850043D01*
X158140000Y-125829975D01*
X157885006Y-125850043D01*
X157636294Y-125909753D01*
X157399982Y-126007638D01*
X157181895Y-126141281D01*
X157178087Y-126144533D01*
X157178087Y-126144534D01*
X154021911Y-126144534D01*
X154021911Y-126144533D01*
X154018108Y-126141284D01*
X153800012Y-126007636D01*
X153563705Y-125909753D01*
X153314993Y-125850043D01*
X153060000Y-125829975D01*
X152805006Y-125850043D01*
X152556294Y-125909753D01*
X152319982Y-126007638D01*
X152101895Y-126141281D01*
X152098087Y-126144533D01*
X152098087Y-126144534D01*
X100381500Y-126144534D01*
X100381500Y-121500000D01*
X121844721Y-121500000D01*
X121863763Y-121656818D01*
X121919780Y-121804523D01*
X122009515Y-121934528D01*
X122009516Y-121934529D01*
X122009517Y-121934530D01*
X122127760Y-122039283D01*
X122267635Y-122112696D01*
X122421015Y-122150500D01*
X122578985Y-122150500D01*
X122732365Y-122112696D01*
X122872240Y-122039283D01*
X122990483Y-121934530D01*
X123080220Y-121804523D01*
X123136237Y-121656818D01*
X123155278Y-121500000D01*
X123136237Y-121343182D01*
X123080220Y-121195477D01*
X122990483Y-121065470D01*
X122872240Y-120960717D01*
X122858994Y-120953764D01*
X122732364Y-120887303D01*
X122578985Y-120849500D01*
X122421015Y-120849500D01*
X122267635Y-120887303D01*
X122127761Y-120960716D01*
X122009515Y-121065471D01*
X121919780Y-121195476D01*
X121863763Y-121343181D01*
X121844721Y-121500000D01*
X100381500Y-121500000D01*
X100381500Y-119500000D01*
X121844721Y-119500000D01*
X121863763Y-119656818D01*
X121919780Y-119804523D01*
X122009515Y-119934528D01*
X122009516Y-119934529D01*
X122009517Y-119934530D01*
X122127760Y-120039283D01*
X122267635Y-120112696D01*
X122421015Y-120150500D01*
X122578985Y-120150500D01*
X122732365Y-120112696D01*
X122872240Y-120039283D01*
X122990483Y-119934530D01*
X123080220Y-119804523D01*
X123136237Y-119656818D01*
X123155278Y-119500000D01*
X153094721Y-119500000D01*
X153113763Y-119656818D01*
X153169780Y-119804523D01*
X153259515Y-119934528D01*
X153259516Y-119934529D01*
X153259517Y-119934530D01*
X153377760Y-120039283D01*
X153517635Y-120112696D01*
X153671015Y-120150500D01*
X153828985Y-120150500D01*
X153982365Y-120112696D01*
X154122240Y-120039283D01*
X154240483Y-119934530D01*
X154330220Y-119804523D01*
X154386237Y-119656818D01*
X154405278Y-119500000D01*
X161244722Y-119500000D01*
X161263792Y-119717974D01*
X161320425Y-119929331D01*
X161370261Y-120036205D01*
X161412898Y-120127639D01*
X161538402Y-120306877D01*
X161693123Y-120461598D01*
X161872361Y-120587102D01*
X162070670Y-120679575D01*
X162282023Y-120736207D01*
X162500000Y-120755277D01*
X162717977Y-120736207D01*
X162929330Y-120679575D01*
X163127639Y-120587102D01*
X163306877Y-120461598D01*
X163461598Y-120306877D01*
X163587102Y-120127639D01*
X163679575Y-119929330D01*
X163736207Y-119717977D01*
X163755277Y-119500000D01*
X163736207Y-119282023D01*
X163679575Y-119070670D01*
X163587102Y-118872362D01*
X163461598Y-118693123D01*
X163306877Y-118538402D01*
X163127639Y-118412898D01*
X163036205Y-118370261D01*
X162929331Y-118320425D01*
X162717974Y-118263792D01*
X162500000Y-118244722D01*
X162282025Y-118263792D01*
X162070668Y-118320425D01*
X161872361Y-118412898D01*
X161693122Y-118538402D01*
X161538402Y-118693122D01*
X161412898Y-118872361D01*
X161320425Y-119070668D01*
X161263792Y-119282025D01*
X161244722Y-119500000D01*
X154405278Y-119500000D01*
X154386237Y-119343182D01*
X154330220Y-119195477D01*
X154285351Y-119130473D01*
X154240484Y-119065471D01*
X154167146Y-119000500D01*
X154122240Y-118960717D01*
X154105506Y-118951934D01*
X153982364Y-118887303D01*
X153828985Y-118849500D01*
X153671015Y-118849500D01*
X153517635Y-118887303D01*
X153377761Y-118960716D01*
X153259515Y-119065471D01*
X153169780Y-119195476D01*
X153113763Y-119343181D01*
X153094721Y-119500000D01*
X123155278Y-119500000D01*
X123136237Y-119343182D01*
X123080220Y-119195477D01*
X123035351Y-119130473D01*
X122990484Y-119065471D01*
X122917146Y-119000500D01*
X122872240Y-118960717D01*
X122855506Y-118951934D01*
X122732364Y-118887303D01*
X122578985Y-118849500D01*
X122421015Y-118849500D01*
X122267635Y-118887303D01*
X122127761Y-118960716D01*
X122009515Y-119065471D01*
X121919780Y-119195476D01*
X121863763Y-119343181D01*
X121844721Y-119500000D01*
X100381500Y-119500000D01*
X100381500Y-117960940D01*
X102999500Y-117960940D01*
X103002376Y-118009229D01*
X103048065Y-118219258D01*
X103132679Y-118416848D01*
X103253157Y-118594856D01*
X103405143Y-118746842D01*
X103498151Y-118809790D01*
X103583152Y-118867321D01*
X103780741Y-118951934D01*
X103990774Y-118997624D01*
X104039052Y-119000500D01*
X105960940Y-119000500D01*
X105960948Y-119000500D01*
X106009226Y-118997624D01*
X106219259Y-118951934D01*
X106416848Y-118867321D01*
X106594855Y-118746843D01*
X106746843Y-118594855D01*
X106867321Y-118416848D01*
X106951934Y-118219259D01*
X106997624Y-118009226D01*
X107000500Y-117960948D01*
X107000500Y-117500000D01*
X121844721Y-117500000D01*
X121863763Y-117656818D01*
X121919780Y-117804523D01*
X122009515Y-117934528D01*
X122009516Y-117934529D01*
X122009517Y-117934530D01*
X122127760Y-118039283D01*
X122267635Y-118112696D01*
X122421015Y-118150500D01*
X122578985Y-118150500D01*
X122732365Y-118112696D01*
X122872240Y-118039283D01*
X122990483Y-117934530D01*
X123080220Y-117804523D01*
X123136237Y-117656818D01*
X123155278Y-117500000D01*
X153094721Y-117500000D01*
X153113763Y-117656818D01*
X153169780Y-117804523D01*
X153259515Y-117934528D01*
X153259516Y-117934529D01*
X153259517Y-117934530D01*
X153377760Y-118039283D01*
X153517635Y-118112696D01*
X153671015Y-118150500D01*
X153828985Y-118150500D01*
X153982365Y-118112696D01*
X154122240Y-118039283D01*
X154240483Y-117934530D01*
X154330220Y-117804523D01*
X154386237Y-117656818D01*
X154405278Y-117500000D01*
X154386237Y-117343182D01*
X154330220Y-117195477D01*
X154240483Y-117065470D01*
X154122240Y-116960717D01*
X154108994Y-116953764D01*
X153982364Y-116887303D01*
X153828985Y-116849500D01*
X153671015Y-116849500D01*
X153517635Y-116887303D01*
X153377761Y-116960716D01*
X153259515Y-117065471D01*
X153169780Y-117195476D01*
X153113763Y-117343181D01*
X153094721Y-117500000D01*
X123155278Y-117500000D01*
X123136237Y-117343182D01*
X123080220Y-117195477D01*
X122990483Y-117065470D01*
X122872240Y-116960717D01*
X122858994Y-116953764D01*
X122732364Y-116887303D01*
X122578985Y-116849500D01*
X122421015Y-116849500D01*
X122267635Y-116887303D01*
X122127761Y-116960716D01*
X122009515Y-117065471D01*
X121919780Y-117195476D01*
X121863763Y-117343181D01*
X121844721Y-117500000D01*
X107000500Y-117500000D01*
X107000500Y-116039052D01*
X106997624Y-115990774D01*
X106951934Y-115780741D01*
X106867321Y-115583152D01*
X106811042Y-115499999D01*
X121844721Y-115499999D01*
X121863763Y-115656818D01*
X121919780Y-115804523D01*
X122009515Y-115934528D01*
X122009516Y-115934529D01*
X122009517Y-115934530D01*
X122127760Y-116039283D01*
X122267635Y-116112696D01*
X122421015Y-116150500D01*
X122578985Y-116150500D01*
X122732365Y-116112696D01*
X122872240Y-116039283D01*
X122990483Y-115934530D01*
X123080220Y-115804523D01*
X123136237Y-115656818D01*
X123155278Y-115500000D01*
X123136237Y-115343182D01*
X123080220Y-115195477D01*
X122990483Y-115065470D01*
X122872240Y-114960717D01*
X122858994Y-114953765D01*
X122732364Y-114887303D01*
X122578985Y-114849500D01*
X122421015Y-114849500D01*
X122267635Y-114887303D01*
X122127761Y-114960716D01*
X122009515Y-115065471D01*
X121919780Y-115195476D01*
X121863763Y-115343181D01*
X121844721Y-115499999D01*
X106811042Y-115499999D01*
X106746843Y-115405145D01*
X106746842Y-115405143D01*
X106594856Y-115253157D01*
X106416848Y-115132679D01*
X106219258Y-115048065D01*
X106009229Y-115002376D01*
X105996059Y-115001591D01*
X105960948Y-114999500D01*
X104039052Y-114999500D01*
X104006866Y-115001417D01*
X103990770Y-115002376D01*
X103780741Y-115048065D01*
X103583151Y-115132679D01*
X103405143Y-115253157D01*
X103253157Y-115405143D01*
X103132679Y-115583151D01*
X103048065Y-115780741D01*
X103002376Y-115990770D01*
X102999500Y-116039060D01*
X102999500Y-117960940D01*
X100381500Y-117960940D01*
X100381500Y-114455737D01*
X100399411Y-114391541D01*
X100447969Y-114345891D01*
X100513147Y-114331973D01*
X100576115Y-114353808D01*
X100630621Y-114391569D01*
X100835481Y-114484622D01*
X101053667Y-114539599D01*
X101185812Y-114550000D01*
X101750000Y-114550000D01*
X101750000Y-112550000D01*
X102250000Y-112550000D01*
X102250000Y-114549999D01*
X102814188Y-114549999D01*
X102946331Y-114539599D01*
X103164518Y-114484622D01*
X103369379Y-114391569D01*
X103554332Y-114263434D01*
X103713434Y-114104332D01*
X103733980Y-114074675D01*
X105999500Y-114074675D01*
X106014033Y-114147738D01*
X106014033Y-114147739D01*
X106014034Y-114147740D01*
X106069399Y-114230601D01*
X106152260Y-114285966D01*
X106188793Y-114293233D01*
X106225325Y-114300500D01*
X106225326Y-114300500D01*
X109774674Y-114300500D01*
X109774675Y-114300500D01*
X109799029Y-114295655D01*
X109847740Y-114285966D01*
X109930601Y-114230601D01*
X109985966Y-114147740D01*
X110000500Y-114074674D01*
X110000500Y-113500000D01*
X121844721Y-113500000D01*
X121863763Y-113656818D01*
X121919780Y-113804523D01*
X122009515Y-113934528D01*
X122009516Y-113934529D01*
X122009517Y-113934530D01*
X122127760Y-114039283D01*
X122267635Y-114112696D01*
X122421015Y-114150500D01*
X122578985Y-114150500D01*
X122732365Y-114112696D01*
X122872240Y-114039283D01*
X122990483Y-113934530D01*
X123080220Y-113804523D01*
X123136237Y-113656818D01*
X123155278Y-113500000D01*
X153094721Y-113500000D01*
X153113763Y-113656818D01*
X153169780Y-113804523D01*
X153259515Y-113934528D01*
X153259516Y-113934529D01*
X153259517Y-113934530D01*
X153377760Y-114039283D01*
X153517635Y-114112696D01*
X153671015Y-114150500D01*
X153828985Y-114150500D01*
X153982365Y-114112696D01*
X154122240Y-114039283D01*
X154240483Y-113934530D01*
X154330220Y-113804523D01*
X154386237Y-113656818D01*
X154405278Y-113500000D01*
X154386237Y-113343182D01*
X154330220Y-113195477D01*
X154240483Y-113065470D01*
X154122240Y-112960717D01*
X154108994Y-112953764D01*
X153982364Y-112887303D01*
X153828985Y-112849500D01*
X153671015Y-112849500D01*
X153517635Y-112887303D01*
X153377761Y-112960716D01*
X153259515Y-113065471D01*
X153169780Y-113195476D01*
X153113763Y-113343181D01*
X153094721Y-113500000D01*
X123155278Y-113500000D01*
X123136237Y-113343182D01*
X123080220Y-113195477D01*
X122990483Y-113065470D01*
X122872240Y-112960717D01*
X122858994Y-112953764D01*
X122732364Y-112887303D01*
X122578985Y-112849500D01*
X122421015Y-112849500D01*
X122267635Y-112887303D01*
X122127761Y-112960716D01*
X122009515Y-113065471D01*
X121919780Y-113195476D01*
X121863763Y-113343181D01*
X121844721Y-113500000D01*
X110000500Y-113500000D01*
X110000500Y-111500000D01*
X121844721Y-111500000D01*
X121863763Y-111656818D01*
X121919780Y-111804523D01*
X122009515Y-111934528D01*
X122009516Y-111934529D01*
X122009517Y-111934530D01*
X122127760Y-112039283D01*
X122267635Y-112112696D01*
X122421015Y-112150500D01*
X122578985Y-112150500D01*
X122732365Y-112112696D01*
X122872240Y-112039283D01*
X122990483Y-111934530D01*
X123080220Y-111804523D01*
X123136237Y-111656818D01*
X123155278Y-111500000D01*
X153094721Y-111500000D01*
X153113763Y-111656818D01*
X153169780Y-111804523D01*
X153259515Y-111934528D01*
X153259516Y-111934529D01*
X153259517Y-111934530D01*
X153377760Y-112039283D01*
X153517635Y-112112696D01*
X153671015Y-112150500D01*
X153828985Y-112150500D01*
X153982365Y-112112696D01*
X154122240Y-112039283D01*
X154240483Y-111934530D01*
X154330220Y-111804523D01*
X154386237Y-111656818D01*
X154405278Y-111500000D01*
X154386237Y-111343182D01*
X154330220Y-111195477D01*
X154240483Y-111065470D01*
X154122240Y-110960717D01*
X154108994Y-110953765D01*
X153982364Y-110887303D01*
X153828985Y-110849500D01*
X153671015Y-110849500D01*
X153517635Y-110887303D01*
X153377761Y-110960716D01*
X153259515Y-111065471D01*
X153169780Y-111195476D01*
X153113763Y-111343181D01*
X153094721Y-111500000D01*
X123155278Y-111500000D01*
X123136237Y-111343182D01*
X123080220Y-111195477D01*
X122990483Y-111065470D01*
X122872240Y-110960717D01*
X122858994Y-110953765D01*
X122732364Y-110887303D01*
X122578985Y-110849500D01*
X122421015Y-110849500D01*
X122267635Y-110887303D01*
X122127761Y-110960716D01*
X122009515Y-111065471D01*
X121919780Y-111195476D01*
X121863763Y-111343181D01*
X121844721Y-111500000D01*
X110000500Y-111500000D01*
X110000500Y-110525326D01*
X109985966Y-110452260D01*
X109930601Y-110369399D01*
X109847740Y-110314034D01*
X109847739Y-110314033D01*
X109847738Y-110314033D01*
X109774675Y-110299500D01*
X109774674Y-110299500D01*
X106225326Y-110299500D01*
X106225325Y-110299500D01*
X106152261Y-110314033D01*
X106069399Y-110369399D01*
X106014033Y-110452261D01*
X105999500Y-110525325D01*
X105999500Y-114074675D01*
X103733980Y-114074675D01*
X103841569Y-113919379D01*
X103934622Y-113714518D01*
X103989599Y-113496332D01*
X104000000Y-113364188D01*
X104000000Y-112550000D01*
X102250000Y-112550000D01*
X101750000Y-112550000D01*
X101750000Y-110050001D01*
X101185812Y-110050001D01*
X101053668Y-110060400D01*
X100835481Y-110115377D01*
X100630621Y-110208430D01*
X100576115Y-110246192D01*
X100513147Y-110268027D01*
X100447969Y-110254109D01*
X100399411Y-110208459D01*
X100381500Y-110144263D01*
X100381500Y-110050000D01*
X102250000Y-110050000D01*
X102250000Y-112050000D01*
X103999999Y-112050000D01*
X103999999Y-111235812D01*
X103989599Y-111103668D01*
X103934622Y-110885481D01*
X103841569Y-110680620D01*
X103713434Y-110495667D01*
X103554332Y-110336565D01*
X103369379Y-110208430D01*
X103164518Y-110115377D01*
X102946332Y-110060400D01*
X102814188Y-110050000D01*
X102250000Y-110050000D01*
X100381500Y-110050000D01*
X100381500Y-109499999D01*
X156844721Y-109499999D01*
X156863763Y-109656818D01*
X156919780Y-109804523D01*
X157009515Y-109934528D01*
X157009516Y-109934529D01*
X157009517Y-109934530D01*
X157127760Y-110039283D01*
X157267635Y-110112696D01*
X157421015Y-110150500D01*
X157578985Y-110150500D01*
X157732365Y-110112696D01*
X157872240Y-110039283D01*
X157990483Y-109934530D01*
X158080220Y-109804523D01*
X158136237Y-109656818D01*
X158155278Y-109500000D01*
X158136237Y-109343182D01*
X158080220Y-109195477D01*
X157990483Y-109065470D01*
X157872240Y-108960717D01*
X157858994Y-108953765D01*
X157732364Y-108887303D01*
X157578985Y-108849500D01*
X157421015Y-108849500D01*
X157267635Y-108887303D01*
X157127761Y-108960716D01*
X157009515Y-109065471D01*
X156919780Y-109195476D01*
X156863763Y-109343181D01*
X156844721Y-109499999D01*
X100381500Y-109499999D01*
X100381500Y-105933156D01*
X101420397Y-105933156D01*
X101501683Y-106005799D01*
X101794815Y-106213786D01*
X102109385Y-106387643D01*
X102441439Y-106525184D01*
X102786815Y-106624686D01*
X103141147Y-106684888D01*
X103500000Y-106705041D01*
X103858852Y-106684888D01*
X104213184Y-106624686D01*
X104558560Y-106525184D01*
X104890614Y-106387643D01*
X105205184Y-106213786D01*
X105498310Y-106005803D01*
X105579601Y-105933155D01*
X105311121Y-105664675D01*
X107299500Y-105664675D01*
X107314033Y-105737738D01*
X107314033Y-105737739D01*
X107314034Y-105737740D01*
X107369399Y-105820601D01*
X107452260Y-105875966D01*
X107488792Y-105883232D01*
X107525325Y-105890500D01*
X107525326Y-105890500D01*
X109274674Y-105890500D01*
X109274675Y-105890500D01*
X109299029Y-105885655D01*
X109347740Y-105875966D01*
X109430601Y-105820601D01*
X109485966Y-105737740D01*
X109500500Y-105664674D01*
X109500500Y-104790000D01*
X109834785Y-104790000D01*
X109853602Y-104993083D01*
X109909418Y-105189251D01*
X110000324Y-105371818D01*
X110123236Y-105534580D01*
X110273958Y-105671981D01*
X110447361Y-105779347D01*
X110447363Y-105779348D01*
X110637544Y-105853024D01*
X110838024Y-105890500D01*
X111041974Y-105890500D01*
X111041976Y-105890500D01*
X111242456Y-105853024D01*
X111432637Y-105779348D01*
X111606041Y-105671981D01*
X111756764Y-105534579D01*
X111879673Y-105371821D01*
X111879673Y-105371819D01*
X111879675Y-105371818D01*
X111955276Y-105219989D01*
X111970582Y-105189250D01*
X112026397Y-104993083D01*
X112045215Y-104790000D01*
X112026397Y-104586917D01*
X111970582Y-104390750D01*
X111938593Y-104326507D01*
X111879675Y-104208181D01*
X111756763Y-104045419D01*
X111606041Y-103908018D01*
X111432638Y-103800652D01*
X111242457Y-103726976D01*
X111119726Y-103704034D01*
X111041976Y-103689500D01*
X110838024Y-103689500D01*
X110760279Y-103704033D01*
X110637542Y-103726976D01*
X110447361Y-103800652D01*
X110273958Y-103908018D01*
X110123236Y-104045419D01*
X110000324Y-104208181D01*
X109909418Y-104390748D01*
X109853602Y-104586916D01*
X109834785Y-104790000D01*
X109500500Y-104790000D01*
X109500500Y-103915326D01*
X109485966Y-103842260D01*
X109430601Y-103759399D01*
X109347740Y-103704034D01*
X109347739Y-103704033D01*
X109347738Y-103704033D01*
X109274675Y-103689500D01*
X109274674Y-103689500D01*
X107525326Y-103689500D01*
X107525325Y-103689500D01*
X107452261Y-103704033D01*
X107369399Y-103759399D01*
X107314033Y-103842261D01*
X107299500Y-103915325D01*
X107299500Y-105664675D01*
X105311121Y-105664675D01*
X103500001Y-103853553D01*
X103500000Y-103853553D01*
X101420397Y-105933156D01*
X100381500Y-105933156D01*
X100381500Y-104953619D01*
X100398345Y-104891218D01*
X100444305Y-104845771D01*
X100506891Y-104829627D01*
X100569100Y-104847171D01*
X100614028Y-104893638D01*
X100786213Y-105205184D01*
X100994200Y-105498316D01*
X101066842Y-105579601D01*
X101066843Y-105579602D01*
X103146446Y-103500001D01*
X103853553Y-103500001D01*
X105933155Y-105579601D01*
X106005803Y-105498310D01*
X106213786Y-105205184D01*
X106387643Y-104890614D01*
X106525184Y-104558560D01*
X106624686Y-104213184D01*
X106684888Y-103858852D01*
X106705041Y-103499999D01*
X106684888Y-103141147D01*
X106624686Y-102786815D01*
X106525184Y-102441439D01*
X106445887Y-102249999D01*
X107294785Y-102249999D01*
X107313602Y-102453083D01*
X107369418Y-102649251D01*
X107460324Y-102831818D01*
X107583236Y-102994580D01*
X107733958Y-103131981D01*
X107757322Y-103146447D01*
X107907363Y-103239348D01*
X108097544Y-103313024D01*
X108298024Y-103350500D01*
X108501974Y-103350500D01*
X108501976Y-103350500D01*
X108702456Y-103313024D01*
X108892637Y-103239348D01*
X109066041Y-103131981D01*
X109077998Y-103121081D01*
X109216763Y-102994580D01*
X109216764Y-102994579D01*
X109339673Y-102831821D01*
X109339673Y-102831819D01*
X109339675Y-102831818D01*
X109415276Y-102679989D01*
X109430582Y-102649250D01*
X109486397Y-102453083D01*
X109505215Y-102250000D01*
X109505215Y-102249999D01*
X109834785Y-102249999D01*
X109853602Y-102453083D01*
X109909418Y-102649251D01*
X110000324Y-102831818D01*
X110123236Y-102994580D01*
X110273958Y-103131981D01*
X110297322Y-103146447D01*
X110447363Y-103239348D01*
X110637544Y-103313024D01*
X110838024Y-103350500D01*
X111041974Y-103350500D01*
X111041976Y-103350500D01*
X111242456Y-103313024D01*
X111432637Y-103239348D01*
X111606041Y-103131981D01*
X111617998Y-103121081D01*
X111756763Y-102994580D01*
X111756764Y-102994579D01*
X111879673Y-102831821D01*
X111927521Y-102735728D01*
X111966817Y-102656812D01*
X112005240Y-102611541D01*
X112060307Y-102589326D01*
X112119388Y-102595259D01*
X112168937Y-102627981D01*
X112197592Y-102679989D01*
X112206569Y-102713492D01*
X112306399Y-102927576D01*
X112441893Y-103121081D01*
X112608918Y-103288106D01*
X112802423Y-103423600D01*
X113016508Y-103523430D01*
X113055584Y-103533901D01*
X113109261Y-103564125D01*
X113141771Y-103616449D01*
X113145090Y-103677961D01*
X113118399Y-103733479D01*
X113068285Y-103769303D01*
X112987360Y-103800653D01*
X112813958Y-103908018D01*
X112663236Y-104045419D01*
X112540324Y-104208181D01*
X112449418Y-104390748D01*
X112393602Y-104586916D01*
X112374785Y-104790000D01*
X112393602Y-104993083D01*
X112449418Y-105189251D01*
X112540324Y-105371818D01*
X112663236Y-105534580D01*
X112813958Y-105671981D01*
X112987361Y-105779347D01*
X112987363Y-105779348D01*
X113177544Y-105853024D01*
X113378024Y-105890500D01*
X113581974Y-105890500D01*
X113581976Y-105890500D01*
X113782456Y-105853024D01*
X113972637Y-105779348D01*
X114146041Y-105671981D01*
X114296764Y-105534579D01*
X114419673Y-105371821D01*
X114419673Y-105371819D01*
X114419675Y-105371818D01*
X114495276Y-105219989D01*
X114510582Y-105189250D01*
X114566397Y-104993083D01*
X114585215Y-104790000D01*
X114914785Y-104790000D01*
X114933602Y-104993083D01*
X114989418Y-105189251D01*
X115080324Y-105371818D01*
X115203236Y-105534580D01*
X115353958Y-105671981D01*
X115527361Y-105779347D01*
X115527363Y-105779348D01*
X115717544Y-105853024D01*
X115918024Y-105890500D01*
X116121974Y-105890500D01*
X116121976Y-105890500D01*
X116322456Y-105853024D01*
X116512637Y-105779348D01*
X116686041Y-105671981D01*
X116836764Y-105534579D01*
X116959673Y-105371821D01*
X117007521Y-105275728D01*
X117046817Y-105196812D01*
X117085240Y-105151541D01*
X117140307Y-105129326D01*
X117199388Y-105135259D01*
X117248937Y-105167981D01*
X117277592Y-105219989D01*
X117286569Y-105253492D01*
X117386399Y-105467576D01*
X117521893Y-105661081D01*
X117688918Y-105828106D01*
X117882423Y-105963600D01*
X118096507Y-106063430D01*
X118309999Y-106120635D01*
X118310000Y-106120636D01*
X118310000Y-104664000D01*
X118326613Y-104602000D01*
X118372000Y-104556613D01*
X118434000Y-104540000D01*
X118686000Y-104540000D01*
X118748000Y-104556613D01*
X118793387Y-104602000D01*
X118810000Y-104664000D01*
X118810000Y-106120635D01*
X119023492Y-106063430D01*
X119237576Y-105963600D01*
X119431081Y-105828106D01*
X119598106Y-105661081D01*
X119733600Y-105467576D01*
X119833431Y-105253491D01*
X119842407Y-105219991D01*
X119871060Y-105167983D01*
X119920609Y-105135260D01*
X119979691Y-105129325D01*
X120034758Y-105151541D01*
X120073182Y-105196811D01*
X120160326Y-105371820D01*
X120283236Y-105534580D01*
X120433958Y-105671981D01*
X120607361Y-105779347D01*
X120607363Y-105779348D01*
X120797544Y-105853024D01*
X120998024Y-105890500D01*
X121201974Y-105890500D01*
X121201976Y-105890500D01*
X121402456Y-105853024D01*
X121592637Y-105779348D01*
X121766041Y-105671981D01*
X121916764Y-105534579D01*
X122039673Y-105371821D01*
X122039673Y-105371819D01*
X122039675Y-105371818D01*
X122115276Y-105219989D01*
X122130582Y-105189250D01*
X122186397Y-104993083D01*
X122205215Y-104790000D01*
X122186397Y-104586917D01*
X122130582Y-104390750D01*
X122098593Y-104326507D01*
X122039675Y-104208181D01*
X121916763Y-104045419D01*
X121766041Y-103908018D01*
X121592638Y-103800652D01*
X121402457Y-103726976D01*
X121279726Y-103704034D01*
X121201976Y-103689500D01*
X120998024Y-103689500D01*
X120920279Y-103704033D01*
X120797542Y-103726976D01*
X120607361Y-103800652D01*
X120433958Y-103908018D01*
X120283236Y-104045419D01*
X120160326Y-104208179D01*
X120073182Y-104383188D01*
X120034758Y-104428458D01*
X119979691Y-104450674D01*
X119920609Y-104444739D01*
X119871061Y-104412016D01*
X119842407Y-104360009D01*
X119833430Y-104326507D01*
X119733599Y-104112421D01*
X119598109Y-103918921D01*
X119431081Y-103751893D01*
X119237576Y-103616399D01*
X119023488Y-103516567D01*
X118984413Y-103506097D01*
X118930736Y-103475873D01*
X118898228Y-103423549D01*
X118894910Y-103362037D01*
X118921601Y-103306519D01*
X118971713Y-103270697D01*
X119052637Y-103239348D01*
X119226041Y-103131981D01*
X119237998Y-103121081D01*
X119376763Y-102994580D01*
X119376764Y-102994579D01*
X119499673Y-102831821D01*
X119499673Y-102831819D01*
X119499675Y-102831818D01*
X119575276Y-102679989D01*
X119590582Y-102649250D01*
X119646397Y-102453083D01*
X119665215Y-102250000D01*
X119665215Y-102249999D01*
X119994785Y-102249999D01*
X120013602Y-102453083D01*
X120069418Y-102649251D01*
X120160324Y-102831818D01*
X120283236Y-102994580D01*
X120433958Y-103131981D01*
X120457322Y-103146447D01*
X120607363Y-103239348D01*
X120797544Y-103313024D01*
X120998024Y-103350500D01*
X121201974Y-103350500D01*
X121201976Y-103350500D01*
X121402456Y-103313024D01*
X121592637Y-103239348D01*
X121766041Y-103131981D01*
X121777998Y-103121081D01*
X121916763Y-102994580D01*
X121916764Y-102994579D01*
X122039673Y-102831821D01*
X122087521Y-102735728D01*
X122126817Y-102656812D01*
X122165240Y-102611541D01*
X122220307Y-102589326D01*
X122279388Y-102595259D01*
X122328937Y-102627981D01*
X122357592Y-102679989D01*
X122366569Y-102713492D01*
X122466399Y-102927576D01*
X122601893Y-103121081D01*
X122768918Y-103288106D01*
X122962423Y-103423600D01*
X123176508Y-103523430D01*
X123215584Y-103533901D01*
X123269261Y-103564125D01*
X123301771Y-103616449D01*
X123305090Y-103677961D01*
X123278399Y-103733479D01*
X123228285Y-103769303D01*
X123147360Y-103800653D01*
X122973958Y-103908018D01*
X122823236Y-104045419D01*
X122700324Y-104208181D01*
X122609418Y-104390748D01*
X122553602Y-104586916D01*
X122534785Y-104790000D01*
X122553602Y-104993083D01*
X122609418Y-105189251D01*
X122700324Y-105371818D01*
X122823236Y-105534580D01*
X122973958Y-105671981D01*
X123147361Y-105779347D01*
X123147363Y-105779348D01*
X123337544Y-105853024D01*
X123538024Y-105890500D01*
X123741974Y-105890500D01*
X123741976Y-105890500D01*
X123942456Y-105853024D01*
X124132637Y-105779348D01*
X124306041Y-105671981D01*
X124456764Y-105534579D01*
X124579673Y-105371821D01*
X124579673Y-105371819D01*
X124579675Y-105371818D01*
X124655276Y-105219989D01*
X124670582Y-105189250D01*
X124726397Y-104993083D01*
X124745215Y-104790000D01*
X124745215Y-104789999D01*
X125074785Y-104789999D01*
X125093602Y-104993083D01*
X125149418Y-105189251D01*
X125240324Y-105371818D01*
X125363236Y-105534580D01*
X125513958Y-105671981D01*
X125687361Y-105779347D01*
X125687363Y-105779348D01*
X125877544Y-105853024D01*
X126078024Y-105890500D01*
X126281974Y-105890500D01*
X126281976Y-105890500D01*
X126482456Y-105853024D01*
X126672637Y-105779348D01*
X126846041Y-105671981D01*
X126996764Y-105534579D01*
X127119673Y-105371821D01*
X127119673Y-105371819D01*
X127119675Y-105371818D01*
X127195276Y-105219989D01*
X127210582Y-105189250D01*
X127266397Y-104993083D01*
X127285215Y-104790000D01*
X127285215Y-104789999D01*
X127614785Y-104789999D01*
X127633602Y-104993083D01*
X127689418Y-105189251D01*
X127780324Y-105371818D01*
X127903236Y-105534580D01*
X128053958Y-105671981D01*
X128227361Y-105779347D01*
X128227363Y-105779348D01*
X128417544Y-105853024D01*
X128618024Y-105890500D01*
X128821974Y-105890500D01*
X128821976Y-105890500D01*
X129022456Y-105853024D01*
X129212637Y-105779348D01*
X129386041Y-105671981D01*
X129536764Y-105534579D01*
X129659673Y-105371821D01*
X129659673Y-105371819D01*
X129659675Y-105371818D01*
X129735276Y-105219989D01*
X129750582Y-105189250D01*
X129806397Y-104993083D01*
X129825215Y-104790000D01*
X129806397Y-104586917D01*
X129750582Y-104390750D01*
X129718593Y-104326507D01*
X129659675Y-104208181D01*
X129536763Y-104045419D01*
X129386041Y-103908018D01*
X129212638Y-103800652D01*
X129022457Y-103726976D01*
X128899726Y-103704034D01*
X128821976Y-103689500D01*
X128618024Y-103689500D01*
X128540279Y-103704033D01*
X128417542Y-103726976D01*
X128227361Y-103800652D01*
X128053958Y-103908018D01*
X127903236Y-104045419D01*
X127780324Y-104208181D01*
X127689418Y-104390748D01*
X127633602Y-104586916D01*
X127614785Y-104789999D01*
X127285215Y-104789999D01*
X127266397Y-104586917D01*
X127210582Y-104390750D01*
X127178593Y-104326507D01*
X127119675Y-104208181D01*
X126996763Y-104045419D01*
X126846041Y-103908018D01*
X126672638Y-103800652D01*
X126482457Y-103726976D01*
X126359726Y-103704034D01*
X126281976Y-103689500D01*
X126078024Y-103689500D01*
X126000279Y-103704033D01*
X125877542Y-103726976D01*
X125687361Y-103800652D01*
X125513958Y-103908018D01*
X125363236Y-104045419D01*
X125240324Y-104208181D01*
X125149418Y-104390748D01*
X125093602Y-104586916D01*
X125074785Y-104789999D01*
X124745215Y-104789999D01*
X124726397Y-104586917D01*
X124670582Y-104390750D01*
X124638593Y-104326507D01*
X124579675Y-104208181D01*
X124456763Y-104045419D01*
X124306041Y-103908018D01*
X124132640Y-103800653D01*
X124113382Y-103793192D01*
X124051712Y-103769301D01*
X124001600Y-103733479D01*
X123974909Y-103677961D01*
X123978228Y-103616449D01*
X124010738Y-103564124D01*
X124064416Y-103533901D01*
X124103490Y-103523431D01*
X124317576Y-103423600D01*
X124511081Y-103288106D01*
X124678106Y-103121081D01*
X124813600Y-102927576D01*
X124913431Y-102713491D01*
X124922407Y-102679991D01*
X124951060Y-102627983D01*
X125000609Y-102595260D01*
X125059691Y-102589325D01*
X125114758Y-102611541D01*
X125153182Y-102656811D01*
X125240326Y-102831820D01*
X125363236Y-102994580D01*
X125513958Y-103131981D01*
X125537322Y-103146447D01*
X125687363Y-103239348D01*
X125877544Y-103313024D01*
X126078024Y-103350500D01*
X126281974Y-103350500D01*
X126281976Y-103350500D01*
X126482456Y-103313024D01*
X126672637Y-103239348D01*
X126846041Y-103131981D01*
X126857998Y-103121081D01*
X126996763Y-102994580D01*
X126996764Y-102994579D01*
X127119673Y-102831821D01*
X127119673Y-102831819D01*
X127119675Y-102831818D01*
X127195276Y-102679989D01*
X127210582Y-102649250D01*
X127266397Y-102453083D01*
X127285215Y-102250000D01*
X127285215Y-102249999D01*
X127614785Y-102249999D01*
X127633602Y-102453083D01*
X127689418Y-102649251D01*
X127780324Y-102831818D01*
X127903236Y-102994580D01*
X128053958Y-103131981D01*
X128077322Y-103146447D01*
X128227363Y-103239348D01*
X128417544Y-103313024D01*
X128618024Y-103350500D01*
X128821974Y-103350500D01*
X128821976Y-103350500D01*
X129022456Y-103313024D01*
X129212637Y-103239348D01*
X129386041Y-103131981D01*
X129397998Y-103121081D01*
X129536763Y-102994580D01*
X129536764Y-102994579D01*
X129659673Y-102831821D01*
X129707521Y-102735728D01*
X129746817Y-102656812D01*
X129785240Y-102611541D01*
X129840307Y-102589326D01*
X129899388Y-102595259D01*
X129948937Y-102627981D01*
X129977592Y-102679989D01*
X129986569Y-102713492D01*
X130086399Y-102927576D01*
X130221893Y-103121081D01*
X130388918Y-103288106D01*
X130582423Y-103423600D01*
X130796508Y-103523430D01*
X130835584Y-103533901D01*
X130889261Y-103564125D01*
X130921771Y-103616449D01*
X130925090Y-103677961D01*
X130898399Y-103733479D01*
X130848285Y-103769303D01*
X130767360Y-103800653D01*
X130593958Y-103908018D01*
X130443236Y-104045419D01*
X130320324Y-104208181D01*
X130229418Y-104390748D01*
X130173602Y-104586916D01*
X130154785Y-104789999D01*
X130173602Y-104993083D01*
X130229418Y-105189251D01*
X130320324Y-105371818D01*
X130443236Y-105534580D01*
X130593958Y-105671981D01*
X130767361Y-105779347D01*
X130767363Y-105779348D01*
X130957544Y-105853024D01*
X131158024Y-105890500D01*
X131361974Y-105890500D01*
X131361976Y-105890500D01*
X131562456Y-105853024D01*
X131752637Y-105779348D01*
X131926041Y-105671981D01*
X132076764Y-105534579D01*
X132199673Y-105371821D01*
X132199673Y-105371819D01*
X132199675Y-105371818D01*
X132275276Y-105219989D01*
X132290582Y-105189250D01*
X132346397Y-104993083D01*
X132365215Y-104790000D01*
X132365215Y-104789999D01*
X132694785Y-104789999D01*
X132713602Y-104993083D01*
X132769418Y-105189251D01*
X132860324Y-105371818D01*
X132983236Y-105534580D01*
X133133958Y-105671981D01*
X133307361Y-105779347D01*
X133307363Y-105779348D01*
X133497544Y-105853024D01*
X133698024Y-105890500D01*
X133901974Y-105890500D01*
X133901976Y-105890500D01*
X134102456Y-105853024D01*
X134292637Y-105779348D01*
X134466041Y-105671981D01*
X134616764Y-105534579D01*
X134739673Y-105371821D01*
X134739673Y-105371819D01*
X134739675Y-105371818D01*
X134815276Y-105219989D01*
X134830582Y-105189250D01*
X134886397Y-104993083D01*
X134905215Y-104790000D01*
X134905215Y-104789999D01*
X135234785Y-104789999D01*
X135253602Y-104993083D01*
X135309418Y-105189251D01*
X135400324Y-105371818D01*
X135523236Y-105534580D01*
X135673958Y-105671981D01*
X135847361Y-105779347D01*
X135847363Y-105779348D01*
X136037544Y-105853024D01*
X136238024Y-105890500D01*
X136441974Y-105890500D01*
X136441976Y-105890500D01*
X136642456Y-105853024D01*
X136832637Y-105779348D01*
X137006041Y-105671981D01*
X137156764Y-105534579D01*
X137279673Y-105371821D01*
X137327521Y-105275728D01*
X137366817Y-105196812D01*
X137405240Y-105151541D01*
X137460307Y-105129326D01*
X137519388Y-105135259D01*
X137568937Y-105167981D01*
X137597592Y-105219989D01*
X137606569Y-105253492D01*
X137706399Y-105467576D01*
X137841893Y-105661081D01*
X138008918Y-105828106D01*
X138202423Y-105963600D01*
X138416507Y-106063430D01*
X138629999Y-106120635D01*
X138630000Y-106120636D01*
X138630000Y-104664000D01*
X138646613Y-104602000D01*
X138692000Y-104556613D01*
X138754000Y-104540000D01*
X139006000Y-104540000D01*
X139068000Y-104556613D01*
X139113387Y-104602000D01*
X139130000Y-104664000D01*
X139130000Y-106120635D01*
X139343492Y-106063430D01*
X139557576Y-105963600D01*
X139751081Y-105828106D01*
X139918106Y-105661081D01*
X140053600Y-105467576D01*
X140153431Y-105253491D01*
X140162407Y-105219991D01*
X140191060Y-105167983D01*
X140240609Y-105135260D01*
X140299691Y-105129325D01*
X140354758Y-105151541D01*
X140393182Y-105196811D01*
X140480326Y-105371820D01*
X140603236Y-105534580D01*
X140753958Y-105671981D01*
X140927361Y-105779347D01*
X140927363Y-105779348D01*
X141117544Y-105853024D01*
X141318024Y-105890500D01*
X141521974Y-105890500D01*
X141521976Y-105890500D01*
X141722456Y-105853024D01*
X141912637Y-105779348D01*
X142086041Y-105671981D01*
X142236764Y-105534579D01*
X142359673Y-105371821D01*
X142359673Y-105371819D01*
X142359675Y-105371818D01*
X142435276Y-105219989D01*
X142450582Y-105189250D01*
X142506397Y-104993083D01*
X142525215Y-104790000D01*
X142506397Y-104586917D01*
X142450582Y-104390750D01*
X142418593Y-104326507D01*
X142359675Y-104208181D01*
X142236763Y-104045419D01*
X142086041Y-103908018D01*
X141912638Y-103800652D01*
X141722457Y-103726976D01*
X141599726Y-103704034D01*
X141521976Y-103689500D01*
X141318024Y-103689500D01*
X141240279Y-103704033D01*
X141117542Y-103726976D01*
X140927361Y-103800652D01*
X140753958Y-103908018D01*
X140603236Y-104045419D01*
X140480326Y-104208179D01*
X140393182Y-104383188D01*
X140354758Y-104428458D01*
X140299691Y-104450674D01*
X140240609Y-104444739D01*
X140191061Y-104412016D01*
X140162407Y-104360009D01*
X140153430Y-104326507D01*
X140053599Y-104112421D01*
X139918109Y-103918921D01*
X139751081Y-103751893D01*
X139557576Y-103616399D01*
X139343488Y-103516567D01*
X139304413Y-103506097D01*
X139250736Y-103475873D01*
X139218228Y-103423549D01*
X139214910Y-103362037D01*
X139241601Y-103306519D01*
X139291713Y-103270697D01*
X139372637Y-103239348D01*
X139546041Y-103131981D01*
X139557998Y-103121081D01*
X139696763Y-102994580D01*
X139696764Y-102994579D01*
X139819673Y-102831821D01*
X139819673Y-102831819D01*
X139819675Y-102831818D01*
X139895276Y-102679989D01*
X139910582Y-102649250D01*
X139966397Y-102453083D01*
X139985215Y-102250000D01*
X139985215Y-102249999D01*
X140314785Y-102249999D01*
X140333602Y-102453083D01*
X140389418Y-102649251D01*
X140480324Y-102831818D01*
X140603236Y-102994580D01*
X140753958Y-103131981D01*
X140777322Y-103146447D01*
X140927363Y-103239348D01*
X141117544Y-103313024D01*
X141318024Y-103350500D01*
X141521974Y-103350500D01*
X141521976Y-103350500D01*
X141722456Y-103313024D01*
X141912637Y-103239348D01*
X142086041Y-103131981D01*
X142097998Y-103121081D01*
X142236763Y-102994580D01*
X142236764Y-102994579D01*
X142359673Y-102831821D01*
X142407521Y-102735728D01*
X142446817Y-102656812D01*
X142485240Y-102611541D01*
X142540307Y-102589326D01*
X142599388Y-102595259D01*
X142648937Y-102627981D01*
X142677592Y-102679989D01*
X142686569Y-102713492D01*
X142786399Y-102927576D01*
X142921893Y-103121081D01*
X143088918Y-103288106D01*
X143282423Y-103423600D01*
X143496508Y-103523430D01*
X143535584Y-103533901D01*
X143589261Y-103564125D01*
X143621771Y-103616449D01*
X143625090Y-103677961D01*
X143598399Y-103733479D01*
X143548285Y-103769303D01*
X143467360Y-103800653D01*
X143293958Y-103908018D01*
X143143236Y-104045419D01*
X143020324Y-104208181D01*
X142929418Y-104390748D01*
X142873602Y-104586916D01*
X142854785Y-104789999D01*
X142873602Y-104993083D01*
X142929418Y-105189251D01*
X143020324Y-105371818D01*
X143143236Y-105534580D01*
X143293958Y-105671981D01*
X143467361Y-105779347D01*
X143467363Y-105779348D01*
X143657544Y-105853024D01*
X143858024Y-105890500D01*
X144061974Y-105890500D01*
X144061976Y-105890500D01*
X144262456Y-105853024D01*
X144452637Y-105779348D01*
X144626041Y-105671981D01*
X144776764Y-105534579D01*
X144899673Y-105371821D01*
X144899673Y-105371819D01*
X144899675Y-105371818D01*
X144975276Y-105219989D01*
X144990582Y-105189250D01*
X145046397Y-104993083D01*
X145065215Y-104790000D01*
X145065215Y-104789999D01*
X145394785Y-104789999D01*
X145413602Y-104993083D01*
X145469418Y-105189251D01*
X145560324Y-105371818D01*
X145683236Y-105534580D01*
X145833958Y-105671981D01*
X146007361Y-105779347D01*
X146007363Y-105779348D01*
X146197544Y-105853024D01*
X146398024Y-105890500D01*
X146601974Y-105890500D01*
X146601976Y-105890500D01*
X146802456Y-105853024D01*
X146992637Y-105779348D01*
X147166041Y-105671981D01*
X147316764Y-105534579D01*
X147439673Y-105371821D01*
X147439673Y-105371819D01*
X147439675Y-105371818D01*
X147515276Y-105219989D01*
X147530582Y-105189250D01*
X147586397Y-104993083D01*
X147605215Y-104790000D01*
X147586397Y-104586917D01*
X147530582Y-104390750D01*
X147498593Y-104326507D01*
X147439675Y-104208181D01*
X147316763Y-104045419D01*
X147166041Y-103908018D01*
X146992638Y-103800652D01*
X146802457Y-103726976D01*
X146679726Y-103704034D01*
X146601976Y-103689500D01*
X146398024Y-103689500D01*
X146320279Y-103704033D01*
X146197542Y-103726976D01*
X146007361Y-103800652D01*
X145833958Y-103908018D01*
X145683236Y-104045419D01*
X145560324Y-104208181D01*
X145469418Y-104390748D01*
X145413602Y-104586916D01*
X145394785Y-104789999D01*
X145065215Y-104789999D01*
X145046397Y-104586917D01*
X144990582Y-104390750D01*
X144958593Y-104326507D01*
X144899675Y-104208181D01*
X144776763Y-104045419D01*
X144626041Y-103908018D01*
X144452640Y-103800653D01*
X144433382Y-103793192D01*
X144371712Y-103769301D01*
X144321600Y-103733479D01*
X144294909Y-103677961D01*
X144298228Y-103616449D01*
X144330738Y-103564124D01*
X144384416Y-103533901D01*
X144423490Y-103523431D01*
X144637576Y-103423600D01*
X144831081Y-103288106D01*
X144998106Y-103121081D01*
X145133600Y-102927576D01*
X145233431Y-102713491D01*
X145242407Y-102679991D01*
X145271060Y-102627983D01*
X145320609Y-102595260D01*
X145379691Y-102589325D01*
X145434758Y-102611541D01*
X145473182Y-102656811D01*
X145560326Y-102831820D01*
X145683236Y-102994580D01*
X145833958Y-103131981D01*
X145857322Y-103146447D01*
X146007363Y-103239348D01*
X146197544Y-103313024D01*
X146398024Y-103350500D01*
X146601974Y-103350500D01*
X146601976Y-103350500D01*
X146802456Y-103313024D01*
X146992637Y-103239348D01*
X147166041Y-103131981D01*
X147177998Y-103121081D01*
X147316763Y-102994580D01*
X147316764Y-102994579D01*
X147439673Y-102831821D01*
X147487521Y-102735728D01*
X147526817Y-102656812D01*
X147565240Y-102611541D01*
X147620307Y-102589326D01*
X147679388Y-102595259D01*
X147728937Y-102627981D01*
X147757592Y-102679989D01*
X147766569Y-102713492D01*
X147866399Y-102927576D01*
X148001893Y-103121081D01*
X148168918Y-103288106D01*
X148362423Y-103423600D01*
X148576508Y-103523430D01*
X148615584Y-103533901D01*
X148669261Y-103564125D01*
X148701771Y-103616449D01*
X148705090Y-103677961D01*
X148678399Y-103733479D01*
X148628285Y-103769303D01*
X148547360Y-103800653D01*
X148373958Y-103908018D01*
X148223236Y-104045419D01*
X148100324Y-104208181D01*
X148009418Y-104390748D01*
X147953602Y-104586916D01*
X147934785Y-104789999D01*
X147953602Y-104993083D01*
X148009418Y-105189251D01*
X148100324Y-105371818D01*
X148223236Y-105534580D01*
X148373958Y-105671981D01*
X148547361Y-105779347D01*
X148547363Y-105779348D01*
X148737544Y-105853024D01*
X148938024Y-105890500D01*
X149141974Y-105890500D01*
X149141976Y-105890500D01*
X149342456Y-105853024D01*
X149532637Y-105779348D01*
X149706041Y-105671981D01*
X149856764Y-105534579D01*
X149979673Y-105371821D01*
X149979673Y-105371819D01*
X149979675Y-105371818D01*
X150055276Y-105219989D01*
X150070582Y-105189250D01*
X150126397Y-104993083D01*
X150145215Y-104790000D01*
X150145215Y-104789999D01*
X150474785Y-104789999D01*
X150493602Y-104993083D01*
X150549418Y-105189251D01*
X150640324Y-105371818D01*
X150763236Y-105534580D01*
X150913958Y-105671981D01*
X151087361Y-105779347D01*
X151087363Y-105779348D01*
X151277544Y-105853024D01*
X151478024Y-105890500D01*
X151681974Y-105890500D01*
X151681976Y-105890500D01*
X151882456Y-105853024D01*
X152072637Y-105779348D01*
X152246041Y-105671981D01*
X152396764Y-105534579D01*
X152519673Y-105371821D01*
X152519673Y-105371819D01*
X152519675Y-105371818D01*
X152595276Y-105219989D01*
X152610582Y-105189250D01*
X152666397Y-104993083D01*
X152685215Y-104790000D01*
X152685215Y-104789999D01*
X153014785Y-104789999D01*
X153033602Y-104993083D01*
X153089418Y-105189251D01*
X153180324Y-105371818D01*
X153303236Y-105534580D01*
X153453958Y-105671981D01*
X153627361Y-105779347D01*
X153627363Y-105779348D01*
X153817544Y-105853024D01*
X154018024Y-105890500D01*
X154221974Y-105890500D01*
X154221976Y-105890500D01*
X154422456Y-105853024D01*
X154612637Y-105779348D01*
X154786041Y-105671981D01*
X154936764Y-105534579D01*
X155059673Y-105371821D01*
X155107521Y-105275728D01*
X155146817Y-105196812D01*
X155185240Y-105151541D01*
X155240307Y-105129326D01*
X155299388Y-105135259D01*
X155348937Y-105167981D01*
X155377592Y-105219989D01*
X155386569Y-105253492D01*
X155486399Y-105467576D01*
X155621893Y-105661081D01*
X155788918Y-105828106D01*
X155982423Y-105963600D01*
X156196507Y-106063430D01*
X156409999Y-106120635D01*
X156410000Y-106120636D01*
X156410000Y-105040000D01*
X156910000Y-105040000D01*
X156910000Y-106120635D01*
X157123492Y-106063430D01*
X157337576Y-105963600D01*
X157381054Y-105933156D01*
X159420397Y-105933156D01*
X159501683Y-106005799D01*
X159794815Y-106213786D01*
X160109385Y-106387643D01*
X160441439Y-106525184D01*
X160786815Y-106624686D01*
X161141147Y-106684888D01*
X161500000Y-106705041D01*
X161858852Y-106684888D01*
X162213184Y-106624686D01*
X162558560Y-106525184D01*
X162890614Y-106387643D01*
X163205184Y-106213786D01*
X163498310Y-106005803D01*
X163579601Y-105933155D01*
X161500001Y-103853553D01*
X161500000Y-103853553D01*
X159420397Y-105933156D01*
X157381054Y-105933156D01*
X157531081Y-105828106D01*
X157698106Y-105661081D01*
X157833600Y-105467576D01*
X157933430Y-105253492D01*
X157990636Y-105040000D01*
X156910000Y-105040000D01*
X156410000Y-105040000D01*
X156410000Y-104664000D01*
X156426613Y-104602000D01*
X156472000Y-104556613D01*
X156534000Y-104540000D01*
X157990636Y-104540000D01*
X157990635Y-104539999D01*
X157933430Y-104326507D01*
X157833599Y-104112421D01*
X157698109Y-103918921D01*
X157531081Y-103751893D01*
X157337576Y-103616399D01*
X157123488Y-103516567D01*
X157084413Y-103506097D01*
X157073585Y-103500000D01*
X158294958Y-103500000D01*
X158315111Y-103858852D01*
X158375313Y-104213184D01*
X158474815Y-104558560D01*
X158612356Y-104890614D01*
X158786213Y-105205184D01*
X158994200Y-105498316D01*
X159066842Y-105579601D01*
X159066843Y-105579602D01*
X161146446Y-103500001D01*
X161146446Y-103500000D01*
X159066843Y-101420397D01*
X159066842Y-101420397D01*
X158994200Y-101501685D01*
X158786213Y-101794815D01*
X158612356Y-102109385D01*
X158474815Y-102441439D01*
X158375313Y-102786815D01*
X158315111Y-103141147D01*
X158294958Y-103500000D01*
X157073585Y-103500000D01*
X157030736Y-103475873D01*
X156998228Y-103423549D01*
X156994910Y-103362037D01*
X157021601Y-103306519D01*
X157071713Y-103270697D01*
X157152637Y-103239348D01*
X157326041Y-103131981D01*
X157337998Y-103121081D01*
X157476763Y-102994580D01*
X157476764Y-102994579D01*
X157599673Y-102831821D01*
X157599673Y-102831819D01*
X157599675Y-102831818D01*
X157675276Y-102679989D01*
X157690582Y-102649250D01*
X157746397Y-102453083D01*
X157765215Y-102250000D01*
X157746397Y-102046917D01*
X157690582Y-101850750D01*
X157662730Y-101794815D01*
X157599675Y-101668181D01*
X157476763Y-101505419D01*
X157326041Y-101368018D01*
X157152638Y-101260652D01*
X156962457Y-101186976D01*
X156895629Y-101174484D01*
X156761976Y-101149500D01*
X156558024Y-101149500D01*
X156457784Y-101168237D01*
X156357542Y-101186976D01*
X156167361Y-101260652D01*
X155993958Y-101368018D01*
X155843236Y-101505419D01*
X155720324Y-101668181D01*
X155629418Y-101850748D01*
X155573602Y-102046916D01*
X155554785Y-102249999D01*
X155573602Y-102453083D01*
X155629418Y-102649251D01*
X155720324Y-102831818D01*
X155843236Y-102994580D01*
X155993958Y-103131981D01*
X156017322Y-103146447D01*
X156167363Y-103239348D01*
X156248286Y-103270697D01*
X156298398Y-103306519D01*
X156325089Y-103362037D01*
X156321771Y-103423548D01*
X156289263Y-103475873D01*
X156235586Y-103506097D01*
X156196511Y-103516567D01*
X155982421Y-103616400D01*
X155788921Y-103751890D01*
X155621890Y-103918921D01*
X155486400Y-104112421D01*
X155386567Y-104326511D01*
X155377591Y-104360011D01*
X155348937Y-104412018D01*
X155299388Y-104444740D01*
X155240307Y-104450673D01*
X155185241Y-104428458D01*
X155146817Y-104383187D01*
X155059675Y-104208181D01*
X154936763Y-104045419D01*
X154786041Y-103908018D01*
X154612638Y-103800652D01*
X154422457Y-103726976D01*
X154299726Y-103704034D01*
X154221976Y-103689500D01*
X154018024Y-103689500D01*
X153940279Y-103704033D01*
X153817542Y-103726976D01*
X153627361Y-103800652D01*
X153453958Y-103908018D01*
X153303236Y-104045419D01*
X153180324Y-104208181D01*
X153089418Y-104390748D01*
X153033602Y-104586916D01*
X153014785Y-104789999D01*
X152685215Y-104789999D01*
X152666397Y-104586917D01*
X152610582Y-104390750D01*
X152578593Y-104326507D01*
X152519675Y-104208181D01*
X152396763Y-104045419D01*
X152246041Y-103908018D01*
X152072638Y-103800652D01*
X151882457Y-103726976D01*
X151759726Y-103704034D01*
X151681976Y-103689500D01*
X151478024Y-103689500D01*
X151400279Y-103704033D01*
X151277542Y-103726976D01*
X151087361Y-103800652D01*
X150913958Y-103908018D01*
X150763236Y-104045419D01*
X150640324Y-104208181D01*
X150549418Y-104390748D01*
X150493602Y-104586916D01*
X150474785Y-104789999D01*
X150145215Y-104789999D01*
X150126397Y-104586917D01*
X150070582Y-104390750D01*
X150038593Y-104326507D01*
X149979675Y-104208181D01*
X149856763Y-104045419D01*
X149706041Y-103908018D01*
X149532640Y-103800653D01*
X149513382Y-103793192D01*
X149451712Y-103769301D01*
X149401600Y-103733479D01*
X149374909Y-103677961D01*
X149378228Y-103616449D01*
X149410738Y-103564124D01*
X149464416Y-103533901D01*
X149503490Y-103523431D01*
X149717576Y-103423600D01*
X149911081Y-103288106D01*
X150078106Y-103121081D01*
X150213600Y-102927576D01*
X150313431Y-102713491D01*
X150322407Y-102679991D01*
X150351060Y-102627983D01*
X150400609Y-102595260D01*
X150459691Y-102589325D01*
X150514758Y-102611541D01*
X150553182Y-102656811D01*
X150640326Y-102831820D01*
X150763236Y-102994580D01*
X150913958Y-103131981D01*
X150937322Y-103146447D01*
X151087363Y-103239348D01*
X151277544Y-103313024D01*
X151478024Y-103350500D01*
X151681974Y-103350500D01*
X151681976Y-103350500D01*
X151882456Y-103313024D01*
X152072637Y-103239348D01*
X152246041Y-103131981D01*
X152257998Y-103121081D01*
X152396763Y-102994580D01*
X152396764Y-102994579D01*
X152519673Y-102831821D01*
X152519673Y-102831819D01*
X152519675Y-102831818D01*
X152595276Y-102679989D01*
X152610582Y-102649250D01*
X152666397Y-102453083D01*
X152685215Y-102250000D01*
X152685215Y-102249999D01*
X153014785Y-102249999D01*
X153033602Y-102453083D01*
X153089418Y-102649251D01*
X153180324Y-102831818D01*
X153303236Y-102994580D01*
X153453958Y-103131981D01*
X153477322Y-103146447D01*
X153627363Y-103239348D01*
X153817544Y-103313024D01*
X154018024Y-103350500D01*
X154221974Y-103350500D01*
X154221976Y-103350500D01*
X154422456Y-103313024D01*
X154612637Y-103239348D01*
X154786041Y-103131981D01*
X154797998Y-103121081D01*
X154936763Y-102994580D01*
X154936764Y-102994579D01*
X155059673Y-102831821D01*
X155059673Y-102831819D01*
X155059675Y-102831818D01*
X155135276Y-102679989D01*
X155150582Y-102649250D01*
X155206397Y-102453083D01*
X155225215Y-102250000D01*
X155206397Y-102046917D01*
X155150582Y-101850750D01*
X155122730Y-101794815D01*
X155059675Y-101668181D01*
X154936763Y-101505419D01*
X154786041Y-101368018D01*
X154612638Y-101260652D01*
X154422457Y-101186976D01*
X154355629Y-101174484D01*
X154221976Y-101149500D01*
X154018024Y-101149500D01*
X153917784Y-101168237D01*
X153817542Y-101186976D01*
X153627361Y-101260652D01*
X153453958Y-101368018D01*
X153303236Y-101505419D01*
X153180324Y-101668181D01*
X153089418Y-101850748D01*
X153033602Y-102046916D01*
X153014785Y-102249999D01*
X152685215Y-102249999D01*
X152666397Y-102046917D01*
X152610582Y-101850750D01*
X152582730Y-101794815D01*
X152519675Y-101668181D01*
X152396763Y-101505419D01*
X152246041Y-101368018D01*
X152072638Y-101260652D01*
X151882457Y-101186976D01*
X151815629Y-101174484D01*
X151681976Y-101149500D01*
X151478024Y-101149500D01*
X151377784Y-101168237D01*
X151277542Y-101186976D01*
X151087361Y-101260652D01*
X150913958Y-101368018D01*
X150763236Y-101505419D01*
X150640326Y-101668179D01*
X150553182Y-101843188D01*
X150514758Y-101888458D01*
X150459691Y-101910674D01*
X150400609Y-101904739D01*
X150351061Y-101872016D01*
X150322407Y-101820009D01*
X150313430Y-101786507D01*
X150213599Y-101572421D01*
X150078109Y-101378921D01*
X149911081Y-101211893D01*
X149717576Y-101076399D01*
X149503492Y-100976569D01*
X149290000Y-100919364D01*
X149290000Y-102376000D01*
X149273387Y-102438000D01*
X149228000Y-102483387D01*
X149166000Y-102500000D01*
X148914000Y-102500000D01*
X148852000Y-102483387D01*
X148806613Y-102438000D01*
X148790000Y-102376000D01*
X148790000Y-100919364D01*
X148789999Y-100919364D01*
X148576507Y-100976569D01*
X148362421Y-101076400D01*
X148168921Y-101211890D01*
X148001890Y-101378921D01*
X147866400Y-101572421D01*
X147766567Y-101786511D01*
X147757591Y-101820011D01*
X147728937Y-101872018D01*
X147679388Y-101904740D01*
X147620307Y-101910673D01*
X147565241Y-101888458D01*
X147526817Y-101843187D01*
X147439675Y-101668181D01*
X147316763Y-101505419D01*
X147166041Y-101368018D01*
X146992638Y-101260652D01*
X146802457Y-101186976D01*
X146735629Y-101174484D01*
X146601976Y-101149500D01*
X146398024Y-101149500D01*
X146297784Y-101168237D01*
X146197542Y-101186976D01*
X146007361Y-101260652D01*
X145833958Y-101368018D01*
X145683236Y-101505419D01*
X145560326Y-101668179D01*
X145473182Y-101843188D01*
X145434758Y-101888458D01*
X145379691Y-101910674D01*
X145320609Y-101904739D01*
X145271061Y-101872016D01*
X145242407Y-101820009D01*
X145233430Y-101786507D01*
X145133599Y-101572421D01*
X144998109Y-101378921D01*
X144831081Y-101211893D01*
X144637576Y-101076399D01*
X144423492Y-100976569D01*
X144210000Y-100919364D01*
X144210000Y-102376000D01*
X144193387Y-102438000D01*
X144148000Y-102483387D01*
X144086000Y-102500000D01*
X143834000Y-102500000D01*
X143772000Y-102483387D01*
X143726613Y-102438000D01*
X143710000Y-102376000D01*
X143710000Y-100919364D01*
X143709999Y-100919364D01*
X143496507Y-100976569D01*
X143282421Y-101076400D01*
X143088921Y-101211890D01*
X142921890Y-101378921D01*
X142786400Y-101572421D01*
X142686567Y-101786511D01*
X142677591Y-101820011D01*
X142648937Y-101872018D01*
X142599388Y-101904740D01*
X142540307Y-101910673D01*
X142485241Y-101888458D01*
X142446817Y-101843187D01*
X142359675Y-101668181D01*
X142236763Y-101505419D01*
X142086041Y-101368018D01*
X141912638Y-101260652D01*
X141722457Y-101186976D01*
X141655629Y-101174484D01*
X141521976Y-101149500D01*
X141318024Y-101149500D01*
X141217784Y-101168237D01*
X141117542Y-101186976D01*
X140927361Y-101260652D01*
X140753958Y-101368018D01*
X140603236Y-101505419D01*
X140480324Y-101668181D01*
X140389418Y-101850748D01*
X140333602Y-102046916D01*
X140314785Y-102249999D01*
X139985215Y-102249999D01*
X139966397Y-102046917D01*
X139910582Y-101850750D01*
X139882730Y-101794815D01*
X139819675Y-101668181D01*
X139696763Y-101505419D01*
X139546041Y-101368018D01*
X139372638Y-101260652D01*
X139182457Y-101186976D01*
X139115629Y-101174484D01*
X138981976Y-101149500D01*
X138778024Y-101149500D01*
X138677784Y-101168237D01*
X138577542Y-101186976D01*
X138387361Y-101260652D01*
X138213958Y-101368018D01*
X138063236Y-101505419D01*
X137940324Y-101668181D01*
X137849418Y-101850748D01*
X137793602Y-102046916D01*
X137774785Y-102249999D01*
X137793602Y-102453083D01*
X137849418Y-102649251D01*
X137940324Y-102831818D01*
X138063236Y-102994580D01*
X138213958Y-103131981D01*
X138237322Y-103146447D01*
X138387363Y-103239348D01*
X138468286Y-103270697D01*
X138518398Y-103306519D01*
X138545089Y-103362037D01*
X138541771Y-103423548D01*
X138509263Y-103475873D01*
X138455586Y-103506097D01*
X138416511Y-103516567D01*
X138202421Y-103616400D01*
X138008921Y-103751890D01*
X137841890Y-103918921D01*
X137706400Y-104112421D01*
X137606567Y-104326511D01*
X137597591Y-104360011D01*
X137568937Y-104412018D01*
X137519388Y-104444740D01*
X137460307Y-104450673D01*
X137405241Y-104428458D01*
X137366817Y-104383187D01*
X137279675Y-104208181D01*
X137156763Y-104045419D01*
X137006041Y-103908018D01*
X136832638Y-103800652D01*
X136642457Y-103726976D01*
X136519726Y-103704034D01*
X136441976Y-103689500D01*
X136238024Y-103689500D01*
X136160279Y-103704033D01*
X136037542Y-103726976D01*
X135847361Y-103800652D01*
X135673958Y-103908018D01*
X135523236Y-104045419D01*
X135400324Y-104208181D01*
X135309418Y-104390748D01*
X135253602Y-104586916D01*
X135234785Y-104789999D01*
X134905215Y-104789999D01*
X134886397Y-104586917D01*
X134830582Y-104390750D01*
X134798593Y-104326507D01*
X134739675Y-104208181D01*
X134616763Y-104045419D01*
X134466041Y-103908018D01*
X134292638Y-103800652D01*
X134102457Y-103726976D01*
X133979726Y-103704034D01*
X133901976Y-103689500D01*
X133698024Y-103689500D01*
X133620279Y-103704033D01*
X133497542Y-103726976D01*
X133307361Y-103800652D01*
X133133958Y-103908018D01*
X132983236Y-104045419D01*
X132860324Y-104208181D01*
X132769418Y-104390748D01*
X132713602Y-104586916D01*
X132694785Y-104789999D01*
X132365215Y-104789999D01*
X132346397Y-104586917D01*
X132290582Y-104390750D01*
X132258593Y-104326507D01*
X132199675Y-104208181D01*
X132076763Y-104045419D01*
X131926041Y-103908018D01*
X131752640Y-103800653D01*
X131733382Y-103793192D01*
X131671712Y-103769301D01*
X131621600Y-103733479D01*
X131594909Y-103677961D01*
X131598228Y-103616449D01*
X131630738Y-103564124D01*
X131684416Y-103533901D01*
X131723490Y-103523431D01*
X131937576Y-103423600D01*
X132131081Y-103288106D01*
X132298106Y-103121081D01*
X132433600Y-102927576D01*
X132533431Y-102713491D01*
X132542407Y-102679991D01*
X132571060Y-102627983D01*
X132620609Y-102595260D01*
X132679691Y-102589325D01*
X132734758Y-102611541D01*
X132773182Y-102656811D01*
X132860326Y-102831820D01*
X132983236Y-102994580D01*
X133133958Y-103131981D01*
X133157322Y-103146447D01*
X133307363Y-103239348D01*
X133497544Y-103313024D01*
X133698024Y-103350500D01*
X133901974Y-103350500D01*
X133901976Y-103350500D01*
X134102456Y-103313024D01*
X134292637Y-103239348D01*
X134466041Y-103131981D01*
X134477998Y-103121081D01*
X134616763Y-102994580D01*
X134616764Y-102994579D01*
X134739673Y-102831821D01*
X134739673Y-102831819D01*
X134739675Y-102831818D01*
X134815276Y-102679989D01*
X134830582Y-102649250D01*
X134886397Y-102453083D01*
X134905215Y-102250000D01*
X134905215Y-102249999D01*
X135234785Y-102249999D01*
X135253602Y-102453083D01*
X135309418Y-102649251D01*
X135400324Y-102831818D01*
X135523236Y-102994580D01*
X135673958Y-103131981D01*
X135697322Y-103146447D01*
X135847363Y-103239348D01*
X136037544Y-103313024D01*
X136238024Y-103350500D01*
X136441974Y-103350500D01*
X136441976Y-103350500D01*
X136642456Y-103313024D01*
X136832637Y-103239348D01*
X137006041Y-103131981D01*
X137017998Y-103121081D01*
X137156763Y-102994580D01*
X137156764Y-102994579D01*
X137279673Y-102831821D01*
X137279673Y-102831819D01*
X137279675Y-102831818D01*
X137355276Y-102679989D01*
X137370582Y-102649250D01*
X137426397Y-102453083D01*
X137445215Y-102250000D01*
X137426397Y-102046917D01*
X137370582Y-101850750D01*
X137342730Y-101794815D01*
X137279675Y-101668181D01*
X137156763Y-101505419D01*
X137006041Y-101368018D01*
X136832638Y-101260652D01*
X136642457Y-101186976D01*
X136575629Y-101174484D01*
X136441976Y-101149500D01*
X136238024Y-101149500D01*
X136137784Y-101168237D01*
X136037542Y-101186976D01*
X135847361Y-101260652D01*
X135673958Y-101368018D01*
X135523236Y-101505419D01*
X135400324Y-101668181D01*
X135309418Y-101850748D01*
X135253602Y-102046916D01*
X135234785Y-102249999D01*
X134905215Y-102249999D01*
X134886397Y-102046917D01*
X134830582Y-101850750D01*
X134802730Y-101794815D01*
X134739675Y-101668181D01*
X134616763Y-101505419D01*
X134466041Y-101368018D01*
X134292638Y-101260652D01*
X134102457Y-101186976D01*
X134035629Y-101174484D01*
X133901976Y-101149500D01*
X133698024Y-101149500D01*
X133597784Y-101168237D01*
X133497542Y-101186976D01*
X133307361Y-101260652D01*
X133133958Y-101368018D01*
X132983236Y-101505419D01*
X132860326Y-101668179D01*
X132773182Y-101843188D01*
X132734758Y-101888458D01*
X132679691Y-101910674D01*
X132620609Y-101904739D01*
X132571061Y-101872016D01*
X132542407Y-101820009D01*
X132533430Y-101786507D01*
X132433599Y-101572421D01*
X132298109Y-101378921D01*
X132131081Y-101211893D01*
X131937576Y-101076399D01*
X131723492Y-100976569D01*
X131510000Y-100919364D01*
X131510000Y-102376000D01*
X131493387Y-102438000D01*
X131448000Y-102483387D01*
X131386000Y-102500000D01*
X131134000Y-102500000D01*
X131072000Y-102483387D01*
X131026613Y-102438000D01*
X131010000Y-102376000D01*
X131010000Y-100919364D01*
X131009999Y-100919364D01*
X130796507Y-100976569D01*
X130582421Y-101076400D01*
X130388921Y-101211890D01*
X130221890Y-101378921D01*
X130086400Y-101572421D01*
X129986567Y-101786511D01*
X129977591Y-101820011D01*
X129948937Y-101872018D01*
X129899388Y-101904740D01*
X129840307Y-101910673D01*
X129785241Y-101888458D01*
X129746817Y-101843187D01*
X129659675Y-101668181D01*
X129536763Y-101505419D01*
X129386041Y-101368018D01*
X129212638Y-101260652D01*
X129022457Y-101186976D01*
X128955629Y-101174484D01*
X128821976Y-101149500D01*
X128618024Y-101149500D01*
X128517784Y-101168237D01*
X128417542Y-101186976D01*
X128227361Y-101260652D01*
X128053958Y-101368018D01*
X127903236Y-101505419D01*
X127780324Y-101668181D01*
X127689418Y-101850748D01*
X127633602Y-102046916D01*
X127614785Y-102249999D01*
X127285215Y-102249999D01*
X127266397Y-102046917D01*
X127210582Y-101850750D01*
X127182730Y-101794815D01*
X127119675Y-101668181D01*
X126996763Y-101505419D01*
X126846041Y-101368018D01*
X126672638Y-101260652D01*
X126482457Y-101186976D01*
X126415629Y-101174484D01*
X126281976Y-101149500D01*
X126078024Y-101149500D01*
X125977784Y-101168237D01*
X125877542Y-101186976D01*
X125687361Y-101260652D01*
X125513958Y-101368018D01*
X125363236Y-101505419D01*
X125240326Y-101668179D01*
X125153182Y-101843188D01*
X125114758Y-101888458D01*
X125059691Y-101910674D01*
X125000609Y-101904739D01*
X124951061Y-101872016D01*
X124922407Y-101820009D01*
X124913430Y-101786507D01*
X124813599Y-101572421D01*
X124678109Y-101378921D01*
X124511081Y-101211893D01*
X124317576Y-101076399D01*
X124103492Y-100976569D01*
X123890000Y-100919364D01*
X123890000Y-102376000D01*
X123873387Y-102438000D01*
X123828000Y-102483387D01*
X123766000Y-102500000D01*
X123514000Y-102500000D01*
X123452000Y-102483387D01*
X123406613Y-102438000D01*
X123390000Y-102376000D01*
X123390000Y-100919364D01*
X123389999Y-100919364D01*
X123176507Y-100976569D01*
X122962421Y-101076400D01*
X122768921Y-101211890D01*
X122601890Y-101378921D01*
X122466400Y-101572421D01*
X122366567Y-101786511D01*
X122357591Y-101820011D01*
X122328937Y-101872018D01*
X122279388Y-101904740D01*
X122220307Y-101910673D01*
X122165241Y-101888458D01*
X122126817Y-101843187D01*
X122039675Y-101668181D01*
X121916763Y-101505419D01*
X121766041Y-101368018D01*
X121592638Y-101260652D01*
X121402457Y-101186976D01*
X121335629Y-101174484D01*
X121201976Y-101149500D01*
X120998024Y-101149500D01*
X120897784Y-101168237D01*
X120797542Y-101186976D01*
X120607361Y-101260652D01*
X120433958Y-101368018D01*
X120283236Y-101505419D01*
X120160324Y-101668181D01*
X120069418Y-101850748D01*
X120013602Y-102046916D01*
X119994785Y-102249999D01*
X119665215Y-102249999D01*
X119646397Y-102046917D01*
X119590582Y-101850750D01*
X119562730Y-101794815D01*
X119499675Y-101668181D01*
X119376763Y-101505419D01*
X119226041Y-101368018D01*
X119052638Y-101260652D01*
X118862457Y-101186976D01*
X118795629Y-101174484D01*
X118661976Y-101149500D01*
X118458024Y-101149500D01*
X118357784Y-101168237D01*
X118257542Y-101186976D01*
X118067361Y-101260652D01*
X117893958Y-101368018D01*
X117743236Y-101505419D01*
X117620324Y-101668181D01*
X117529418Y-101850748D01*
X117473602Y-102046916D01*
X117454785Y-102249999D01*
X117473602Y-102453083D01*
X117529418Y-102649251D01*
X117620324Y-102831818D01*
X117743236Y-102994580D01*
X117893958Y-103131981D01*
X117917322Y-103146447D01*
X118067363Y-103239348D01*
X118148286Y-103270697D01*
X118198398Y-103306519D01*
X118225089Y-103362037D01*
X118221771Y-103423548D01*
X118189263Y-103475873D01*
X118135586Y-103506097D01*
X118096511Y-103516567D01*
X117882421Y-103616400D01*
X117688921Y-103751890D01*
X117521890Y-103918921D01*
X117386400Y-104112421D01*
X117286567Y-104326511D01*
X117277591Y-104360011D01*
X117248937Y-104412018D01*
X117199388Y-104444740D01*
X117140307Y-104450673D01*
X117085241Y-104428458D01*
X117046817Y-104383187D01*
X116959675Y-104208181D01*
X116836763Y-104045419D01*
X116686041Y-103908018D01*
X116512638Y-103800652D01*
X116322457Y-103726976D01*
X116199726Y-103704034D01*
X116121976Y-103689500D01*
X115918024Y-103689500D01*
X115840279Y-103704033D01*
X115717542Y-103726976D01*
X115527361Y-103800652D01*
X115353958Y-103908018D01*
X115203236Y-104045419D01*
X115080324Y-104208181D01*
X114989418Y-104390748D01*
X114933602Y-104586916D01*
X114914785Y-104790000D01*
X114585215Y-104790000D01*
X114566397Y-104586917D01*
X114510582Y-104390750D01*
X114478593Y-104326507D01*
X114419675Y-104208181D01*
X114296763Y-104045419D01*
X114146041Y-103908018D01*
X113972640Y-103800653D01*
X113953382Y-103793192D01*
X113891712Y-103769301D01*
X113841600Y-103733479D01*
X113814909Y-103677961D01*
X113818228Y-103616449D01*
X113850738Y-103564124D01*
X113904416Y-103533901D01*
X113943490Y-103523431D01*
X114157576Y-103423600D01*
X114351081Y-103288106D01*
X114518106Y-103121081D01*
X114653600Y-102927576D01*
X114753431Y-102713491D01*
X114762407Y-102679991D01*
X114791060Y-102627983D01*
X114840609Y-102595260D01*
X114899691Y-102589325D01*
X114954758Y-102611541D01*
X114993182Y-102656811D01*
X115080326Y-102831820D01*
X115203236Y-102994580D01*
X115353958Y-103131981D01*
X115377322Y-103146447D01*
X115527363Y-103239348D01*
X115717544Y-103313024D01*
X115918024Y-103350500D01*
X116121974Y-103350500D01*
X116121976Y-103350500D01*
X116322456Y-103313024D01*
X116512637Y-103239348D01*
X116686041Y-103131981D01*
X116697998Y-103121081D01*
X116836763Y-102994580D01*
X116836764Y-102994579D01*
X116959673Y-102831821D01*
X116959673Y-102831819D01*
X116959675Y-102831818D01*
X117035276Y-102679989D01*
X117050582Y-102649250D01*
X117106397Y-102453083D01*
X117125215Y-102250000D01*
X117106397Y-102046917D01*
X117050582Y-101850750D01*
X117022730Y-101794815D01*
X116959675Y-101668181D01*
X116836763Y-101505419D01*
X116686041Y-101368018D01*
X116512638Y-101260652D01*
X116322457Y-101186976D01*
X116255629Y-101174484D01*
X116121976Y-101149500D01*
X115918024Y-101149500D01*
X115817784Y-101168237D01*
X115717542Y-101186976D01*
X115527361Y-101260652D01*
X115353958Y-101368018D01*
X115203236Y-101505419D01*
X115080326Y-101668179D01*
X114993182Y-101843188D01*
X114954758Y-101888458D01*
X114899691Y-101910674D01*
X114840609Y-101904739D01*
X114791061Y-101872016D01*
X114762407Y-101820009D01*
X114753430Y-101786507D01*
X114653599Y-101572421D01*
X114518109Y-101378921D01*
X114351081Y-101211893D01*
X114157576Y-101076399D01*
X113943492Y-100976569D01*
X113730000Y-100919364D01*
X113730000Y-102376000D01*
X113713387Y-102438000D01*
X113668000Y-102483387D01*
X113606000Y-102500000D01*
X113354000Y-102500000D01*
X113292000Y-102483387D01*
X113246613Y-102438000D01*
X113230000Y-102376000D01*
X113230000Y-100919364D01*
X113229999Y-100919364D01*
X113016507Y-100976569D01*
X112802421Y-101076400D01*
X112608921Y-101211890D01*
X112441890Y-101378921D01*
X112306400Y-101572421D01*
X112206567Y-101786511D01*
X112197591Y-101820011D01*
X112168937Y-101872018D01*
X112119388Y-101904740D01*
X112060307Y-101910673D01*
X112005241Y-101888458D01*
X111966817Y-101843187D01*
X111879675Y-101668181D01*
X111756763Y-101505419D01*
X111606041Y-101368018D01*
X111432638Y-101260652D01*
X111242457Y-101186976D01*
X111175629Y-101174484D01*
X111041976Y-101149500D01*
X110838024Y-101149500D01*
X110737784Y-101168237D01*
X110637542Y-101186976D01*
X110447361Y-101260652D01*
X110273958Y-101368018D01*
X110123236Y-101505419D01*
X110000324Y-101668181D01*
X109909418Y-101850748D01*
X109853602Y-102046916D01*
X109834785Y-102249999D01*
X109505215Y-102249999D01*
X109486397Y-102046917D01*
X109430582Y-101850750D01*
X109402730Y-101794815D01*
X109339675Y-101668181D01*
X109216763Y-101505419D01*
X109066041Y-101368018D01*
X108892638Y-101260652D01*
X108702457Y-101186976D01*
X108635629Y-101174484D01*
X108501976Y-101149500D01*
X108298024Y-101149500D01*
X108197784Y-101168237D01*
X108097542Y-101186976D01*
X107907361Y-101260652D01*
X107733958Y-101368018D01*
X107583236Y-101505419D01*
X107460324Y-101668181D01*
X107369418Y-101850748D01*
X107313602Y-102046916D01*
X107294785Y-102249999D01*
X106445887Y-102249999D01*
X106387643Y-102109385D01*
X106213786Y-101794815D01*
X106005799Y-101501683D01*
X105933156Y-101420397D01*
X103853553Y-103500000D01*
X103853553Y-103500001D01*
X103146446Y-103500001D01*
X103500000Y-103146447D01*
X105579602Y-101066843D01*
X105579601Y-101066842D01*
X105498316Y-100994200D01*
X105205184Y-100786213D01*
X104893638Y-100614028D01*
X104847171Y-100569100D01*
X104829627Y-100506891D01*
X104845771Y-100444305D01*
X104891218Y-100398345D01*
X104953619Y-100381500D01*
X160046381Y-100381500D01*
X160108782Y-100398345D01*
G37*
G04 #@! TD.AperFunction*
M02*
